<svg width="40" height="40" viewBox="0 0 40 40" fill="none" xmlns="http://www.w3.org/2000/svg">
<path d="M38.3333 29.9997C38.3333 31.2497 37.9833 32.433 37.3667 33.433C37.0167 34.033 36.5667 34.5663 36.05 34.9997C34.8833 36.0497 33.35 36.6663 31.6667 36.6663C29.6333 36.6663 27.8167 35.7497 26.6167 34.3164C26.5833 34.2664 26.5333 34.233 26.5 34.183C26.3 33.9497 26.1167 33.6997 25.9667 33.433C25.35 32.433 25 31.2497 25 29.9997C25 27.8997 25.9667 26.0163 27.5 24.7997C28.65 23.883 30.1 23.333 31.6667 23.333C33.3333 23.333 34.8333 23.933 36 24.9496C36.2 25.0996 36.3833 25.2831 36.55 25.4664C37.65 26.6664 38.3333 28.2497 38.3333 29.9997Z" stroke="white" stroke-width="2.5" stroke-miterlimit="10" stroke-linecap="round" stroke-linejoin="round"/>
<path d="M34.1495 29.9668H29.1829" stroke="white" stroke-width="2.5" stroke-miterlimit="10" stroke-linecap="round" stroke-linejoin="round"/>
<path d="M31.6663 27.5322V32.5155" stroke="white" stroke-width="2.5" stroke-miterlimit="10" stroke-linecap="round" stroke-linejoin="round"/>
<path d="M5.28296 12.4023L19.9996 20.919L34.6163 12.4523" stroke="white" stroke-width="2.5" stroke-linecap="round" stroke-linejoin="round"/>
<path d="M19.9998 36.018V20.9014" stroke="white" stroke-width="2.5" stroke-linecap="round" stroke-linejoin="round"/>
<path d="M36.0167 15.283V24.7164C36.0167 24.7997 36.0167 24.8663 36.0001 24.9497C34.8334 23.933 33.3334 23.333 31.6667 23.333C30.1001 23.333 28.6501 23.883 27.5001 24.7997C25.9667 26.0164 25.0001 27.8997 25.0001 29.9997C25.0001 31.2497 25.3501 32.433 25.9667 33.433C26.1167 33.6997 26.3001 33.9497 26.5001 34.1831L23.4501 35.8664C21.5501 36.9331 18.4501 36.9331 16.5501 35.8664L7.65006 30.933C5.63339 29.8164 3.9834 27.0164 3.9834 24.7164V15.283C3.9834 12.983 5.63339 10.183 7.65006 9.06638L16.5501 4.13301C18.4501 3.06634 21.5501 3.06634 23.4501 4.13301L32.3501 9.06638C34.3667 10.183 36.0167 12.983 36.0167 15.283Z" stroke="white" stroke-width="2.5" stroke-linecap="round" stroke-linejoin="round"/>
</svg>
