<svg width="28" height="28" viewBox="0 0 28 28" fill="none" xmlns="http://www.w3.org/2000/svg">
<path d="M2.33325 10.5002V7.5835C2.33325 4.6785 4.67825 2.3335 7.58325 2.3335H10.4999" stroke="#0096FF" stroke-width="1.75" stroke-linecap="round" stroke-linejoin="round"/>
<path d="M17.5 2.3335H20.4167C23.3217 2.3335 25.6667 4.6785 25.6667 7.5835V10.5002" stroke="#0096FF" stroke-width="1.75" stroke-linecap="round" stroke-linejoin="round"/>
<path d="M25.6667 18.6665V20.4165C25.6667 23.3215 23.3217 25.6665 20.4167 25.6665H18.6667" stroke="#0096FF" stroke-width="1.75" stroke-linecap="round" stroke-linejoin="round"/>
<path d="M10.4999 25.6667H7.58325C4.67825 25.6667 2.33325 23.3217 2.33325 20.4167V17.5" stroke="#0096FF" stroke-width="1.75" stroke-linecap="round" stroke-linejoin="round"/>
<path d="M21 13.9998V11.6665M7 13.9998H14H21H7ZM7 13.9998V11.6665V13.9998ZM7 13.9998V16.3332V13.9998ZM21 13.9998V16.3332V13.9998Z" stroke="#0096FF" stroke-width="1.75" stroke-linecap="round" stroke-linejoin="round"/>
<path d="M14.0001 7H16.3334M14.0001 21V7V21ZM14.0001 21H16.3334H14.0001ZM14.0001 21H11.6667H14.0001ZM14.0001 7H11.6667H14.0001Z" stroke="#0096FF" stroke-width="1.75" stroke-linecap="round" stroke-linejoin="round"/>
</svg>
