<svg width="40" height="40" viewBox="0 0 40 40" fill="none" xmlns="http://www.w3.org/2000/svg">
<path d="M36.6666 18.333V14.9997C36.6666 6.66634 33.3333 3.33301 24.9999 3.33301H14.9999C6.66659 3.33301 3.33325 6.66634 3.33325 14.9997V24.9997C3.33325 33.333 6.66659 36.6663 14.9999 36.6663H16.6666" stroke="white" stroke-width="2.5" stroke-linecap="round" stroke-linejoin="round"/>
<path d="M3.38379 14.166H36.6671" stroke="white" stroke-width="2.5" stroke-linecap="round" stroke-linejoin="round"/>
<path d="M3.38379 25.833H20.0004" stroke="white" stroke-width="2.5" stroke-linecap="round" stroke-linejoin="round"/>
<path d="M14.1829 36.6496V3.34961" stroke="white" stroke-width="2.5" stroke-linecap="round" stroke-linejoin="round"/>
<path d="M25.8496 19.9829V3.34961" stroke="white" stroke-width="2.5" stroke-linecap="round" stroke-linejoin="round"/>
<path d="M31.2174 24.4505L24.3008 31.367C24.0341 31.6336 23.7841 32.1504 23.7174 32.5171L23.3341 35.167C23.2008 36.117 23.8675 36.8004 24.8175 36.6504L27.4674 36.2671C27.8341 36.2171 28.3508 35.9504 28.6174 35.6838L35.5341 28.7671C36.7175 27.5837 37.2841 26.1838 35.5341 24.4338C33.8008 22.7004 32.4174 23.2505 31.2174 24.4505Z" stroke="white" stroke-width="2.5" stroke-miterlimit="10" stroke-linecap="round" stroke-linejoin="round"/>
<path d="M30.2344 25.4336C30.8177 27.5336 32.4677 29.1669 34.5677 29.7669" stroke="white" stroke-width="2.5" stroke-miterlimit="10" stroke-linecap="round" stroke-linejoin="round"/>
</svg>
