<svg width="40" height="40" viewBox="0 0 40 40" fill="none" xmlns="http://www.w3.org/2000/svg">
<path d="M19.5666 29.5839H29.4333C29.2833 29.7173 29.1333 29.8339 28.9833 29.9673L21.8666 35.3006C19.5166 37.0506 15.6833 37.0506 13.3166 35.3006L6.18326 29.9673C4.6166 28.8006 3.33325 26.2173 3.33325 24.2673V11.9172C3.33325 9.88391 4.88326 7.63391 6.78326 6.91724L15.0833 3.80059C16.4499 3.28392 18.7166 3.28392 20.0833 3.80059L28.3666 6.91724C29.9499 7.51724 31.2999 9.18392 31.7166 10.8839H19.5499C19.1832 10.8839 18.8499 10.9006 18.5332 10.9006C15.4499 11.0839 14.6499 12.2006 14.6499 15.7172V24.7672C14.6666 28.6006 15.6499 29.5839 19.5666 29.5839Z" stroke="white" stroke-width="2.5" stroke-linecap="round" stroke-linejoin="round"/>
<path d="M14.6665 18.7012H36.6665" stroke="white" stroke-width="2.5" stroke-miterlimit="10" stroke-linecap="round" stroke-linejoin="round"/>
<path d="M36.6665 15.7016V24.9515C36.6332 28.6515 35.6165 29.5682 31.7665 29.5682H19.5665C15.6498 29.5682 14.6665 28.5849 14.6665 24.7349V15.6849C14.6665 12.1849 15.4665 11.0682 18.5498 10.8682C18.8665 10.8682 19.1998 10.8516 19.5665 10.8516H31.7665C35.6832 10.8682 36.6665 11.8349 36.6665 15.7016Z" stroke="white" stroke-width="2.5" stroke-linecap="round" stroke-linejoin="round"/>
<path d="M18.8667 25.4346H21.0833" stroke="white" stroke-width="2.5" stroke-miterlimit="10" stroke-linecap="round" stroke-linejoin="round"/>
<path d="M24.5833 25.4346H30.0333" stroke="white" stroke-width="2.5" stroke-miterlimit="10" stroke-linecap="round" stroke-linejoin="round"/>
</svg>
