<svg width="40" height="40" viewBox="0 0 40 40" fill="none" xmlns="http://www.w3.org/2000/svg">
<path d="M15 36.6663H25C33.3334 36.6663 36.6667 33.333 36.6667 24.9997V14.9997C36.6667 6.66634 33.3334 3.33301 25 3.33301H15C6.66671 3.33301 3.33337 6.66634 3.33337 14.9997V24.9997C3.33337 33.333 6.66671 36.6663 15 36.6663Z" stroke="white" stroke-width="2.5" stroke-linecap="round" stroke-linejoin="round"/>
<path d="M13.3334 31.6663H26.6667C30 31.6663 31.6667 29.9997 31.6667 26.6663V13.333C31.6667 9.99967 30 8.33301 26.6667 8.33301H13.3334C10 8.33301 8.33337 9.99967 8.33337 13.333V26.6663C8.33337 29.9997 10 31.6663 13.3334 31.6663Z" stroke="white" stroke-width="2.5" stroke-linecap="round" stroke-linejoin="round"/>
<path d="M8.33337 15.833H12.4667C14.7667 15.833 16.6334 17.6997 16.6334 19.9997C16.6334 22.2997 14.7667 24.1663 12.4667 24.1663H8.33337" stroke="white" stroke-width="2.5" stroke-linecap="round" stroke-linejoin="round"/>
<path d="M31.6666 16.6504H26.6666" stroke="white" stroke-width="2.5" stroke-linecap="round" stroke-linejoin="round"/>
<path d="M31.6666 23.333H26.6666" stroke="white" stroke-width="2.5" stroke-linecap="round" stroke-linejoin="round"/>
<path d="M12.0004 20H12.167" stroke="white" stroke-width="3.33333" stroke-miterlimit="10" stroke-linecap="round" stroke-linejoin="round"/>
</svg>
