<svg width="28" height="28" viewBox="0 0 28 28" fill="none" xmlns="http://www.w3.org/2000/svg">
<path d="M14 17.5C15.933 17.5 17.5 15.933 17.5 14C17.5 12.067 15.933 10.5 14 10.5C12.067 10.5 10.5 12.067 10.5 14C10.5 15.933 12.067 17.5 14 17.5Z" stroke="white" stroke-width="1.75" stroke-miterlimit="10" stroke-linecap="round" stroke-linejoin="round"/>
<path d="M2.3335 15.028V12.9746C2.3335 11.7613 3.32516 10.758 4.55016 10.758C6.66183 10.758 7.52516 9.26464 6.4635 7.43298C5.85683 6.38298 6.2185 5.01798 7.28016 4.41131L9.2985 3.25631C10.2202 2.70798 11.4102 3.03464 11.9585 3.95631L12.0868 4.17798C13.1368 6.00964 14.8635 6.00964 15.9252 4.17798L16.0535 3.95631C16.6018 3.03464 17.7918 2.70798 18.7135 3.25631L20.7318 4.41131C21.7935 5.01798 22.1552 6.38298 21.5485 7.43298C20.4868 9.26464 21.3502 10.758 23.4618 10.758C24.6752 10.758 25.6785 11.7496 25.6785 12.9746V15.028C25.6785 16.2413 24.6868 17.2446 23.4618 17.2446C21.3502 17.2446 20.4868 18.738 21.5485 20.5696C22.1552 21.6313 21.7935 22.9846 20.7318 23.5913L18.7135 24.7463C17.7918 25.2946 16.6018 24.968 16.0535 24.0463L15.9252 23.8246C14.8752 21.993 13.1485 21.993 12.0868 23.8246L11.9585 24.0463C11.4102 24.968 10.2202 25.2946 9.2985 24.7463L7.28016 23.5913C6.2185 22.9846 5.85683 21.6196 6.4635 20.5696C7.52516 18.738 6.66183 17.2446 4.55016 17.2446C3.32516 17.2446 2.3335 16.2413 2.3335 15.028Z" stroke="white" stroke-width="1.75" stroke-miterlimit="10" stroke-linecap="round" stroke-linejoin="round"/>
</svg>
