<svg width="28" height="28" viewBox="0 0 28 28" fill="none" xmlns="http://www.w3.org/2000/svg">
<path d="M5.8335 9.33301C7.76649 9.33301 9.3335 7.76601 9.3335 5.83301C9.3335 3.90001 7.76649 2.33301 5.8335 2.33301C3.9005 2.33301 2.3335 3.90001 2.3335 5.83301C2.3335 7.76601 3.9005 9.33301 5.8335 9.33301Z" stroke="#0096FF" stroke-width="1.75" stroke-linecap="round" stroke-linejoin="round"/>
<path d="M22.1665 17.5C24.0995 17.5 25.6665 15.933 25.6665 14C25.6665 12.067 24.0995 10.5 22.1665 10.5C20.2335 10.5 18.6665 12.067 18.6665 14C18.6665 15.933 20.2335 17.5 22.1665 17.5Z" stroke="#0096FF" stroke-width="1.75" stroke-linecap="round" stroke-linejoin="round"/>
<path d="M5.8335 25.667C7.76649 25.667 9.3335 24.1 9.3335 22.167C9.3335 20.234 7.76649 18.667 5.8335 18.667C3.9005 18.667 2.3335 20.234 2.3335 22.167C2.3335 24.1 3.9005 25.667 5.8335 25.667Z" stroke="#0096FF" stroke-width="1.75" stroke-linecap="round" stroke-linejoin="round"/>
<path d="M18.6668 13.9997H10.5002C7.9335 13.9997 5.8335 12.833 5.8335 9.33301V18.6663" stroke="#0096FF" stroke-width="1.75" stroke-linecap="round" stroke-linejoin="round"/>
</svg>
