<svg width="28" height="28" viewBox="0 0 28 28" fill="none" xmlns="http://www.w3.org/2000/svg">
<path d="M13.9998 16.3337C15.2885 16.3337 16.3332 15.289 16.3332 14.0003C16.3332 12.7117 15.2885 11.667 13.9998 11.667C12.7112 11.667 11.6665 12.7117 11.6665 14.0003C11.6665 15.289 12.7112 16.3337 13.9998 16.3337Z" stroke="#0096FF" stroke-width="1.75" stroke-linecap="round" stroke-linejoin="round"/>
<path d="M23.3335 21C24.8035 19.0517 25.6668 16.625 25.6668 14C25.6668 11.375 24.8035 8.94833 23.3335 7" stroke="#0096FF" stroke-width="1.75" stroke-linecap="round" stroke-linejoin="round"/>
<path d="M4.66683 7C3.19683 8.94833 2.3335 11.375 2.3335 14C2.3335 16.625 3.19683 19.0517 4.66683 21" stroke="#0096FF" stroke-width="1.75" stroke-linecap="round" stroke-linejoin="round"/>
<path d="M19.5996 18.2008C20.4746 17.0341 20.9996 15.5758 20.9996 14.0008C20.9996 12.4258 20.4746 10.9674 19.5996 9.80078" stroke="#0096FF" stroke-width="1.75" stroke-linecap="round" stroke-linejoin="round"/>
<path d="M8.40001 9.80078C7.52501 10.9674 7 12.4258 7 14.0008C7 15.5758 7.52501 17.0341 8.40001 18.2008" stroke="#0096FF" stroke-width="1.75" stroke-linecap="round" stroke-linejoin="round"/>
</svg>
