<svg preserveAspectRatio="none" width="100%" height="100%" overflow="visible" style="display: block;" viewBox="0 0 475.5 199.5" fill="none" xmlns="http://www.w3.org/2000/svg">
<path id="Vector" d="M28.1912 0.25H0.25V28.6786M28.1912 0.25V28.6786M28.1912 0.25H56.1323M28.1912 28.6786H0.25M28.1912 28.6786H56.1323M28.1912 28.6786V57.1071M0.25 28.6786V57.1071M56.1323 0.25V28.6786M56.1323 0.25H84.0735M56.1323 28.6786H84.0735M56.1323 28.6786V57.1071M84.0735 0.25V28.6786M84.0735 0.25H112.015M84.0735 28.6786H112.015M84.0735 28.6786V57.1071M112.015 0.25V28.6786M112.015 0.25H139.956M112.015 28.6786H139.956M112.015 28.6786V57.1071M139.956 0.25V28.6786M139.956 0.25H167.897M139.956 28.6786H167.897M139.956 28.6786V57.1071M167.897 0.25V28.6786M167.897 0.25H195.838M167.897 28.6786H195.838M167.897 28.6786V57.1071M195.838 0.25V28.6786M195.838 0.25H223.779M195.838 28.6786H223.779M195.838 28.6786V57.1071M223.779 0.25V28.6786M223.779 0.25H251.721M223.779 28.6786H251.721M223.779 28.6786V57.1071M251.721 0.25V28.6786M251.721 0.25H279.662M251.721 28.6786H279.662M251.721 28.6786V57.1071M279.662 0.25V28.6786M279.662 0.25H307.603M279.662 28.6786H307.603M279.662 28.6786V57.1071M307.603 0.25V28.6786M307.603 0.25H335.544M307.603 28.6786H335.544M307.603 28.6786V57.1071M335.544 0.25V28.6786M335.544 0.25H363.485M335.544 28.6786H363.485M335.544 28.6786V57.1071M363.485 0.25V28.6786M363.485 0.25H391.426M363.485 28.6786H391.426M363.485 28.6786V57.1071M391.426 0.25V28.6786M391.426 0.25H419.368M391.426 28.6786H419.368M391.426 28.6786V57.1071M419.368 0.25V28.6786M419.368 0.25H447.309M419.368 28.6786H447.309M419.368 28.6786V57.1071M447.309 0.25V28.6786M447.309 0.25H475.25V28.6786M447.309 28.6786H475.25M447.309 28.6786V57.1071M475.25 28.6786V57.1071M28.1912 57.1071H0.25M28.1912 57.1071H56.1323M28.1912 57.1071V85.5357M0.25 57.1071V85.5357M56.1323 57.1071H84.0735M56.1323 57.1071V85.5357M84.0735 57.1071H112.015M84.0735 57.1071V85.5357M112.015 57.1071H139.956M112.015 57.1071V85.5357M139.956 57.1071H167.897M139.956 57.1071V85.5357M167.897 57.1071H195.838M167.897 57.1071V85.5357M195.838 57.1071H223.779M195.838 57.1071V85.5357M223.779 57.1071H251.721M223.779 57.1071V85.5357M251.721 57.1071H279.662M251.721 57.1071V85.5357M279.662 57.1071H307.603M279.662 57.1071V85.5357M307.603 57.1071H335.544M307.603 57.1071V85.5357M335.544 57.1071H363.485M335.544 57.1071V85.5357M363.485 57.1071H391.426M363.485 57.1071V85.5357M391.426 57.1071H419.368M391.426 57.1071V85.5357M419.368 57.1071H447.309M419.368 57.1071V85.5357M447.309 57.1071H475.25M447.309 57.1071V85.5357M475.25 57.1071V85.5357M28.1912 85.5357H0.25M28.1912 85.5357H56.1323M28.1912 85.5357V113.964M0.25 85.5357V113.964M56.1323 85.5357H84.0735M56.1323 85.5357V113.964M84.0735 85.5357H112.015M84.0735 85.5357V113.964M112.015 85.5357H139.956M112.015 85.5357V113.964M139.956 85.5357H167.897M139.956 85.5357V113.964M167.897 85.5357H195.838M167.897 85.5357V113.964M195.838 85.5357H223.779M195.838 85.5357V113.964M223.779 85.5357H251.721M223.779 85.5357V113.964M251.721 85.5357H279.662M251.721 85.5357V113.964M279.662 85.5357H307.603M279.662 85.5357V113.964M307.603 85.5357H335.544M307.603 85.5357V113.964M335.544 85.5357H363.485M335.544 85.5357V113.964M363.485 85.5357H391.426M363.485 85.5357V113.964M391.426 85.5357H419.368M391.426 85.5357V113.964M419.368 85.5357H447.309M419.368 85.5357V113.964M447.309 85.5357H475.25M447.309 85.5357V113.964M475.25 85.5357V113.964M28.1912 113.964H0.25M28.1912 113.964H56.1323M28.1912 113.964V142.393M0.25 113.964V142.393M56.1323 113.964H84.0735M56.1323 113.964V142.393M84.0735 113.964H112.015M84.0735 113.964V142.393M112.015 113.964H139.956M112.015 113.964V142.393M139.956 113.964H167.897M139.956 113.964V142.393M167.897 113.964H195.838M167.897 113.964V142.393M195.838 113.964H223.779M195.838 113.964V142.393M223.779 113.964H251.721M223.779 113.964V142.393M251.721 113.964H279.662M251.721 113.964V142.393M279.662 113.964H307.603M279.662 113.964V142.393M307.603 113.964H335.544M307.603 113.964V142.393M335.544 113.964H363.485M335.544 113.964V142.393M363.485 113.964H391.426M363.485 113.964V142.393M391.426 113.964H419.368M391.426 113.964V142.393M419.368 113.964H447.309M419.368 113.964V142.393M447.309 113.964H475.25M447.309 113.964V142.393M475.25 113.964V142.393M28.1912 142.393H0.25M28.1912 142.393H56.1323M28.1912 142.393V170.821M0.25 142.393V170.821M56.1323 142.393H84.0735M56.1323 142.393V170.821M84.0735 142.393H112.015M84.0735 142.393V170.821M112.015 142.393H139.956M112.015 142.393V170.821M139.956 142.393H167.897M139.956 142.393V170.821M167.897 142.393H195.838M167.897 142.393V170.821M195.838 142.393H223.779M195.838 142.393V170.821M223.779 142.393H251.721M223.779 142.393V170.821M251.721 142.393H279.662M251.721 142.393V170.821M279.662 142.393H307.603M279.662 142.393V170.821M307.603 142.393H335.544M307.603 142.393V170.821M335.544 142.393H363.485M335.544 142.393V170.821M363.485 142.393H391.426M363.485 142.393V170.821M391.426 142.393H419.368M391.426 142.393V170.821M419.368 142.393H447.309M419.368 142.393V170.821M447.309 142.393H475.25M447.309 142.393V170.821M475.25 142.393V170.821M28.1912 170.821H0.25M28.1912 170.821H56.1323M28.1912 170.821V199.25M0.25 170.821V199.25H28.1912M56.1323 170.821H84.0735M56.1323 170.821V199.25M84.0735 170.821H112.015M84.0735 170.821V199.25M112.015 170.821H139.956M112.015 170.821V199.25M139.956 170.821H167.897M139.956 170.821V199.25M167.897 170.821H195.838M167.897 170.821V199.25M195.838 170.821H223.779M195.838 170.821V199.25M223.779 170.821H251.721M223.779 170.821V199.25M251.721 170.821H279.662M251.721 170.821V199.25M279.662 170.821H307.603M279.662 170.821V199.25M307.603 170.821H335.544M307.603 170.821V199.25M335.544 170.821H363.485M335.544 170.821V199.25M363.485 170.821H391.426M363.485 170.821V199.25M391.426 170.821H419.368M391.426 170.821V199.25M419.368 170.821H447.309M419.368 170.821V199.25M447.309 170.821H475.25M447.309 170.821V199.25M475.25 170.821V199.25H447.309M28.1912 199.25H56.1323M56.1323 199.25H84.0735M84.0735 199.25H112.015M112.015 199.25H139.956M139.956 199.25H167.897M167.897 199.25H195.838M195.838 199.25H223.779M223.779 199.25H251.721M251.721 199.25H279.662M279.662 199.25H307.603M307.603 199.25H335.544M335.544 199.25H363.485M363.485 199.25H391.426M391.426 199.25H419.368M419.368 199.25H447.309" stroke="url(#paint0_radial_158966_36879)" stroke-opacity="0.08" stroke-width="0.5"/>
<defs>
<radialGradient id="paint0_radial_158966_36879" cx="0" cy="0" r="1" gradientUnits="userSpaceOnUse" gradientTransform="translate(290.75 104.75) rotate(-179.876) scale(231.001 73.4792)">
<stop stop-color="white" stop-opacity="0.5"/>
<stop offset="1" stop-color="white" stop-opacity="0"/>
</radialGradient>
</defs>
</svg>
