<svg width="282" height="199" viewBox="0 0 282 199" fill="none" xmlns="http://www.w3.org/2000/svg">
<path d="M-165.059 199H-193V170.571M-165.059 199V170.571M-165.059 199H-137.118M-165.059 170.571H-193M-165.059 170.571H-137.118M-165.059 170.571V142.143M-193 170.571V142.143M-137.118 199V170.571M-137.118 199H-109.176M-137.118 170.571H-109.176M-137.118 170.571V142.143M-109.176 199V170.571M-109.176 199H-81.2353M-109.176 170.571H-81.2353M-109.176 170.571V142.143M-81.2353 199V170.571M-81.2353 199L-53.2941 199M-81.2353 170.571L-53.2941 170.571M-81.2353 170.571V142.143M-53.2941 199V170.571M-53.2941 199H-25.353M-53.2941 170.571H-25.353M-53.2941 170.571V142.143M-25.353 199V170.571M-25.353 199H2.5882M-25.353 170.571H2.5882M-25.353 170.571V142.143M2.5882 199V170.571M2.5882 199H30.5294M2.5882 170.571H30.5294M2.5882 170.571V142.143M30.5294 199V170.571M30.5294 199H58.4706M30.5294 170.571H58.4706M30.5294 170.571V142.143M58.4706 199V170.571M58.4706 199H86.4118M58.4706 170.571H86.4118M58.4706 170.571V142.143M86.4118 199V170.571M86.4118 199H114.353M86.4118 170.571H114.353M86.4118 170.571V142.143M114.353 199V170.571M114.353 199H142.294M114.353 170.571L142.294 170.571M114.353 170.571V142.143M142.294 199V170.571M142.294 199L170.235 199M142.294 170.571H170.235M142.294 170.571V142.143M170.235 199V170.571M170.235 199H198.176M170.235 170.571H198.176M170.235 170.571V142.143M198.176 199V170.571M198.176 199H226.118M198.176 170.571H226.118M198.176 170.571V142.143M226.118 199V170.571M226.118 199H254.059M226.118 170.571H254.059M226.118 170.571V142.143M254.059 199V170.571M254.059 199H282V170.571M254.059 170.571H282M254.059 170.571V142.143M282 170.571V142.143M-165.059 142.143H-193M-165.059 142.143H-137.118M-165.059 142.143V113.714M-193 142.143V113.714M-137.118 142.143H-109.176M-137.118 142.143V113.714M-109.176 142.143H-81.2353M-109.176 142.143L-109.176 113.714M-81.2353 142.143H-53.2941M-81.2353 142.143L-81.2353 113.714M-53.2941 142.143L-25.353 142.143M-53.2941 142.143V113.714M-25.353 142.143H2.5882M-25.353 142.143V113.714M2.5882 142.143H30.5294M2.5882 142.143V113.714M30.5294 142.143H58.4706M30.5294 142.143V113.714M58.4706 142.143H86.4118M58.4706 142.143V113.714M86.4118 142.143H114.353M86.4118 142.143V113.714M114.353 142.143L142.294 142.143M114.353 142.143V113.714M142.294 142.143H170.235M142.294 142.143V113.714M170.235 142.143H198.176M170.235 142.143V113.714M198.176 142.143H226.118M198.176 142.143V113.714M226.118 142.143H254.059M226.118 142.143V113.714M254.059 142.143H282M254.059 142.143V113.714M282 142.143V113.714M-165.059 113.714H-193M-165.059 113.714H-137.118M-165.059 113.714V85.2857M-193 113.714V85.2857M-137.118 113.714L-109.176 113.714M-137.118 113.714V85.2857M-109.176 113.714H-81.2353M-109.176 113.714V85.2857M-81.2353 113.714H-53.2941M-81.2353 113.714V85.2857M-53.2941 113.714H-25.353M-53.2941 113.714V85.2857M-25.353 113.714L2.5882 113.714M-25.353 113.714V85.2857M2.5882 113.714H30.5294M2.5882 113.714V85.2857M30.5294 113.714H58.4706M30.5294 113.714V85.2857M58.4706 113.714H86.4118M58.4706 113.714V85.2857M86.4118 113.714L114.353 113.714M86.4118 113.714V85.2857M114.353 113.714H142.294M114.353 113.714V85.2857M142.294 113.714H170.235M142.294 113.714V85.2857M170.235 113.714H198.176M170.235 113.714V85.2857M198.176 113.714L226.118 113.714M198.176 113.714V85.2857M226.118 113.714H254.059M226.118 113.714V85.2857M254.059 113.714H282M254.059 113.714V85.2857M282 113.714V85.2857M-165.059 85.2857H-193M-165.059 85.2857H-137.118M-165.059 85.2857L-165.059 56.8571M-193 85.2857L-193 56.8571M-137.118 85.2857L-109.176 85.2857M-137.118 85.2857V56.8571M-109.176 85.2857H-81.2353M-109.176 85.2857V56.8571M-81.2353 85.2857H-53.2941M-81.2353 85.2857V56.8571M-53.2941 85.2857H-25.353M-53.2941 85.2857L-53.2941 56.8571M-25.353 85.2857L2.5882 85.2857M-25.353 85.2857L-25.353 56.8571M2.5882 85.2857H30.5294M2.5882 85.2857L2.5882 56.8571M30.5294 85.2857H58.4706M30.5294 85.2857L30.5294 56.8571M58.4706 85.2857H86.4118M58.4706 85.2857L58.4706 56.8571M86.4118 85.2857L114.353 85.2857M86.4118 85.2857V56.8571M114.353 85.2857H142.294M114.353 85.2857V56.8571M142.294 85.2857H170.235M142.294 85.2857V56.8571M170.235 85.2857H198.176M170.235 85.2857V56.8571M198.176 85.2857L226.118 85.2857M198.176 85.2857V56.8571M226.118 85.2857H254.059M226.118 85.2857V56.8571M254.059 85.2857H282M254.059 85.2857V56.8571M282 85.2857V56.8571M-165.059 56.8571H-193M-165.059 56.8571H-137.118M-165.059 56.8571V28.4286M-193 56.8571V28.4286M-137.118 56.8571H-109.176M-137.118 56.8571L-137.118 28.4286M-109.176 56.8571H-81.2353M-109.176 56.8571V28.4286M-81.2353 56.8571L-53.2941 56.8571M-81.2353 56.8571V28.4286M-53.2941 56.8571H-25.353M-53.2941 56.8571V28.4286M-25.353 56.8571H2.5882M-25.353 56.8571V28.4286M2.5882 56.8571H30.5294M2.5882 56.8571V28.4286M30.5294 56.8571H58.4706M30.5294 56.8571V28.4286M58.4706 56.8571H86.4118M58.4706 56.8571V28.4286M86.4118 56.8571H114.353M86.4118 56.8571V28.4286M114.353 56.8571H142.294M114.353 56.8571V28.4286M142.294 56.8571L170.235 56.8571M142.294 56.8571V28.4286M170.235 56.8571H198.176M170.235 56.8571V28.4286M198.176 56.8571H226.118M198.176 56.8571V28.4286M226.118 56.8571H254.059M226.118 56.8571V28.4286M254.059 56.8571H282M254.059 56.8571V28.4286M282 56.8571V28.4286M-165.059 28.4286H-193M-165.059 28.4286H-137.118M-165.059 28.4286V5.70508e-06M-193 28.4286V5.70508e-06H-165.059M-137.118 28.4286H-109.176M-137.118 28.4286V5.70508e-06M-109.176 28.4286H-81.2353M-109.176 28.4286L-109.176 5.70508e-06M-81.2353 28.4286L-53.2941 28.4286M-81.2353 28.4286L-81.2353 5.70508e-06M-53.2941 28.4286H-25.353M-53.2941 28.4286V5.70508e-06M-25.353 28.4286H2.5882M-25.353 28.4286V5.70508e-06M2.5882 28.4286H30.5294M2.5882 28.4286V5.70508e-06M30.5294 28.4286H58.4706M30.5294 28.4286V5.70508e-06M58.4706 28.4286H86.4118M58.4706 28.4286V5.70508e-06M86.4118 28.4286H114.353M86.4118 28.4286V5.70508e-06M114.353 28.4286H142.294M114.353 28.4286V5.70508e-06M142.294 28.4286L170.235 28.4286M142.294 28.4286V5.70508e-06M170.235 28.4286H198.176M170.235 28.4286V5.70508e-06M198.176 28.4286H226.118M198.176 28.4286V5.70508e-06M226.118 28.4286H254.059M226.118 28.4286V5.70508e-06M254.059 28.4286H282M254.059 28.4286V5.70508e-06M282 28.4286V5.70508e-06H254.059M-165.059 5.70508e-06H-137.118M-137.118 5.70508e-06H-109.176M-109.176 5.70508e-06H-81.2353M-81.2353 5.70508e-06L-53.2941 5.70508e-06M-53.2941 5.70508e-06H-25.353M-25.353 5.70508e-06H2.5882M2.5882 5.70508e-06H30.5294M30.5294 5.70508e-06H58.4706M58.4706 5.70508e-06H86.4118M86.4118 5.70508e-06H114.353M114.353 5.70508e-06H142.294M142.294 5.70508e-06L170.235 5.70508e-06M170.235 5.70508e-06H198.176M198.176 5.70508e-06H226.118M226.118 5.70508e-06H254.059" stroke="url(#paint0_radial_159035_5945)" stroke-opacity="0.08" stroke-width="0.5"/>
<defs>
<radialGradient id="paint0_radial_159035_5945" cx="0" cy="0" r="1" gradientUnits="userSpaceOnUse" gradientTransform="translate(97.5 94.5) rotate(179.876) scale(231.001 73.4792)">
<stop stop-color="white" stop-opacity="0.5"/>
<stop offset="1" stop-color="white" stop-opacity="0"/>
</radialGradient>
</defs>
</svg>
