<svg width="40" height="40" viewBox="0 0 40 40" fill="none" xmlns="http://www.w3.org/2000/svg">
<path d="M20.0002 24.1663C22.3013 24.1663 24.1668 22.3009 24.1668 19.9997C24.1668 17.6985 22.3013 15.833 20.0002 15.833C17.699 15.833 15.8335 17.6985 15.8335 19.9997C15.8335 22.3009 17.699 24.1663 20.0002 24.1663Z" stroke="white" stroke-width="2.5" stroke-miterlimit="10" stroke-linecap="round" stroke-linejoin="round"/>
<path d="M30.8335 15.833V24.1663" stroke="white" stroke-width="2.5" stroke-miterlimit="10" stroke-linecap="round" stroke-linejoin="round"/>
<path d="M14.9998 29.9997C14.9998 31.2497 14.6499 32.433 14.0332 33.433C12.8832 35.3663 10.7665 36.6663 8.33317 36.6663C5.89984 36.6663 3.78315 35.3663 2.63315 33.433C2.01648 32.433 1.6665 31.2497 1.6665 29.9997C1.6665 26.3163 4.64984 23.333 8.33317 23.333C12.0165 23.333 14.9998 26.3163 14.9998 29.9997Z" stroke="white" stroke-width="2.5" stroke-miterlimit="10" stroke-linecap="round" stroke-linejoin="round"/>
<path d="M5.73535 29.9985L7.38534 31.6485L10.9353 28.3652" stroke="white" stroke-width="2.5" stroke-linecap="round" stroke-linejoin="round"/>
<path d="M3.3335 25.5003V15.0003C3.3335 9.16699 6.66683 6.66699 11.6668 6.66699H28.3335C33.3335 6.66699 36.6668 9.16699 36.6668 15.0003V25.0003C36.6668 30.8337 33.3335 33.3337 28.3335 33.3337H14.1668" stroke="white" stroke-width="2.5" stroke-miterlimit="10" stroke-linecap="round" stroke-linejoin="round"/>
</svg>
