<svg width="686" height="500" viewBox="0 0 686 500" fill="none" xmlns="http://www.w3.org/2000/svg">
<g clip-path="url(#clip0_1075_43407)">
<g filter="url(#filter0_f_1075_43407)">
<ellipse cx="357" cy="209" rx="211" ry="48" fill="white" fill-opacity="0.15"/>
</g>
<path d="M202.282 82.7209H160.895V125.415H202.282V82.7209Z" fill="url(#paint0_linear_1075_43407)" fill-opacity="0.02"/>
<path d="M363.93 208.484H322.542V251.179H363.93V208.484Z" fill="url(#paint1_linear_1075_43407)" fill-opacity="0.01"/>
<path d="M565.463 124.349H524.075V167.044H565.463V124.349Z" fill="url(#paint2_linear_1075_43407)" fill-opacity="0.01"/>
<path d="M40.3531 0H0V41.6272M40.3531 0V41.6272M40.3531 0H80.7062M40.3531 41.6272H0M40.3531 41.6272H80.7062M40.3531 41.6272V83.2545M0 41.6272V83.2545M80.7062 0V41.6272M80.7062 0H121.059M80.7062 41.6272H121.059M80.7062 41.6272V83.2545M121.059 0V41.6272M121.059 0H161.412M121.059 41.6272H161.412M121.059 41.6272V83.2545M161.412 0V41.6272M161.412 0H201.766M161.412 41.6272H201.766M161.412 41.6272V83.2545M201.766 0V41.6272M201.766 0H242.119M201.766 41.6272H242.119M201.766 41.6272V83.2545M242.119 0V41.6272M242.119 0H282.472M242.119 41.6272H282.472M242.119 41.6272V83.2545M282.472 0V41.6272M282.472 0H322.825M282.472 41.6272H322.825M282.472 41.6272V83.2545M322.825 0V41.6272M322.825 0H363.178M322.825 41.6272H363.178M322.825 41.6272V83.2545M363.178 0V41.6272M363.178 0H403.531M363.178 41.6272H403.531M363.178 41.6272V83.2545M403.531 0V41.6272M403.531 0H443.884M403.531 41.6272H443.884M403.531 41.6272V83.2545M443.884 0V41.6272M443.884 0H484.237M443.884 41.6272H484.237M443.884 41.6272V83.2545M484.237 0V41.6272M484.237 0H524.59M484.237 41.6272H524.59M484.237 41.6272V83.2545M524.59 0V41.6272M524.59 0H564.944M524.59 41.6272H564.944M524.59 41.6272V83.2545M564.944 0V41.6272M564.944 0H605.297M564.944 41.6272H605.297M564.944 41.6272V83.2545M605.297 0V41.6272M605.297 0H645.65M605.297 41.6272H645.65M605.297 41.6272V83.2545M645.65 0V41.6272M645.65 0H686.003V41.6272M645.65 41.6272H686.003M645.65 41.6272V83.2545M686.003 41.6272V83.2545M40.3531 83.2545H0M40.3531 83.2545H80.7062M40.3531 83.2545V124.882M0 83.2545V124.882M80.7062 83.2545H121.059M80.7062 83.2545V124.882M121.059 83.2545H161.412M121.059 83.2545V124.882M161.412 83.2545H201.766M161.412 83.2545V124.882M201.766 83.2545H242.119M201.766 83.2545V124.882M242.119 83.2545H282.472M242.119 83.2545V124.882M282.472 83.2545H322.825M282.472 83.2545V124.882M322.825 83.2545H363.178M322.825 83.2545V124.882M363.178 83.2545H403.531M363.178 83.2545V124.882M403.531 83.2545H443.884M403.531 83.2545V124.882M443.884 83.2545H484.237M443.884 83.2545V124.882M484.237 83.2545H524.59M484.237 83.2545V124.882M524.59 83.2545H564.944M524.59 83.2545V124.882M564.944 83.2545H605.297M564.944 83.2545V124.882M605.297 83.2545H645.65M605.297 83.2545V124.882M645.65 83.2545H686.003M645.65 83.2545V124.882M686.003 83.2545V124.882M40.3531 124.882H0M40.3531 124.882H80.7062M40.3531 124.882V166.509M0 124.882V166.509M80.7062 124.882H121.059M80.7062 124.882V166.509M121.059 124.882H161.412M121.059 124.882V166.509M161.412 124.882H201.766M161.412 124.882V166.509M201.766 124.882H242.119M201.766 124.882V166.509M242.119 124.882H282.472M242.119 124.882V166.509M282.472 124.882H322.825M282.472 124.882V166.509M322.825 124.882H363.178M322.825 124.882V166.509M363.178 124.882H403.531M363.178 124.882V166.509M403.531 124.882H443.884M403.531 124.882V166.509M443.884 124.882H484.237M443.884 124.882V166.509M484.237 124.882H524.59M484.237 124.882V166.509M524.59 124.882H564.944M524.59 124.882V166.509M564.944 124.882H605.297M564.944 124.882V166.509M605.297 124.882H645.65M605.297 124.882V166.509M645.65 124.882H686.003M645.65 124.882V166.509M686.003 124.882V166.509M40.3531 166.509H0M40.3531 166.509H80.7062M40.3531 166.509V208.136M0 166.509V208.136M80.7062 166.509H121.059M80.7062 166.509V208.136M121.059 166.509H161.412M121.059 166.509V208.136M161.412 166.509H201.766M161.412 166.509V208.136M201.766 166.509H242.119M201.766 166.509V208.136M242.119 166.509H282.472M242.119 166.509V208.136M282.472 166.509H322.825M282.472 166.509V208.136M322.825 166.509H363.178M322.825 166.509V208.136M363.178 166.509H403.531M363.178 166.509V208.136M403.531 166.509H443.884M403.531 166.509V208.136M443.884 166.509H484.237M443.884 166.509V208.136M484.237 166.509H524.59M484.237 166.509V208.136M524.59 166.509H564.944M524.59 166.509V208.136M564.944 166.509H605.297M564.944 166.509V208.136M605.297 166.509H645.65M605.297 166.509V208.136M645.65 166.509H686.003M645.65 166.509V208.136M686.003 166.509V208.136M40.3531 208.136H0M40.3531 208.136H80.7062M40.3531 208.136V249.763M0 208.136V249.763M80.7062 208.136H121.059M80.7062 208.136V249.763M121.059 208.136H161.412M121.059 208.136V249.763M161.412 208.136H201.766M161.412 208.136V249.763M201.766 208.136H242.119M201.766 208.136V249.763M242.119 208.136H282.472M242.119 208.136V249.763M282.472 208.136H322.825M282.472 208.136V249.763M322.825 208.136H363.178M322.825 208.136V249.763M363.178 208.136H403.531M363.178 208.136V249.763M403.531 208.136H443.884M403.531 208.136V249.763M443.884 208.136H484.237M443.884 208.136V249.763M484.237 208.136H524.59M484.237 208.136V249.763M524.59 208.136H564.944M524.59 208.136V249.763M564.944 208.136H605.297M564.944 208.136V249.763M605.297 208.136H645.65M605.297 208.136V249.763M645.65 208.136H686.003M645.65 208.136V249.763M686.003 208.136V249.763M40.3531 249.763H0M40.3531 249.763H80.7062M40.3531 249.763V291.391M0 249.763V291.391M80.7062 249.763H121.059M80.7062 249.763V291.391M121.059 249.763H161.412M121.059 249.763V291.391M161.412 249.763H201.766M161.412 249.763V291.391M201.766 249.763H242.119M201.766 249.763V291.391M242.119 249.763H282.472M242.119 249.763V291.391M282.472 249.763H322.825M282.472 249.763V291.391M322.825 249.763H363.178M322.825 249.763V291.391M363.178 249.763H403.531M363.178 249.763V291.391M403.531 249.763H443.884M403.531 249.763V291.391M443.884 249.763H484.237M443.884 249.763V291.391M484.237 249.763H524.59M484.237 249.763V291.391M524.59 249.763H564.944M524.59 249.763V291.391M564.944 249.763H605.297M564.944 249.763V291.391M605.297 249.763H645.65M605.297 249.763V291.391M645.65 249.763H686.003M645.65 249.763V291.391M686.003 249.763V291.391M40.3531 291.391H0M40.3531 291.391H80.7062M40.3531 291.391V333.018M0 291.391V333.018M80.7062 291.391H121.059M80.7062 291.391V333.018M121.059 291.391H161.412M121.059 291.391V333.018M161.412 291.391H201.766M161.412 291.391V333.018M201.766 291.391H242.119M201.766 291.391V333.018M242.119 291.391H282.472M242.119 291.391V333.018M282.472 291.391H322.825M282.472 291.391V333.018M322.825 291.391H363.178M322.825 291.391V333.018M363.178 291.391H403.531M363.178 291.391V333.018M403.531 291.391H443.884M403.531 291.391V333.018M443.884 291.391H484.237M443.884 291.391V333.018M484.237 291.391H524.59M484.237 291.391V333.018M524.59 291.391H564.944M524.59 291.391V333.018M564.944 291.391H605.297M564.944 291.391V333.018M605.297 291.391H645.65M605.297 291.391V333.018M645.65 291.391H686.003M645.65 291.391V333.018M686.003 291.391V333.018M40.3531 333.018H0M40.3531 333.018H80.7062M40.3531 333.018V374.645M0 333.018V374.645M80.7062 333.018H121.059M80.7062 333.018V374.645M121.059 333.018H161.412M121.059 333.018V374.645M161.412 333.018H201.766M161.412 333.018V374.645M201.766 333.018H242.119M201.766 333.018V374.645M242.119 333.018H282.472M242.119 333.018V374.645M282.472 333.018H322.825M282.472 333.018V374.645M322.825 333.018H363.178M322.825 333.018V374.645M363.178 333.018H403.531M363.178 333.018V374.645M403.531 333.018H443.884M403.531 333.018V374.645M443.884 333.018H484.237M443.884 333.018V374.645M484.237 333.018H524.59M484.237 333.018V374.645M524.59 333.018H564.944M524.59 333.018V374.645M564.944 333.018H605.297M564.944 333.018V374.645M605.297 333.018H645.65M605.297 333.018V374.645M645.65 333.018H686.003M645.65 333.018V374.645M686.003 333.018V374.645M40.3531 374.645H0M40.3531 374.645H80.7062M40.3531 374.645V416.272M0 374.645V416.272M80.7062 374.645H121.059M80.7062 374.645V416.272M121.059 374.645H161.412M121.059 374.645V416.272M161.412 374.645H201.766M161.412 374.645V416.272M201.766 374.645H242.119M201.766 374.645V416.272M242.119 374.645H282.472M242.119 374.645V416.272M282.472 374.645H322.825M282.472 374.645V416.272M322.825 374.645H363.178M322.825 374.645V416.272M363.178 374.645H403.531M363.178 374.645V416.272M403.531 374.645H443.884M403.531 374.645V416.272M443.884 374.645H484.237M443.884 374.645V416.272M484.237 374.645H524.59M484.237 374.645V416.272M524.59 374.645H564.944M524.59 374.645V416.272M564.944 374.645H605.297M564.944 374.645V416.272M605.297 374.645H645.65M605.297 374.645V416.272M645.65 374.645H686.003M645.65 374.645V416.272M686.003 374.645V416.272M40.3531 416.272H0M40.3531 416.272H80.7062M40.3531 416.272V457.9M0 416.272V457.9M80.7062 416.272H121.059M80.7062 416.272V457.9M121.059 416.272H161.412M121.059 416.272V457.9M161.412 416.272H201.766M161.412 416.272V457.9M201.766 416.272H242.119M201.766 416.272V457.9M242.119 416.272H282.472M242.119 416.272V457.9M282.472 416.272H322.825M282.472 416.272V457.9M322.825 416.272H363.178M322.825 416.272V457.9M363.178 416.272H403.531M363.178 416.272V457.9M403.531 416.272H443.884M403.531 416.272V457.9M443.884 416.272H484.237M443.884 416.272V457.9M484.237 416.272H524.59M484.237 416.272V457.9M524.59 416.272H564.944M524.59 416.272V457.9M564.944 416.272H605.297M564.944 416.272V457.9M605.297 416.272H645.65M605.297 416.272V457.9M645.65 416.272H686.003M645.65 416.272V457.9M686.003 416.272V457.9M40.3531 457.9H0M40.3531 457.9H80.7062M40.3531 457.9V499.527M0 457.9V499.527H40.3531M80.7062 457.9H121.059M80.7062 457.9V499.527M121.059 457.9H161.412M121.059 457.9V499.527M161.412 457.9H201.766M161.412 457.9V499.527M201.766 457.9H242.119M201.766 457.9V499.527M242.119 457.9H282.472M242.119 457.9V499.527M282.472 457.9H322.825M282.472 457.9V499.527M322.825 457.9H363.178M322.825 457.9V499.527M363.178 457.9H403.531M363.178 457.9V499.527M403.531 457.9H443.884M403.531 457.9V499.527M443.884 457.9H484.237M443.884 457.9V499.527M484.237 457.9H524.59M484.237 457.9V499.527M524.59 457.9H564.944M524.59 457.9V499.527M564.944 457.9H605.297M564.944 457.9V499.527M605.297 457.9H645.65M605.297 457.9V499.527M645.65 457.9H686.003M645.65 457.9V499.527M686.003 457.9V499.527H645.65M40.3531 499.527H80.7062M80.7062 499.527H121.059M121.059 499.527H161.412M161.412 499.527H201.766M201.766 499.527H242.119M242.119 499.527H282.472M282.472 499.527H322.825M322.825 499.527H363.178M363.178 499.527H403.531M403.531 499.527H443.884M443.884 499.527H484.237M484.237 499.527H524.59M524.59 499.527H564.944M564.944 499.527H605.297M605.297 499.527H645.65" stroke="url(#paint3_radial_1075_43407)" stroke-opacity="0.08"/>
</g>
<defs>
<filter id="filter0_f_1075_43407" x="-34" y="-19" width="782" height="456" filterUnits="userSpaceOnUse" color-interpolation-filters="sRGB">
<feFlood flood-opacity="0" result="BackgroundImageFix"/>
<feBlend mode="normal" in="SourceGraphic" in2="BackgroundImageFix" result="shape"/>
<feGaussianBlur stdDeviation="90" result="effect1_foregroundBlur_1075_43407"/>
</filter>
<linearGradient id="paint0_linear_1075_43407" x1="181.588" y1="82.7209" x2="181.588" y2="125.415" gradientUnits="userSpaceOnUse">
<stop stop-color="white" stop-opacity="0"/>
<stop offset="1" stop-color="white"/>
</linearGradient>
<linearGradient id="paint1_linear_1075_43407" x1="343.236" y1="208.484" x2="343.236" y2="251.179" gradientUnits="userSpaceOnUse">
<stop stop-color="white" stop-opacity="0"/>
<stop offset="1" stop-color="white"/>
</linearGradient>
<linearGradient id="paint2_linear_1075_43407" x1="544.769" y1="124.349" x2="544.769" y2="167.044" gradientUnits="userSpaceOnUse">
<stop stop-color="white" stop-opacity="0"/>
<stop offset="1" stop-color="white"/>
</linearGradient>
<radialGradient id="paint3_radial_1075_43407" cx="0" cy="0" r="1" gradientUnits="userSpaceOnUse" gradientTransform="translate(343.001 191.4) scale(325.522 174.86)">
<stop stop-color="white" stop-opacity="0.5"/>
<stop offset="1" stop-color="white" stop-opacity="0"/>
</radialGradient>
<clipPath id="clip0_1075_43407">
<rect width="686.003" height="499.527" fill="white" transform="matrix(-1 0 0 1 686.003 0)"/>
</clipPath>
</defs>
</svg>
