<svg width="28" height="28" viewBox="0 0 28 28" fill="none" xmlns="http://www.w3.org/2000/svg">
<path d="M26.8333 18.6318C26.8333 23.1468 23.1817 26.7985 18.6667 26.7985L19.8917 24.7568" stroke="white" stroke-width="1.75" stroke-linecap="round" stroke-linejoin="round"/>
<path d="M1.16667 9.2985C1.16667 4.7835 4.81834 1.13184 9.33334 1.13184L8.10834 3.1735" stroke="white" stroke-width="1.75" stroke-linecap="round" stroke-linejoin="round"/>
<path d="M7.72374 15.249H11.0021C11.7254 15.249 12.3204 15.9024 12.3204 16.5674C12.3204 17.2907 11.7371 17.8857 11.0021 17.8857H7.72374V15.249Z" stroke="white" stroke-width="1.75" stroke-miterlimit="10" stroke-linecap="round" stroke-linejoin="round"/>
<path d="M7.72374 17.8857H11.4804C12.3087 17.8857 12.9854 18.4691 12.9854 19.2041C12.9854 19.9274 12.3087 20.5224 11.4804 20.5224H7.72374V17.8857Z" stroke="white" stroke-width="1.75" stroke-miterlimit="10" stroke-linecap="round" stroke-linejoin="round"/>
<path d="M9.82374 20.5107V21.8174" stroke="white" stroke-width="1.75" stroke-miterlimit="10" stroke-linecap="round" stroke-linejoin="round"/>
<path d="M9.82374 13.9424V15.249" stroke="white" stroke-width="1.75" stroke-miterlimit="10" stroke-linecap="round" stroke-linejoin="round"/>
<path d="M17.325 17.8849C17.325 21.8632 14.105 25.0832 10.1267 25.0832C6.14833 25.0832 2.92833 21.8632 2.92833 17.8849C2.92833 13.9066 6.14833 10.6865 10.1267 10.6865C10.3133 10.6865 10.4883 10.6982 10.6867 10.7099C14.2217 10.9782 17.045 13.8015 17.3133 17.3365C17.3133 17.5115 17.325 17.6866 17.325 17.8849Z" stroke="white" stroke-width="1.75" stroke-miterlimit="10" stroke-linecap="round" stroke-linejoin="round"/>
<path d="M25.0838 10.1153C25.0838 14.0936 21.8638 17.3137 17.8855 17.3137H17.3138C17.0455 13.7787 14.2221 10.9553 10.6871 10.687V10.1153C10.6871 6.13697 13.9071 2.91699 17.8855 2.91699C21.8638 2.91699 25.0838 6.13697 25.0838 10.1153Z" stroke="white" stroke-width="1.75" stroke-miterlimit="10" stroke-linecap="round" stroke-linejoin="round"/>
</svg>
