<svg width="28" height="28" viewBox="0 0 28 28" fill="none" xmlns="http://www.w3.org/2000/svg">
<path d="M23.3333 14.2336V16.217C23.3333 19.892 21.2333 21.467 18.0833 21.467H7.58333C4.43333 21.467 2.33333 19.892 2.33333 16.217V9.91699C2.33333 6.24199 4.43333 4.66699 7.58333 4.66699H10.7333C10.5817 5.11033 10.5 5.60033 10.5 6.12533V10.6754C10.5 11.807 10.8733 12.7637 11.5383 13.4287C12.2033 14.0937 13.16 14.467 14.2917 14.467V16.0887C14.2917 16.6837 14.9683 17.0453 15.47 16.7186L18.8417 14.467H21.875C22.4 14.467 22.89 14.3853 23.3333 14.2336Z" stroke="white" stroke-width="1.75" stroke-miterlimit="10" stroke-linecap="round" stroke-linejoin="round"/>
<path d="M25.6667 6.12467V10.6747C25.6667 12.413 24.78 13.7196 23.3333 14.233C22.89 14.3846 22.4 14.4664 21.875 14.4664H18.8417L15.47 16.718C14.9683 17.0446 14.2917 16.6831 14.2917 16.0881V14.4664C13.16 14.4664 12.2033 14.093 11.5383 13.428C10.8733 12.763 10.5 11.8064 10.5 10.6747V6.12467C10.5 5.59967 10.5817 5.10967 10.7333 4.66634C11.2467 3.21967 12.5533 2.33301 14.2917 2.33301H21.875C24.15 2.33301 25.6667 3.84967 25.6667 6.12467Z" stroke="white" stroke-width="1.75" stroke-miterlimit="10" stroke-linecap="round" stroke-linejoin="round"/>
<path d="M8.63333 25.667H17.0333" stroke="white" stroke-width="1.75" stroke-miterlimit="10" stroke-linecap="round" stroke-linejoin="round"/>
<path d="M12.8333 21.4668V25.6668" stroke="white" stroke-width="1.75" stroke-miterlimit="10" stroke-linecap="round" stroke-linejoin="round"/>
<path d="M21.5781 8.45833H21.5886" stroke="white" stroke-width="1.75" stroke-linecap="round" stroke-linejoin="round"/>
<path d="M18.3116 8.45833H18.3221" stroke="white" stroke-width="1.75" stroke-linecap="round" stroke-linejoin="round"/>
<path d="M15.0446 8.45833H15.0551" stroke="white" stroke-width="1.75" stroke-linecap="round" stroke-linejoin="round"/>
</svg>
