<svg width="28" height="28" viewBox="0 0 28 28" fill="none" xmlns="http://www.w3.org/2000/svg">
<path d="M14 13.9997C17.2217 13.9997 19.8334 11.388 19.8334 8.16634C19.8334 4.94468 17.2217 2.33301 14 2.33301C10.7784 2.33301 8.16669 4.94468 8.16669 8.16634C8.16669 11.388 10.7784 13.9997 14 13.9997Z" stroke="#0096FF" stroke-width="1.75" stroke-linecap="round" stroke-linejoin="round"/>
<path d="M3.97833 25.6667C3.97833 21.1517 8.47003 17.5 14 17.5" stroke="#0096FF" stroke-width="1.75" stroke-linecap="round" stroke-linejoin="round"/>
<path d="M21.2333 24.9667C23.2952 24.9667 24.9667 23.2952 24.9667 21.2333C24.9667 19.1715 23.2952 17.5 21.2333 17.5C19.1715 17.5 17.5 19.1715 17.5 21.2333C17.5 23.2952 19.1715 24.9667 21.2333 24.9667Z" stroke="#0096FF" stroke-width="1.75" stroke-linecap="round" stroke-linejoin="round"/>
<path d="M25.6667 25.6667L24.5 24.5" stroke="#0096FF" stroke-width="1.75" stroke-linecap="round" stroke-linejoin="round"/>
</svg>
