<svg width="28" height="28" viewBox="0 0 28 28" fill="none" xmlns="http://www.w3.org/2000/svg">
<path d="M21.735 8.34183C21.7817 9.0535 21.7233 9.8585 21.5833 10.7568L20.7317 16.2285C20.0083 20.7902 17.8967 22.3302 13.335 21.6185L7.86333 20.7552C6.28833 20.5102 5.075 20.0902 4.18833 19.4602C2.49667 18.2818 2.00667 16.3452 2.47333 13.3585L3.33667 7.88683C4.06 3.32516 6.17167 1.78516 10.7333 2.49683L16.205 3.36016C19.8683 3.93183 21.5833 5.42516 21.735 8.34183Z" stroke="#0096FF" stroke-width="1.75" stroke-linecap="round" stroke-linejoin="round"/>
<path d="M23.9165 15.7151L22.1665 20.9768C20.7081 25.3635 18.3748 26.5301 13.9881 25.0718L8.72648 23.3218C6.07815 22.4468 4.60815 21.2335 4.18815 19.4601C5.07482 20.0901 6.28815 20.5101 7.86315 20.7551L13.3348 21.6185C17.8965 22.3301 20.0081 20.7901 20.7315 16.2285L21.5831 10.7568C21.7231 9.85846 21.7815 9.05346 21.7348 8.3418C24.5231 9.82346 25.1298 12.0635 23.9165 15.7151Z" stroke="#0096FF" stroke-width="1.75" stroke-linecap="round" stroke-linejoin="round"/>
<path d="M9.61334 10.477C10.7345 10.477 11.6433 9.56813 11.6433 8.44699C11.6433 7.32585 10.7345 6.41699 9.61334 6.41699C8.4922 6.41699 7.58334 7.32585 7.58334 8.44699C7.58334 9.56813 8.4922 10.477 9.61334 10.477Z" stroke="#0096FF" stroke-width="1.75" stroke-linecap="round" stroke-linejoin="round"/>
</svg>
