<svg width="28" height="28" viewBox="0 0 28 28" fill="none" xmlns="http://www.w3.org/2000/svg">
<path d="M23.3333 16.3334C24.622 16.3334 25.6667 15.2887 25.6667 14.0001C25.6667 12.7114 24.622 11.6667 23.3333 11.6667C22.0447 11.6667 21 12.7114 21 14.0001C21 15.2887 22.0447 16.3334 23.3333 16.3334Z" stroke="#0096FF" stroke-width="1.75" stroke-linecap="round" stroke-linejoin="round"/>
<path d="M23.3333 6.99992C24.622 6.99992 25.6667 5.95525 25.6667 4.66659C25.6667 3.37792 24.622 2.33325 23.3333 2.33325C22.0447 2.33325 21 3.37792 21 4.66659C21 5.95525 22.0447 6.99992 23.3333 6.99992Z" stroke="#0096FF" stroke-width="1.75" stroke-linecap="round" stroke-linejoin="round"/>
<path d="M23.3333 25.6667C24.622 25.6667 25.6667 24.622 25.6667 23.3333C25.6667 22.0447 24.622 21 23.3333 21C22.0447 21 21 22.0447 21 23.3333C21 24.622 22.0447 25.6667 23.3333 25.6667Z" stroke="#0096FF" stroke-width="1.75" stroke-linecap="round" stroke-linejoin="round"/>
<path d="M4.66659 16.3334C5.95525 16.3334 6.99992 15.2887 6.99992 14.0001C6.99992 12.7114 5.95525 11.6667 4.66659 11.6667C3.37792 11.6667 2.33325 12.7114 2.33325 14.0001C2.33325 15.2887 3.37792 16.3334 4.66659 16.3334Z" stroke="#0096FF" stroke-width="1.75" stroke-linecap="round" stroke-linejoin="round"/>
<path d="M7 14H21" stroke="#0096FF" stroke-width="1.75" stroke-linecap="round" stroke-linejoin="round"/>
<path d="M20.9999 4.66675H16.3333C13.9999 4.66675 12.8333 5.83341 12.8333 8.16675V19.8334C12.8333 22.1667 13.9999 23.3334 16.3333 23.3334H20.9999" stroke="#0096FF" stroke-width="1.75" stroke-linecap="round" stroke-linejoin="round"/>
</svg>
