<svg width="68" height="68" viewBox="0 0 68 68" fill="none" xmlns="http://www.w3.org/2000/svg">
<rect width="68" height="68" rx="34" fill="url(#paint0_linear_3559_4350)" fill-opacity="0.1"/>
<rect x="12" y="12" width="44" height="44" rx="22" fill="url(#paint1_linear_3559_4350)" fill-opacity="0.2"/>
<rect x="12.5" y="12.5" width="43" height="43" rx="21.5" stroke="url(#paint2_linear_3559_4350)" stroke-opacity="0.3"/>
<path d="M43.97 40.33C43.97 40.69 43.89 41.06 43.72 41.42C43.55 41.78 43.33 42.12 43.04 42.44C42.55 42.98 42.01 43.37 41.4 43.62C40.8 43.87 40.15 44 39.45 44C38.43 44 37.34 43.76 36.19 43.27C35.04 42.78 33.89 42.12 32.75 41.29C31.6 40.45 30.51 39.52 29.47 38.49C28.44 37.45 27.51 36.36 26.68 35.22C25.86 34.08 25.2 32.94 24.72 31.81C24.24 30.67 24 29.58 24 28.54C24 27.86 24.12 27.21 24.36 26.61C24.6 26 24.98 25.44 25.51 24.94C26.15 24.31 26.85 24 27.59 24C27.87 24 28.15 24.06 28.4 24.18C28.66 24.3 28.89 24.48 29.07 24.74L31.39 28.01C31.57 28.26 31.7 28.49 31.79 28.71C31.88 28.92 31.93 29.13 31.93 29.32C31.93 29.56 31.86 29.8 31.72 30.03C31.59 30.26 31.4 30.5 31.16 30.74L30.4 31.53C30.29 31.64 30.24 31.77 30.24 31.93C30.24 32.01 30.25 32.08 30.27 32.16C30.3 32.24 30.33 32.3 30.35 32.36C30.53 32.69 30.84 33.12 31.28 33.64C31.73 34.16 32.21 34.69 32.73 35.22C33.27 35.75 33.79 36.24 34.32 36.69C34.84 37.13 35.27 37.43 35.61 37.61C35.66 37.63 35.72 37.66 35.79 37.69C35.87 37.72 35.95 37.73 36.04 37.73C36.21 37.73 36.34 37.67 36.45 37.56L37.21 36.81C37.46 36.56 37.7 36.37 37.93 36.25C38.16 36.11 38.39 36.04 38.64 36.04C38.83 36.04 39.03 36.08 39.25 36.17C39.47 36.26 39.7 36.39 39.95 36.56L43.26 38.91C43.52 39.09 43.7 39.3 43.81 39.55C43.91 39.8 43.97 40.05 43.97 40.33Z" stroke="#0096FF" stroke-width="1.5" stroke-miterlimit="10"/>
<path d="M38.2 29.8H43M38.2 29.8V25V29.8Z" stroke="#0096FF" stroke-width="1.5" stroke-linecap="round" stroke-linejoin="round"/>
<defs>
<linearGradient id="paint0_linear_3559_4350" x1="34" y1="0" x2="34" y2="68" gradientUnits="userSpaceOnUse">
<stop stop-color="#0096FF"/>
<stop offset="1" stop-color="#0096FF" stop-opacity="0"/>
</linearGradient>
<linearGradient id="paint1_linear_3559_4350" x1="34" y1="-17.1351" x2="34" y2="125.568" gradientUnits="userSpaceOnUse">
<stop stop-color="#0096FF"/>
<stop offset="0.467671" stop-color="#0096FF" stop-opacity="0"/>
</linearGradient>
<linearGradient id="paint2_linear_3559_4350" x1="34" y1="-64.4054" x2="34" y2="95.8378" gradientUnits="userSpaceOnUse">
<stop stop-color="#0096FF"/>
<stop offset="0.716291" stop-color="#0096FF" stop-opacity="0"/>
</linearGradient>
</defs>
</svg>
