<svg preserveAspectRatio="none" width="100%" height="100%" overflow="visible" style="display: block;" viewBox="0 0 28 28" fill="none" xmlns="http://www.w3.org/2000/svg">
<g id="bitcoin-refresh">
<path id="Vector" d="M5.21464 14.1984C4.99297 14.1984 4.77131 14.1168 4.59631 13.9418L3.18464 12.5301L1.77297 13.9418C1.43463 14.2801 0.874635 14.2801 0.536302 13.9418C0.197969 13.6035 0.197969 13.0435 0.536302 12.7051L2.5663 10.6751C2.90463 10.3368 3.46464 10.3368 3.80297 10.6751L5.83297 12.7051C6.1713 13.0435 6.1713 13.6035 5.83297 13.9418C5.66964 14.1168 5.43631 14.1984 5.21464 14.1984Z" fill="var(--fill-0, white)"/>
<path id="Vector_2" d="M24.8033 17.5811C24.5816 17.5811 24.36 17.4994 24.185 17.3244L22.155 15.2945C21.8166 14.9561 21.8166 14.3961 22.155 14.0578C22.4933 13.7195 23.0533 13.7195 23.3916 14.0578L24.8033 15.4695L26.215 14.0578C26.5533 13.7195 27.1133 13.7195 27.4516 14.0578C27.79 14.3961 27.79 14.9561 27.4516 15.2945L25.4216 17.3244C25.2583 17.4878 25.025 17.5811 24.8033 17.5811Z" fill="var(--fill-0, white)"/>
<path id="Vector_3" d="M24.8034 17.5817C24.3251 17.5817 23.9284 17.185 23.9284 16.7067V14C23.9284 8.52833 19.4717 4.07166 14.0001 4.07166C10.9784 4.07166 8.15506 5.42499 6.2534 7.79333C5.95006 8.16666 5.40173 8.22499 5.02839 7.93332C4.65506 7.62999 4.58506 7.08167 4.8884 6.70833C7.11673 3.92 10.4417 2.33333 14.0001 2.33333C20.4401 2.33333 25.6784 7.57168 25.6784 14.0117V16.7184C25.6784 17.185 25.2934 17.5817 24.8034 17.5817Z" fill="var(--fill-0, white)"/>
<path id="Vector_4" d="M14.0003 25.678C7.56028 25.678 2.32194 20.4396 2.32194 13.9996V11.293C2.32194 10.8146 2.71861 10.418 3.19694 10.418C3.67527 10.418 4.07194 10.8146 4.07194 11.293V13.9996C4.07194 19.4713 8.52861 23.928 14.0003 23.928C17.0219 23.928 19.8453 22.5747 21.7469 20.2063C22.0503 19.833 22.5986 19.763 22.9719 20.0663C23.3453 20.3697 23.4153 20.918 23.1119 21.2913C20.8836 24.0796 17.5586 25.678 14.0003 25.678Z" fill="var(--fill-0, white)"/>
<path id="Vector_5" d="M15.61 14.875H10.5C10.0217 14.875 9.625 14.4783 9.625 14V9.91667C9.625 9.43833 10.0217 9.04167 10.5 9.04167H15.61C17.1617 9.04167 18.5267 10.4067 18.5267 11.9583C18.5267 13.5683 17.2083 14.875 15.61 14.875ZM11.375 13.125H15.5983C16.24 13.125 16.765 12.6 16.765 11.9583C16.765 11.4333 16.24 10.7917 15.5983 10.7917H11.375V13.125Z" fill="var(--fill-0, white)"/>
<path id="Vector_6" d="M16.3333 18.9583H10.5C10.0217 18.9583 9.625 18.5617 9.625 18.0833V14C9.625 13.5217 10.0217 13.125 10.5 13.125H16.3333C18.1067 13.125 19.5417 14.4317 19.5417 16.0417C19.5417 17.6517 18.1067 18.9583 16.3333 18.9583ZM11.375 17.2083H16.3333C17.1383 17.2083 17.7917 16.6833 17.7917 16.0417C17.7917 15.4 17.1383 14.875 16.3333 14.875H11.375V17.2083Z" fill="var(--fill-0, white)"/>
<path id="Vector_7" d="M13.7664 21C13.2881 21 12.8914 20.6033 12.8914 20.125V18.0833C12.8914 17.605 13.2881 17.2083 13.7664 17.2083C14.2448 17.2083 14.6414 17.605 14.6414 18.0833V20.125C14.6414 20.6033 14.2448 21 13.7664 21Z" fill="var(--fill-0, white)"/>
<path id="Vector_8" d="M13.7664 10.7917C13.2881 10.7917 12.8914 10.395 12.8914 9.91667V7.875C12.8914 7.39667 13.2881 7 13.7664 7C14.2448 7 14.6414 7.39667 14.6414 7.875V9.91667C14.6414 10.395 14.2448 10.7917 13.7664 10.7917Z" fill="var(--fill-0, white)"/>
<g id="Vector_9" opacity="0">
</g>
</g>
</svg>
