<svg preserveAspectRatio="none" width="100%" height="100%" overflow="visible" style="display: block;" viewBox="0 0 24.5 24.5109" fill="none" xmlns="http://www.w3.org/2000/svg">
<path id="Vector" d="M21 17.5C20.3769 17.5032 19.7663 17.6746 19.2325 17.9961L15.8961 14.6589C16.3715 13.9454 16.6251 13.1073 16.6251 12.25C16.6251 11.3927 16.3715 10.5546 15.8961 9.84113L18.1248 7.6125C18.6885 7.88406 19.3302 7.94731 19.9361 7.79104C20.5421 7.63478 21.0732 7.26909 21.4353 6.75876C21.7974 6.24843 21.9672 5.62639 21.9147 5.00284C21.8621 4.37929 21.5905 3.79448 21.148 3.352C20.7055 2.90952 20.1207 2.63793 19.4972 2.58535C18.8736 2.53277 18.2516 2.70258 17.7412 3.06471C17.2309 3.42685 16.8652 3.95792 16.709 4.56386C16.5527 5.16979 16.6159 5.81148 16.8875 6.37525L14.6589 8.60388C13.9454 8.12852 13.1073 7.87488 12.25 7.87488C11.3927 7.87488 10.5546 8.12852 9.84113 8.60388L6.50388 5.26663C6.82521 4.73312 6.99661 4.12279 7 3.5C7 2.80777 6.79473 2.13108 6.41015 1.55551C6.02556 0.979934 5.47893 0.53133 4.83939 0.266423C4.19985 0.00151649 3.49612 -0.0677952 2.81719 0.0672531C2.13825 0.202301 1.51461 0.535644 1.02513 1.02513C0.535644 1.51461 0.202301 2.13825 0.0672531 2.81719C-0.0677952 3.49612 0.00151649 4.19985 0.266423 4.83939C0.53133 5.47894 0.979934 6.02556 1.55551 6.41015C2.13108 6.79473 2.80777 7 3.5 7C4.12309 6.99677 4.73374 6.82536 5.2675 6.50388L8.60388 9.84113C8.12852 10.5546 7.87487 11.3927 7.87487 12.25C7.87487 13.1073 8.12852 13.9454 8.60388 14.6589L5.26663 17.9961C4.73311 17.6748 4.12279 17.5034 3.5 17.5C2.80777 17.5 2.13108 17.7053 1.55551 18.0899C0.979934 18.4744 0.53133 19.0211 0.266423 19.6606C0.00151649 20.3002 -0.0677952 21.0039 0.0672531 21.6828C0.202301 22.3618 0.535644 22.9854 1.02513 23.4749C1.51461 23.9644 2.13825 24.2977 2.81719 24.4328C3.49612 24.5678 4.19985 24.4985 4.83939 24.2336C5.47893 23.9687 6.02556 23.5201 6.41015 22.9445C6.79473 22.3689 7 21.6922 7 21C6.99676 20.3769 6.82536 19.7663 6.50388 19.2325L9.84113 15.8961C10.3065 16.2063 10.8273 16.4238 11.375 16.5366V19.411C10.7912 19.6174 10.2991 20.0236 9.98582 20.5577C9.67251 21.0918 9.55809 21.7195 9.66281 22.3298C9.76752 22.9401 10.0846 23.4937 10.558 23.8928C11.0315 24.292 11.6308 24.5109 12.25 24.5109C12.8692 24.5109 13.4685 24.292 13.942 23.8928C14.4154 23.4937 14.7325 22.9401 14.8372 22.3298C14.9419 21.7195 14.8275 21.0918 14.5142 20.5577C14.2009 20.0236 13.7088 19.6174 13.125 19.411V16.5366C13.6727 16.4238 14.1935 16.2063 14.6589 15.8961L17.9961 19.2334C17.6748 19.7669 17.5034 20.3772 17.5 21C17.5 21.6922 17.7053 22.3689 18.0899 22.9445C18.4744 23.5201 19.0211 23.9687 19.6606 24.2336C20.3002 24.4985 21.0039 24.5678 21.6828 24.4328C22.3618 24.2977 22.9854 23.9644 23.4749 23.4749C23.9644 22.9854 24.2977 22.3618 24.4328 21.6828C24.5678 21.0039 24.4985 20.3002 24.2336 19.6606C23.9687 19.0211 23.5201 18.4744 22.9445 18.0899C22.3689 17.7053 21.6922 17.5 21 17.5ZM12.25 9.625C12.7692 9.625 13.2767 9.77896 13.7084 10.0674C14.1401 10.3558 14.4765 10.7658 14.6752 11.2455C14.8739 11.7251 14.9258 12.2529 14.8246 12.7621C14.7233 13.2713 14.4733 13.739 14.1062 14.1062C13.739 14.4733 13.2713 14.7233 12.7621 14.8246C12.2529 14.9259 11.7251 14.8739 11.2455 14.6752C10.7658 14.4765 10.3558 14.1401 10.0674 13.7084C9.77896 13.2767 9.625 12.7692 9.625 12.25C9.6257 11.554 9.90248 10.8867 10.3946 10.3946C10.8867 9.90248 11.554 9.6257 12.25 9.625ZM1.75 3.5C1.75 3.15388 1.85264 2.81554 2.04493 2.52775C2.23722 2.23997 2.51053 2.01567 2.83031 1.88321C3.15008 1.75076 3.50194 1.7161 3.84141 1.78363C4.18088 1.85115 4.4927 2.01782 4.73744 2.26256C4.98218 2.50731 5.14885 2.81913 5.21638 3.15859C5.2839 3.49806 5.24924 3.84993 5.11679 4.1697C4.98434 4.48947 4.76004 4.76278 4.47225 4.95507C4.18446 5.14737 3.84612 5.25 3.5 5.25C3.03602 5.24954 2.59116 5.06502 2.26308 4.73693C1.93499 4.40884 1.75046 3.96399 1.75 3.5ZM3.5 22.75C3.15388 22.75 2.81554 22.6474 2.52775 22.4551C2.23997 22.2628 2.01567 21.9895 1.88321 21.6697C1.75076 21.3499 1.7161 20.9981 1.78363 20.6586C1.85115 20.3191 2.01782 20.0073 2.26256 19.7626C2.50731 19.5178 2.81913 19.3512 3.15859 19.2836C3.49806 19.2161 3.84993 19.2508 4.1697 19.3832C4.48947 19.5157 4.76278 19.74 4.95507 20.0278C5.14737 20.3155 5.25 20.6539 5.25 21C5.24954 21.464 5.06501 21.9088 4.73693 22.2369C4.40884 22.565 3.96399 22.7495 3.5 22.75ZM21 22.75C20.6539 22.75 20.3155 22.6474 20.0278 22.4551C19.74 22.2628 19.5157 21.9895 19.3832 21.6697C19.2508 21.3499 19.2161 20.9981 19.2836 20.6586C19.3512 20.3191 19.5178 20.0073 19.7626 19.7626C20.0073 19.5178 20.3191 19.3512 20.6586 19.2836C20.9981 19.2161 21.3499 19.2508 21.6697 19.3832C21.9895 19.5157 22.2628 19.74 22.4551 20.0278C22.6474 20.3155 22.75 20.6539 22.75 21C22.7493 21.4639 22.5647 21.9086 22.2367 22.2367C21.9086 22.5647 21.4639 22.7493 21 22.75Z" fill="var(--fill-0, white)"/>
</svg>
