<svg preserveAspectRatio="none" width="100%" height="100%" overflow="visible" style="display: block;" viewBox="0 0 28 28" fill="none" xmlns="http://www.w3.org/2000/svg">
<g id="data">
<path id="Vector" d="M23.3333 16.3346C24.622 16.3346 25.6667 15.29 25.6667 14.0013C25.6667 12.7126 24.622 11.668 23.3333 11.668C22.0447 11.668 21 12.7126 21 14.0013C21 15.29 22.0447 16.3346 23.3333 16.3346Z" stroke="var(--stroke-0, white)" stroke-width="1.5" stroke-linecap="round" stroke-linejoin="round"/>
<path id="Vector_2" d="M23.3333 6.9987C24.622 6.9987 25.6667 5.95403 25.6667 4.66536C25.6667 3.3767 24.622 2.33203 23.3333 2.33203C22.0447 2.33203 21 3.3767 21 4.66536C21 5.95403 22.0447 6.9987 23.3333 6.9987Z" stroke="var(--stroke-0, white)" stroke-width="1.5" stroke-linecap="round" stroke-linejoin="round"/>
<path id="Vector_3" d="M23.3333 25.6667C24.622 25.6667 25.6667 24.622 25.6667 23.3333C25.6667 22.0447 24.622 21 23.3333 21C22.0447 21 21 22.0447 21 23.3333C21 24.622 22.0447 25.6667 23.3333 25.6667Z" stroke="var(--stroke-0, white)" stroke-width="1.5" stroke-linecap="round" stroke-linejoin="round"/>
<path id="Vector_4" d="M4.66683 16.3346C5.95549 16.3346 7.00016 15.29 7.00016 14.0013C7.00016 12.7126 5.95549 11.668 4.66683 11.668C3.37816 11.668 2.3335 12.7126 2.3335 14.0013C2.3335 15.29 3.37816 16.3346 4.66683 16.3346Z" stroke="var(--stroke-0, white)" stroke-width="1.5" stroke-linecap="round" stroke-linejoin="round"/>
<path id="Vector_5" d="M7 14H21" stroke="var(--stroke-0, white)" stroke-width="1.5" stroke-linecap="round" stroke-linejoin="round"/>
<path id="Vector_6" d="M21.0002 4.66797H16.3335C14.0002 4.66797 12.8335 5.83464 12.8335 8.16797V19.8346C12.8335 22.168 14.0002 23.3346 16.3335 23.3346H21.0002" stroke="var(--stroke-0, white)" stroke-width="1.5" stroke-linecap="round" stroke-linejoin="round"/>
<g id="Vector_7" opacity="0">
</g>
</g>
</svg>
