<svg width="28" height="28" viewBox="0 0 28 28" fill="none" xmlns="http://www.w3.org/2000/svg">
<path d="M18.375 13.6611V11.5956C18.3748 11.049 17.935 10.6047 17.3838 10.6044H8.75C8.26675 10.6044 7.875 10.2127 7.875 9.72941C7.875 9.24616 8.26675 8.85441 8.75 8.85441H17.3838C18.9085 8.85466 20.1248 10.0896 20.125 11.5956V13.6611C20.125 14.1443 19.7332 14.5361 19.25 14.5361C18.7668 14.5361 18.375 14.1443 18.375 13.6611Z" fill="white"/>
<path d="M10.1045 7.14966C10.4471 6.80908 11.0011 6.81023 11.3418 7.15259C11.6824 7.49518 11.6812 8.04916 11.3389 8.38989L9.98926 9.73169L11.3408 11.0833C11.6821 11.425 11.6823 11.979 11.3408 12.3206C10.9991 12.6623 10.4442 12.6623 10.1025 12.3206L8.13086 10.3489C7.96653 10.1845 7.87471 9.96182 7.875 9.72941C7.87534 9.49705 7.96811 9.27352 8.13281 9.10962L10.1045 7.14966Z" fill="white"/>
<path d="M7.875 16.4038V14.3384C7.875 13.8551 8.26675 13.4634 8.75 13.4634C9.23325 13.4634 9.625 13.8551 9.625 14.3384V16.4038C9.62522 16.9504 10.065 17.3948 10.6162 17.395H19.25C19.7332 17.395 20.125 17.7868 20.125 18.27C20.125 18.7533 19.7332 19.145 19.25 19.145H10.6162C9.09144 19.1448 7.87522 17.9098 7.875 16.4038Z" fill="white"/>
<path d="M16.6593 15.6787C17.001 15.337 17.5558 15.337 17.8975 15.6787L19.8692 17.6504C20.0336 17.8147 20.1253 18.0376 20.125 18.27C20.1247 18.5024 20.0319 18.7258 19.8673 18.8897L17.8956 20.8506C17.553 21.1911 16.999 21.1891 16.6583 20.8467C16.3177 20.5041 16.3188 19.9501 16.6612 19.6094L18.0098 18.2676L16.6593 16.917C16.3176 16.5753 16.3176 16.0204 16.6593 15.6787Z" fill="white"/>
<path d="M24.791 14.0005C24.791 8.04052 19.9599 3.20867 14 3.2085C8.03993 3.2085 3.20801 8.04041 3.20801 14.0005C3.20818 19.9604 8.04003 24.7915 14 24.7915C19.9598 24.7913 24.7908 19.9603 24.791 14.0005ZM26.541 14.0005C26.5408 20.9268 20.9263 26.5413 14 26.5415C7.07354 26.5415 1.45818 20.9269 1.45801 14.0005C1.45801 7.07392 7.07343 1.4585 14 1.4585C20.9264 1.45867 26.541 7.07402 26.541 14.0005Z" fill="white"/>
</svg>
