<svg width="28" height="28" viewBox="0 0 28 28" fill="none" xmlns="http://www.w3.org/2000/svg">
<path d="M11.6663 19.7755H7.24467C3.31301 19.7755 2.33301 18.7955 2.33301 14.8638V7.86382C2.33301 3.93215 3.31301 2.95215 7.24467 2.95215H19.5297C23.4613 2.95215 24.4413 3.93215 24.4413 7.86382" stroke="white" stroke-width="1.75" stroke-linecap="round" stroke-linejoin="round"/>
<path d="M11.667 25.0482V19.7749" stroke="white" stroke-width="1.75" stroke-linecap="round" stroke-linejoin="round"/>
<path d="M2.33301 15.1084H11.6663" stroke="white" stroke-width="1.75" stroke-linecap="round" stroke-linejoin="round"/>
<path d="M7.86328 25.0479H11.6666" stroke="white" stroke-width="1.75" stroke-linecap="round" stroke-linejoin="round"/>
<path d="M25.6665 14.9333V21.595C25.6665 24.36 24.9782 25.0483 22.2132 25.0483H18.0715C15.3065 25.0483 14.6182 24.36 14.6182 21.595V14.9333C14.6182 12.1683 15.3065 11.48 18.0715 11.48H22.2132C24.9782 11.48 25.6665 12.1683 25.6665 14.9333Z" stroke="white" stroke-width="1.75" stroke-linecap="round" stroke-linejoin="round"/>
<path d="M20.1189 21.2918H20.1294" stroke="white" stroke-width="2.33333" stroke-linecap="round" stroke-linejoin="round"/>
</svg>
