<svg width="32" height="32" viewBox="0 0 32 32" fill="none" xmlns="http://www.w3.org/2000/svg">
<path d="M21.3339 31.6263C20.9739 31.6263 20.6406 31.4264 20.4672 31.1197C20.2939 30.813 20.2939 30.4264 20.4806 30.1197L21.8806 27.7864C22.1606 27.3064 22.7739 27.1597 23.2539 27.4397C23.7339 27.7197 23.8806 28.333 23.6006 28.813L23.2406 29.413C26.9206 28.5463 29.6806 25.2396 29.6806 21.293C29.6806 20.7463 30.1339 20.293 30.6806 20.293C31.2273 20.293 31.6806 20.7463 31.6806 21.293C31.6673 26.9863 27.0272 31.6263 21.3339 31.6263Z" fill="white"/>
<path d="M1.33301 11.6263C0.786341 11.6263 0.333008 11.173 0.333008 10.6263C0.333008 4.93297 4.97301 0.292969 10.6663 0.292969C11.0263 0.292969 11.3597 0.492975 11.533 0.799642C11.7063 1.10631 11.7063 1.49298 11.5197 1.79964L10.1197 4.13298C9.83967 4.61298 9.22634 4.75965 8.74634 4.47966C8.26634 4.19966 8.11967 3.58636 8.39967 3.10636L8.75967 2.50635C5.07967 3.37301 2.31968 6.67964 2.31968 10.6263C2.33301 11.173 1.87967 11.6263 1.33301 11.6263Z" fill="white"/>
<path d="M12.5738 21.4399H8.82715C8.28048 21.4399 7.82715 20.9866 7.82715 20.4399V17.4399C7.82715 16.8933 8.28048 16.4399 8.82715 16.4399H12.5738C13.9072 16.4399 15.0805 17.6133 15.0805 18.9466C15.0805 20.3066 13.9472 21.4399 12.5738 21.4399ZM9.82715 19.4399H12.5738C12.8538 19.4399 13.0805 19.2133 13.0805 18.9333C13.0805 18.7333 12.8538 18.4266 12.5738 18.4266H9.82715V19.4399Z" fill="white"/>
<path d="M13.1058 24.4402H8.8125C8.26583 24.4402 7.8125 23.9869 7.8125 23.4402V20.4402C7.8125 19.8935 8.26583 19.4402 8.8125 19.4402H13.1058C14.5992 19.4402 15.8258 20.5602 15.8258 21.9469C15.8258 23.3335 14.6125 24.4402 13.1058 24.4402ZM9.82583 22.4402H13.1192C13.5458 22.4402 13.8392 22.1735 13.8392 21.9335C13.8392 21.6935 13.5458 21.4268 13.1192 21.4268H9.82583V22.4402Z" fill="white"/>
<path d="M11.2266 25.9337C10.6799 25.9337 10.2266 25.4803 10.2266 24.9337V23.427C10.2266 22.8803 10.6799 22.427 11.2266 22.427C11.7732 22.427 12.2266 22.8803 12.2266 23.427V24.9337C12.2266 25.4937 11.7732 25.9337 11.2266 25.9337Z" fill="white"/>
<path d="M11.2266 18.4259C10.6799 18.4259 10.2266 17.9725 10.2266 17.4259V15.9192C10.2266 15.3725 10.6799 14.9192 11.2266 14.9192C11.7732 14.9192 12.2266 15.3725 12.2266 15.9192V17.4259C12.2266 17.9859 11.7732 18.4259 11.2266 18.4259Z" fill="white"/>
<path d="M11.5597 29.667C6.46634 29.667 2.33301 25.5203 2.33301 20.4403C2.33301 15.3603 6.47967 11.2136 11.5597 11.2136C11.7997 11.2136 12.013 11.227 12.253 11.2403C16.773 11.587 20.4263 15.2403 20.7597 19.7336C20.773 20.027 20.7863 20.227 20.7863 20.4403C20.7997 25.5203 16.653 29.667 11.5597 29.667ZM11.5597 13.2004C7.57301 13.2004 4.33301 16.4403 4.33301 20.427C4.33301 24.4137 7.57301 27.6536 11.5597 27.6536C15.5463 27.6536 18.7997 24.4137 18.7997 20.427C18.7997 20.2537 18.7863 20.0803 18.773 19.907C18.5063 16.3336 15.6397 13.4803 12.1197 13.2136C11.9463 13.2136 11.7597 13.2004 11.5597 13.2004Z" fill="white"/>
<path d="M20.4405 20.7997H19.7872C19.2672 20.7997 18.8272 20.3997 18.7872 19.8797C18.5205 16.3464 15.6672 13.4931 12.1339 13.2264C11.6139 13.1864 11.2139 12.7464 11.2139 12.2264V11.5731C11.2139 6.47975 15.3605 2.34644 20.4539 2.34644C25.5472 2.34644 29.6805 6.49308 29.6805 11.5731C29.6805 16.6531 25.5205 20.7997 20.4405 20.7997ZM13.2005 11.3464C16.9605 12.0264 19.9739 15.0264 20.6539 18.7997C24.5472 18.6797 27.6672 15.4797 27.6672 11.5731C27.6672 7.58641 24.4272 4.34644 20.4405 4.34644C16.5205 4.3331 13.3205 7.4531 13.2005 11.3464Z" fill="white"/>
</svg>
