<svg width="32" height="32" viewBox="0 0 32 32" fill="none" xmlns="http://www.w3.org/2000/svg">
<path d="M5.95991 16.2268C5.70658 16.2268 5.45325 16.1335 5.25325 15.9335L3.63991 14.3201L2.02657 15.9335C1.63991 16.3201 0.999909 16.3201 0.613242 15.9335C0.226576 15.5468 0.226576 14.9068 0.613242 14.5201L2.93324 12.2002C3.31991 11.8135 3.95991 11.8135 4.34658 12.2002L6.66658 14.5201C7.05324 14.9068 7.05324 15.5468 6.66658 15.9335C6.47991 16.1335 6.21325 16.2268 5.95991 16.2268Z" fill="white"/>
<path d="M28.3469 20.0928C28.0936 20.0928 27.8403 19.9994 27.6403 19.7994L25.3203 17.4795C24.9336 17.0928 24.9336 16.4528 25.3203 16.0661C25.7069 15.6795 26.3469 15.6795 26.7336 16.0661L28.3469 17.6795L29.9603 16.0661C30.3469 15.6795 30.9869 15.6795 31.3736 16.0661C31.7603 16.4528 31.7603 17.0928 31.3736 17.4795L29.0536 19.7994C28.8669 19.9861 28.6003 20.0928 28.3469 20.0928Z" fill="white"/>
<path d="M28.3471 20.0934C27.8004 20.0934 27.3471 19.6401 27.3471 19.0934V16.0001C27.3471 9.74675 22.2537 4.6534 16.0004 4.6534C12.5471 4.6534 9.3204 6.20007 7.14706 8.90674C6.8004 9.33341 6.17373 9.40007 5.74706 9.06673C5.32039 8.72007 5.2404 8.09341 5.58707 7.66675C8.13373 4.48008 11.9337 2.66675 16.0004 2.66675C23.3604 2.66675 29.3471 8.65343 29.3471 16.0134V19.1068C29.3471 19.6401 28.9071 20.0934 28.3471 20.0934Z" fill="white"/>
<path d="M16 29.3463C8.63999 29.3463 2.65332 23.3596 2.65332 15.9996V12.9062C2.65332 12.3596 3.10665 11.9062 3.65332 11.9062C4.19999 11.9062 4.65332 12.3596 4.65332 12.9062V15.9996C4.65332 22.2529 9.74666 27.3463 16 27.3463C19.4533 27.3463 22.68 25.7996 24.8533 23.0929C25.2 22.6663 25.8267 22.5863 26.2533 22.9329C26.68 23.2796 26.76 23.9063 26.4133 24.3329C23.8667 27.5196 20.0667 29.3463 16 29.3463Z" fill="white"/>
<path d="M17.84 16.9999H12C11.4533 16.9999 11 16.5466 11 15.9999V11.3333C11 10.7866 11.4533 10.3333 12 10.3333H17.84C19.6133 10.3333 21.1733 11.8933 21.1733 13.6666C21.1733 15.5066 19.6667 16.9999 17.84 16.9999ZM13 14.9999H17.8267C18.56 14.9999 19.16 14.3999 19.16 13.6666C19.16 13.0666 18.56 12.3333 17.8267 12.3333H13V14.9999Z" fill="white"/>
<path d="M18.6667 21.6667H12C11.4533 21.6667 11 21.2133 11 20.6667V16C11 15.4533 11.4533 15 12 15H18.6667C20.6933 15 22.3333 16.4933 22.3333 18.3333C22.3333 20.1733 20.6933 21.6667 18.6667 21.6667ZM13 19.6667H18.6667C19.5867 19.6667 20.3333 19.0667 20.3333 18.3333C20.3333 17.6 19.5867 17 18.6667 17H13V19.6667Z" fill="white"/>
<path d="M15.7334 24.0001C15.1867 24.0001 14.7334 23.5467 14.7334 23.0001V20.6667C14.7334 20.1201 15.1867 19.6667 15.7334 19.6667C16.2801 19.6667 16.7334 20.1201 16.7334 20.6667V23.0001C16.7334 23.5467 16.2801 24.0001 15.7334 24.0001Z" fill="white"/>
<path d="M15.7334 12.3333C15.1867 12.3333 14.7334 11.88 14.7334 11.3333V9C14.7334 8.45333 15.1867 8 15.7334 8C16.2801 8 16.7334 8.45333 16.7334 9V11.3333C16.7334 11.88 16.2801 12.3333 15.7334 12.3333Z" fill="white"/>
</svg>
