<svg width="32" height="32" viewBox="0 0 32 32" fill="none" xmlns="http://www.w3.org/2000/svg">
<path d="M17.5739 15.8127C17.0406 15.8127 16.5606 15.5195 16.3339 15.0395L14.4006 11.1861L13.8406 12.2261C13.534 12.7994 12.9206 13.1594 12.2673 13.1594H11.2939C10.7473 13.1594 10.2939 12.7061 10.2939 12.1594C10.2939 11.6127 10.7473 11.1594 11.2939 11.1594H12.1473L13.2006 9.21271C13.4539 8.75938 13.9606 8.45273 14.4406 8.4794C14.9606 8.4794 15.4273 8.78607 15.6673 9.23941L17.5739 13.0527L18.0273 12.1327C18.3339 11.5194 18.9339 11.1461 19.6273 11.1461H20.7073C21.2539 11.1461 21.7073 11.5994 21.7073 12.1461C21.7073 12.6927 21.2539 13.1461 20.7073 13.1461H19.7606L18.8139 15.0261C18.5739 15.5194 18.1073 15.8127 17.5739 15.8127Z" fill="white"/>
<path d="M3.66642 24.8668C3.11976 24.8668 2.66642 24.4134 2.66642 23.8668V16.2668C2.59976 12.6534 3.94642 9.24009 6.45309 6.68009C8.95975 4.13343 12.3198 2.7334 15.9331 2.7334C23.3198 2.7334 29.3331 8.74672 29.3331 16.1334V23.7334C29.3331 24.2801 28.8798 24.7334 28.3331 24.7334C27.7864 24.7334 27.3331 24.2801 27.3331 23.7334V16.1334C27.3331 9.85338 22.2264 4.7334 15.9331 4.7334C12.8531 4.7334 9.99976 5.92008 7.87976 8.08008C5.74643 10.2534 4.61309 13.1467 4.66642 16.2401V23.8534C4.66642 24.4134 4.22642 24.8668 3.66642 24.8668Z" fill="white"/>
<path d="M7.92033 16.6006H7.74699C4.94699 16.6006 2.66699 18.8806 2.66699 21.6806V24.1873C2.66699 26.9873 4.94699 29.2673 7.74699 29.2673H7.92033C10.7203 29.2673 13.0003 26.9873 13.0003 24.1873V21.6806C13.0003 18.8806 10.7203 16.6006 7.92033 16.6006Z" fill="white"/>
<path d="M24.2533 16.6006H24.08C21.28 16.6006 19 18.8806 19 21.6806V24.1873C19 26.9873 21.28 29.2673 24.08 29.2673H24.2533C27.0533 29.2673 29.3333 26.9873 29.3333 24.1873V21.6806C29.3333 18.8806 27.0533 16.6006 24.2533 16.6006Z" fill="white"/>
</svg>
