<svg width="242" height="74" viewBox="0 0 242 74" fill="none" xmlns="http://www.w3.org/2000/svg">
<foreignObject x="0" y="0" width="0" height="0"><div xmlns="http://www.w3.org/1999/xhtml" style="backdrop-filter:blur(20px);clip-path:url(#bgblur_0_1128_11439_clip_path);height:100%;width:100%"></div></foreignObject><g data-figma-bg-blur-radius="40">
<rect width="242" height="74" rx="24" fill="url(#paint0_linear_1128_11439)"/>
<rect x="0.5" y="0.5" width="241" height="73" rx="23.5" stroke="white" stroke-opacity="0.11"/>
<g clip-path="url(#clip1_1128_11439)">
<rect x="12" y="11" width="52" height="52" rx="16" fill="white" fill-opacity="0.07"/>
<path d="M25.4973 35.6C25.5343 33.868 25.5648 32.437 25.7664 31.2773L28.4239 32.6449C28.3049 32.6028 28.2135 32.5994 28.131 32.6449C27.9575 32.7405 27.9461 32.9802 27.9232 33.4594C27.8924 34.1053 27.8757 34.8541 27.8568 35.7394C27.8323 36.8852 27.8323 37.4779 27.8568 38.6238C27.8962 40.4674 27.926 41.7189 28.0935 42.6821C28.2512 43.589 28.5143 44.128 28.9644 44.5792C29.4098 45.0257 29.956 45.2933 30.8935 45.4564C31.8841 45.6287 33.1761 45.6641 35.0705 45.7117C37.3423 45.7687 39.02 45.7687 41.2918 45.7116C43.1861 45.6641 44.4782 45.6287 45.4688 45.4564C46.4062 45.2933 46.9524 45.0257 47.3979 44.5792C47.8479 44.128 48.1111 43.589 48.2688 42.6821C48.4362 41.7189 48.4661 40.4673 48.5055 38.6236C48.5299 37.4779 48.5299 36.8852 48.5055 35.7394C48.4866 34.854 48.4698 34.1051 48.4391 33.4591C48.4161 32.9799 48.4047 32.7403 48.2312 32.6446C48.1486 32.5991 48.057 32.6026 47.9376 32.6449L50.5958 31.2773C50.7974 32.437 50.828 33.868 50.8649 35.6L50.8667 35.6891C50.8919 36.8684 50.8919 37.4946 50.8667 38.674L50.8649 38.7631C50.828 40.495 50.7975 41.9261 50.5958 43.0857C50.381 44.3213 49.9569 45.356 49.0711 46.244C48.1807 47.1366 47.1295 47.562 45.874 47.7804C44.691 47.9861 43.2233 48.0229 41.4395 48.0677L41.3511 48.0698C39.0397 48.1278 37.3225 48.1278 35.0111 48.0699L34.9227 48.0677C33.1389 48.0229 31.6712 47.9861 30.4883 47.7804C29.2327 47.562 28.1815 47.1366 27.2911 46.244C26.4054 45.356 25.9813 44.3214 25.7664 43.0857C25.5648 41.9261 25.5343 40.495 25.4974 38.7631L25.4955 38.674C25.4703 37.4946 25.4703 36.8684 25.4954 35.6891L25.4973 35.6Z" fill="#0096FF"/>
<path opacity="0.4" d="M35.0103 26.2935C37.3217 26.2355 39.039 26.2355 41.3503 26.2935L41.4388 26.2957C43.2225 26.3404 44.6902 26.3772 45.8732 26.583C46.3108 26.6591 46.7235 26.7604 47.1134 26.8978C47.2169 26.9221 47.3164 26.9603 47.4091 27.011C48.0188 27.2636 48.57 27.6177 49.0704 28.1193C49.956 29.0073 50.3802 30.042 50.595 31.2776L47.9368 32.6452C47.8055 32.6917 47.6405 32.7852 47.4169 32.9119L42.411 35.7483C40.8751 36.6186 39.576 37.1818 38.18 37.1818C36.7841 37.1818 35.4851 36.6186 33.9492 35.7483L28.9438 32.9121C28.7198 32.7852 28.5546 32.6916 28.4231 32.6452L25.7656 31.2776C25.9805 30.042 26.4046 29.0073 27.2903 28.1193C28.1807 27.2267 29.2319 26.8014 30.4874 26.583C31.6704 26.3772 33.1381 26.3404 34.9219 26.2957L35.0103 26.2935Z" fill="#0096FF"/>
<g filter="url(#filter0_f_1128_11439)">
<circle cx="37.4688" cy="39.4668" r="6.5" fill="#0096FF"/>
</g>
</g>
<rect x="12.5" y="11.5" width="51" height="51" rx="15.5" stroke="white" stroke-opacity="0.28"/>
<path d="M78.106 25V15.102H82.012C82.516 15.102 82.992 15.1533 83.44 15.256C83.888 15.3493 84.2847 15.5173 84.63 15.76C84.9753 15.9933 85.246 16.3153 85.442 16.726C85.638 17.1367 85.736 17.6453 85.736 18.252C85.736 18.756 85.6473 19.1993 85.47 19.582C85.2927 19.9647 85.0453 20.2867 84.728 20.548C84.42 20.8093 84.0513 21.01 83.622 21.15L85.792 25H83.832L81.886 21.43H79.856V25H78.106ZM79.856 19.876H81.774C82.0913 19.876 82.3807 19.8527 82.642 19.806C82.9127 19.75 83.146 19.6613 83.342 19.54C83.5473 19.4187 83.7013 19.2553 83.804 19.05C83.916 18.8353 83.9767 18.5647 83.986 18.238C83.986 17.846 83.902 17.538 83.734 17.314C83.5753 17.09 83.342 16.9313 83.034 16.838C82.7353 16.7447 82.376 16.698 81.956 16.698H79.856V19.876ZM87.328 25V17.622H89.036V25H87.328ZM88.182 16.768C87.8553 16.768 87.594 16.67 87.398 16.474C87.202 16.278 87.104 16.0213 87.104 15.704C87.104 15.396 87.2066 15.144 87.412 14.948C87.6173 14.7427 87.874 14.64 88.182 14.64C88.4806 14.64 88.7373 14.738 88.952 14.934C89.1666 15.13 89.274 15.3867 89.274 15.704C89.274 16.0213 89.1713 16.278 88.966 16.474C88.7606 16.67 88.4993 16.768 88.182 16.768ZM93.5192 25.098C93.1646 25.098 92.8099 25.0607 92.4552 24.986C92.1099 24.9113 91.7832 24.79 91.4752 24.622C91.1672 24.4447 90.9106 24.2067 90.7052 23.908C90.4999 23.6093 90.3646 23.236 90.2992 22.788H92.0212C92.0959 22.9933 92.2126 23.1613 92.3712 23.292C92.5392 23.4133 92.7306 23.5067 92.9452 23.572C93.1692 23.628 93.3886 23.656 93.6032 23.656C93.7339 23.656 93.8739 23.6467 94.0232 23.628C94.1819 23.6093 94.3266 23.572 94.4572 23.516C94.5972 23.46 94.7092 23.3807 94.7932 23.278C94.8772 23.166 94.9192 23.0213 94.9192 22.844C94.9192 22.676 94.8726 22.5453 94.7792 22.452C94.6859 22.3493 94.5599 22.27 94.4012 22.214C94.2426 22.1487 94.0512 22.0973 93.8272 22.06C93.4259 21.976 92.9966 21.8873 92.5392 21.794C92.0819 21.6913 91.6852 21.5327 91.3492 21.318C91.2092 21.234 91.0879 21.136 90.9852 21.024C90.8826 20.912 90.7939 20.7907 90.7192 20.66C90.6539 20.52 90.6026 20.3707 90.5652 20.212C90.5372 20.0533 90.5232 19.8807 90.5232 19.694C90.5232 19.302 90.6026 18.9707 90.7612 18.7C90.9292 18.42 91.1486 18.196 91.4192 18.028C91.6992 17.8507 92.0166 17.72 92.3712 17.636C92.7259 17.552 93.0899 17.51 93.4632 17.51C93.9672 17.51 94.4246 17.5893 94.8352 17.748C95.2459 17.9067 95.5866 18.1493 95.8572 18.476C96.1372 18.8027 96.3052 19.218 96.3612 19.722H94.7372C94.6906 19.4887 94.5459 19.302 94.3032 19.162C94.0699 19.022 93.7712 18.952 93.4072 18.952C93.2766 18.952 93.1412 18.966 93.0012 18.994C92.8612 19.0127 92.7259 19.05 92.5952 19.106C92.4739 19.1527 92.3712 19.2273 92.2872 19.33C92.2126 19.4327 92.1752 19.5587 92.1752 19.708C92.1752 19.848 92.2079 19.9693 92.2732 20.072C92.3479 20.1747 92.4552 20.2633 92.5952 20.338C92.7446 20.4033 92.9172 20.4593 93.1132 20.506C93.4306 20.5713 93.7619 20.6367 94.1072 20.702C94.4526 20.7673 94.7512 20.8327 95.0032 20.898C95.3019 20.982 95.5726 21.1033 95.8152 21.262C96.0579 21.4113 96.2446 21.612 96.3752 21.864C96.5152 22.1067 96.5852 22.4193 96.5852 22.802C96.5852 23.25 96.4919 23.6233 96.3052 23.922C96.1279 24.2207 95.8899 24.454 95.5912 24.622C95.2926 24.79 94.9612 24.9113 94.5972 24.986C94.2332 25.0607 93.8739 25.098 93.5192 25.098ZM97.8416 25V15.102H99.5496V20.576H100.614L102.56 17.622H104.478L102.084 21.136L104.674 25H102.686L100.712 22.074H99.5496V25H97.8416ZM113.819 25.112C112.792 25.112 111.929 24.902 111.229 24.482C110.529 24.0527 110.001 23.46 109.647 22.704C109.292 21.948 109.115 21.0707 109.115 20.072C109.115 19.0733 109.297 18.1913 109.661 17.426C110.025 16.6607 110.557 16.0633 111.257 15.634C111.957 15.1953 112.811 14.976 113.819 14.976C114.565 14.976 115.223 15.102 115.793 15.354C116.362 15.606 116.824 15.9653 117.179 16.432C117.543 16.8893 117.776 17.454 117.879 18.126H116.185C116.054 17.65 115.788 17.2767 115.387 17.006C114.985 16.7353 114.463 16.6 113.819 16.6C113.119 16.6 112.554 16.7633 112.125 17.09C111.695 17.4167 111.383 17.8367 111.187 18.35C111 18.8633 110.907 19.414 110.907 20.002C110.907 20.6087 111.005 21.178 111.201 21.71C111.406 22.242 111.728 22.6713 112.167 22.998C112.605 23.3247 113.17 23.488 113.861 23.488C114.29 23.488 114.663 23.4273 114.981 23.306C115.307 23.1847 115.578 23.012 115.793 22.788C116.017 22.5547 116.171 22.284 116.255 21.976H118.033C117.921 22.6387 117.669 23.2033 117.277 23.67C116.894 24.1367 116.404 24.496 115.807 24.748C115.219 24.9907 114.556 25.112 113.819 25.112ZM122.708 25.098C121.952 25.098 121.298 24.944 120.748 24.636C120.206 24.328 119.786 23.8893 119.488 23.32C119.198 22.7507 119.054 22.0833 119.054 21.318C119.054 20.5433 119.203 19.876 119.502 19.316C119.8 18.7467 120.22 18.3033 120.762 17.986C121.303 17.6687 121.952 17.51 122.708 17.51C123.454 17.51 124.098 17.6687 124.64 17.986C125.181 18.3033 125.596 18.7513 125.886 19.33C126.175 19.8993 126.32 20.5713 126.32 21.346C126.32 22.102 126.175 22.7647 125.886 23.334C125.606 23.894 125.195 24.328 124.654 24.636C124.112 24.944 123.464 25.098 122.708 25.098ZM122.694 23.544C123.16 23.544 123.534 23.4413 123.814 23.236C124.103 23.0307 124.313 22.76 124.444 22.424C124.574 22.088 124.64 21.724 124.64 21.332C124.64 20.94 124.574 20.5713 124.444 20.226C124.313 19.8807 124.103 19.6053 123.814 19.4C123.534 19.1853 123.16 19.078 122.694 19.078C122.227 19.078 121.849 19.1853 121.56 19.4C121.27 19.6053 121.06 19.8807 120.93 20.226C120.799 20.562 120.734 20.9307 120.734 21.332C120.734 21.724 120.799 22.0927 120.93 22.438C121.07 22.774 121.28 23.0447 121.56 23.25C121.849 23.446 122.227 23.544 122.694 23.544ZM127.687 25V17.622H129.283L129.381 18.56C129.577 18.2987 129.806 18.0933 130.067 17.944C130.329 17.7947 130.604 17.6873 130.893 17.622C131.183 17.5473 131.453 17.51 131.705 17.51C132.405 17.51 132.956 17.664 133.357 17.972C133.768 18.28 134.057 18.6907 134.225 19.204C134.393 19.7173 134.477 20.2913 134.477 20.926V25H132.769V21.206C132.769 20.9353 132.751 20.674 132.713 20.422C132.676 20.1607 132.601 19.9273 132.489 19.722C132.387 19.5167 132.237 19.3533 132.041 19.232C131.845 19.1107 131.584 19.05 131.257 19.05C130.856 19.05 130.515 19.1573 130.235 19.372C129.955 19.5867 129.745 19.876 129.605 20.24C129.465 20.5947 129.395 21.0007 129.395 21.458V25H127.687ZM139.302 25C138.705 25 138.21 24.9207 137.818 24.762C137.435 24.6033 137.146 24.3467 136.95 23.992C136.763 23.6373 136.67 23.1613 136.67 22.564V19.134H135.536V17.622H136.67V15.564H138.378V17.622H140.1V19.134H138.378V22.34C138.378 22.7133 138.443 22.998 138.574 23.194C138.705 23.39 138.999 23.488 139.456 23.488H140.044V25H139.302ZM141.236 25V17.622H142.79L142.888 18.588C143.075 18.308 143.285 18.0933 143.518 17.944C143.761 17.7853 144.017 17.6733 144.288 17.608C144.568 17.5427 144.848 17.51 145.128 17.51C145.231 17.51 145.324 17.51 145.408 17.51C145.501 17.51 145.576 17.5147 145.632 17.524V19.148H145.184C144.699 19.148 144.288 19.2413 143.952 19.428C143.616 19.6147 143.364 19.8807 143.196 20.226C143.028 20.5713 142.944 20.996 142.944 21.5V25H141.236ZM149.874 25.098C149.118 25.098 148.464 24.944 147.914 24.636C147.372 24.328 146.952 23.8893 146.654 23.32C146.364 22.7507 146.22 22.0833 146.22 21.318C146.22 20.5433 146.369 19.876 146.668 19.316C146.966 18.7467 147.386 18.3033 147.928 17.986C148.469 17.6687 149.118 17.51 149.874 17.51C150.62 17.51 151.264 17.6687 151.806 17.986C152.347 18.3033 152.762 18.7513 153.052 19.33C153.341 19.8993 153.486 20.5713 153.486 21.346C153.486 22.102 153.341 22.7647 153.052 23.334C152.772 23.894 152.361 24.328 151.82 24.636C151.278 24.944 150.63 25.098 149.874 25.098ZM149.86 23.544C150.326 23.544 150.7 23.4413 150.98 23.236C151.269 23.0307 151.479 22.76 151.61 22.424C151.74 22.088 151.806 21.724 151.806 21.332C151.806 20.94 151.74 20.5713 151.61 20.226C151.479 19.8807 151.269 19.6053 150.98 19.4C150.7 19.1853 150.326 19.078 149.86 19.078C149.393 19.078 149.015 19.1853 148.726 19.4C148.436 19.6053 148.226 19.8807 148.096 20.226C147.965 20.562 147.9 20.9307 147.9 21.332C147.9 21.724 147.965 22.0927 148.096 22.438C148.236 22.774 148.446 23.0447 148.726 23.25C149.015 23.446 149.393 23.544 149.86 23.544ZM154.853 25V15.102H156.561V25H154.853Z" fill="white"/>
<path d="M78.0568 45V36.2727H81.0057C81.6875 36.2727 82.2472 36.3892 82.6847 36.6222C83.1222 36.8523 83.446 37.169 83.6562 37.5724C83.8665 37.9759 83.9716 38.4347 83.9716 38.9489C83.9716 39.4631 83.8665 39.919 83.6562 40.3168C83.446 40.7145 83.1236 41.027 82.6889 41.2543C82.2543 41.4787 81.6989 41.5909 81.0227 41.5909H78.6364V40.6364H80.9886C81.4545 40.6364 81.8295 40.5682 82.1136 40.4318C82.4006 40.2955 82.608 40.1023 82.7358 39.8523C82.8665 39.5994 82.9318 39.2983 82.9318 38.9489C82.9318 38.5994 82.8665 38.294 82.7358 38.0327C82.6051 37.7713 82.3963 37.5696 82.1094 37.4276C81.8224 37.2827 81.4432 37.2102 80.9716 37.2102H79.1136V45H78.0568ZM82.1648 41.0795L84.3125 45H83.0852L80.9716 41.0795H82.1648ZM87.7702 45.1364C87.1396 45.1364 86.5955 44.9972 86.1381 44.7188C85.6836 44.4375 85.3327 44.0455 85.0856 43.5426C84.8413 43.0369 84.7191 42.4489 84.7191 41.7784C84.7191 41.108 84.8413 40.517 85.0856 40.0057C85.3327 39.4915 85.6765 39.0909 86.1168 38.804C86.56 38.5142 87.0771 38.3693 87.668 38.3693C88.0089 38.3693 88.3455 38.4261 88.6779 38.5398C89.0103 38.6534 89.3129 38.8381 89.5856 39.0938C89.8583 39.3466 90.0756 39.6818 90.2376 40.0994C90.3995 40.517 90.4805 41.0312 90.4805 41.642V42.0682H85.435V41.1989H89.4577C89.4577 40.8295 89.3839 40.5 89.2362 40.2102C89.0913 39.9205 88.8839 39.6918 88.614 39.5241C88.3469 39.3565 88.0316 39.2727 87.668 39.2727C87.2674 39.2727 86.9208 39.3722 86.6282 39.571C86.3384 39.767 86.1154 40.0227 85.9592 40.3381C85.8029 40.6534 85.7248 40.9915 85.7248 41.3523V41.9318C85.7248 42.4261 85.81 42.8452 85.9805 43.1889C86.1538 43.5298 86.3938 43.7898 86.7006 43.9688C87.0075 44.1449 87.364 44.233 87.7702 44.233C88.0344 44.233 88.2731 44.196 88.4862 44.1222C88.7021 44.0455 88.8881 43.9318 89.0444 43.7812C89.2006 43.6278 89.3214 43.4375 89.4066 43.2102L90.3782 43.483C90.2759 43.8125 90.104 44.1023 89.8626 44.3523C89.6211 44.5994 89.3228 44.7926 88.9677 44.9318C88.6126 45.0682 88.2134 45.1364 87.7702 45.1364ZM93.4364 45.1534C93.0217 45.1534 92.6452 45.0753 92.3072 44.919C91.9691 44.7599 91.7006 44.5312 91.5018 44.233C91.3029 43.9318 91.2035 43.5682 91.2035 43.142C91.2035 42.767 91.2773 42.4631 91.4251 42.2301C91.5728 41.9943 91.7702 41.8097 92.0174 41.6761C92.2646 41.5426 92.5373 41.4432 92.8356 41.3778C93.1367 41.3097 93.4393 41.2557 93.7433 41.2159C94.141 41.1648 94.4634 41.1264 94.7106 41.1009C94.9606 41.0724 95.1424 41.0256 95.256 40.9602C95.3725 40.8949 95.4308 40.7812 95.4308 40.6193V40.5852C95.4308 40.1648 95.3157 39.8381 95.0856 39.6051C94.8583 39.3722 94.5131 39.2557 94.0501 39.2557C93.57 39.2557 93.1935 39.3608 92.9208 39.571C92.6481 39.7812 92.4563 40.0057 92.3455 40.2443L91.391 39.9034C91.5614 39.5057 91.7887 39.196 92.0728 38.9744C92.3597 38.75 92.6722 38.5937 93.0103 38.5057C93.3512 38.4148 93.6864 38.3693 94.016 38.3693C94.2262 38.3693 94.4677 38.3949 94.7404 38.446C95.016 38.4943 95.2816 38.5952 95.5373 38.7486C95.7958 38.902 96.0103 39.1335 96.1808 39.4432C96.3512 39.7528 96.4364 40.1676 96.4364 40.6875V45H95.4308V44.1136H95.3796C95.3114 44.2557 95.1978 44.4077 95.0387 44.5696C94.8796 44.7315 94.668 44.8693 94.4038 44.983C94.1396 45.0966 93.8171 45.1534 93.4364 45.1534ZM93.5898 44.25C93.9876 44.25 94.3228 44.1719 94.5955 44.0156C94.8711 43.8594 95.0785 43.6577 95.2177 43.4105C95.3597 43.1634 95.4308 42.9034 95.4308 42.6307V41.7102C95.3881 41.7614 95.2944 41.8082 95.1495 41.8509C95.0075 41.8906 94.8427 41.9261 94.6552 41.9574C94.4705 41.9858 94.2901 42.0114 94.114 42.0341C93.9407 42.054 93.8001 42.071 93.6921 42.0852C93.4308 42.1193 93.1864 42.1747 92.9592 42.2514C92.7347 42.3253 92.5529 42.4375 92.4137 42.5881C92.2773 42.7358 92.2092 42.9375 92.2092 43.1932C92.2092 43.5426 92.3384 43.8068 92.5969 43.9858C92.8583 44.1619 93.1893 44.25 93.5898 44.25ZM98.7777 36.2727V45H97.772V36.2727H98.7777ZM103.87 40.7898V41.7273H100.051V40.7898H103.87ZM107.986 38.4545V39.3068H104.594V38.4545H107.986ZM105.582 36.8864H106.588V43.125C106.588 43.4091 106.629 43.6222 106.712 43.7642C106.797 43.9034 106.905 43.9972 107.036 44.0455C107.169 44.0909 107.31 44.1136 107.457 44.1136C107.568 44.1136 107.659 44.108 107.73 44.0966C107.801 44.0824 107.858 44.071 107.901 44.0625L108.105 44.9659C108.037 44.9915 107.942 45.017 107.82 45.0426C107.697 45.071 107.543 45.0852 107.355 45.0852C107.071 45.0852 106.793 45.0241 106.52 44.902C106.25 44.7798 106.026 44.5938 105.847 44.3438C105.67 44.0938 105.582 43.7784 105.582 43.3977V36.8864ZM108.999 45V38.4545H110.004V45H108.999ZM109.51 37.3636C109.314 37.3636 109.145 37.2969 109.003 37.1634C108.864 37.0298 108.794 36.8693 108.794 36.6818C108.794 36.4943 108.864 36.3338 109.003 36.2003C109.145 36.0668 109.314 36 109.51 36C109.706 36 109.874 36.0668 110.013 36.2003C110.155 36.3338 110.226 36.4943 110.226 36.6818C110.226 36.8693 110.155 37.0298 110.013 37.1634C109.874 37.2969 109.706 37.3636 109.51 37.3636ZM111.346 45V38.4545H112.318V39.4773H112.403C112.539 39.1278 112.76 38.8565 113.064 38.6634C113.368 38.4673 113.733 38.3693 114.159 38.3693C114.591 38.3693 114.95 38.4673 115.237 38.6634C115.527 38.8565 115.752 39.1278 115.914 39.4773H115.983C116.15 39.1392 116.402 38.8707 116.737 38.6719C117.072 38.4702 117.474 38.3693 117.943 38.3693C118.528 38.3693 119.007 38.5526 119.379 38.919C119.751 39.2827 119.937 39.8494 119.937 40.6193V45H118.931V40.6193C118.931 40.1364 118.799 39.7912 118.535 39.5838C118.271 39.3764 117.96 39.2727 117.602 39.2727C117.142 39.2727 116.785 39.4119 116.532 39.6903C116.279 39.9659 116.153 40.3153 116.153 40.7386V45H115.13V40.517C115.13 40.1449 115.01 39.8452 114.768 39.6179C114.527 39.3878 114.216 39.2727 113.835 39.2727C113.574 39.2727 113.329 39.3423 113.102 39.4815C112.877 39.6207 112.696 39.8139 112.556 40.0611C112.42 40.3054 112.352 40.5881 112.352 40.9091V45H111.346ZM124.02 45.1364C123.39 45.1364 122.846 44.9972 122.388 44.7188C121.934 44.4375 121.583 44.0455 121.336 43.5426C121.091 43.0369 120.969 42.4489 120.969 41.7784C120.969 41.108 121.091 40.517 121.336 40.0057C121.583 39.4915 121.926 39.0909 122.367 38.804C122.81 38.5142 123.327 38.3693 123.918 38.3693C124.259 38.3693 124.596 38.4261 124.928 38.5398C125.26 38.6534 125.563 38.8381 125.836 39.0938C126.108 39.3466 126.326 39.6818 126.488 40.0994C126.65 40.517 126.73 41.0312 126.73 41.642V42.0682H121.685V41.1989H125.708C125.708 40.8295 125.634 40.5 125.486 40.2102C125.341 39.9205 125.134 39.6918 124.864 39.5241C124.597 39.3565 124.282 39.2727 123.918 39.2727C123.517 39.2727 123.171 39.3722 122.878 39.571C122.588 39.767 122.365 40.0227 122.209 40.3381C122.053 40.6534 121.975 40.9915 121.975 41.3523V41.9318C121.975 42.4261 122.06 42.8452 122.23 43.1889C122.404 43.5298 122.644 43.7898 122.951 43.9688C123.257 44.1449 123.614 44.233 124.02 44.233C124.284 44.233 124.523 44.196 124.736 44.1222C124.952 44.0455 125.138 43.9318 125.294 43.7812C125.451 43.6278 125.571 43.4375 125.657 43.2102L126.628 43.483C126.526 43.8125 126.354 44.1023 126.113 44.3523C125.871 44.5994 125.573 44.7926 125.218 44.9318C124.863 45.0682 124.463 45.1364 124.02 45.1364ZM130.635 45V38.4545H131.607V39.4773H131.692C131.828 39.1278 132.049 38.8565 132.353 38.6634C132.657 38.4673 133.022 38.3693 133.448 38.3693C133.88 38.3693 134.239 38.4673 134.526 38.6634C134.816 38.8565 135.042 39.1278 135.203 39.4773H135.272C135.439 39.1392 135.691 38.8707 136.026 38.6719C136.361 38.4702 136.763 38.3693 137.232 38.3693C137.817 38.3693 138.296 38.5526 138.668 38.919C139.04 39.2827 139.226 39.8494 139.226 40.6193V45H138.221V40.6193C138.221 40.1364 138.088 39.7912 137.824 39.5838C137.56 39.3764 137.249 39.2727 136.891 39.2727C136.431 39.2727 136.074 39.4119 135.821 39.6903C135.569 39.9659 135.442 40.3153 135.442 40.7386V45H134.419V40.517C134.419 40.1449 134.299 39.8452 134.057 39.6179C133.816 39.3878 133.505 39.2727 133.124 39.2727C132.863 39.2727 132.618 39.3423 132.391 39.4815C132.167 39.6207 131.985 39.8139 131.846 40.0611C131.709 40.3054 131.641 40.5881 131.641 40.9091V45H130.635ZM143.224 45.1364C142.633 45.1364 142.115 44.9957 141.669 44.7145C141.225 44.4332 140.879 44.0398 140.629 43.5341C140.382 43.0284 140.258 42.4375 140.258 41.7614C140.258 41.0795 140.382 40.4844 140.629 39.9759C140.879 39.4673 141.225 39.0724 141.669 38.7912C142.115 38.5099 142.633 38.3693 143.224 38.3693C143.815 38.3693 144.332 38.5099 144.775 38.7912C145.221 39.0724 145.568 39.4673 145.815 39.9759C146.065 40.4844 146.19 41.0795 146.19 41.7614C146.19 42.4375 146.065 43.0284 145.815 43.5341C145.568 44.0398 145.221 44.4332 144.775 44.7145C144.332 44.9957 143.815 45.1364 143.224 45.1364ZM143.224 44.233C143.673 44.233 144.042 44.1179 144.332 43.8878C144.622 43.6577 144.836 43.3551 144.975 42.9801C145.115 42.6051 145.184 42.1989 145.184 41.7614C145.184 41.3239 145.115 40.9162 144.975 40.5384C144.836 40.1605 144.622 39.8551 144.332 39.6222C144.042 39.3892 143.673 39.2727 143.224 39.2727C142.775 39.2727 142.406 39.3892 142.116 39.6222C141.826 39.8551 141.612 40.1605 141.473 40.5384C141.333 40.9162 141.264 41.3239 141.264 41.7614C141.264 42.1989 141.333 42.6051 141.473 42.9801C141.612 43.3551 141.826 43.6577 142.116 43.8878C142.406 44.1179 142.775 44.233 143.224 44.233ZM148.231 41.0625V45H147.225V38.4545H148.197V39.4773H148.282C148.435 39.1449 148.668 38.8778 148.981 38.6761C149.293 38.4716 149.697 38.3693 150.191 38.3693C150.634 38.3693 151.022 38.4602 151.354 38.642C151.687 38.821 151.945 39.0938 152.13 39.4602C152.315 39.8239 152.407 40.2841 152.407 40.8409V45H151.401V40.9091C151.401 40.3949 151.268 39.9943 151.001 39.7074C150.734 39.4176 150.367 39.2727 149.901 39.2727C149.58 39.2727 149.293 39.3423 149.04 39.4815C148.79 39.6207 148.593 39.8239 148.448 40.0909C148.303 40.358 148.231 40.6818 148.231 41.0625ZM153.745 45V38.4545H154.75V45H153.745ZM154.256 37.3636C154.06 37.3636 153.891 37.2969 153.749 37.1634C153.61 37.0298 153.54 36.8693 153.54 36.6818C153.54 36.4943 153.61 36.3338 153.749 36.2003C153.891 36.0668 154.06 36 154.256 36C154.452 36 154.62 36.0668 154.759 36.2003C154.901 36.3338 154.972 36.4943 154.972 36.6818C154.972 36.8693 154.901 37.0298 154.759 37.1634C154.62 37.2969 154.452 37.3636 154.256 37.3636ZM158.939 38.4545V39.3068H155.547V38.4545H158.939ZM156.536 36.8864H157.541V43.125C157.541 43.4091 157.582 43.6222 157.665 43.7642C157.75 43.9034 157.858 43.9972 157.989 44.0455C158.122 44.0909 158.263 44.1136 158.411 44.1136C158.521 44.1136 158.612 44.108 158.683 44.0966C158.754 44.0824 158.811 44.071 158.854 44.0625L159.058 44.9659C158.99 44.9915 158.895 45.017 158.773 45.0426C158.651 45.071 158.496 45.0852 158.308 45.0852C158.024 45.0852 157.746 45.0241 157.473 44.902C157.203 44.7798 156.979 44.5938 156.8 44.3438C156.624 44.0938 156.536 43.7784 156.536 43.3977V36.8864ZM162.54 45.1364C161.95 45.1364 161.431 44.9957 160.985 44.7145C160.542 44.4332 160.195 44.0398 159.945 43.5341C159.698 43.0284 159.575 42.4375 159.575 41.7614C159.575 41.0795 159.698 40.4844 159.945 39.9759C160.195 39.4673 160.542 39.0724 160.985 38.7912C161.431 38.5099 161.95 38.3693 162.54 38.3693C163.131 38.3693 163.648 38.5099 164.092 38.7912C164.538 39.0724 164.884 39.4673 165.131 39.9759C165.381 40.4844 165.506 41.0795 165.506 41.7614C165.506 42.4375 165.381 43.0284 165.131 43.5341C164.884 44.0398 164.538 44.4332 164.092 44.7145C163.648 44.9957 163.131 45.1364 162.54 45.1364ZM162.54 44.233C162.989 44.233 163.359 44.1179 163.648 43.8878C163.938 43.6577 164.153 43.3551 164.292 42.9801C164.431 42.6051 164.501 42.1989 164.501 41.7614C164.501 41.3239 164.431 40.9162 164.292 40.5384C164.153 40.1605 163.938 39.8551 163.648 39.6222C163.359 39.3892 162.989 39.2727 162.54 39.2727C162.092 39.2727 161.722 39.3892 161.433 39.6222C161.143 39.8551 160.928 40.1605 160.789 40.5384C160.65 40.9162 160.58 41.3239 160.58 41.7614C160.58 42.1989 160.65 42.6051 160.789 42.9801C160.928 43.3551 161.143 43.6577 161.433 43.8878C161.722 44.1179 162.092 44.233 162.54 44.233ZM166.542 45V38.4545H167.513V39.4432H167.581C167.701 39.1193 167.917 38.8565 168.229 38.6548C168.542 38.4531 168.894 38.3523 169.286 38.3523C169.36 38.3523 169.452 38.3537 169.563 38.3565C169.674 38.3594 169.757 38.3636 169.814 38.3693V39.392C169.78 39.3835 169.702 39.3707 169.58 39.3537C169.461 39.3338 169.334 39.3239 169.201 39.3239C168.882 39.3239 168.598 39.3906 168.348 39.5241C168.101 39.6548 167.905 39.8366 167.76 40.0696C167.618 40.2997 167.547 40.5625 167.547 40.858V45H166.542ZM170.506 45V38.4545H171.512V45H170.506ZM171.018 37.3636C170.822 37.3636 170.653 37.2969 170.511 37.1634C170.371 37.0298 170.302 36.8693 170.302 36.6818C170.302 36.4943 170.371 36.3338 170.511 36.2003C170.653 36.0668 170.822 36 171.018 36C171.214 36 171.381 36.0668 171.521 36.2003C171.663 36.3338 171.734 36.4943 171.734 36.6818C171.734 36.8693 171.663 37.0298 171.521 37.1634C171.381 37.2969 171.214 37.3636 171.018 37.3636ZM173.86 41.0625V45H172.854V38.4545H173.826V39.4773H173.911C174.064 39.1449 174.297 38.8778 174.61 38.6761C174.922 38.4716 175.326 38.3693 175.82 38.3693C176.263 38.3693 176.651 38.4602 176.983 38.642C177.316 38.821 177.574 39.0938 177.759 39.4602C177.944 39.8239 178.036 40.2841 178.036 40.8409V45H177.03V40.9091C177.03 40.3949 176.897 39.9943 176.63 39.7074C176.363 39.4176 175.996 39.2727 175.53 39.2727C175.209 39.2727 174.922 39.3423 174.669 39.4815C174.419 39.6207 174.222 39.8239 174.077 40.0909C173.932 40.358 173.86 40.6818 173.86 41.0625ZM182.016 47.5909C181.53 47.5909 181.112 47.5284 180.763 47.4034C180.413 47.2812 180.122 47.1193 179.889 46.9176C179.659 46.7188 179.476 46.5057 179.339 46.2784L180.141 45.7159C180.232 45.8352 180.347 45.9716 180.486 46.125C180.625 46.2812 180.815 46.4162 181.057 46.5298C181.301 46.6463 181.621 46.7045 182.016 46.7045C182.544 46.7045 182.98 46.5767 183.324 46.321C183.668 46.0653 183.839 45.6648 183.839 45.1193V43.7898H183.754C183.68 43.9091 183.575 44.0568 183.439 44.233C183.305 44.4062 183.112 44.5611 182.859 44.6974C182.609 44.831 182.271 44.8977 181.845 44.8977C181.317 44.8977 180.842 44.7727 180.422 44.5227C180.004 44.2727 179.673 43.9091 179.429 43.4318C179.188 42.9545 179.067 42.375 179.067 41.6932C179.067 41.0227 179.185 40.4389 179.42 39.9418C179.656 39.4418 179.984 39.0554 180.405 38.7827C180.825 38.5071 181.311 38.3693 181.862 38.3693C182.288 38.3693 182.626 38.4403 182.876 38.5824C183.129 38.7216 183.322 38.8807 183.456 39.0597C183.592 39.2358 183.697 39.3807 183.771 39.4943H183.874V38.4545H184.845V45.1875C184.845 45.75 184.717 46.2074 184.462 46.5597C184.209 46.9148 183.868 47.1747 183.439 47.3395C183.013 47.5071 182.538 47.5909 182.016 47.5909ZM181.982 43.9943C182.385 43.9943 182.726 43.902 183.004 43.7173C183.283 43.5327 183.494 43.267 183.639 42.9205C183.784 42.5739 183.857 42.1591 183.857 41.6761C183.857 41.2045 183.786 40.7884 183.643 40.4276C183.501 40.0668 183.291 39.7841 183.013 39.5795C182.734 39.375 182.391 39.2727 181.982 39.2727C181.555 39.2727 181.2 39.3807 180.916 39.5966C180.635 39.8125 180.423 40.1023 180.281 40.4659C180.142 40.8295 180.072 41.233 180.072 41.6761C180.072 42.1307 180.143 42.5327 180.286 42.8821C180.43 43.2287 180.643 43.5014 180.925 43.7003C181.209 43.8963 181.561 43.9943 181.982 43.9943ZM187.686 43.8068L187.618 44.267C187.57 44.5909 187.496 44.9375 187.396 45.3068C187.3 45.6761 187.199 46.0241 187.094 46.3509C186.989 46.6776 186.902 46.9375 186.834 47.1307H186.067C186.104 46.9489 186.152 46.7088 186.212 46.4105C186.271 46.1122 186.331 45.7784 186.391 45.4091C186.453 45.0426 186.504 44.6676 186.544 44.2841L186.595 43.8068H187.686ZM191.924 45V38.4545H192.896V39.4432H192.964C193.083 39.1193 193.299 38.8565 193.612 38.6548C193.924 38.4531 194.277 38.3523 194.669 38.3523C194.743 38.3523 194.835 38.3537 194.946 38.3565C195.056 38.3594 195.14 38.3636 195.197 38.3693V39.392C195.163 39.3835 195.085 39.3707 194.963 39.3537C194.843 39.3338 194.717 39.3239 194.583 39.3239C194.265 39.3239 193.981 39.3906 193.731 39.5241C193.484 39.6548 193.288 39.8366 193.143 40.0696C193.001 40.2997 192.93 40.5625 192.93 40.858V45H191.924ZM195.889 45V38.4545H196.895V45H195.889ZM196.401 37.3636C196.205 37.3636 196.036 37.2969 195.893 37.1634C195.754 37.0298 195.685 36.8693 195.685 36.6818C195.685 36.4943 195.754 36.3338 195.893 36.2003C196.036 36.0668 196.205 36 196.401 36C196.597 36 196.764 36.0668 196.903 36.2003C197.045 36.3338 197.116 36.4943 197.116 36.6818C197.116 36.8693 197.045 37.0298 196.903 37.1634C196.764 37.2969 196.597 37.3636 196.401 37.3636ZM202.873 39.9205L201.97 40.1761C201.913 40.0256 201.829 39.8793 201.718 39.7372C201.61 39.5923 201.463 39.473 201.275 39.3793C201.088 39.2855 200.848 39.2386 200.555 39.2386C200.154 39.2386 199.821 39.331 199.554 39.5156C199.289 39.6974 199.157 39.929 199.157 40.2102C199.157 40.4602 199.248 40.6577 199.43 40.8026C199.612 40.9474 199.896 41.0682 200.282 41.1648L201.254 41.4034C201.839 41.5455 202.275 41.7628 202.562 42.0554C202.849 42.3452 202.993 42.7187 202.993 43.1761C202.993 43.5511 202.885 43.8864 202.669 44.1818C202.456 44.4773 202.157 44.7102 201.774 44.8807C201.39 45.0511 200.944 45.1364 200.436 45.1364C199.768 45.1364 199.216 44.9915 198.778 44.7017C198.341 44.4119 198.064 43.9886 197.947 43.4318L198.902 43.1932C198.993 43.5455 199.164 43.8097 199.417 43.9858C199.673 44.1619 200.007 44.25 200.419 44.25C200.887 44.25 201.26 44.1506 201.535 43.9517C201.814 43.75 201.953 43.5085 201.953 43.2273C201.953 43 201.873 42.8097 201.714 42.6562C201.555 42.5 201.311 42.3835 200.981 42.3068L199.89 42.0511C199.291 41.9091 198.85 41.6889 198.569 41.3906C198.291 41.0895 198.152 40.7131 198.152 40.2614C198.152 39.892 198.255 39.5653 198.463 39.2812C198.673 38.9972 198.958 38.7741 199.319 38.6122C199.683 38.4503 200.095 38.3693 200.555 38.3693C201.203 38.3693 201.711 38.5114 202.081 38.7955C202.453 39.0795 202.717 39.4545 202.873 39.9205ZM204.944 42.6136L204.927 41.3693H205.131L207.995 38.4545H209.239L206.188 41.5398H206.103L204.944 42.6136ZM204.006 45V36.2727H205.012V45H204.006ZM208.165 45L205.609 41.7614L206.325 41.0625L209.444 45H208.165ZM79.8466 60.1534C79.4318 60.1534 79.0554 60.0753 78.7173 59.919C78.3793 59.7599 78.1108 59.5312 77.9119 59.233C77.7131 58.9318 77.6136 58.5682 77.6136 58.142C77.6136 57.767 77.6875 57.4631 77.8352 57.2301C77.983 56.9943 78.1804 56.8097 78.4276 56.6761C78.6747 56.5426 78.9474 56.4432 79.2457 56.3778C79.5469 56.3097 79.8494 56.2557 80.1534 56.2159C80.5511 56.1648 80.8736 56.1264 81.1207 56.1009C81.3707 56.0724 81.5526 56.0256 81.6662 55.9602C81.7827 55.8949 81.8409 55.7812 81.8409 55.6193V55.5852C81.8409 55.1648 81.7259 54.8381 81.4957 54.6051C81.2685 54.3722 80.9233 54.2557 80.4602 54.2557C79.9801 54.2557 79.6037 54.3608 79.331 54.571C79.0582 54.7812 78.8665 55.0057 78.7557 55.2443L77.8011 54.9034C77.9716 54.5057 78.1989 54.196 78.483 53.9744C78.7699 53.75 79.0824 53.5937 79.4205 53.5057C79.7614 53.4148 80.0966 53.3693 80.4261 53.3693C80.6364 53.3693 80.8778 53.3949 81.1506 53.446C81.4261 53.4943 81.6918 53.5952 81.9474 53.7486C82.206 53.902 82.4205 54.1335 82.5909 54.4432C82.7614 54.7528 82.8466 55.1676 82.8466 55.6875V60H81.8409V59.1136H81.7898C81.7216 59.2557 81.608 59.4077 81.4489 59.5696C81.2898 59.7315 81.0781 59.8693 80.8139 59.983C80.5497 60.0966 80.2273 60.1534 79.8466 60.1534ZM80 59.25C80.3977 59.25 80.733 59.1719 81.0057 59.0156C81.2813 58.8594 81.4886 58.6577 81.6278 58.4105C81.7699 58.1634 81.8409 57.9034 81.8409 57.6307V56.7102C81.7983 56.7614 81.7045 56.8082 81.5597 56.8509C81.4176 56.8906 81.2528 56.9261 81.0653 56.9574C80.8807 56.9858 80.7003 57.0114 80.5241 57.0341C80.3509 57.054 80.2102 57.071 80.1023 57.0852C79.8409 57.1193 79.5966 57.1747 79.3693 57.2514C79.1449 57.3253 78.9631 57.4375 78.8239 57.5881C78.6875 57.7358 78.6193 57.9375 78.6193 58.1932C78.6193 58.5426 78.7486 58.8068 79.0071 58.9858C79.2685 59.1619 79.5994 59.25 80 59.25ZM88.8185 54.9205L87.9151 55.1761C87.8583 55.0256 87.7745 54.8793 87.6637 54.7372C87.5558 54.5923 87.408 54.473 87.2205 54.3793C87.033 54.2855 86.793 54.2386 86.5004 54.2386C86.0998 54.2386 85.766 54.331 85.4989 54.5156C85.2347 54.6974 85.1026 54.929 85.1026 55.2102C85.1026 55.4602 85.1935 55.6577 85.3754 55.8026C85.5572 55.9474 85.8413 56.0682 86.2276 56.1648L87.1992 56.4034C87.7844 56.5455 88.2205 56.7628 88.5075 57.0554C88.7944 57.3452 88.9379 57.7187 88.9379 58.1761C88.9379 58.5511 88.8299 58.8864 88.614 59.1818C88.4009 59.4773 88.1026 59.7102 87.7191 59.8807C87.3356 60.0511 86.8896 60.1364 86.381 60.1364C85.7134 60.1364 85.1609 59.9915 84.7234 59.7017C84.2859 59.4119 84.0089 58.9886 83.8924 58.4318L84.8469 58.1932C84.9379 58.5455 85.1097 58.8097 85.3626 58.9858C85.6183 59.1619 85.9521 59.25 86.364 59.25C86.8327 59.25 87.2049 59.1506 87.4805 58.9517C87.7589 58.75 87.8981 58.5085 87.8981 58.2273C87.8981 58 87.8185 57.8097 87.6594 57.6562C87.5004 57.5 87.256 57.3835 86.9265 57.3068L85.8356 57.0511C85.2362 56.9091 84.7958 56.6889 84.5146 56.3906C84.2362 56.0895 84.0969 55.7131 84.0969 55.2614C84.0969 54.892 84.2006 54.5653 84.408 54.2812C84.6183 53.9972 84.9038 53.7741 85.2646 53.6122C85.6282 53.4503 86.0401 53.3693 86.5004 53.3693C87.1481 53.3693 87.6566 53.5114 88.0259 53.7955C88.3981 54.0795 88.6623 54.4545 88.8185 54.9205ZM94.5881 54.9205L93.6847 55.1761C93.6278 55.0256 93.544 54.8793 93.4332 54.7372C93.3253 54.5923 93.1776 54.473 92.9901 54.3793C92.8026 54.2855 92.5625 54.2386 92.2699 54.2386C91.8693 54.2386 91.5355 54.331 91.2685 54.5156C91.0043 54.6974 90.8722 54.929 90.8722 55.2102C90.8722 55.4602 90.9631 55.6577 91.1449 55.8026C91.3267 55.9474 91.6108 56.0682 91.9972 56.1648L92.9688 56.4034C93.554 56.5455 93.9901 56.7628 94.277 57.0554C94.5639 57.3452 94.7074 57.7187 94.7074 58.1761C94.7074 58.5511 94.5994 58.8864 94.3835 59.1818C94.1705 59.4773 93.8722 59.7102 93.4886 59.8807C93.1051 60.0511 92.6591 60.1364 92.1506 60.1364C91.483 60.1364 90.9304 59.9915 90.4929 59.7017C90.0554 59.4119 89.7784 58.9886 89.6619 58.4318L90.6165 58.1932C90.7074 58.5455 90.8793 58.8097 91.1321 58.9858C91.3878 59.1619 91.7216 59.25 92.1335 59.25C92.6023 59.25 92.9744 59.1506 93.25 58.9517C93.5284 58.75 93.6676 58.5085 93.6676 58.2273C93.6676 58 93.5881 57.8097 93.429 57.6562C93.2699 57.5 93.0256 57.3835 92.696 57.3068L91.6051 57.0511C91.0057 56.9091 90.5653 56.6889 90.2841 56.3906C90.0057 56.0895 89.8665 55.7131 89.8665 55.2614C89.8665 54.892 89.9702 54.5653 90.1776 54.2812C90.3878 53.9972 90.6733 53.7741 91.0341 53.6122C91.3977 53.4503 91.8097 53.3693 92.2699 53.3693C92.9176 53.3693 93.4261 53.5114 93.7955 53.7955C94.1676 54.0795 94.4318 54.4545 94.5881 54.9205ZM98.4656 60.1364C97.8349 60.1364 97.2908 59.9972 96.8335 59.7188C96.3789 59.4375 96.0281 59.0455 95.7809 58.5426C95.5366 58.0369 95.4144 57.4489 95.4144 56.7784C95.4144 56.108 95.5366 55.517 95.7809 55.0057C96.0281 54.4915 96.3718 54.0909 96.8121 53.804C97.2553 53.5142 97.7724 53.3693 98.3633 53.3693C98.7042 53.3693 99.0408 53.4261 99.3732 53.5398C99.7056 53.6534 100.008 53.8381 100.281 54.0938C100.554 54.3466 100.771 54.6818 100.933 55.0994C101.095 55.517 101.176 56.0312 101.176 56.642V57.0682H96.1303V56.1989H100.153C100.153 55.8295 100.079 55.5 99.9315 55.2102C99.7866 54.9205 99.5792 54.6918 99.3093 54.5241C99.0423 54.3565 98.7269 54.2727 98.3633 54.2727C97.9627 54.2727 97.6161 54.3722 97.3235 54.571C97.0337 54.767 96.8107 55.0227 96.6545 55.3381C96.4982 55.6534 96.4201 55.9915 96.4201 56.3523V56.9318C96.4201 57.4261 96.5053 57.8452 96.6758 58.1889C96.8491 58.5298 97.0891 58.7898 97.396 58.9688C97.7028 59.1449 98.0593 59.233 98.4656 59.233C98.7298 59.233 98.9684 59.196 99.1815 59.1222C99.3974 59.0455 99.5835 58.9318 99.7397 58.7812C99.896 58.6278 100.017 58.4375 100.102 58.2102L101.074 58.483C100.971 58.8125 100.799 59.1023 100.558 59.3523C100.316 59.5994 100.018 59.7926 99.663 59.9318C99.3079 60.0682 98.9087 60.1364 98.4656 60.1364ZM106.842 54.9205L105.939 55.1761C105.882 55.0256 105.798 54.8793 105.687 54.7372C105.579 54.5923 105.431 54.473 105.244 54.3793C105.056 54.2855 104.816 54.2386 104.524 54.2386C104.123 54.2386 103.789 54.331 103.522 54.5156C103.258 54.6974 103.126 54.929 103.126 55.2102C103.126 55.4602 103.217 55.6577 103.399 55.8026C103.581 55.9474 103.865 56.0682 104.251 56.1648L105.223 56.4034C105.808 56.5455 106.244 56.7628 106.531 57.0554C106.818 57.3452 106.961 57.7187 106.961 58.1761C106.961 58.5511 106.853 58.8864 106.637 59.1818C106.424 59.4773 106.126 59.7102 105.743 59.8807C105.359 60.0511 104.913 60.1364 104.404 60.1364C103.737 60.1364 103.184 59.9915 102.747 59.7017C102.309 59.4119 102.032 58.9886 101.916 58.4318L102.87 58.1932C102.961 58.5455 103.133 58.8097 103.386 58.9858C103.642 59.1619 103.975 59.25 104.387 59.25C104.856 59.25 105.228 59.1506 105.504 58.9517C105.782 58.75 105.922 58.5085 105.922 58.2273C105.922 58 105.842 57.8097 105.683 57.6562C105.524 57.5 105.279 57.3835 104.95 57.3068L103.859 57.0511C103.26 56.9091 102.819 56.6889 102.538 56.3906C102.26 56.0895 102.12 55.7131 102.12 55.2614C102.12 54.892 102.224 54.5653 102.431 54.2812C102.642 53.9972 102.927 53.7741 103.288 53.6122C103.652 53.4503 104.064 53.3693 104.524 53.3693C105.172 53.3693 105.68 53.5114 106.049 53.7955C106.422 54.0795 106.686 54.4545 106.842 54.9205ZM112.612 54.9205L111.708 55.1761C111.651 55.0256 111.567 54.8793 111.457 54.7372C111.349 54.5923 111.201 54.473 111.013 54.3793C110.826 54.2855 110.586 54.2386 110.293 54.2386C109.893 54.2386 109.559 54.331 109.292 54.5156C109.028 54.6974 108.896 54.929 108.896 55.2102C108.896 55.4602 108.987 55.6577 109.168 55.8026C109.35 55.9474 109.634 56.0682 110.021 56.1648L110.992 56.4034C111.577 56.5455 112.013 56.7628 112.3 57.0554C112.587 57.3452 112.731 57.7187 112.731 58.1761C112.731 58.5511 112.623 58.8864 112.407 59.1818C112.194 59.4773 111.896 59.7102 111.512 59.8807C111.129 60.0511 110.683 60.1364 110.174 60.1364C109.506 60.1364 108.954 59.9915 108.516 59.7017C108.079 59.4119 107.802 58.9886 107.685 58.4318L108.64 58.1932C108.731 58.5455 108.903 58.8097 109.156 58.9858C109.411 59.1619 109.745 59.25 110.157 59.25C110.626 59.25 110.998 59.1506 111.273 58.9517C111.552 58.75 111.691 58.5085 111.691 58.2273C111.691 58 111.612 57.8097 111.452 57.6562C111.293 57.5 111.049 57.3835 110.719 57.3068L109.629 57.0511C109.029 56.9091 108.589 56.6889 108.308 56.3906C108.029 56.0895 107.89 55.7131 107.89 55.2614C107.89 54.892 107.994 54.5653 108.201 54.2812C108.411 53.9972 108.697 53.7741 109.058 53.6122C109.421 53.4503 109.833 53.3693 110.293 53.3693C110.941 53.3693 111.45 53.5114 111.819 53.7955C112.191 54.0795 112.455 54.4545 112.612 54.9205ZM113.745 60V53.4545H114.716V54.4773H114.801C114.938 54.1278 115.158 53.8565 115.462 53.6634C115.766 53.4673 116.131 53.3693 116.557 53.3693C116.989 53.3693 117.348 53.4673 117.635 53.6634C117.925 53.8565 118.151 54.1278 118.313 54.4773H118.381C118.549 54.1392 118.8 53.8707 119.135 53.6719C119.471 53.4702 119.873 53.3693 120.341 53.3693C120.926 53.3693 121.405 53.5526 121.777 53.919C122.15 54.2827 122.336 54.8494 122.336 55.6193V60H121.33V55.6193C121.33 55.1364 121.198 54.7912 120.934 54.5838C120.669 54.3764 120.358 54.2727 120 54.2727C119.54 54.2727 119.184 54.4119 118.931 54.6903C118.678 54.9659 118.551 55.3153 118.551 55.7386V60H117.529V55.517C117.529 55.1449 117.408 54.8452 117.167 54.6179C116.925 54.3878 116.614 54.2727 116.233 54.2727C115.972 54.2727 115.728 54.3423 115.5 54.4815C115.276 54.6207 115.094 54.8139 114.955 55.0611C114.819 55.3054 114.75 55.5881 114.75 55.9091V60H113.745ZM126.419 60.1364C125.788 60.1364 125.244 59.9972 124.787 59.7188C124.332 59.4375 123.981 59.0455 123.734 58.5426C123.49 58.0369 123.368 57.4489 123.368 56.7784C123.368 56.108 123.49 55.517 123.734 55.0057C123.981 54.4915 124.325 54.0909 124.765 53.804C125.208 53.5142 125.725 53.3693 126.316 53.3693C126.657 53.3693 126.994 53.4261 127.326 53.5398C127.659 53.6534 127.961 53.8381 128.234 54.0938C128.507 54.3466 128.724 54.6818 128.886 55.0994C129.048 55.517 129.129 56.0312 129.129 56.642V57.0682H124.083V56.1989H128.106C128.106 55.8295 128.032 55.5 127.885 55.2102C127.74 54.9205 127.532 54.6918 127.262 54.5241C126.995 54.3565 126.68 54.2727 126.316 54.2727C125.916 54.2727 125.569 54.3722 125.277 54.571C124.987 54.767 124.764 55.0227 124.608 55.3381C124.451 55.6534 124.373 55.9915 124.373 56.3523V56.9318C124.373 57.4261 124.458 57.8452 124.629 58.1889C124.802 58.5298 125.042 58.7898 125.349 58.9688C125.656 59.1449 126.012 59.233 126.419 59.233C126.683 59.233 126.922 59.196 127.135 59.1222C127.35 59.0455 127.537 58.9318 127.693 58.7812C127.849 58.6278 127.97 58.4375 128.055 58.2102L129.027 58.483C128.924 58.8125 128.752 59.1023 128.511 59.3523C128.27 59.5994 127.971 59.7926 127.616 59.9318C127.261 60.0682 126.862 60.1364 126.419 60.1364ZM131.164 56.0625V60H130.159V53.4545H131.13V54.4773H131.216C131.369 54.1449 131.602 53.8778 131.914 53.6761C132.227 53.4716 132.63 53.3693 133.125 53.3693C133.568 53.3693 133.956 53.4602 134.288 53.642C134.62 53.821 134.879 54.0938 135.064 54.4602C135.248 54.8239 135.341 55.2841 135.341 55.8409V60H134.335V55.9091C134.335 55.3949 134.201 54.9943 133.934 54.7074C133.667 54.4176 133.301 54.2727 132.835 54.2727C132.514 54.2727 132.227 54.3423 131.974 54.4815C131.724 54.6207 131.527 54.8239 131.382 55.0909C131.237 55.358 131.164 55.6818 131.164 56.0625ZM139.525 53.4545V54.3068H136.133V53.4545H139.525ZM137.121 51.8864H138.127V58.125C138.127 58.4091 138.168 58.6222 138.251 58.7642C138.336 58.9034 138.444 58.9972 138.575 59.0455C138.708 59.0909 138.849 59.1136 138.996 59.1136C139.107 59.1136 139.198 59.108 139.269 59.0966C139.34 59.0824 139.397 59.071 139.44 59.0625L139.644 59.9659C139.576 59.9915 139.481 60.017 139.359 60.0426C139.237 60.071 139.082 60.0852 138.894 60.0852C138.61 60.0852 138.332 60.0241 138.059 59.902C137.789 59.7798 137.565 59.5938 137.386 59.3438C137.21 59.0938 137.121 58.7784 137.121 58.3977V51.8864Z" fill="white" fill-opacity="0.6"/>
</g>
<defs>
<clipPath id="bgblur_0_1128_11439_clip_path" transform="translate(0 0)"><rect width="242" height="74" rx="24"/>
</clipPath><filter id="filter0_f_1128_11439" x="13.3687" y="15.3668" width="48.2" height="48.2" filterUnits="userSpaceOnUse" color-interpolation-filters="sRGB">
<feFlood flood-opacity="0" result="BackgroundImageFix"/>
<feBlend mode="normal" in="SourceGraphic" in2="BackgroundImageFix" result="shape"/>
<feGaussianBlur stdDeviation="8.8" result="effect1_foregroundBlur_1128_11439"/>
</filter>
<linearGradient id="paint0_linear_1128_11439" x1="5.5" y1="5.5" x2="234" y2="71.5" gradientUnits="userSpaceOnUse">
<stop stop-opacity="0.2"/>
<stop offset="1" stop-opacity="0.01"/>
</linearGradient>
<clipPath id="clip1_1128_11439">
<rect x="12" y="11" width="52" height="52" rx="16" fill="white"/>
</clipPath>
</defs>
</svg>
