<svg width="28" height="28" viewBox="0 0 28 28" fill="none" xmlns="http://www.w3.org/2000/svg">
<path d="M3.5 25.6667H24.5" stroke="white" stroke-width="1.75" stroke-linecap="round" stroke-linejoin="round"/>
<path d="M6.53331 9.77765H4.66667C4.025 9.77765 3.5 10.3026 3.5 10.9443V21.001C3.5 21.6426 4.025 22.1676 4.66667 22.1676H6.53331C7.17497 22.1676 7.69997 21.6426 7.69997 21.001V10.9443C7.69997 10.3026 7.17497 9.77765 6.53331 9.77765Z" stroke="white" stroke-width="1.75" stroke-linecap="round" stroke-linejoin="round"/>
<path d="M14.9332 6.05664H13.0666C12.4249 6.05664 11.8999 6.58164 11.8999 7.22331V21.0016C11.8999 21.6433 12.4249 22.1683 13.0666 22.1683H14.9332C15.5749 22.1683 16.0999 21.6433 16.0999 21.0016V7.22331C16.0999 6.58164 15.5749 6.05664 14.9332 6.05664Z" stroke="white" stroke-width="1.75" stroke-linecap="round" stroke-linejoin="round"/>
<path d="M23.3333 2.33331H21.4667C20.825 2.33331 20.3 2.85831 20.3 3.49998V21C20.3 21.6416 20.825 22.1666 21.4667 22.1666H23.3333C23.975 22.1666 24.5 21.6416 24.5 21V3.49998C24.5 2.85831 23.975 2.33331 23.3333 2.33331Z" stroke="white" stroke-width="1.75" stroke-linecap="round" stroke-linejoin="round"/>
</svg>
