<svg width="28" height="28" viewBox="0 0 28 28" fill="none" xmlns="http://www.w3.org/2000/svg">
<path d="M25.6667 15.1666V10.5C25.6667 4.66665 23.3333 2.33331 17.5 2.33331H10.5C4.66667 2.33331 2.33334 4.66665 2.33334 10.5V17.5C2.33334 23.3333 4.66667 25.6666 10.5 25.6666H15.1667" stroke="white" stroke-width="1.75" stroke-linecap="round" stroke-linejoin="round"/>
<path d="M8.55165 16.905L11.3283 13.3C11.725 12.7866 12.46 12.6933 12.9733 13.09L15.1083 14.77C15.6217 15.1666 16.3567 15.0733 16.7533 14.5717L19.4483 11.095" stroke="white" stroke-width="1.75" stroke-linecap="round" stroke-linejoin="round"/>
<path d="M22.7266 18.4583L23.0533 19.1233C23.2166 19.45 23.625 19.7533 23.9866 19.8233L24.43 19.8933C25.76 20.115 26.075 21.095 25.1183 22.0633L24.71 22.4716C24.4416 22.7516 24.29 23.2883 24.3716 23.6617L24.43 23.9067C24.7916 25.5167 23.94 26.135 22.54 25.295L22.2366 25.12C21.875 24.91 21.2916 24.91 20.93 25.12L20.6266 25.295C19.2149 26.1466 18.3633 25.5167 18.7366 23.9067L18.7949 23.6617C18.8766 23.2883 18.725 22.7516 18.4566 22.4716L18.0483 22.0633C17.0916 21.095 17.4066 20.115 18.7366 19.8933L19.18 19.8233C19.53 19.765 19.9499 19.45 20.1133 19.1233L20.4399 18.4583C21.0699 17.1867 22.0966 17.1867 22.7266 18.4583Z" stroke="white" stroke-width="1.75" stroke-linecap="round" stroke-linejoin="round"/>
</svg>
