<svg width="838" height="351" viewBox="0 0 838 351" fill="none" xmlns="http://www.w3.org/2000/svg">
<path d="M49.7353 0.5H0.5V50.5M49.7353 0.5V50.5M49.7353 0.5H98.9706M49.7353 50.5H0.5M49.7353 50.5H98.9706M49.7353 50.5V100.5M0.5 50.5V100.5M98.9706 0.5V50.5M98.9706 0.5H148.206M98.9706 50.5H148.206M98.9706 50.5V100.5M148.206 0.5V50.5M148.206 0.5H197.441M148.206 50.5H197.441M148.206 50.5V100.5M197.441 0.5V50.5M197.441 0.5H246.676M197.441 50.5H246.676M197.441 50.5V100.5M246.676 0.5V50.5M246.676 0.5H295.912M246.676 50.5H295.912M246.676 50.5V100.5M295.912 0.5V50.5M295.912 0.5H345.147M295.912 50.5H345.147M295.912 50.5V100.5M345.147 0.5V50.5M345.147 0.5H394.382M345.147 50.5H394.382M345.147 50.5V100.5M394.382 0.5V50.5M394.382 0.5H443.618M394.382 50.5H443.618M394.382 50.5V100.5M443.618 0.5V50.5M443.618 0.5H492.853M443.618 50.5H492.853M443.618 50.5V100.5M492.853 0.5V50.5M492.853 0.5H542.088M492.853 50.5H542.088M492.853 50.5V100.5M542.088 0.5V50.5M542.088 0.5H591.324M542.088 50.5H591.324M542.088 50.5V100.5M591.324 0.5V50.5M591.324 0.5H640.559M591.324 50.5H640.559M591.324 50.5V100.5M640.559 0.5V50.5M640.559 0.5H689.794M640.559 50.5H689.794M640.559 50.5V100.5M689.794 0.5V50.5M689.794 0.5H739.029M689.794 50.5H739.029M689.794 50.5V100.5M739.029 0.5V50.5M739.029 0.5H788.265M739.029 50.5H788.265M739.029 50.5V100.5M788.265 0.5V50.5M788.265 0.5H837.5V50.5M788.265 50.5H837.5M788.265 50.5V100.5M837.5 50.5V100.5M49.7353 100.5H0.5M49.7353 100.5H98.9706M49.7353 100.5V150.5M0.5 100.5V150.5M98.9706 100.5H148.206M98.9706 100.5V150.5M148.206 100.5H197.441M148.206 100.5V150.5M197.441 100.5H246.676M197.441 100.5V150.5M246.676 100.5H295.912M246.676 100.5V150.5M295.912 100.5H345.147M295.912 100.5V150.5M345.147 100.5H394.382M345.147 100.5V150.5M394.382 100.5H443.618M394.382 100.5V150.5M443.618 100.5H492.853M443.618 100.5V150.5M492.853 100.5H542.088M492.853 100.5V150.5M542.088 100.5H591.324M542.088 100.5V150.5M591.324 100.5H640.559M591.324 100.5V150.5M640.559 100.5H689.794M640.559 100.5V150.5M689.794 100.5H739.029M689.794 100.5V150.5M739.029 100.5H788.265M739.029 100.5V150.5M788.265 100.5H837.5M788.265 100.5V150.5M837.5 100.5V150.5M49.7353 150.5H0.5M49.7353 150.5H98.9706M49.7353 150.5V200.5M0.5 150.5V200.5M98.9706 150.5H148.206M98.9706 150.5V200.5M148.206 150.5H197.441M148.206 150.5V200.5M197.441 150.5H246.676M197.441 150.5V200.5M246.676 150.5H295.912M246.676 150.5V200.5M295.912 150.5H345.147M295.912 150.5V200.5M345.147 150.5H394.382M345.147 150.5V200.5M394.382 150.5H443.618M394.382 150.5V200.5M443.618 150.5H492.853M443.618 150.5V200.5M492.853 150.5H542.088M492.853 150.5V200.5M542.088 150.5H591.324M542.088 150.5V200.5M591.324 150.5H640.559M591.324 150.5V200.5M640.559 150.5H689.794M640.559 150.5V200.5M689.794 150.5H739.029M689.794 150.5V200.5M739.029 150.5H788.265M739.029 150.5V200.5M788.265 150.5H837.5M788.265 150.5V200.5M837.5 150.5V200.5M49.7353 200.5H0.5M49.7353 200.5H98.9706M49.7353 200.5V250.5M0.5 200.5V250.5M98.9706 200.5H148.206M98.9706 200.5V250.5M148.206 200.5H197.441M148.206 200.5V250.5M197.441 200.5H246.676M197.441 200.5V250.5M246.676 200.5H295.912M246.676 200.5V250.5M295.912 200.5H345.147M295.912 200.5V250.5M345.147 200.5H394.382M345.147 200.5V250.5M394.382 200.5H443.618M394.382 200.5V250.5M443.618 200.5H492.853M443.618 200.5V250.5M492.853 200.5H542.088M492.853 200.5V250.5M542.088 200.5H591.324M542.088 200.5V250.5M591.324 200.5H640.559M591.324 200.5V250.5M640.559 200.5H689.794M640.559 200.5V250.5M689.794 200.5H739.029M689.794 200.5V250.5M739.029 200.5H788.265M739.029 200.5V250.5M788.265 200.5H837.5M788.265 200.5V250.5M837.5 200.5V250.5M49.7353 250.5H0.5M49.7353 250.5H98.9706M49.7353 250.5V300.5M0.5 250.5V300.5M98.9706 250.5H148.206M98.9706 250.5V300.5M148.206 250.5H197.441M148.206 250.5V300.5M197.441 250.5H246.676M197.441 250.5V300.5M246.676 250.5H295.912M246.676 250.5V300.5M295.912 250.5H345.147M295.912 250.5V300.5M345.147 250.5H394.382M345.147 250.5V300.5M394.382 250.5H443.618M394.382 250.5V300.5M443.618 250.5H492.853M443.618 250.5V300.5M492.853 250.5H542.088M492.853 250.5V300.5M542.088 250.5H591.324M542.088 250.5V300.5M591.324 250.5H640.559M591.324 250.5V300.5M640.559 250.5H689.794M640.559 250.5V300.5M689.794 250.5H739.029M689.794 250.5V300.5M739.029 250.5H788.265M739.029 250.5V300.5M788.265 250.5H837.5M788.265 250.5V300.5M837.5 250.5V300.5M49.7353 300.5H0.5M49.7353 300.5H98.9706M49.7353 300.5V350.5M0.5 300.5V350.5H49.7353M98.9706 300.5H148.206M98.9706 300.5V350.5M148.206 300.5H197.441M148.206 300.5V350.5M197.441 300.5H246.676M197.441 300.5V350.5M246.676 300.5H295.912M246.676 300.5V350.5M295.912 300.5H345.147M295.912 300.5V350.5M345.147 300.5H394.382M345.147 300.5V350.5M394.382 300.5H443.618M394.382 300.5V350.5M443.618 300.5H492.853M443.618 300.5V350.5M492.853 300.5H542.088M492.853 300.5V350.5M542.088 300.5H591.324M542.088 300.5V350.5M591.324 300.5H640.559M591.324 300.5V350.5M640.559 300.5H689.794M640.559 300.5V350.5M689.794 300.5H739.029M689.794 300.5V350.5M739.029 300.5H788.265M739.029 300.5V350.5M788.265 300.5H837.5M788.265 300.5V350.5M837.5 300.5V350.5H788.265M49.7353 350.5H98.9706M98.9706 350.5H148.206M148.206 350.5H197.441M197.441 350.5H246.676M246.676 350.5H295.912M295.912 350.5H345.147M345.147 350.5H394.382M394.382 350.5H443.618M443.618 350.5H492.853M492.853 350.5H542.088M542.088 350.5H591.324M591.324 350.5H640.559M640.559 350.5H689.794M689.794 350.5H739.029M739.029 350.5H788.265" stroke="url(#paint0_radial_1128_11560)" stroke-opacity="0.08"/>
<defs>
<radialGradient id="paint0_radial_1128_11560" cx="0" cy="0" r="1" gradientUnits="userSpaceOnUse" gradientTransform="translate(251.5 120) rotate(6.13622) scale(589.377 190.443)">
<stop stop-opacity="0.5"/>
<stop offset="1" stop-opacity="0"/>
</radialGradient>
</defs>
</svg>
