<svg width="40" height="40" viewBox="0 0 40 40" fill="none" xmlns="http://www.w3.org/2000/svg">
<path d="M10.8335 36.6667V25" stroke="white" stroke-width="2.5" stroke-miterlimit="10" stroke-linecap="round" stroke-linejoin="round"/>
<path d="M10.8335 8.33301V3.33301" stroke="white" stroke-width="2.5" stroke-miterlimit="10" stroke-linecap="round" stroke-linejoin="round"/>
<path d="M29.1665 36.667V31.667" stroke="white" stroke-width="2.5" stroke-miterlimit="10" stroke-linecap="round" stroke-linejoin="round"/>
<path d="M29.1665 14.9997V3.33301" stroke="white" stroke-width="2.5" stroke-miterlimit="10" stroke-linecap="round" stroke-linejoin="round"/>
<path d="M15.8335 11.6663V21.6663C15.8335 23.4997 15.0002 24.9997 12.5002 24.9997H9.16683C6.66683 24.9997 5.8335 23.4997 5.8335 21.6663V11.6663C5.8335 9.83301 6.66683 8.33301 9.16683 8.33301H12.5002C15.0002 8.33301 15.8335 9.83301 15.8335 11.6663Z" stroke="white" stroke-width="2.5" stroke-miterlimit="10" stroke-linecap="round" stroke-linejoin="round"/>
<path d="M34.1665 18.3333V28.3333C34.1665 30.1667 33.3332 31.6667 30.8332 31.6667H27.4998C24.9998 31.6667 24.1665 30.1667 24.1665 28.3333V18.3333C24.1665 16.5 24.9998 15 27.4998 15H30.8332C33.3332 15 34.1665 16.5 34.1665 18.3333Z" stroke="white" stroke-width="2.5" stroke-miterlimit="10" stroke-linecap="round" stroke-linejoin="round"/>
</svg>
