<svg width="28" height="28" viewBox="0 0 28 28" fill="none" xmlns="http://www.w3.org/2000/svg">
<path d="M22.1668 18.6667V7.58333C22.1668 6.3 21.1168 5.25 19.8335 5.25H14.5835" stroke="#0096FF" stroke-width="1.75" stroke-linecap="round" stroke-linejoin="round"/>
<path d="M17.5 2.33301L14 5.24967L17.5 8.16634" stroke="#0096FF" stroke-width="1.75" stroke-linecap="round" stroke-linejoin="round"/>
<path d="M5.8335 10.5V18.6667" stroke="#0096FF" stroke-width="1.75" stroke-linecap="round" stroke-linejoin="round"/>
<path d="M6.12516 9.91634C8.21924 9.91634 9.91683 8.21875 9.91683 6.12467C9.91683 4.03059 8.21924 2.33301 6.12516 2.33301C4.03108 2.33301 2.3335 4.03059 2.3335 6.12467C2.3335 8.21875 4.03108 9.91634 6.12516 9.91634Z" stroke="#0096FF" stroke-width="1.75" stroke-linecap="round" stroke-linejoin="round"/>
<path d="M5.8335 25.667C7.76649 25.667 9.3335 24.1 9.3335 22.167C9.3335 20.234 7.76649 18.667 5.8335 18.667C3.9005 18.667 2.3335 20.234 2.3335 22.167C2.3335 24.1 3.9005 25.667 5.8335 25.667Z" stroke="#0096FF" stroke-width="1.75" stroke-linecap="round" stroke-linejoin="round"/>
<path d="M22.1665 25.667C24.0995 25.667 25.6665 24.1 25.6665 22.167C25.6665 20.234 24.0995 18.667 22.1665 18.667C20.2335 18.667 18.6665 20.234 18.6665 22.167C18.6665 24.1 20.2335 25.667 22.1665 25.667Z" stroke="#0096FF" stroke-width="1.75" stroke-linecap="round" stroke-linejoin="round"/>
</svg>
