<svg width="40" height="40" viewBox="0 0 40 40" fill="none" xmlns="http://www.w3.org/2000/svg">
<path d="M3.33325 18.3337V15.0003C3.33325 9.16699 6.66659 6.66699 11.6666 6.66699H28.3333C33.3333 6.66699 36.6666 9.16699 36.6666 15.0003V25.0003C36.6666 30.8337 33.3333 33.3337 28.3333 33.3337H19.9999" stroke="white" stroke-width="2.5" stroke-miterlimit="10" stroke-linecap="round" stroke-linejoin="round"/>
<path d="M19.9999 24.1663C22.3011 24.1663 24.1666 22.3009 24.1666 19.9997C24.1666 17.6985 22.3011 15.833 19.9999 15.833C17.6987 15.833 15.8333 17.6985 15.8333 19.9997C15.8333 22.3009 17.6987 24.1663 19.9999 24.1663Z" stroke="white" stroke-width="2.5" stroke-miterlimit="10" stroke-linecap="round" stroke-linejoin="round"/>
<path d="M30.8333 15.833V24.1663" stroke="white" stroke-width="2.5" stroke-miterlimit="10" stroke-linecap="round" stroke-linejoin="round"/>
<path d="M3.33325 25.834H12.2333C13.3 25.834 14.1666 26.7006 14.1666 27.7673V29.9007" stroke="white" stroke-width="2.5" stroke-miterlimit="10" stroke-linecap="round" stroke-linejoin="round"/>
<path d="M5.36654 23.8008L3.33325 25.8341L5.36654 27.8674" stroke="white" stroke-width="2.5" stroke-miterlimit="10" stroke-linecap="round" stroke-linejoin="round"/>
<path d="M14.1666 34.6331H5.26654C4.19987 34.6331 3.33325 33.7664 3.33325 32.6997V30.5664" stroke="white" stroke-width="2.5" stroke-miterlimit="10" stroke-linecap="round" stroke-linejoin="round"/>
<path d="M12.1353 36.6682L14.1685 34.6349L12.1353 32.6016" stroke="white" stroke-width="2.5" stroke-miterlimit="10" stroke-linecap="round" stroke-linejoin="round"/>
</svg>
