<svg width="206" height="56" viewBox="0 0 206 56" fill="none" xmlns="http://www.w3.org/2000/svg">
<path d="M27.5332 27.6926V0L29.663 11.947L42.0161 19.1765V25.2419L33.801 23.7715L36.6002 18.4413L31.3061 21.2596L31.8537 23.3427L27.5332 27.6926Z" fill="white"/>
<path d="M9.38181 17.1096L25.0966 8.11694L24.4875 12.5215L13.1582 19.2507V25.1846L21.1375 23.7776L18.3965 18.4554L23.7566 21.2083L23.2409 23.3494L27.5335 27.6928H0L9.38181 25.9187V17.1096Z" fill="white"/>
<path d="M13.055 29.9636L9.38965 29.2884V38.2495L26.1891 47.8858L27.5331 55.0669V27.6926L23.3179 31.498H21.2409L18.2799 36.8379L23.3179 34.1373L25.114 43.2211L13.055 36.1013V29.9636Z" fill="white"/>
<path d="M55.0667 27.6926H27.5332L32.0097 31.9296L34.0333 31.6226L36.9154 36.842L31.5191 34.0788L29.9248 43.2896L42.1891 36.0438V30.0874L55.0667 27.6926Z" fill="white"/>
<g filter="url(#filter0_i_1075_43330)">
<path d="M41.8923 5.09277L33.1035 7.40637L44.2442 14.1645L41.8923 5.09277Z" fill="url(#paint0_linear_1075_43330)"/>
</g>
<mask id="path-6-outside-1_1075_43330" maskUnits="userSpaceOnUse" x="59.7383" y="19.5334" width="32" height="16" fill="black">
<rect fill="white" x="59.7383" y="19.5334" width="32" height="16"/>
<path d="M60.7941 34.5334V20.8279H62.3996L68.5475 31.1854H67.686L73.7556 20.8279H75.3611L75.3807 34.5334H73.5011L73.4815 23.7844H73.9319L68.528 32.8692H67.6273L62.1842 23.7844H62.6737V34.5334H60.7941ZM85.6223 34.6901C84.578 34.6901 83.6121 34.5204 82.7245 34.181C81.85 33.8286 81.0864 33.3391 80.4337 32.7126C79.7941 32.073 79.2916 31.329 78.9261 30.4805C78.5606 29.6321 78.3779 28.6988 78.3779 27.6807C78.3779 26.6625 78.5606 25.7293 78.9261 24.8808C79.2916 24.0324 79.8007 23.2949 80.4533 22.6684C81.106 22.0288 81.8695 21.5393 82.7441 21.1999C83.6317 20.8475 84.5976 20.6713 85.6418 20.6713C86.6991 20.6713 87.6716 20.854 88.5592 21.2195C89.4598 21.5719 90.2234 22.1006 90.8499 22.8054L89.5773 24.0389C89.0552 23.4907 88.4678 23.0861 87.8151 22.825C87.1625 22.5509 86.4642 22.4138 85.7202 22.4138C84.95 22.4138 84.2321 22.5444 83.5664 22.8054C82.9138 23.0665 82.346 23.432 81.863 23.9019C81.3801 24.3718 81.0015 24.933 80.7274 25.5857C80.4664 26.2253 80.3358 26.9236 80.3358 27.6807C80.3358 28.4377 80.4664 29.1426 80.7274 29.7952C81.0015 30.4348 81.3801 30.9896 81.863 31.4595C82.346 31.9294 82.9138 32.2949 83.5664 32.5559C84.2321 32.817 84.95 32.9475 85.7202 32.9475C86.4642 32.9475 87.1625 32.817 87.8151 32.5559C88.4678 32.2818 89.0552 31.8641 89.5773 31.3029L90.8499 32.5364C90.2234 33.2412 89.4598 33.7764 88.5592 34.1419C87.6716 34.5073 86.6926 34.6901 85.6223 34.6901Z"/>
</mask>
<path d="M60.7941 34.5334V20.8279H62.3996L68.5475 31.1854H67.686L73.7556 20.8279H75.3611L75.3807 34.5334H73.5011L73.4815 23.7844H73.9319L68.528 32.8692H67.6273L62.1842 23.7844H62.6737V34.5334H60.7941ZM85.6223 34.6901C84.578 34.6901 83.6121 34.5204 82.7245 34.181C81.85 33.8286 81.0864 33.3391 80.4337 32.7126C79.7941 32.073 79.2916 31.329 78.9261 30.4805C78.5606 29.6321 78.3779 28.6988 78.3779 27.6807C78.3779 26.6625 78.5606 25.7293 78.9261 24.8808C79.2916 24.0324 79.8007 23.2949 80.4533 22.6684C81.106 22.0288 81.8695 21.5393 82.7441 21.1999C83.6317 20.8475 84.5976 20.6713 85.6418 20.6713C86.6991 20.6713 87.6716 20.854 88.5592 21.2195C89.4598 21.5719 90.2234 22.1006 90.8499 22.8054L89.5773 24.0389C89.0552 23.4907 88.4678 23.0861 87.8151 22.825C87.1625 22.5509 86.4642 22.4138 85.7202 22.4138C84.95 22.4138 84.2321 22.5444 83.5664 22.8054C82.9138 23.0665 82.346 23.432 81.863 23.9019C81.3801 24.3718 81.0015 24.933 80.7274 25.5857C80.4664 26.2253 80.3358 26.9236 80.3358 27.6807C80.3358 28.4377 80.4664 29.1426 80.7274 29.7952C81.0015 30.4348 81.3801 30.9896 81.863 31.4595C82.346 31.9294 82.9138 32.2949 83.5664 32.5559C84.2321 32.817 84.95 32.9475 85.7202 32.9475C86.4642 32.9475 87.1625 32.817 87.8151 32.5559C88.4678 32.2818 89.0552 31.8641 89.5773 31.3029L90.8499 32.5364C90.2234 33.2412 89.4598 33.7764 88.5592 34.1419C87.6716 34.5073 86.6926 34.6901 85.6223 34.6901Z" fill="white"/>
<path d="M60.7941 34.5334H60.3352V34.9923H60.7941V34.5334ZM60.7941 20.8279V20.369H60.3352V20.8279H60.7941ZM62.3996 20.8279L62.7942 20.5937L62.6609 20.369H62.3996V20.8279ZM68.5475 31.1854V31.6443H69.3536L68.9421 30.9511L68.5475 31.1854ZM67.686 31.1854L67.2901 30.9534L66.8852 31.6443H67.686V31.1854ZM73.7556 20.8279V20.369H73.4927L73.3597 20.5959L73.7556 20.8279ZM75.3611 20.8279L75.82 20.8272L75.8194 20.369H75.3611V20.8279ZM75.3807 34.5334V34.9923H75.8403L75.8396 34.5328L75.3807 34.5334ZM73.5011 34.5334L73.0422 34.5343L73.0431 34.9923H73.5011V34.5334ZM73.4815 23.7844V23.3255H73.0218L73.0226 23.7852L73.4815 23.7844ZM73.9319 23.7844L74.3263 24.019L74.7388 23.3255H73.9319V23.7844ZM68.528 32.8692V33.3281H68.7889L68.9223 33.1038L68.528 32.8692ZM67.6273 32.8692L67.2337 33.1051L67.3673 33.3281H67.6273V32.8692ZM62.1842 23.7844V23.3255H61.3744L61.7906 24.0202L62.1842 23.7844ZM62.6737 23.7844H63.1326V23.3255H62.6737V23.7844ZM62.6737 34.5334V34.9923H63.1326V34.5334H62.6737ZM60.7941 34.5334H61.253V20.8279H60.7941H60.3352V34.5334H60.7941ZM60.7941 20.8279V21.2868H62.3996V20.8279V20.369H60.7941V20.8279ZM62.3996 20.8279L62.005 21.0621L68.1529 31.4196L68.5475 31.1854L68.9421 30.9511L62.7942 20.5937L62.3996 20.8279ZM68.5475 31.1854V30.7265H67.686V31.1854V31.6443H68.5475V31.1854ZM67.686 31.1854L68.082 31.4174L74.1516 21.0599L73.7556 20.8279L73.3597 20.5959L67.2901 30.9534L67.686 31.1854ZM73.7556 20.8279V21.2868H75.3611V20.8279V20.369H73.7556V20.8279ZM75.3611 20.8279L74.9023 20.8286L74.9218 34.5341L75.3807 34.5334L75.8396 34.5328L75.82 20.8272L75.3611 20.8279ZM75.3807 34.5334V34.0746H73.5011V34.5334V34.9923H75.3807V34.5334ZM73.5011 34.5334L73.96 34.5326L73.9404 23.7835L73.4815 23.7844L73.0226 23.7852L73.0422 34.5343L73.5011 34.5334ZM73.4815 23.7844V24.2433H73.9319V23.7844V23.3255H73.4815V23.7844ZM73.9319 23.7844L73.5375 23.5498L68.1336 32.6346L68.528 32.8692L68.9223 33.1038L74.3263 24.019L73.9319 23.7844ZM68.528 32.8692V32.4103H67.6273V32.8692V33.3281H68.528V32.8692ZM67.6273 32.8692L68.021 32.6334L62.5779 23.5485L62.1842 23.7844L61.7906 24.0202L67.2337 33.1051L67.6273 32.8692ZM62.1842 23.7844V24.2433H62.6737V23.7844V23.3255H62.1842V23.7844ZM62.6737 23.7844H62.2148V34.5334H62.6737H63.1326V23.7844H62.6737ZM62.6737 34.5334V34.0746H60.7941V34.5334V34.9923H62.6737V34.5334ZM82.7245 34.181L82.553 34.6067L82.5606 34.6096L82.7245 34.181ZM80.4337 32.7126L80.1092 33.0371L80.1159 33.0436L80.4337 32.7126ZM78.9261 30.4805L79.3476 30.299H79.3476L78.9261 30.4805ZM78.9261 24.8808L79.3476 25.0624H79.3476L78.9261 24.8808ZM80.4533 22.6684L80.7711 22.9994L80.7745 22.9961L80.4533 22.6684ZM82.7441 21.1999L82.9101 21.6277L82.9134 21.6264L82.7441 21.1999ZM88.5592 21.2195L88.3844 21.6439L88.3919 21.6468L88.5592 21.2195ZM90.8499 22.8054L91.1693 23.1349L91.4849 22.829L91.1929 22.5005L90.8499 22.8054ZM89.5773 24.0389L89.245 24.3554L89.5642 24.6906L89.8967 24.3684L89.5773 24.0389ZM87.8151 22.825L87.6374 23.2481L87.6447 23.2511L87.8151 22.825ZM83.5664 22.8054L83.3989 22.3782L83.396 22.3793L83.5664 22.8054ZM80.7274 25.5857L80.3043 25.408L80.3026 25.4123L80.7274 25.5857ZM80.7274 29.7952L80.3012 29.9657L80.3056 29.976L80.7274 29.7952ZM83.5664 32.5559L83.396 32.982L83.3989 32.9831L83.5664 32.5559ZM87.8151 32.5559L87.9856 32.9821L87.9928 32.979L87.8151 32.5559ZM89.5773 31.3029L89.8967 30.9733L89.5603 30.6473L89.2413 30.9903L89.5773 31.3029ZM90.8499 32.5364L91.1929 32.8412L91.4849 32.5127L91.1693 32.2068L90.8499 32.5364ZM88.5592 34.1419L88.3866 33.7166L88.3844 33.7175L88.5592 34.1419ZM85.6223 34.6901V34.2312C84.6285 34.2312 83.7187 34.0699 82.8884 33.7524L82.7245 34.181L82.5606 34.6096C83.5055 34.9709 84.5275 35.149 85.6223 35.149V34.6901ZM82.7245 34.181L82.896 33.7554C82.0735 33.4239 81.3601 32.9658 80.7515 32.3815L80.4337 32.7126L80.1159 33.0436C80.8126 33.7124 81.6264 34.2333 82.553 34.6066L82.7245 34.181ZM80.4337 32.7126L80.7582 32.3881C80.1606 31.7905 79.6906 31.0952 79.3476 30.299L78.9261 30.4805L78.5047 30.6621C78.8926 31.5627 79.4277 32.3555 80.1092 33.0371L80.4337 32.7126ZM78.9261 30.4805L79.3476 30.299C79.0092 29.5135 78.8368 28.6428 78.8368 27.6807H78.3779H77.919C77.919 28.7548 78.1121 29.7507 78.5047 30.6621L78.9261 30.4805ZM78.3779 27.6807H78.8368C78.8368 26.7186 79.0092 25.8479 79.3476 25.0624L78.9261 24.8808L78.5047 24.6993C78.1121 25.6107 77.919 26.6065 77.919 27.6807H78.3779ZM78.9261 24.8808L79.3476 25.0624C79.6893 24.269 80.1636 23.5826 80.7711 22.9994L80.4533 22.6684L80.1355 22.3373C79.4377 23.0072 78.8939 23.7958 78.5047 24.6993L78.9261 24.8808ZM80.4533 22.6684L80.7745 22.9961C81.3815 22.4012 82.092 21.9452 82.9101 21.6277L82.7441 21.1999L82.5781 20.7721C81.6471 21.1334 80.8304 21.6563 80.1321 22.3406L80.4533 22.6684ZM82.7441 21.1999L82.9134 21.6264C83.7423 21.2973 84.6502 21.1302 85.6418 21.1302V20.6713V20.2124C84.5451 20.2124 83.5211 20.3977 82.5747 20.7734L82.7441 21.1999ZM85.6418 20.6713V21.1302C86.6453 21.1302 87.5576 21.3034 88.3844 21.6438L88.5592 21.2195L88.7339 20.7952C87.7855 20.4046 86.753 20.2124 85.6418 20.2124V20.6713ZM88.5592 21.2195L88.3919 21.6468C89.2269 21.9736 89.9298 22.461 90.507 23.1103L90.8499 22.8054L91.1929 22.5005C90.517 21.7402 89.6927 21.1703 88.7264 20.7922L88.5592 21.2195ZM90.8499 22.8054L90.5306 22.4759L89.2579 23.7094L89.5773 24.0389L89.8967 24.3684L91.1693 23.1349L90.8499 22.8054ZM89.5773 24.0389L89.9096 23.7224C89.3456 23.1302 88.704 22.6863 87.9856 22.3989L87.8151 22.825L87.6447 23.2511C88.2315 23.4858 88.7648 23.8512 89.245 24.3554L89.5773 24.0389ZM87.8151 22.825L87.9928 22.4019C87.2811 22.103 86.522 21.9549 85.7202 21.9549V22.4138V22.8727C86.4063 22.8727 87.0439 22.9988 87.6374 23.2481L87.8151 22.825ZM85.7202 22.4138V21.9549C84.8971 21.9549 84.122 22.0946 83.3989 22.3782L83.5664 22.8054L83.734 23.2326C84.3423 22.9941 85.0029 22.8727 85.7202 22.8727V22.4138ZM83.5664 22.8054L83.396 22.3793C82.6901 22.6617 82.0708 23.0594 81.543 23.573L81.863 23.9019L82.183 24.2308C82.6211 23.8045 83.1375 23.4712 83.7369 23.2315L83.5664 22.8054ZM81.863 23.9019L81.543 23.573C81.0137 24.088 80.6011 24.7015 80.3043 25.408L80.7274 25.5857L81.1505 25.7634C81.402 25.1646 81.7465 24.6555 82.183 24.2308L81.863 23.9019ZM80.7274 25.5857L80.3026 25.4123C80.017 26.112 79.8769 26.8699 79.8769 27.6807H80.3358H80.7947C80.7947 26.9773 80.9158 26.3386 81.1523 25.7591L80.7274 25.5857ZM80.3358 27.6807H79.8769C79.8769 28.4916 80.017 29.2548 80.3014 29.9657L80.7274 29.7952L81.1535 29.6248C80.9157 29.0304 80.7947 28.3839 80.7947 27.6807H80.3358ZM80.7274 29.7952L80.3056 29.976C80.6028 30.6694 81.0153 31.2749 81.543 31.7884L81.863 31.4595L82.183 31.1306C81.7449 30.7043 81.4003 30.2003 81.1492 29.6145L80.7274 29.7952ZM81.863 31.4595L81.543 31.7884C82.0708 32.302 82.6901 32.6996 83.396 32.982L83.5664 32.5559L83.7369 32.1299C83.1375 31.8901 82.6211 31.5568 82.183 31.1306L81.863 31.4595ZM83.5664 32.5559L83.3989 32.9831C84.122 33.2667 84.8971 33.4064 85.7202 33.4064V32.9475V32.4886C85.0029 32.4886 84.3423 32.3673 83.734 32.1287L83.5664 32.5559ZM85.7202 32.9475V33.4064C86.5191 33.4064 87.2756 33.266 87.9856 32.982L87.8151 32.5559L87.6447 32.1299C87.0494 32.368 86.4092 32.4886 85.7202 32.4886V32.9475ZM87.8151 32.5559L87.9928 32.979C88.7103 32.6777 89.3506 32.2203 89.9133 31.6154L89.5773 31.3029L89.2413 30.9903C88.7598 31.5079 88.2252 31.886 87.6374 32.1328L87.8151 32.5559ZM89.5773 31.3029L89.2579 31.6324L90.5306 32.8659L90.8499 32.5364L91.1693 32.2068L89.8967 30.9733L89.5773 31.3029ZM90.8499 32.5364L90.507 32.2315C89.9287 32.882 89.224 33.3768 88.3866 33.7166L88.5592 34.1419L88.7317 34.5671C89.6956 34.1759 90.5181 33.6004 91.1929 32.8412L90.8499 32.5364ZM88.5592 34.1419L88.3844 33.7175C87.5583 34.0577 86.6395 34.2312 85.6223 34.2312V34.6901V35.149C86.7456 35.149 87.7848 34.957 88.7339 34.5662L88.5592 34.1419Z" fill="white" mask="url(#path-6-outside-1_1075_43330)"/>
<path d="M101.758 34.6509C100.727 34.6509 99.7743 34.4812 98.8998 34.1419C98.0253 33.7894 97.2682 33.2999 96.6286 32.6734C95.989 32.0469 95.4865 31.3094 95.121 30.4609C94.7686 29.6125 94.5923 28.6857 94.5923 27.6807C94.5923 26.6756 94.7686 25.7488 95.121 24.9004C95.4865 24.052 95.989 23.3145 96.6286 22.6879C97.2812 22.0614 98.0448 21.5784 98.9194 21.2391C99.7939 20.8866 100.747 20.7104 101.778 20.7104C102.77 20.7104 103.703 20.8801 104.578 21.2195C105.452 21.5458 106.19 22.0418 106.79 22.7075L105.87 23.6277C105.309 23.0534 104.689 22.6423 104.01 22.3943C103.331 22.1332 102.6 22.0027 101.817 22.0027C100.995 22.0027 100.231 22.1462 99.5263 22.4334C98.8215 22.7075 98.208 23.1056 97.6859 23.6277C97.1638 24.1368 96.7526 24.7372 96.4524 25.429C96.1652 26.1078 96.0216 26.8583 96.0216 27.6807C96.0216 28.503 96.1652 29.2601 96.4524 29.9519C96.7526 30.6306 97.1638 31.2311 97.6859 31.7532C98.208 32.2622 98.8215 32.6604 99.5263 32.9475C100.231 33.2216 100.995 33.3587 101.817 33.3587C102.6 33.3587 103.331 33.2282 104.01 32.9671C104.689 32.706 105.309 32.2883 105.87 31.714L106.79 32.6343C106.19 33.2999 105.452 33.8025 104.578 34.1419C103.703 34.4812 102.763 34.6509 101.758 34.6509ZM115.583 34.6509C114.552 34.6509 113.593 34.4812 112.705 34.1419C111.831 33.7894 111.067 33.2999 110.414 32.6734C109.775 32.0338 109.272 31.2963 108.907 30.4609C108.554 29.6125 108.378 28.6857 108.378 27.6807C108.378 26.6756 108.554 25.7554 108.907 24.92C109.272 24.0715 109.775 23.3341 110.414 22.7075C111.067 22.0679 111.831 21.5784 112.705 21.2391C113.58 20.8866 114.539 20.7104 115.583 20.7104C116.615 20.7104 117.567 20.8866 118.442 21.2391C119.317 21.5784 120.074 22.0614 120.713 22.6879C121.366 23.3145 121.868 24.052 122.221 24.9004C122.586 25.7488 122.769 26.6756 122.769 27.6807C122.769 28.6857 122.586 29.6125 122.221 30.4609C121.868 31.3094 121.366 32.0469 120.713 32.6734C120.074 33.2999 119.317 33.7894 118.442 34.1419C117.567 34.4812 116.615 34.6509 115.583 34.6509ZM115.583 33.3587C116.406 33.3587 117.163 33.2216 117.855 32.9475C118.559 32.6604 119.166 32.2622 119.675 31.7532C120.198 31.2311 120.602 30.6306 120.889 29.9519C121.177 29.2601 121.32 28.503 121.32 27.6807C121.32 26.8583 121.177 26.1078 120.889 25.429C120.602 24.7372 120.198 24.1368 119.675 23.6277C119.166 23.1056 118.559 22.7075 117.855 22.4334C117.163 22.1462 116.406 22.0027 115.583 22.0027C114.761 22.0027 113.997 22.1462 113.293 22.4334C112.588 22.7075 111.974 23.1056 111.452 23.6277C110.943 24.1368 110.538 24.7372 110.238 25.429C109.951 26.1078 109.807 26.8583 109.807 27.6807C109.807 28.49 109.951 29.2405 110.238 29.9323C110.538 30.6241 110.943 31.2311 111.452 31.7532C111.974 32.2622 112.588 32.6604 113.293 32.9475C113.997 33.2216 114.761 33.3587 115.583 33.3587ZM126.017 34.5334V20.8279H127.211L136.668 32.7321H136.041V20.8279H137.471V34.5334H136.276L126.839 22.6292H127.465V34.5334H126.017ZM141.944 34.5334V20.8279H143.138L152.595 32.7321H151.969V20.8279H153.398V34.5334H152.204L142.766 22.6292H143.393V34.5334H141.944ZM159.164 26.9562H166.408V28.1897H159.164V26.9562ZM159.32 33.2804H167.563V34.5334H157.871V20.8279H167.269V22.081H159.32V33.2804ZM176.883 34.6509C175.851 34.6509 174.899 34.4812 174.024 34.1419C173.15 33.7894 172.392 33.2999 171.753 32.6734C171.113 32.0469 170.611 31.3094 170.245 30.4609C169.893 29.6125 169.717 28.6857 169.717 27.6807C169.717 26.6756 169.893 25.7488 170.245 24.9004C170.611 24.052 171.113 23.3145 171.753 22.6879C172.406 22.0614 173.169 21.5784 174.044 21.2391C174.918 20.8866 175.871 20.7104 176.902 20.7104C177.894 20.7104 178.828 20.8801 179.702 21.2195C180.577 21.5458 181.314 22.0418 181.915 22.7075L180.994 23.6277C180.433 23.0534 179.813 22.6423 179.134 22.3943C178.456 22.1332 177.725 22.0027 176.941 22.0027C176.119 22.0027 175.355 22.1462 174.651 22.4334C173.946 22.7075 173.332 23.1056 172.81 23.6277C172.288 24.1368 171.877 24.7372 171.577 25.429C171.29 26.1078 171.146 26.8583 171.146 27.6807C171.146 28.503 171.29 29.2601 171.577 29.9519C171.877 30.6306 172.288 31.2311 172.81 31.7532C173.332 32.2622 173.946 32.6604 174.651 32.9475C175.355 33.2216 176.119 33.3587 176.941 33.3587C177.725 33.3587 178.456 33.2282 179.134 32.9671C179.813 32.706 180.433 32.2883 180.994 31.714L181.915 32.6343C181.314 33.2999 180.577 33.8025 179.702 34.1419C178.828 34.4812 177.888 34.6509 176.883 34.6509ZM187.494 34.5334V22.081H182.677V20.8279H193.759V22.081H188.943V34.5334H187.494ZM199.642 34.6509C198.624 34.6509 197.645 34.4878 196.706 34.1614C195.779 33.8221 195.061 33.3913 194.552 32.8692L195.12 31.7532C195.603 32.2231 196.249 32.6212 197.058 32.9475C197.88 33.2608 198.742 33.4174 199.642 33.4174C200.504 33.4174 201.202 33.313 201.737 33.1042C202.286 32.8823 202.684 32.5886 202.932 32.2231C203.193 31.8576 203.323 31.453 203.323 31.0092C203.323 30.474 203.167 30.0432 202.853 29.7169C202.553 29.3906 202.155 29.1361 201.659 28.9533C201.163 28.7575 200.615 28.5879 200.014 28.4443C199.414 28.3007 198.814 28.1506 198.213 27.9939C197.613 27.8243 197.058 27.6024 196.549 27.3282C196.053 27.0541 195.648 26.6952 195.335 26.2514C195.035 25.7945 194.885 25.2006 194.885 24.4697C194.885 23.7909 195.061 23.1709 195.413 22.6096C195.779 22.0353 196.334 21.5784 197.078 21.2391C197.822 20.8866 198.774 20.7104 199.936 20.7104C200.706 20.7104 201.47 20.8214 202.227 21.0433C202.984 21.2521 203.637 21.5458 204.185 21.9243L203.695 23.0795C203.108 22.6879 202.481 22.4008 201.816 22.218C201.163 22.0353 200.53 21.9439 199.917 21.9439C199.094 21.9439 198.415 22.0549 197.88 22.2768C197.345 22.4987 196.947 22.7989 196.686 23.1774C196.438 23.5429 196.314 23.9606 196.314 24.4305C196.314 24.9657 196.464 25.3964 196.764 25.7227C197.078 26.0491 197.482 26.3036 197.978 26.4863C198.487 26.6691 199.042 26.8322 199.642 26.9758C200.243 27.1194 200.837 27.276 201.424 27.4457C202.025 27.6154 202.573 27.8373 203.069 28.1114C203.578 28.3725 203.983 28.7249 204.283 29.1687C204.596 29.6125 204.753 30.1934 204.753 30.9113C204.753 31.577 204.57 32.197 204.204 32.7713C203.839 33.3326 203.278 33.7894 202.521 34.1419C201.777 34.4812 200.817 34.6509 199.642 34.6509Z" fill="white"/>
<defs>
<filter id="filter0_i_1075_43330" x="33.1035" y="5.09277" width="11.1406" height="9.68363" filterUnits="userSpaceOnUse" color-interpolation-filters="sRGB">
<feFlood flood-opacity="0" result="BackgroundImageFix"/>
<feBlend mode="normal" in="SourceGraphic" in2="BackgroundImageFix" result="shape"/>
<feColorMatrix in="SourceAlpha" type="matrix" values="0 0 0 0 0 0 0 0 0 0 0 0 0 0 0 0 0 0 127 0" result="hardAlpha"/>
<feOffset dy="0.611855"/>
<feGaussianBlur stdDeviation="0.305927"/>
<feComposite in2="hardAlpha" operator="arithmetic" k2="-1" k3="1"/>
<feColorMatrix type="matrix" values="0 0 0 0 1 0 0 0 0 0.693546 0 0 0 0 0.0986654 0 0 0 0.25 0"/>
<feBlend mode="normal" in2="shape" result="effect1_innerShadow_1075_43330"/>
</filter>
<linearGradient id="paint0_linear_1075_43330" x1="38.6739" y1="5.09277" x2="38.6739" y2="14.1645" gradientUnits="userSpaceOnUse">
<stop stop-color="#FFE563"/>
<stop offset="1" stop-color="#FFB256"/>
</linearGradient>
</defs>
</svg>
