<svg width="305" height="62" viewBox="0 0 305 62" fill="none" xmlns="http://www.w3.org/2000/svg">
<rect width="305" height="62" rx="12" fill="#0096FF"/>
<path d="M85.7759 39.5V36.716H87.9839V25.484H85.7759V22.7H94.4159C95.4399 22.7 96.3279 22.876 97.0799 23.228C97.8479 23.564 98.4399 24.052 98.8559 24.692C99.2879 25.316 99.5039 26.068 99.5039 26.948V27.188C99.5039 27.956 99.3599 28.588 99.0719 29.084C98.7839 29.564 98.4399 29.94 98.0399 30.212C97.6559 30.468 97.2879 30.652 96.9359 30.764V31.196C97.2879 31.292 97.6719 31.476 98.0879 31.748C98.5039 32.004 98.8559 32.38 99.1439 32.876C99.4479 33.372 99.5999 34.02 99.5999 34.82V35.06C99.5999 35.988 99.3839 36.788 98.9519 37.46C98.5199 38.116 97.9199 38.62 97.1519 38.972C96.3999 39.324 95.5199 39.5 94.5119 39.5H85.7759ZM91.1519 36.62H94.1279C94.8159 36.62 95.3679 36.452 95.7839 36.116C96.2159 35.78 96.4319 35.3 96.4319 34.676V34.436C96.4319 33.812 96.2239 33.332 95.8079 32.996C95.3919 32.66 94.8319 32.492 94.1279 32.492H91.1519V36.62ZM91.1519 29.612H94.0799C94.7359 29.612 95.2719 29.444 95.6879 29.108C96.1199 28.772 96.3359 28.308 96.3359 27.716V27.476C96.3359 26.868 96.1279 26.404 95.7119 26.084C95.2959 25.748 94.7519 25.58 94.0799 25.58H91.1519V29.612ZM108.673 39.836C107.297 39.836 106.113 39.588 105.121 39.092C104.145 38.58 103.393 37.86 102.865 36.932C102.353 35.988 102.097 34.876 102.097 33.596V22.7H105.265V33.692C105.265 34.716 105.553 35.524 106.129 36.116C106.721 36.708 107.569 37.004 108.673 37.004C109.777 37.004 110.617 36.708 111.193 36.116C111.785 35.524 112.081 34.716 112.081 33.692V22.7H115.249V33.596C115.249 34.876 114.985 35.988 114.457 36.932C113.945 37.86 113.193 38.58 112.201 39.092C111.225 39.588 110.049 39.836 108.673 39.836ZM122.638 39.5V33.716L116.926 22.7H120.454L124.006 29.9H124.438L127.99 22.7H131.518L125.806 33.716V39.5H122.638ZM138.674 39.5V36.716H140.882V25.484H138.674V22.7H147.314C148.338 22.7 149.226 22.876 149.978 23.228C150.746 23.564 151.338 24.052 151.754 24.692C152.186 25.316 152.402 26.068 152.402 26.948V27.188C152.402 27.956 152.258 28.588 151.97 29.084C151.682 29.564 151.338 29.94 150.938 30.212C150.554 30.468 150.186 30.652 149.834 30.764V31.196C150.186 31.292 150.57 31.476 150.986 31.748C151.402 32.004 151.754 32.38 152.042 32.876C152.346 33.372 152.498 34.02 152.498 34.82V35.06C152.498 35.988 152.282 36.788 151.85 37.46C151.418 38.116 150.818 38.62 150.05 38.972C149.298 39.324 148.418 39.5 147.41 39.5H138.674ZM144.05 36.62H147.026C147.714 36.62 148.266 36.452 148.682 36.116C149.114 35.78 149.33 35.3 149.33 34.676V34.436C149.33 33.812 149.122 33.332 148.706 32.996C148.29 32.66 147.73 32.492 147.026 32.492H144.05V36.62ZM144.05 29.612H146.978C147.634 29.612 148.17 29.444 148.586 29.108C149.018 28.772 149.234 28.308 149.234 27.716V27.476C149.234 26.868 149.026 26.404 148.61 26.084C148.194 25.748 147.65 25.58 146.978 25.58H144.05V29.612ZM155.188 39.5V27.596H158.212V39.5H155.188ZM156.7 26.204C156.156 26.204 155.692 26.028 155.308 25.676C154.94 25.324 154.756 24.86 154.756 24.284C154.756 23.708 154.94 23.244 155.308 22.892C155.692 22.54 156.156 22.364 156.7 22.364C157.26 22.364 157.724 22.54 158.092 22.892C158.46 23.244 158.644 23.708 158.644 24.284C158.644 24.86 158.46 25.324 158.092 25.676C157.724 26.028 157.26 26.204 156.7 26.204ZM166.123 39.5C165.339 39.5 164.699 39.26 164.203 38.78C163.723 38.284 163.483 37.628 163.483 36.812V30.092H160.507V27.596H163.483V23.9H166.507V27.596H169.771V30.092H166.507V36.284C166.507 36.764 166.731 37.004 167.179 37.004H169.483V39.5H166.123ZM177.678 39.836C176.526 39.836 175.478 39.596 174.534 39.116C173.606 38.636 172.87 37.94 172.326 37.028C171.782 36.116 171.51 35.012 171.51 33.716V33.38C171.51 32.084 171.782 30.98 172.326 30.068C172.87 29.156 173.606 28.46 174.534 27.98C175.478 27.5 176.526 27.26 177.678 27.26C178.814 27.26 179.79 27.46 180.606 27.86C181.422 28.26 182.078 28.812 182.574 29.516C183.086 30.204 183.422 30.988 183.582 31.868L180.654 32.492C180.59 32.012 180.446 31.58 180.222 31.196C179.998 30.812 179.678 30.508 179.262 30.284C178.862 30.06 178.358 29.948 177.75 29.948C177.142 29.948 176.59 30.084 176.094 30.356C175.614 30.612 175.23 31.004 174.942 31.532C174.67 32.044 174.534 32.676 174.534 33.428V33.668C174.534 34.42 174.67 35.06 174.942 35.588C175.23 36.1 175.614 36.492 176.094 36.764C176.59 37.02 177.142 37.148 177.75 37.148C178.662 37.148 179.35 36.916 179.814 36.452C180.294 35.972 180.598 35.348 180.726 34.58L183.654 35.276C183.446 36.124 183.086 36.9 182.574 37.604C182.078 38.292 181.422 38.836 180.606 39.236C179.79 39.636 178.814 39.836 177.678 39.836ZM191.813 39.836C190.629 39.836 189.565 39.596 188.621 39.116C187.677 38.636 186.933 37.94 186.389 37.028C185.845 36.116 185.573 35.02 185.573 33.74V33.356C185.573 32.076 185.845 30.98 186.389 30.068C186.933 29.156 187.677 28.46 188.621 27.98C189.565 27.5 190.629 27.26 191.813 27.26C192.997 27.26 194.061 27.5 195.005 27.98C195.949 28.46 196.693 29.156 197.237 30.068C197.781 30.98 198.053 32.076 198.053 33.356V33.74C198.053 35.02 197.781 36.116 197.237 37.028C196.693 37.94 195.949 38.636 195.005 39.116C194.061 39.596 192.997 39.836 191.813 39.836ZM191.813 37.148C192.741 37.148 193.509 36.852 194.117 36.26C194.725 35.652 195.029 34.788 195.029 33.668V33.428C195.029 32.308 194.725 31.452 194.117 30.86C193.525 30.252 192.757 29.948 191.813 29.948C190.885 29.948 190.117 30.252 189.509 30.86C188.901 31.452 188.597 32.308 188.597 33.428V33.668C188.597 34.788 188.901 35.652 189.509 36.26C190.117 36.852 190.885 37.148 191.813 37.148ZM200.844 39.5V27.596H203.868V39.5H200.844ZM202.356 26.204C201.812 26.204 201.348 26.028 200.964 25.676C200.596 25.324 200.412 24.86 200.412 24.284C200.412 23.708 200.596 23.244 200.964 22.892C201.348 22.54 201.812 22.364 202.356 22.364C202.916 22.364 203.38 22.54 203.748 22.892C204.116 23.244 204.3 23.708 204.3 24.284C204.3 24.86 204.116 25.324 203.748 25.676C203.38 26.028 202.916 26.204 202.356 26.204ZM207.219 39.5V27.596H210.195V29.156H210.627C210.819 28.74 211.179 28.348 211.707 27.98C212.235 27.596 213.035 27.404 214.107 27.404C215.035 27.404 215.843 27.62 216.531 28.052C217.235 28.468 217.779 29.052 218.163 29.804C218.547 30.54 218.739 31.404 218.739 32.396V39.5H215.715V32.636C215.715 31.74 215.491 31.068 215.043 30.62C214.611 30.172 213.987 29.948 213.171 29.948C212.243 29.948 211.523 30.26 211.011 30.884C210.499 31.492 210.243 32.348 210.243 33.452V39.5H207.219Z" fill="#161616"/>
</svg>
