<svg width="834" height="280" viewBox="0 0 834 280" fill="none" xmlns="http://www.w3.org/2000/svg">
<path d="M1 30.167C1 28.0732 1.96011 26.0947 3.60547 24.7998L27.9648 5.62988C29.9921 4.03448 32.4974 3.16703 35.0771 3.16699H273.882C274.116 4.4006 275.198 5.33398 276.5 5.33398C277.973 5.33398 279.167 4.13975 279.167 2.66699C279.167 1.19423 277.973 0 276.5 0C275.198 0 274.116 0.933383 273.882 2.16699H35.0771C32.2731 2.16703 29.5502 3.10962 27.3467 4.84375L2.9873 24.0146C1.10112 25.4991 0 27.7667 0 30.167H1Z" fill="url(#paint0_linear_159122_17501)"/>
<path d="M834 255.776V251.167H833V255.776C833 260.144 830.526 264.134 826.614 266.076L807.701 275.467C806.112 276.256 804.361 276.667 802.587 276.667H554.118C553.884 275.433 552.802 274.5 551.5 274.5C550.027 274.5 548.833 275.694 548.833 277.167C548.833 278.64 550.027 279.834 551.5 279.834C552.802 279.834 553.884 278.901 554.118 277.667H802.587C804.516 277.667 806.419 277.221 808.146 276.363L827.059 266.972C831.31 264.861 834 260.524 834 255.776Z" fill="url(#paint1_linear_159122_17501)"/>
<path d="M276.5 133.834C277.973 133.834 279.167 132.64 279.167 131.167C279.167 129.694 277.973 128.5 276.5 128.5C275.198 128.5 274.116 129.433 273.882 130.667H226.459C222.494 130.667 218.809 128.625 216.707 125.263L185.629 75.542C183.345 71.8876 179.339 69.6671 175.029 69.667H128.5V70.667H175.029C178.994 70.6671 182.679 72.7095 184.78 76.0713L215.859 125.792C218.144 129.446 222.149 131.667 226.459 131.667H273.882C274.116 132.901 275.198 133.834 276.5 133.834Z" fill="url(#paint2_linear_159122_17501)"/>
<path d="M276.5 147.5C277.973 147.5 279.167 148.694 279.167 150.167C279.167 151.64 277.973 152.834 276.5 152.834C275.198 152.834 274.116 151.901 273.882 150.667H226.459C222.494 150.667 218.809 152.709 216.707 156.071L185.629 205.792C183.345 209.446 179.339 211.667 175.029 211.667H128.5V210.667H175.029C178.994 210.667 182.679 208.625 184.78 205.263L215.859 155.542C218.144 151.888 222.149 149.667 226.459 149.667H273.882C274.116 148.433 275.198 147.5 276.5 147.5Z" fill="url(#paint3_linear_159122_17501)"/>
<path d="M551.5 149.667V150.667H601.541C605.506 150.667 609.191 152.709 611.293 156.071L642.371 205.792C644.655 209.446 648.661 211.667 652.971 211.667H696.882C697.116 212.901 698.198 213.834 699.5 213.834C700.973 213.834 702.167 212.64 702.167 211.167C702.167 209.694 700.973 208.5 699.5 208.5C698.198 208.5 697.116 209.433 696.882 210.667H652.971C649.006 210.667 645.321 208.625 643.22 205.263L612.141 155.542C609.856 151.888 605.851 149.667 601.541 149.667H551.5Z" fill="url(#paint4_linear_159122_17501)"/>
<path d="M551.5 131.667V130.667H601.541C605.506 130.667 609.191 128.625 611.293 125.263L642.371 75.542C644.655 71.8876 648.661 69.6671 652.971 69.667H696.882C697.116 68.4334 698.198 67.5 699.5 67.5C700.973 67.5 702.167 68.6942 702.167 70.167C702.167 71.6398 700.973 72.834 699.5 72.834C698.198 72.834 697.116 71.9006 696.882 70.667H652.971C649.006 70.6671 645.321 72.7095 643.22 76.0713L612.141 125.792C609.856 129.446 605.851 131.667 601.541 131.667H551.5Z" fill="url(#paint5_linear_159122_17501)"/>
<path d="M419.833 54.167C419.833 52.6942 421.027 51.5 422.5 51.5C423.973 51.5 425.167 52.6942 425.167 54.167C425.167 55.4687 424.234 56.551 423 56.7852V100.167H422V56.7852C420.766 56.551 419.833 55.4687 419.833 54.167Z" fill="url(#paint6_linear_159122_17501)"/>
<defs>
<linearGradient id="paint0_linear_159122_17501" x1="-52.5" y1="39.667" x2="211" y2="-21.8328" gradientUnits="userSpaceOnUse">
<stop stop-color="white" stop-opacity="0"/>
<stop offset="1" stop-color="white"/>
</linearGradient>
<linearGradient id="paint1_linear_159122_17501" x1="839.5" y1="277.167" x2="551.5" y2="277.167" gradientUnits="userSpaceOnUse">
<stop stop-color="white" stop-opacity="0"/>
<stop offset="1" stop-color="white"/>
</linearGradient>
<linearGradient id="paint2_linear_159122_17501" x1="112.362" y1="180.667" x2="276.5" y2="180.667" gradientUnits="userSpaceOnUse">
<stop stop-color="white" stop-opacity="0"/>
<stop offset="1" stop-color="white"/>
</linearGradient>
<linearGradient id="paint3_linear_159122_17501" x1="112.362" y1="180.667" x2="276.5" y2="180.667" gradientUnits="userSpaceOnUse">
<stop stop-color="white" stop-opacity="0"/>
<stop offset="1" stop-color="white"/>
</linearGradient>
<linearGradient id="paint4_linear_159122_17501" x1="715.638" y1="100.667" x2="551.5" y2="100.667" gradientUnits="userSpaceOnUse">
<stop stop-color="white"/>
<stop offset="1" stop-color="white" stop-opacity="0"/>
</linearGradient>
<linearGradient id="paint5_linear_159122_17501" x1="715.638" y1="100.667" x2="551.5" y2="100.667" gradientUnits="userSpaceOnUse">
<stop stop-color="white"/>
<stop offset="1" stop-color="white" stop-opacity="0"/>
</linearGradient>
<linearGradient id="paint6_linear_159122_17501" x1="425.522" y1="98.8141" x2="425.522" y2="50.1082" gradientUnits="userSpaceOnUse">
<stop stop-color="white" stop-opacity="0"/>
<stop offset="1" stop-color="white"/>
</linearGradient>
</defs>
</svg>
