<svg width="28" height="28" viewBox="0 0 28 28" fill="none" xmlns="http://www.w3.org/2000/svg">
<path d="M26.8334 18.6318C26.8334 23.1468 23.1817 26.7985 18.6667 26.7985L19.8917 24.7568" stroke="#0096FF" stroke-width="1.75" stroke-linecap="round" stroke-linejoin="round"/>
<path d="M1.16675 9.2985C1.16675 4.7835 4.81842 1.13184 9.33342 1.13184L8.10842 3.1735" stroke="#0096FF" stroke-width="1.75" stroke-linecap="round" stroke-linejoin="round"/>
<path d="M7.72363 15.249H11.002C11.7253 15.249 12.3203 15.9024 12.3203 16.5674C12.3203 17.2907 11.737 17.8857 11.002 17.8857H7.72363V15.249Z" stroke="#0096FF" stroke-width="1.75" stroke-miterlimit="10" stroke-linecap="round" stroke-linejoin="round"/>
<path d="M7.72363 17.8857H11.4803C12.3086 17.8857 12.9853 18.4691 12.9853 19.2041C12.9853 19.9274 12.3086 20.5224 11.4803 20.5224H7.72363V17.8857Z" stroke="#0096FF" stroke-width="1.75" stroke-miterlimit="10" stroke-linecap="round" stroke-linejoin="round"/>
<path d="M9.82373 20.5107V21.8174" stroke="#0096FF" stroke-width="1.75" stroke-miterlimit="10" stroke-linecap="round" stroke-linejoin="round"/>
<path d="M9.82373 13.9424V15.249" stroke="#0096FF" stroke-width="1.75" stroke-miterlimit="10" stroke-linecap="round" stroke-linejoin="round"/>
<path d="M17.3249 17.8849C17.3249 21.8632 14.1049 25.0832 10.1266 25.0832C6.14823 25.0832 2.92822 21.8632 2.92822 17.8849C2.92822 13.9066 6.14823 10.6865 10.1266 10.6865C10.3132 10.6865 10.4882 10.6982 10.6866 10.7099C14.2216 10.9782 17.0449 13.8015 17.3132 17.3365C17.3132 17.5115 17.3249 17.6866 17.3249 17.8849Z" stroke="#0096FF" stroke-width="1.75" stroke-miterlimit="10" stroke-linecap="round" stroke-linejoin="round"/>
<path d="M25.0837 10.1153C25.0837 14.0936 21.8637 17.3137 17.8853 17.3137H17.3137C17.0453 13.7787 14.222 10.9553 10.687 10.687V10.1153C10.687 6.13697 13.907 2.91699 17.8853 2.91699C21.8637 2.91699 25.0837 6.13697 25.0837 10.1153Z" stroke="#0096FF" stroke-width="1.75" stroke-miterlimit="10" stroke-linecap="round" stroke-linejoin="round"/>
</svg>
