<svg width="206" height="56" viewBox="0 0 206 56" fill="none" xmlns="http://www.w3.org/2000/svg">
<path d="M27.5334 27.6926V0L29.6633 11.947L42.0164 19.1765V25.2419L33.8013 23.7715L36.6005 18.4413L31.3063 21.2596L31.854 23.3427L27.5334 27.6926Z" fill="white"/>
<path d="M9.38181 17.1098L25.0966 8.11719L24.4875 12.5217L13.1582 19.2509V25.1848L21.1375 23.7778L18.3965 18.4557L23.7566 21.2085L23.2409 23.3496L27.5335 27.693H0L9.38181 25.9189V17.1098Z" fill="white"/>
<path d="M13.0552 29.9633L9.38989 29.2882V38.2493L26.1894 47.8855L27.5333 55.0667V27.6924L23.3182 31.4978H21.2412L18.2802 36.8376L23.3182 34.137L25.1142 43.2209L13.0552 36.1011V29.9633Z" fill="white"/>
<path d="M55.0669 27.6924H27.5334L32.0099 31.9294L34.0336 31.6223L36.9157 36.8418L31.5194 34.0786L29.925 43.2894L42.1893 36.0435V30.0872L55.0669 27.6924Z" fill="white"/>
<g filter="url(#filter0_i_3054_5553)">
<path d="M41.8925 5.09277L33.1038 7.40637L44.2445 14.1645L41.8925 5.09277Z" fill="url(#paint0_linear_3054_5553)"/>
</g>
<mask id="path-6-outside-1_3054_5553" maskUnits="userSpaceOnUse" x="59.738" y="19.5332" width="32" height="16" fill="black">
<rect fill="white" x="59.738" y="19.5332" width="32" height="16"/>
<path d="M60.7939 34.5332V20.8277H62.3994L68.5473 31.1851H67.6858L73.7554 20.8277H75.3609L75.3805 34.5332H73.5009L73.4813 23.7841H73.9316L68.5277 32.869H67.6271L62.184 23.7841H62.6735V34.5332H60.7939ZM85.622 34.6898C84.5778 34.6898 83.6119 34.5202 82.7243 34.1808C81.8497 33.8283 81.0861 33.3389 80.4335 32.7123C79.7939 32.0727 79.2914 31.3287 78.9259 30.4803C78.5604 29.6318 78.3777 28.6986 78.3777 27.6804C78.3777 26.6623 78.5604 25.729 78.9259 24.8806C79.2914 24.0321 79.8004 23.2947 80.4531 22.6681C81.1057 22.0285 81.8693 21.539 82.7438 21.1997C83.6314 20.8472 84.5974 20.671 85.6416 20.671C86.6989 20.671 87.6713 20.8538 88.5589 21.2192C89.4596 21.5717 90.2232 22.1003 90.8497 22.8052L89.577 24.0387C89.0549 23.4904 88.4675 23.0858 87.8149 22.8248C87.1623 22.5506 86.4639 22.4136 85.7199 22.4136C84.9498 22.4136 84.2319 22.5441 83.5662 22.8052C82.9135 23.0662 82.3457 23.4317 81.8628 23.9016C81.3798 24.3715 81.0013 24.9328 80.7272 25.5854C80.4661 26.225 80.3356 26.9234 80.3356 27.6804C80.3356 28.4375 80.4661 29.1424 80.7272 29.795C81.0013 30.4346 81.3798 30.9893 81.8628 31.4592C82.3457 31.9291 82.9135 32.2946 83.5662 32.5557C84.2319 32.8167 84.9498 32.9473 85.7199 32.9473C86.4639 32.9473 87.1623 32.8167 87.8149 32.5557C88.4675 32.2816 89.0549 31.8639 89.577 31.3026L90.8497 32.5361C90.2232 33.241 89.4596 33.7761 88.5589 34.1416C87.6713 34.5071 86.6924 34.6898 85.622 34.6898Z"/>
</mask>
<path d="M60.7939 34.5332V20.8277H62.3994L68.5473 31.1851H67.6858L73.7554 20.8277H75.3609L75.3805 34.5332H73.5009L73.4813 23.7841H73.9316L68.5277 32.869H67.6271L62.184 23.7841H62.6735V34.5332H60.7939ZM85.622 34.6898C84.5778 34.6898 83.6119 34.5202 82.7243 34.1808C81.8497 33.8283 81.0861 33.3389 80.4335 32.7123C79.7939 32.0727 79.2914 31.3287 78.9259 30.4803C78.5604 29.6318 78.3777 28.6986 78.3777 27.6804C78.3777 26.6623 78.5604 25.729 78.9259 24.8806C79.2914 24.0321 79.8004 23.2947 80.4531 22.6681C81.1057 22.0285 81.8693 21.539 82.7438 21.1997C83.6314 20.8472 84.5974 20.671 85.6416 20.671C86.6989 20.671 87.6713 20.8538 88.5589 21.2192C89.4596 21.5717 90.2232 22.1003 90.8497 22.8052L89.577 24.0387C89.0549 23.4904 88.4675 23.0858 87.8149 22.8248C87.1623 22.5506 86.4639 22.4136 85.7199 22.4136C84.9498 22.4136 84.2319 22.5441 83.5662 22.8052C82.9135 23.0662 82.3457 23.4317 81.8628 23.9016C81.3798 24.3715 81.0013 24.9328 80.7272 25.5854C80.4661 26.225 80.3356 26.9234 80.3356 27.6804C80.3356 28.4375 80.4661 29.1424 80.7272 29.795C81.0013 30.4346 81.3798 30.9893 81.8628 31.4592C82.3457 31.9291 82.9135 32.2946 83.5662 32.5557C84.2319 32.8167 84.9498 32.9473 85.7199 32.9473C86.4639 32.9473 87.1623 32.8167 87.8149 32.5557C88.4675 32.2816 89.0549 31.8639 89.577 31.3026L90.8497 32.5361C90.2232 33.241 89.4596 33.7761 88.5589 34.1416C87.6713 34.5071 86.6924 34.6898 85.622 34.6898Z" fill="white"/>
<path d="M60.7939 34.5332H60.335V34.9921H60.7939V34.5332ZM60.7939 20.8277V20.3688H60.335V20.8277H60.7939ZM62.3994 20.8277L62.794 20.5934L62.6606 20.3688H62.3994V20.8277ZM68.5473 31.1851V31.644H69.3533L68.9419 30.9509L68.5473 31.1851ZM67.6858 31.1851L67.2899 30.9531L66.885 31.644H67.6858V31.1851ZM73.7554 20.8277V20.3688H73.4924L73.3595 20.5956L73.7554 20.8277ZM75.3609 20.8277L75.8198 20.827L75.8191 20.3688H75.3609V20.8277ZM75.3805 34.5332V34.9921H75.84L75.8394 34.5325L75.3805 34.5332ZM73.5009 34.5332L73.042 34.534L73.0428 34.9921H73.5009V34.5332ZM73.4813 23.7841V23.3252H73.0216L73.0224 23.785L73.4813 23.7841ZM73.9316 23.7841L74.326 24.0187L74.7385 23.3252H73.9316V23.7841ZM68.5277 32.869V33.3279H68.7887L68.9221 33.1036L68.5277 32.869ZM67.6271 32.869L67.2334 33.1048L67.3671 33.3279H67.6271V32.869ZM62.184 23.7841V23.3252H61.3741L61.7904 24.02L62.184 23.7841ZM62.6735 23.7841H63.1324V23.3252H62.6735V23.7841ZM62.6735 34.5332V34.9921H63.1324V34.5332H62.6735ZM61.2528 34.5332V20.8277H60.335V34.5332H61.2528ZM60.7939 21.2865H62.3994V20.3688H60.7939V21.2865ZM62.0048 21.0619L68.1527 31.4194L68.9419 30.9509L62.794 20.5934L62.0048 21.0619ZM68.5473 30.7262H67.6858V31.644H68.5473V30.7262ZM68.0817 31.4171L74.1513 21.0597L73.3595 20.5956L67.2899 30.9531L68.0817 31.4171ZM73.7554 21.2865H75.3609V20.3688H73.7554V21.2865ZM74.902 20.8283L74.9216 34.5339L75.8394 34.5325L75.8198 20.827L74.902 20.8283ZM75.3805 34.0743H73.5009V34.9921H75.3805V34.0743ZM73.9598 34.5324L73.9402 23.7833L73.0224 23.785L73.042 34.534L73.9598 34.5324ZM73.4813 24.243H73.9316V23.3252H73.4813V24.243ZM73.5372 23.5495L68.1333 32.6344L68.9221 33.1036L74.326 24.0187L73.5372 23.5495ZM68.5277 32.4101H67.6271V33.3279H68.5277V32.4101ZM68.0207 32.6331L62.5776 23.5483L61.7904 24.02L67.2334 33.1048L68.0207 32.6331ZM62.184 24.243H62.6735V23.3252H62.184V24.243ZM62.2146 23.7841V34.5332H63.1324V23.7841H62.2146ZM62.6735 34.0743H60.7939V34.9921H62.6735V34.0743ZM82.7243 34.1808L82.5527 34.6065L82.5604 34.6094L82.7243 34.1808ZM80.4335 32.7123L80.1089 33.0369L80.1157 33.0434L80.4335 32.7123ZM78.9259 30.4803L79.3473 30.2987V30.2987L78.9259 30.4803ZM78.9259 24.8806L79.3473 25.0621V25.0621L78.9259 24.8806ZM80.4531 22.6681L80.7709 22.9992L80.7743 22.9959L80.4531 22.6681ZM82.7438 21.1997L82.9099 21.6275L82.9132 21.6262L82.7438 21.1997ZM88.5589 21.2192L88.3842 21.6436L88.3917 21.6466L88.5589 21.2192ZM90.8497 22.8052L91.1691 23.1347L91.4847 22.8288L91.1927 22.5003L90.8497 22.8052ZM89.577 24.0387L89.2447 24.3551L89.564 24.6904L89.8964 24.3682L89.577 24.0387ZM87.8149 22.8248L87.6372 23.2479L87.6445 23.2508L87.8149 22.8248ZM83.5662 22.8052L83.3986 22.3779L83.3958 22.3791L83.5662 22.8052ZM80.7272 25.5854L80.3041 25.4077L80.3023 25.412L80.7272 25.5854ZM80.7272 29.795L80.301 29.9655L80.3054 29.9758L80.7272 29.795ZM83.5662 32.5557L83.3958 32.9818L83.3986 32.9829L83.5662 32.5557ZM87.8149 32.5557L87.9854 32.9818L87.9926 32.9788L87.8149 32.5557ZM89.577 31.3026L89.8964 30.9731L89.5601 30.6471L89.241 30.9901L89.577 31.3026ZM90.8497 32.5361L91.1927 32.841L91.4847 32.5125L91.1691 32.2066L90.8497 32.5361ZM88.5589 34.1416L88.3864 33.7164L88.3842 33.7173L88.5589 34.1416ZM85.622 34.2309C84.6283 34.2309 83.7185 34.0696 82.8882 33.7521L82.5604 34.6094C83.5052 34.9707 84.5273 35.1487 85.622 35.1487V34.2309ZM82.8958 33.7551C82.0733 33.4237 81.3599 32.9655 80.7513 32.3813L80.1157 33.0434C80.8124 33.7122 81.6262 34.233 82.5527 34.6064L82.8958 33.7551ZM80.758 32.3878C80.1603 31.7902 79.6903 31.095 79.3473 30.2987L78.5044 30.6618C78.8924 31.5625 79.4274 32.3553 80.109 33.0368L80.758 32.3878ZM79.3473 30.2987C79.009 29.5132 78.8365 28.6425 78.8365 27.6804H77.9188C77.9188 28.7546 78.1118 29.7504 78.5044 30.6618L79.3473 30.2987ZM78.8365 27.6804C78.8365 26.7183 79.009 25.8476 79.3473 25.0621L78.5044 24.699C78.1118 25.6104 77.9188 26.6063 77.9188 27.6804H78.8365ZM79.3473 25.0621C79.6891 24.2687 80.1633 23.5824 80.7709 22.9992L80.1353 22.3371C79.4375 23.0069 78.8936 23.7956 78.5044 24.699L79.3473 25.0621ZM80.7743 22.9959C81.3813 22.401 82.0917 21.945 82.9099 21.6275L82.5778 20.7719C81.6469 21.1331 80.8301 21.6561 80.1319 22.3404L80.7743 22.9959ZM82.9132 21.6262C83.7421 21.2971 84.6499 21.1299 85.6416 21.1299V20.2121C84.5448 20.2121 83.5208 20.3974 82.5745 20.7732L82.9132 21.6262ZM85.6416 21.1299C86.645 21.1299 87.5574 21.3031 88.3842 21.6436L88.7336 20.7949C87.7852 20.4044 86.7527 20.2121 85.6416 20.2121V21.1299ZM88.3917 21.6466C89.2267 21.9733 89.9295 22.4607 90.5067 23.11L91.1927 22.5003C90.5168 21.7399 89.6924 21.17 88.7261 20.7919L88.3917 21.6466ZM90.5303 22.4757L89.2577 23.7092L89.8964 24.3682L91.1691 23.1347L90.5303 22.4757ZM89.9093 23.7222C89.3453 23.13 88.7038 22.6861 87.9853 22.3987L87.6445 23.2508C88.2313 23.4856 88.7645 23.8509 89.2447 24.3551L89.9093 23.7222ZM87.9926 22.4017C87.2808 22.1027 86.5218 21.9547 85.7199 21.9547V22.8725C86.4061 22.8725 87.0437 22.9986 87.6372 23.2478L87.9926 22.4017ZM85.7199 21.9547C84.8969 21.9547 84.1217 22.0944 83.3986 22.378L83.7337 23.2324C84.3421 22.9938 85.0027 22.8725 85.7199 22.8725V21.9547ZM83.3958 22.3791C82.6898 22.6615 82.0706 23.0591 81.5428 23.5727L82.1828 24.2305C82.6209 23.8043 83.1373 23.471 83.7366 23.2312L83.3958 22.3791ZM81.5428 23.5727C81.0134 24.0877 80.6008 24.7012 80.3041 25.4077L81.1503 25.7631C81.4017 25.1644 81.7462 24.6553 82.1828 24.2305L81.5428 23.5727ZM80.3023 25.412C80.0167 26.1117 79.8767 26.8696 79.8767 27.6804H80.7945C80.7945 26.9771 80.9155 26.3383 81.152 25.7589L80.3023 25.412ZM79.8767 27.6804C79.8767 28.4913 80.0167 29.2545 80.3011 29.9654L81.1532 29.6246C80.9155 29.0302 80.7945 28.3837 80.7945 27.6804H79.8767ZM80.3054 29.9758C80.6025 30.6691 81.015 31.2747 81.5428 31.7881L82.1828 31.1303C81.7446 30.704 81.4 30.2001 81.149 29.6142L80.3054 29.9758ZM81.5428 31.7881C82.0706 32.3017 82.6898 32.6994 83.3958 32.9818L83.7366 32.1296C83.1373 31.8899 82.6209 31.5566 82.1828 31.1303L81.5428 31.7881ZM83.3986 32.9829C84.1217 33.2665 84.8969 33.4062 85.7199 33.4062V32.4884C85.0027 32.4884 84.3421 32.367 83.7337 32.1285L83.3986 32.9829ZM85.7199 33.4062C86.5188 33.4062 87.2754 33.2657 87.9853 32.9818L87.6445 32.1296C87.0492 32.3677 86.409 32.4884 85.7199 32.4884V33.4062ZM87.9926 32.9788C88.7101 32.6774 89.3503 32.2201 89.913 31.6152L89.241 30.9901C88.7595 31.5077 88.225 31.8857 87.6372 32.1326L87.9926 32.9788ZM89.2577 31.6321L90.5303 32.8656L91.1691 32.2066L89.8964 30.9731L89.2577 31.6321ZM90.5067 32.2312C89.9285 32.8818 89.2238 33.3766 88.3864 33.7164L88.7315 34.5668C89.6953 34.1757 90.5179 33.6001 91.1927 32.841L90.5067 32.2312ZM88.3842 33.7173C87.5581 34.0575 86.6393 34.2309 85.622 34.2309V35.1487C86.7454 35.1487 87.7846 34.9567 88.7336 34.5659L88.3842 33.7173Z" fill="white" mask="url(#path-6-outside-1_3054_5553)"/>
<path d="M101.758 34.6507C100.726 34.6507 99.7736 34.481 98.8991 34.1416C98.0245 33.7892 97.2675 33.2997 96.6279 32.6732C95.9883 32.0466 95.4857 31.3091 95.1203 30.4607C94.7678 29.6123 94.5916 28.6855 94.5916 27.6804C94.5916 26.6754 94.7678 25.7486 95.1203 24.9002C95.4857 24.0517 95.9883 23.3142 96.6279 22.6877C97.2805 22.0612 98.0441 21.5782 98.9186 21.2388C99.7932 20.8864 100.746 20.7102 101.777 20.7102C102.769 20.7102 103.703 20.8799 104.577 21.2192C105.452 21.5456 106.189 22.0416 106.79 22.7073L105.869 23.6275C105.308 23.0532 104.688 22.642 104.009 22.394C103.331 22.1329 102.6 22.0024 101.816 22.0024C100.994 22.0024 100.23 22.146 99.5256 22.4332C98.8208 22.7073 98.2073 23.1054 97.6851 23.6275C97.163 24.1366 96.7519 24.737 96.4517 25.4288C96.1645 26.1076 96.0209 26.8581 96.0209 27.6804C96.0209 28.5028 96.1645 29.2598 96.4517 29.9516C96.7519 30.6304 97.163 31.2308 97.6851 31.7529C98.2073 32.262 98.8208 32.6601 99.5256 32.9473C100.23 33.2214 100.994 33.3584 101.816 33.3584C102.6 33.3584 103.331 33.2279 104.009 32.9669C104.688 32.7058 105.308 32.2881 105.869 31.7138L106.79 32.634C106.189 33.2997 105.452 33.8022 104.577 34.1416C103.703 34.481 102.763 34.6507 101.758 34.6507ZM115.583 34.6507C114.551 34.6507 113.592 34.481 112.704 34.1416C111.83 33.7892 111.066 33.2997 110.414 32.6732C109.774 32.0336 109.272 31.2961 108.906 30.4607C108.554 29.6123 108.377 28.6855 108.377 27.6804C108.377 26.6754 108.554 25.7551 108.906 24.9197C109.272 24.0713 109.774 23.3338 110.414 22.7073C111.066 22.0677 111.83 21.5782 112.704 21.2388C113.579 20.8864 114.538 20.7102 115.583 20.7102C116.614 20.7102 117.567 20.8864 118.441 21.2388C119.316 21.5782 120.073 22.0612 120.712 22.6877C121.365 23.3142 121.868 24.0517 122.22 24.9002C122.586 25.7486 122.768 26.6754 122.768 27.6804C122.768 28.6855 122.586 29.6123 122.22 30.4607C121.868 31.3091 121.365 32.0466 120.712 32.6732C120.073 33.2997 119.316 33.7892 118.441 34.1416C117.567 34.481 116.614 34.6507 115.583 34.6507ZM115.583 33.3584C116.405 33.3584 117.162 33.2214 117.854 32.9473C118.559 32.6601 119.166 32.262 119.675 31.7529C120.197 31.2308 120.602 30.6304 120.889 29.9516C121.176 29.2598 121.319 28.5028 121.319 27.6804C121.319 26.8581 121.176 26.1076 120.889 25.4288C120.602 24.737 120.197 24.1366 119.675 23.6275C119.166 23.1054 118.559 22.7073 117.854 22.4332C117.162 22.146 116.405 22.0024 115.583 22.0024C114.76 22.0024 113.997 22.146 113.292 22.4332C112.587 22.7073 111.974 23.1054 111.451 23.6275C110.942 24.1366 110.538 24.737 110.238 25.4288C109.95 26.1076 109.807 26.8581 109.807 27.6804C109.807 28.4897 109.95 29.2403 110.238 29.9321C110.538 30.6239 110.942 31.2308 111.451 31.7529C111.974 32.262 112.587 32.6601 113.292 32.9473C113.997 33.2214 114.76 33.3584 115.583 33.3584ZM126.016 34.5332V20.8277H127.21L136.667 32.7319H136.04V20.8277H137.47V34.5332H136.275L126.838 22.629H127.465V34.5332H126.016ZM141.943 34.5332V20.8277H143.138L152.594 32.7319H151.968V20.8277H153.397V34.5332H152.203L142.766 22.629H143.392V34.5332H141.943ZM159.163 26.956H166.407V28.1895H159.163V26.956ZM159.319 33.2801H167.562V34.5332H157.871V20.8277H167.269V22.0807H159.319V33.2801ZM176.882 34.6507C175.851 34.6507 174.898 34.481 174.023 34.1416C173.149 33.7892 172.392 33.2997 171.752 32.6732C171.113 32.0466 170.61 31.3091 170.245 30.4607C169.892 29.6123 169.716 28.6855 169.716 27.6804C169.716 26.6754 169.892 25.7486 170.245 24.9002C170.61 24.0517 171.113 23.3142 171.752 22.6877C172.405 22.0612 173.168 21.5782 174.043 21.2388C174.917 20.8864 175.87 20.7102 176.902 20.7102C177.894 20.7102 178.827 20.8799 179.701 21.2192C180.576 21.5456 181.313 22.0416 181.914 22.7073L180.994 23.6275C180.432 23.0532 179.812 22.642 179.134 22.394C178.455 22.1329 177.724 22.0024 176.941 22.0024C176.118 22.0024 175.355 22.146 174.65 22.4332C173.945 22.7073 173.332 23.1054 172.809 23.6275C172.287 24.1366 171.876 24.737 171.576 25.4288C171.289 26.1076 171.145 26.8581 171.145 27.6804C171.145 28.5028 171.289 29.2598 171.576 29.9516C171.876 30.6304 172.287 31.2308 172.809 31.7529C173.332 32.262 173.945 32.6601 174.65 32.9473C175.355 33.2214 176.118 33.3584 176.941 33.3584C177.724 33.3584 178.455 33.2279 179.134 32.9669C179.812 32.7058 180.432 32.2881 180.994 31.7138L181.914 32.634C181.313 33.2997 180.576 33.8022 179.701 34.1416C178.827 34.481 177.887 34.6507 176.882 34.6507ZM187.493 34.5332V22.0807H182.677V20.8277H193.759V22.0807H188.942V34.5332H187.493ZM199.642 34.6507C198.624 34.6507 197.645 34.4875 196.705 34.1612C195.778 33.8218 195.06 33.3911 194.551 32.869L195.119 31.7529C195.602 32.2228 196.248 32.621 197.057 32.9473C197.88 33.2605 198.741 33.4172 199.642 33.4172C200.503 33.4172 201.202 33.3128 201.737 33.1039C202.285 32.882 202.683 32.5883 202.931 32.2228C203.192 31.8574 203.323 31.4527 203.323 31.0089C203.323 30.4738 203.166 30.043 202.853 29.7167C202.553 29.3904 202.154 29.1358 201.658 28.9531C201.162 28.7573 200.614 28.5876 200.014 28.444C199.413 28.3004 198.813 28.1503 198.212 27.9937C197.612 27.824 197.057 27.6021 196.548 27.328C196.052 27.0539 195.648 26.6949 195.334 26.2511C195.034 25.7943 194.884 25.2004 194.884 24.4694C194.884 23.7907 195.06 23.1707 195.413 22.6094C195.778 22.0351 196.333 21.5782 197.077 21.2388C197.821 20.8864 198.774 20.7102 199.935 20.7102C200.706 20.7102 201.469 20.8211 202.226 21.043C202.983 21.2519 203.636 21.5456 204.184 21.9241L203.695 23.0793C203.107 22.6877 202.481 22.4005 201.815 22.2178C201.162 22.0351 200.529 21.9437 199.916 21.9437C199.093 21.9437 198.415 22.0546 197.88 22.2765C197.344 22.4984 196.946 22.7986 196.685 23.1772C196.437 23.5427 196.313 23.9604 196.313 24.4303C196.313 24.9654 196.463 25.3962 196.764 25.7225C197.077 26.0488 197.481 26.3033 197.977 26.4861C198.487 26.6688 199.041 26.832 199.642 26.9756C200.242 27.1192 200.836 27.2758 201.423 27.4455C202.024 27.6152 202.572 27.8371 203.068 28.1112C203.577 28.3722 203.982 28.7247 204.282 29.1685C204.595 29.6123 204.752 30.1931 204.752 30.911C204.752 31.5767 204.569 32.1967 204.204 32.7711C203.838 33.3323 203.277 33.7892 202.52 34.1416C201.776 34.481 200.816 34.6507 199.642 34.6507Z" fill="white"/>
<defs>
<filter id="filter0_i_3054_5553" x="33.1038" y="5.09277" width="11.1406" height="9.68314" filterUnits="userSpaceOnUse" color-interpolation-filters="sRGB">
<feFlood flood-opacity="0" result="BackgroundImageFix"/>
<feBlend mode="normal" in="SourceGraphic" in2="BackgroundImageFix" result="shape"/>
<feColorMatrix in="SourceAlpha" type="matrix" values="0 0 0 0 0 0 0 0 0 0 0 0 0 0 0 0 0 0 127 0" result="hardAlpha"/>
<feOffset dy="0.611855"/>
<feGaussianBlur stdDeviation="0.305927"/>
<feComposite in2="hardAlpha" operator="arithmetic" k2="-1" k3="1"/>
<feColorMatrix type="matrix" values="0 0 0 0 1 0 0 0 0 0.693546 0 0 0 0 0.0986654 0 0 0 0.25 0"/>
<feBlend mode="normal" in2="shape" result="effect1_innerShadow_3054_5553"/>
</filter>
<linearGradient id="paint0_linear_3054_5553" x1="38.6741" y1="5.09277" x2="38.6741" y2="14.1645" gradientUnits="userSpaceOnUse">
<stop stop-color="#FFE563"/>
<stop offset="1" stop-color="#FFB256"/>
</linearGradient>
</defs>
</svg>
