<svg width="28" height="28" viewBox="0 0 28 28" fill="none" xmlns="http://www.w3.org/2000/svg">
<path d="M10.5 25.6668H17.5C23.3333 25.6668 25.6667 23.3335 25.6667 17.5002V10.5002C25.6667 4.66683 23.3333 2.3335 17.5 2.3335H10.5C4.66667 2.3335 2.33334 4.66683 2.33334 10.5002V17.5002C2.33334 23.3335 4.66667 25.6668 10.5 25.6668Z" stroke="#0096FF" stroke-width="1.75" stroke-linecap="round" stroke-linejoin="round"/>
<path d="M21.4435 17.8163V8.84458C21.4435 7.94625 20.7201 7.29293 19.8335 7.36293H19.7868C18.2235 7.49126 15.8552 8.29627 14.5252 9.1246L14.3968 9.20628C14.1868 9.33461 13.8251 9.33461 13.6034 9.20628L13.4168 9.08961C12.0985 8.26127 9.73014 7.47958 8.16681 7.35125C7.28014 7.28125 6.5568 7.94627 6.5568 8.83294V17.8163C6.5568 18.5279 7.14012 19.2046 7.85178 19.2863L8.06178 19.3213C9.67178 19.5313 12.1685 20.3596 13.5918 21.1413L13.6268 21.1529C13.8251 21.2696 14.1518 21.2696 14.3384 21.1529C15.7618 20.3596 18.2701 19.5429 19.8918 19.3213L20.1368 19.2863C20.8602 19.2046 21.4435 18.5396 21.4435 17.8163Z" stroke="#0096FF" stroke-width="1.75" stroke-linecap="round" stroke-linejoin="round"/>
<path d="M14 9.45166V20.605" stroke="#0096FF" stroke-width="1.75" stroke-linecap="round" stroke-linejoin="round"/>
</svg>
