<svg width="40" height="40" viewBox="0 0 40 40" fill="none" xmlns="http://www.w3.org/2000/svg">
<path d="M17.5 33.1663V6.83301C17.5 4.33301 16.4333 3.33301 13.7833 3.33301H7.04999C4.39999 3.33301 3.33333 4.33301 3.33333 6.83301V33.1663C3.33333 35.6663 4.39999 36.6663 7.04999 36.6663H13.7833C16.4333 36.6663 17.5 35.6663 17.5 33.1663Z" stroke="white" stroke-width="2" stroke-linecap="round" stroke-linejoin="round"/>
<path d="M36.6667 18.1663V6.83301C36.6667 4.33301 35.6 3.33301 32.95 3.33301H26.2167C23.5667 3.33301 22.5 4.33301 22.5 6.83301V18.1663C22.5 20.6663 23.5667 21.6663 26.2167 21.6663H32.95C35.6 21.6663 36.6667 20.6663 36.6667 18.1663Z" stroke="white" stroke-width="2" stroke-linecap="round" stroke-linejoin="round"/>
<path d="M36.6667 33.167V30.167C36.6667 27.667 35.6 26.667 32.95 26.667H26.2167C23.5667 26.667 22.5 27.667 22.5 30.167V33.167C22.5 35.667 23.5667 36.667 26.2167 36.667H32.95C35.6 36.667 36.6667 35.667 36.6667 33.167Z" stroke="white" stroke-width="2" stroke-linecap="round" stroke-linejoin="round"/>
</svg>
