<svg width="966" height="197" viewBox="0 0 966 197" fill="none" xmlns="http://www.w3.org/2000/svg">
<path d="M0 32.4346V39.667H1V32.4346C1.00007 28.9089 2.61714 25.5779 5.3877 23.3975L27.9648 5.62988C29.9921 4.03447 32.4974 3.16703 35.0771 3.16699H273.882C274.116 4.4006 275.198 5.33398 276.5 5.33398C277.973 5.33398 279.167 4.13975 279.167 2.66699C279.167 1.19423 277.973 0 276.5 0C275.198 0 274.116 0.933382 273.882 2.16699H35.0771C32.2731 2.16703 29.5502 3.10961 27.3467 4.84375L4.76953 22.6123C1.75815 24.9823 7.10126e-05 28.6024 0 32.4346Z" fill="url(#paint0_linear_159122_17485)"/>
<path d="M276.5 165.334C277.973 165.334 279.167 164.14 279.167 162.667C279.167 161.194 277.973 160 276.5 160C275.198 160 274.116 160.933 273.882 162.167H242.977C239.103 162.167 235.489 160.217 233.363 156.979L185.973 84.8066C183.662 81.2872 179.734 79.167 175.523 79.167H125.5V80.167H175.523C179.397 80.167 183.011 82.1176 185.137 85.3555L232.527 157.528C234.838 161.048 238.766 163.167 242.977 163.167H273.882C274.116 164.401 275.198 165.334 276.5 165.334Z" fill="url(#paint1_linear_159122_17485)"/>
<path d="M658.5 77C659.973 77 661.167 78.1942 661.167 79.667C661.167 81.1398 659.973 82.334 658.5 82.334C657.198 82.334 656.116 81.4006 655.882 80.167H634.089C629.585 80.167 625.496 82.7955 623.626 86.8926L592.157 155.855C590.125 160.309 585.681 163.167 580.786 163.167H562.5V162.167H580.785C585.289 162.167 589.378 159.537 591.248 155.44L622.717 86.4775C624.749 82.0243 629.194 79.167 634.089 79.167H655.882C656.116 77.9334 657.198 77 658.5 77Z" fill="url(#paint2_linear_159122_17485)"/>
<path d="M965 91.6675V169.168C965 175.519 959.851 180.668 953.5 180.668H939.118C938.884 179.434 937.802 178.501 936.5 178.501C935.027 178.501 933.833 179.695 933.833 181.168C933.833 182.64 935.027 183.835 936.5 183.835C937.802 183.835 938.884 182.901 939.118 181.668H953.5C960.404 181.668 966 176.071 966 169.168V91.6675C966 84.7641 960.403 79.1676 953.5 79.1675L920.5 79.1666V80.1666L953.5 80.1675C959.851 80.1676 965 85.3163 965 91.6675Z" fill="url(#paint3_linear_159122_17485)"/>
<path d="M419.833 50.667C419.833 49.1942 421.027 48 422.5 48C423.973 48 425.167 49.1942 425.167 50.667C425.167 51.9687 424.234 53.051 423 53.2852V118.667H422V53.2852C420.766 53.051 419.833 51.9687 419.833 50.667Z" fill="url(#paint4_linear_159122_17485)"/>
<path d="M276.5 196.834C277.973 196.834 279.167 195.64 279.167 194.167C279.167 192.694 277.973 191.5 276.5 191.5C275.198 191.5 274.116 192.433 273.882 193.667H229.464C225.914 193.667 222.604 191.871 220.669 188.895C218.55 185.634 214.925 183.667 211.036 183.667H125.5V184.667H211.036C214.586 184.667 217.896 186.463 219.831 189.439C221.95 192.7 225.575 194.667 229.464 194.667H273.882C274.116 195.901 275.198 196.834 276.5 196.834Z" fill="url(#paint5_linear_159122_17485)"/>
<defs>
<linearGradient id="paint0_linear_159122_17485" x1="-52.5" y1="49.167" x2="211" y2="-12.3328" gradientUnits="userSpaceOnUse">
<stop stop-color="white" stop-opacity="0"/>
<stop offset="1" stop-color="white"/>
</linearGradient>
<linearGradient id="paint1_linear_159122_17485" x1="112.917" y1="121.167" x2="276.5" y2="121.167" gradientUnits="userSpaceOnUse">
<stop stop-color="white" stop-opacity="0"/>
<stop offset="1" stop-color="white"/>
</linearGradient>
<linearGradient id="paint2_linear_159122_17485" x1="554.5" y1="121.167" x2="658.5" y2="121.167" gradientUnits="userSpaceOnUse">
<stop stop-color="white" stop-opacity="0"/>
<stop offset="1" stop-color="white"/>
</linearGradient>
<linearGradient id="paint3_linear_159122_17485" x1="916.75" y1="130.417" x2="965.5" y2="130.417" gradientUnits="userSpaceOnUse">
<stop stop-color="white" stop-opacity="0"/>
<stop offset="1" stop-color="white"/>
</linearGradient>
<linearGradient id="paint4_linear_159122_17485" x1="422.5" y1="124.334" x2="397.25" y2="114.317" gradientUnits="userSpaceOnUse">
<stop stop-color="white" stop-opacity="0"/>
<stop offset="1" stop-color="white"/>
</linearGradient>
<linearGradient id="paint5_linear_159122_17485" x1="112.917" y1="189.167" x2="276.5" y2="189.167" gradientUnits="userSpaceOnUse">
<stop stop-color="white" stop-opacity="0"/>
<stop offset="1" stop-color="white"/>
</linearGradient>
</defs>
</svg>
