<svg width="40" height="40" viewBox="0 0 40 40" fill="none" xmlns="http://www.w3.org/2000/svg">
<path d="M36.6667 14.1663C36.6667 20.1497 31.8167 24.9997 25.8333 24.9997C25.55 24.9997 25.25 24.983 24.9667 24.9664C24.55 19.683 20.3166 15.4497 15.0333 15.033C15.0166 14.7497 15 14.4497 15 14.1663C15 8.18301 19.85 3.33301 25.8333 3.33301C31.8167 3.33301 36.6667 8.18301 36.6667 14.1663Z" stroke="white" stroke-width="2.5" stroke-linecap="round" stroke-linejoin="round"/>
<path d="M25.0002 25.8333C25.0002 31.8167 20.1502 36.6667 14.1668 36.6667C8.1835 36.6667 3.3335 31.8167 3.3335 25.8333C3.3335 19.85 8.1835 15 14.1668 15C14.4502 15 14.7501 15.0166 15.0335 15.0333C20.3168 15.45 24.5502 19.6834 24.9668 24.9667C24.9835 25.25 25.0002 25.55 25.0002 25.8333Z" stroke="white" stroke-width="2.5" stroke-linecap="round" stroke-linejoin="round"/>
<path d="M12.7 24.367L14.1667 21.667L15.6333 24.367L18.3333 25.8337L15.6333 27.3003L14.1667 30.0003L12.7 27.3003L10 25.8337L12.7 24.367Z" stroke="white" stroke-width="2.5" stroke-linecap="round" stroke-linejoin="round"/>
</svg>
