<svg width="40" height="40" viewBox="0 0 40 40" fill="none" xmlns="http://www.w3.org/2000/svg">
<path d="M18.3665 32.5H12.4998C11.4665 32.5 10.5498 32.4667 9.73317 32.35C5.34984 31.8667 4.1665 29.8 4.1665 24.1667V15.8333C4.1665 10.2 5.34984 8.13333 9.73317 7.65C10.5498 7.53333 11.4665 7.5 12.4998 7.5H18.2665" stroke="white" stroke-width="2.5" stroke-linecap="round" stroke-linejoin="round"/>
<path d="M25.0327 7.5H27.4994C28.5327 7.5 29.4494 7.53333 30.266 7.65C34.6494 8.13333 35.8327 10.2 35.8327 15.8333V24.1667C35.8327 29.8 34.6494 31.8667 30.266 32.35C29.4494 32.4667 28.5327 32.5 27.4994 32.5H25.0327" stroke="white" stroke-width="2.5" stroke-linecap="round" stroke-linejoin="round"/>
<path d="M25 3.33301V36.6663" stroke="white" stroke-width="2.5" stroke-linecap="round" stroke-linejoin="round"/>
<path d="M13.3335 14.167V25.8337" stroke="white" stroke-width="2.5" stroke-linecap="round" stroke-linejoin="round"/>
</svg>
