<svg width="40" height="40" viewBox="0 0 40 40" fill="none" xmlns="http://www.w3.org/2000/svg">
<path d="M34.8499 18.5341C34.8499 26.6841 28.9333 34.3175 20.8499 36.5508C20.2999 36.7008 19.6999 36.7008 19.1499 36.5508C11.0666 34.3175 5.1499 26.6841 5.1499 18.5341V11.2175C5.1499 9.85079 6.18326 8.30079 7.46659 7.78413L16.7499 3.98418C18.8332 3.13418 21.1832 3.13418 23.2666 3.98418L32.5499 7.78413C33.8166 8.30079 34.8666 9.85079 34.8666 11.2175L34.8499 18.5341Z" stroke="white" stroke-width="2.5" stroke-linecap="round" stroke-linejoin="round"/>
<path d="M19.9998 20.8337C21.8408 20.8337 23.3332 19.3413 23.3332 17.5003C23.3332 15.6594 21.8408 14.167 19.9998 14.167C18.1589 14.167 16.6665 15.6594 16.6665 17.5003C16.6665 19.3413 18.1589 20.8337 19.9998 20.8337Z" stroke="white" stroke-width="2.5" stroke-miterlimit="10" stroke-linecap="round" stroke-linejoin="round"/>
<path d="M20 20.834V25.834" stroke="white" stroke-width="2.5" stroke-miterlimit="10" stroke-linecap="round" stroke-linejoin="round"/>
</svg>
