<svg width="28" height="28" viewBox="0 0 28 28" fill="none" xmlns="http://www.w3.org/2000/svg">
<path d="M5.21496 13.323L3.18496 11.293L1.16663 13.323" stroke="#0096FF" stroke-width="1.75" stroke-linecap="round" stroke-linejoin="round"/>
<path d="M22.7853 14.6768L24.8153 16.7067L26.8453 14.6768" stroke="#0096FF" stroke-width="1.75" stroke-linecap="round" stroke-linejoin="round"/>
<path d="M24.8028 16.7073V14.0006C24.8028 8.02728 19.9611 3.19727 13.9995 3.19727C10.5928 3.19727 7.54779 4.78397 5.56445 7.24564" stroke="#0096FF" stroke-width="1.75" stroke-linecap="round" stroke-linejoin="round"/>
<path d="M3.1969 11.293V13.9996C3.1969 19.973 8.03857 24.803 14.0002 24.803C17.4069 24.803 20.4519 23.2163 22.4352 20.7546" stroke="#0096FF" stroke-width="1.75" stroke-linecap="round" stroke-linejoin="round"/>
<path d="M10.5 9.91699H15.61C16.7417 9.91699 17.6517 10.9437 17.6517 11.9587C17.6517 13.0903 16.7417 14.0003 15.61 14.0003H10.5V9.91699Z" stroke="#0096FF" stroke-width="1.75" stroke-miterlimit="10" stroke-linecap="round" stroke-linejoin="round"/>
<path d="M10.5 14H16.3333C17.6167 14 18.6667 14.91 18.6667 16.0417C18.6667 17.1733 17.6167 18.0833 16.3333 18.0833H10.5V14Z" stroke="#0096FF" stroke-width="1.75" stroke-miterlimit="10" stroke-linecap="round" stroke-linejoin="round"/>
<path d="M13.7667 18.083V20.1247" stroke="#0096FF" stroke-width="1.75" stroke-miterlimit="10" stroke-linecap="round" stroke-linejoin="round"/>
<path d="M13.7667 7.875V9.91667" stroke="#0096FF" stroke-width="1.75" stroke-miterlimit="10" stroke-linecap="round" stroke-linejoin="round"/>
</svg>
