<svg width="28" height="28" viewBox="0 0 28 28" fill="none" xmlns="http://www.w3.org/2000/svg">
<path d="M23.3334 8.10866V19.892C23.1467 19.857 22.9484 19.8337 22.7501 19.8337C21.1401 19.8337 19.8334 21.1403 19.8334 22.7503C19.8334 22.9487 19.8567 23.147 19.8917 23.3337H8.10841C8.14341 23.147 8.16675 22.9487 8.16675 22.7503C8.16675 21.1403 6.86008 19.8337 5.25008 19.8337C5.05175 19.8337 4.85341 19.857 4.66675 19.892V8.10866C4.85341 8.14366 5.05175 8.16699 5.25008 8.16699C6.86008 8.16699 8.16675 6.86033 8.16675 5.25033C8.16675 5.05199 8.14341 4.85366 8.10841 4.66699H19.8917C19.8567 4.85366 19.8334 5.05199 19.8334 5.25033C19.8334 6.86033 21.1401 8.16699 22.7501 8.16699C22.9484 8.16699 23.1467 8.14366 23.3334 8.10866Z" stroke="white" stroke-width="1.75" stroke-linecap="round" stroke-linejoin="round"/>
<path d="M8.16659 5.24967C8.16659 6.85967 6.85992 8.16634 5.24992 8.16634C5.05159 8.16634 4.85325 8.14301 4.66659 8.10801C3.33659 7.83967 2.33325 6.66134 2.33325 5.24967C2.33325 3.63967 3.63992 2.33301 5.24992 2.33301C6.66159 2.33301 7.83992 3.33634 8.10825 4.66634C8.14325 4.85301 8.16659 5.05134 8.16659 5.24967Z" stroke="white" stroke-width="1.75" stroke-linecap="round" stroke-linejoin="round"/>
<path d="M25.6666 5.24967C25.6666 6.66134 24.6633 7.83967 23.3333 8.10801C23.1466 8.14301 22.9483 8.16634 22.7499 8.16634C21.1399 8.16634 19.8333 6.85967 19.8333 5.24967C19.8333 5.05134 19.8566 4.85301 19.8916 4.66634C20.1599 3.33634 21.3383 2.33301 22.7499 2.33301C24.3599 2.33301 25.6666 3.63967 25.6666 5.24967Z" stroke="white" stroke-width="1.75" stroke-linecap="round" stroke-linejoin="round"/>
<path d="M8.16659 22.7497C8.16659 22.948 8.14325 23.1463 8.10825 23.333C7.83992 24.663 6.66159 25.6663 5.24992 25.6663C3.63992 25.6663 2.33325 24.3597 2.33325 22.7497C2.33325 21.338 3.33659 20.1597 4.66659 19.8913C4.85325 19.8563 5.05159 19.833 5.24992 19.833C6.85992 19.833 8.16659 21.1397 8.16659 22.7497Z" stroke="white" stroke-width="1.75" stroke-linecap="round" stroke-linejoin="round"/>
<path d="M25.6666 22.7497C25.6666 24.3597 24.3599 25.6663 22.7499 25.6663C21.3383 25.6663 20.1599 24.663 19.8916 23.333C19.8566 23.1463 19.8333 22.948 19.8333 22.7497C19.8333 21.1397 21.1399 19.833 22.7499 19.833C22.9483 19.833 23.1466 19.8563 23.3333 19.8913C24.6633 20.1597 25.6666 21.338 25.6666 22.7497Z" stroke="white" stroke-width="1.75" stroke-linecap="round" stroke-linejoin="round"/>
</svg>
