<svg width="28" height="28" viewBox="0 0 28 28" fill="none" xmlns="http://www.w3.org/2000/svg">
<path d="M5.83325 10.5V18.6667" stroke="white" stroke-width="1.75" stroke-linecap="round" stroke-linejoin="round"/>
<path d="M6.12492 9.91634C8.219 9.91634 9.91659 8.21875 9.91659 6.12467C9.91659 4.03059 8.219 2.33301 6.12492 2.33301C4.03084 2.33301 2.33325 4.03059 2.33325 6.12467C2.33325 8.21875 4.03084 9.91634 6.12492 9.91634Z" stroke="white" stroke-width="1.75" stroke-linecap="round" stroke-linejoin="round"/>
<path d="M5.83325 25.667C7.76625 25.667 9.33325 24.1 9.33325 22.167C9.33325 20.234 7.76625 18.667 5.83325 18.667C3.90026 18.667 2.33325 20.234 2.33325 22.167C2.33325 24.1 3.90026 25.667 5.83325 25.667Z" stroke="white" stroke-width="1.75" stroke-linecap="round" stroke-linejoin="round"/>
<path d="M22.1667 25.667C24.0997 25.667 25.6667 24.1 25.6667 22.167C25.6667 20.234 24.0997 18.667 22.1667 18.667C20.2338 18.667 18.6667 20.234 18.6667 22.167C18.6667 24.1 20.2338 25.667 22.1667 25.667Z" stroke="white" stroke-width="1.75" stroke-linecap="round" stroke-linejoin="round"/>
<path d="M5.98511 10.5C6.51011 12.5417 8.37677 14.0583 10.5818 14.0467L14.5834 14.035C17.6401 14.0233 20.2418 15.9833 21.1984 18.7133" stroke="white" stroke-width="1.75" stroke-linecap="round" stroke-linejoin="round"/>
</svg>
