<svg width="136" height="31" viewBox="0 0 136 31" fill="none" xmlns="http://www.w3.org/2000/svg">
<path d="M82.2435 1.00658C86.593 0.36959 92.3598 -0.148521 97.4593 0.0388107C100.003 0.13227 102.465 0.40381 104.533 0.962639C106.526 1.50157 108.529 2.40536 109.68 4.05053H109.679C111.088 6.03945 111.206 8.12064 110.348 9.85326C109.564 11.4375 108.085 12.4895 106.703 12.9372C100.856 14.8325 95.2806 16.1896 89.7142 17.4958C84.132 18.8058 78.5744 20.0613 72.6507 21.7673C72.5636 21.7924 72.476 21.8156 72.389 21.8406C92.8117 19.2092 113.899 19.1001 134.104 20.1423C135.207 20.1995 136.054 21.14 135.997 22.2429C135.94 23.3458 135.001 24.1941 133.898 24.1374C109.004 22.8533 82.9481 23.3398 58.5726 28.1179C55.3133 28.7568 52.1295 29.7367 48.8158 30.7361C48.5479 30.8169 48.3127 30.8881 48.1703 30.9246C48.1356 30.9334 48.0519 30.955 47.9535 30.9714C47.9128 30.9782 47.7935 30.9974 47.6419 30.9997C47.569 31.0009 47.4143 30.9997 47.224 30.9626C47.0829 30.9352 46.6194 30.8343 46.2025 30.4246C45.6413 29.8729 45.5171 29.1288 45.6576 28.5359C45.7637 28.0877 45.9961 27.8009 46.0716 27.7107C46.2461 27.5023 46.4252 27.3779 46.4544 27.3572C46.5617 27.281 46.6601 27.2276 46.682 27.2156C47.0237 27.0273 47.1107 27.014 47.5208 26.7683C55.1025 22.2272 63.5596 20.2231 71.5443 17.9236C77.5871 16.1833 83.2611 14.9011 88.8001 13.6013C94.3551 12.2977 99.7917 10.9719 105.47 9.13158C106.012 8.95573 106.537 8.5344 106.763 8.07885C106.863 7.87785 106.906 7.67138 106.883 7.44018C106.86 7.20473 106.756 6.84205 106.41 6.35619L108.008 5.21947L107.995 5.22826L106.41 6.35619L106.403 6.34447L106.334 6.25561C105.964 5.80438 105.11 5.26242 103.489 4.82397C101.832 4.37626 99.706 4.12383 97.3119 4.03588C92.5351 3.86045 87.0261 4.34898 82.8226 4.96459C69.3659 6.93544 56.6639 11.6429 43.5121 16.3298C30.4258 20.9934 16.933 25.6194 2.20932 27.1658C1.11079 27.2811 0.126453 26.484 0.0110773 25.3855C-0.104167 24.2871 0.692911 23.3026 1.79135 23.1872C15.9836 21.6967 29.0647 17.2324 42.1693 12.5622C55.2081 7.91559 68.3145 3.04654 82.2435 1.00658Z" fill="url(#paint0_linear_158972_46081)"/>
<defs>
<linearGradient id="paint0_linear_158972_46081" x1="2.00034" y1="17.0331" x2="134" y2="17.0331" gradientUnits="userSpaceOnUse">
<stop stop-color="#0096FF"/>
<stop offset="1" stop-color="#AE67FF"/>
</linearGradient>
</defs>
</svg>
