<svg width="28" height="28" viewBox="0 0 28 28" fill="none" xmlns="http://www.w3.org/2000/svg">
<path d="M8.4701 2.3335H19.5184C20.2768 2.3335 20.9534 2.35686 21.5601 2.43853C24.7918 2.80019 25.6668 4.31684 25.6668 8.47017V15.8435C25.6668 19.9969 24.7918 21.5135 21.5601 21.8752C20.9534 21.9568 20.2884 21.9802 19.5184 21.9802H8.4701C7.71176 21.9802 7.0351 21.9568 6.42843 21.8752C3.19676 21.5135 2.32178 19.9969 2.32178 15.8435V8.47017C2.32178 4.31684 3.19676 2.80019 6.42843 2.43853C7.0351 2.35686 7.71176 2.3335 8.4701 2.3335Z" stroke="#0096FF" stroke-width="1.75" stroke-linecap="round" stroke-linejoin="round"/>
<path d="M15.8433 9.70703H20.1366" stroke="#0096FF" stroke-width="1.75" stroke-linecap="round" stroke-linejoin="round"/>
<path d="M7.86353 16.4624H7.88685H20.1485" stroke="#0096FF" stroke-width="1.75" stroke-linecap="round" stroke-linejoin="round"/>
<path d="M8.16675 25.6665H19.8334" stroke="#0096FF" stroke-width="1.75" stroke-linecap="round" stroke-linejoin="round"/>
<path d="M8.39382 9.68343H8.4043" stroke="#0096FF" stroke-width="2.33333" stroke-linecap="round" stroke-linejoin="round"/>
<path d="M12.2437 9.68343H12.2542" stroke="#0096FF" stroke-width="2.33333" stroke-linecap="round" stroke-linejoin="round"/>
</svg>
