<svg width="28" height="28" viewBox="0 0 28 28" fill="none" xmlns="http://www.w3.org/2000/svg">
<path d="M25.6667 17.5C25.6667 22.015 22.015 25.6667 17.5 25.6667L18.725 23.625" stroke="#0096FF" stroke-width="1.75" stroke-linecap="round" stroke-linejoin="round"/>
<path d="M2.33334 10.4997C2.33334 5.98467 5.985 2.33301 10.5 2.33301L9.275 4.37467" stroke="#0096FF" stroke-width="1.75" stroke-linecap="round" stroke-linejoin="round"/>
<path d="M15.9833 5.19043L20.6267 7.87375L25.2233 5.20211" stroke="#0096FF" stroke-width="1.75" stroke-linecap="round" stroke-linejoin="round"/>
<path d="M20.6267 12.6213V7.86133" stroke="#0096FF" stroke-width="1.75" stroke-linecap="round" stroke-linejoin="round"/>
<path d="M19.53 2.57801L16.73 4.12962C16.1 4.47962 15.575 5.36628 15.575 6.08961V9.05299C15.575 9.77633 16.0883 10.663 16.73 11.013L19.53 12.5647C20.125 12.903 21.105 12.903 21.7117 12.5647L24.5117 11.013C25.1417 10.663 25.6667 9.77633 25.6667 9.05299V6.08961C25.6667 5.36628 25.1533 4.47962 24.5117 4.12962L21.7117 2.57801C21.1167 2.25134 20.1367 2.25134 19.53 2.57801Z" stroke="#0096FF" stroke-width="1.75" stroke-linecap="round" stroke-linejoin="round"/>
<path d="M2.74168 18.0244L7.37334 20.7077L11.9817 18.0361" stroke="#0096FF" stroke-width="1.75" stroke-linecap="round" stroke-linejoin="round"/>
<path d="M7.37334 25.4553V20.6953" stroke="#0096FF" stroke-width="1.75" stroke-linecap="round" stroke-linejoin="round"/>
<path d="M6.28834 15.412L3.48834 16.9636C2.85834 17.3136 2.33334 18.2003 2.33334 18.9236V21.887C2.33334 22.6103 2.84668 23.497 3.48834 23.847L6.28834 25.3987C6.88334 25.737 7.86333 25.737 8.47 25.3987L11.27 23.847C11.9 23.497 12.425 22.6103 12.425 21.887V18.9236C12.425 18.2003 11.9117 17.3136 11.27 16.9636L8.47 15.412C7.86333 15.0853 6.88334 15.0853 6.28834 15.412Z" stroke="#0096FF" stroke-width="1.75" stroke-linecap="round" stroke-linejoin="round"/>
</svg>
