<svg width="28" height="28" viewBox="0 0 28 28" fill="none" xmlns="http://www.w3.org/2000/svg">
<path d="M8.16659 9.33331H4.66659C3.38325 9.33331 2.33325 8.28331 2.33325 6.99998V4.66665C2.33325 3.38331 3.38325 2.33331 4.66659 2.33331H8.16659C9.44992 2.33331 10.4999 3.38331 10.4999 4.66665V6.99998C10.4999 8.28331 9.44992 9.33331 8.16659 9.33331Z" stroke="white" stroke-width="1.75" stroke-linecap="round" stroke-linejoin="round"/>
<path d="M24.2668 8.16667H20.0667C19.2967 8.16667 18.6667 7.53665 18.6667 6.76665V4.90001C18.6667 4.13001 19.2967 3.5 20.0667 3.5H24.2668C25.0368 3.5 25.6667 4.13001 25.6667 4.90001V6.76665C25.6667 7.53665 25.0368 8.16667 24.2668 8.16667Z" stroke="white" stroke-width="1.75" stroke-linecap="round" stroke-linejoin="round"/>
<path d="M24.2668 16.9167H20.0667C19.2967 16.9167 18.6667 16.2867 18.6667 15.5167V13.65C18.6667 12.88 19.2967 12.25 20.0667 12.25H24.2668C25.0368 12.25 25.6667 12.88 25.6667 13.65V15.5167C25.6667 16.2867 25.0368 16.9167 24.2668 16.9167Z" stroke="white" stroke-width="1.75" stroke-linecap="round" stroke-linejoin="round"/>
<path d="M10.5 5.83331H18.6667" stroke="white" stroke-width="1.75" stroke-miterlimit="10" stroke-linecap="round" stroke-linejoin="round"/>
<path d="M14.5833 5.83331V21C14.5833 22.2833 15.6333 23.3333 16.9166 23.3333H18.6666" stroke="white" stroke-width="1.75" stroke-miterlimit="10" stroke-linecap="round" stroke-linejoin="round"/>
<path d="M14.5833 14.5833H18.6666" stroke="white" stroke-width="1.75" stroke-miterlimit="10" stroke-linecap="round" stroke-linejoin="round"/>
<path d="M24.2668 25.6667H20.0667C19.2967 25.6667 18.6667 25.0367 18.6667 24.2667V22.4C18.6667 21.63 19.2967 21 20.0667 21H24.2668C25.0368 21 25.6667 21.63 25.6667 22.4V24.2667C25.6667 25.0367 25.0368 25.6667 24.2668 25.6667Z" stroke="white" stroke-width="1.75" stroke-linecap="round" stroke-linejoin="round"/>
</svg>
