<svg width="28" height="28" viewBox="0 0 28 28" fill="none" xmlns="http://www.w3.org/2000/svg">
<path d="M19.1916 16.8V9.91667C19.1916 9.275 18.6666 8.75 18.025 8.75H14.6416" stroke="#0096FF" stroke-width="1.75" stroke-linecap="round" stroke-linejoin="round"/>
<path d="M16.3915 7L14.2915 8.75L16.3915 10.5" stroke="#0096FF" stroke-width="1.75" stroke-linecap="round" stroke-linejoin="round"/>
<path d="M8.80835 11.9V16.8" stroke="#0096FF" stroke-width="1.75" stroke-linecap="round" stroke-linejoin="round"/>
<path d="M8.98327 11.55C10.2397 11.55 11.2583 10.5315 11.2583 9.27501C11.2583 8.01857 10.2397 7 8.98327 7C7.72682 7 6.70825 8.01857 6.70825 9.27501C6.70825 10.5315 7.72682 11.55 8.98327 11.55Z" stroke="#0096FF" stroke-width="1.75" stroke-linecap="round" stroke-linejoin="round"/>
<path d="M8.80824 21.0005C9.96804 21.0005 10.9082 20.0603 10.9082 18.9005C10.9082 17.7407 9.96804 16.8005 8.80824 16.8005C7.64844 16.8005 6.70825 17.7407 6.70825 18.9005C6.70825 20.0603 7.64844 21.0005 8.80824 21.0005Z" stroke="#0096FF" stroke-width="1.75" stroke-linecap="round" stroke-linejoin="round"/>
<path d="M19.192 21.0005C20.3518 21.0005 21.292 20.0603 21.292 18.9005C21.292 17.7407 20.3518 16.8005 19.192 16.8005C18.0322 16.8005 17.092 17.7407 17.092 18.9005C17.092 20.0603 18.0322 21.0005 19.192 21.0005Z" stroke="#0096FF" stroke-width="1.75" stroke-linecap="round" stroke-linejoin="round"/>
<path d="M10.4999 25.6666H17.4999C23.3333 25.6666 25.6666 23.3333 25.6666 17.5V10.5C25.6666 4.66665 23.3333 2.33331 17.4999 2.33331H10.4999C4.66659 2.33331 2.33325 4.66665 2.33325 10.5V17.5C2.33325 23.3333 4.66659 25.6666 10.4999 25.6666Z" stroke="#0096FF" stroke-width="1.75" stroke-linecap="round" stroke-linejoin="round"/>
</svg>
