<svg width="40" height="40" viewBox="0 0 40 40" fill="none" xmlns="http://www.w3.org/2000/svg">
<path d="M36.6667 25C36.6667 31.45 31.45 36.6667 25 36.6667L26.75 33.75" stroke="white" stroke-width="2.5" stroke-linecap="round" stroke-linejoin="round"/>
<path d="M3.33325 14.9997C3.33325 8.54967 8.54992 3.33301 14.9999 3.33301L13.2499 6.24967" stroke="white" stroke-width="2.5" stroke-linecap="round" stroke-linejoin="round"/>
<path d="M22.8333 7.41504L29.4666 11.2484L36.0332 7.43172" stroke="white" stroke-width="2.5" stroke-linecap="round" stroke-linejoin="round"/>
<path d="M29.4666 18.0305V11.2305" stroke="white" stroke-width="2.5" stroke-linecap="round" stroke-linejoin="round"/>
<path d="M27.9 3.68301L23.9 5.8996C23 6.3996 22.25 7.66626 22.25 8.69959V12.933C22.25 13.9663 22.9833 15.233 23.9 15.733L27.9 17.9497C28.75 18.433 30.15 18.433 31.0167 17.9497L35.0166 15.733C35.9166 15.233 36.6667 13.9663 36.6667 12.933V8.69959C36.6667 7.66626 35.9333 6.3996 35.0166 5.8996L31.0167 3.68301C30.1667 3.21634 28.7667 3.21634 27.9 3.68301Z" stroke="white" stroke-width="2.5" stroke-linecap="round" stroke-linejoin="round"/>
<path d="M3.9165 25.749L10.5332 29.5823L17.1165 25.7657" stroke="white" stroke-width="2.5" stroke-linecap="round" stroke-linejoin="round"/>
<path d="M10.5332 36.3645V29.5645" stroke="white" stroke-width="2.5" stroke-linecap="round" stroke-linejoin="round"/>
<path d="M8.98325 22.017L4.98326 24.2336C4.08326 24.7336 3.33325 26.0002 3.33325 27.0336V31.267C3.33325 32.3003 4.06659 33.567 4.98326 34.067L8.98325 36.2837C9.83325 36.767 11.2332 36.767 12.0999 36.2837L16.0999 34.067C16.9999 33.567 17.7499 32.3003 17.7499 31.267V27.0336C17.7499 26.0002 17.0166 24.7336 16.0999 24.2336L12.0999 22.017C11.2332 21.5503 9.83325 21.5503 8.98325 22.017Z" stroke="white" stroke-width="2.5" stroke-linecap="round" stroke-linejoin="round"/>
</svg>
