<svg width="40" height="40" viewBox="0 0 40 40" fill="none" xmlns="http://www.w3.org/2000/svg">
<path d="M36.6667 14.1663C36.6667 20.1497 31.8167 24.9997 25.8333 24.9997C25.55 24.9997 25.25 24.983 24.9667 24.9664C24.55 19.683 20.3166 15.4497 15.0333 15.033C15.0166 14.7497 15 14.4497 15 14.1663C15 8.18301 19.85 3.33301 25.8333 3.33301C31.8167 3.33301 36.6667 8.18301 36.6667 14.1663Z" stroke="white" stroke-width="2.5" stroke-linecap="round" stroke-linejoin="round"/>
<path d="M24.9999 25.8333C24.9999 31.8167 20.1499 36.6667 14.1666 36.6667C8.18325 36.6667 3.33325 31.8167 3.33325 25.8333C3.33325 19.85 8.18325 15 14.1666 15C14.4499 15 14.7499 15.0166 15.0332 15.0333C20.3166 15.45 24.5499 19.6834 24.9666 24.9667C24.9833 25.25 24.9999 25.55 24.9999 25.8333Z" stroke="white" stroke-width="2.5" stroke-linecap="round" stroke-linejoin="round"/>
<path d="M9.31658 3.33301H4.99992C4.08325 3.33301 3.33325 4.08301 3.33325 4.99967V9.31633C3.33325 10.7997 5.13324 11.5497 6.18324 10.4997L10.4999 6.18299C11.5332 5.13299 10.7999 3.33301 9.31658 3.33301Z" stroke="white" stroke-width="2.5" stroke-linecap="round" stroke-linejoin="round"/>
<path d="M30.6828 36.6674H34.9994C35.9161 36.6674 36.6661 35.9174 36.6661 35.0007V30.6841C36.6661 29.2008 34.8661 28.4508 33.8161 29.5008L29.4995 33.8174C28.4661 34.8674 29.1995 36.6674 30.6828 36.6674Z" stroke="white" stroke-width="2.5" stroke-linecap="round" stroke-linejoin="round"/>
</svg>
