<svg width="1440" height="432" viewBox="0 0 1440 432" fill="none" xmlns="http://www.w3.org/2000/svg">
<g filter="url(#filter0_f_4177_9476)">
<ellipse cx="1006.92" cy="211.032" rx="70.3092" ry="52.0056" fill="white" fill-opacity="0.3"/>
<path d="M1006.92 159.526C1026.24 159.526 1043.71 165.319 1056.34 174.66C1068.97 184.002 1076.73 196.867 1076.73 211.032C1076.73 225.197 1068.97 238.062 1056.34 247.403C1043.71 256.744 1026.24 262.537 1006.92 262.537C987.601 262.537 970.13 256.745 957.501 247.403C944.872 238.062 937.111 225.197 937.111 211.032C937.111 196.867 944.872 184.002 957.501 174.66C970.13 165.319 987.601 159.526 1006.92 159.526Z" stroke="url(#paint0_radial_4177_9476)" stroke-opacity="0.2"/>
</g>
<path d="M1269 127H1312V170H1269V127Z" fill="white" fill-opacity="0.01" stroke="url(#paint1_radial_4177_9476)" stroke-opacity="0.2"/>
<path d="M1226 0H1269V42H1226V0Z" fill="white" fill-opacity="0.01" stroke="url(#paint2_radial_4177_9476)" stroke-opacity="0.2"/>
<path d="M1354 170H1397V214H1354V170Z" fill="white" fill-opacity="0.01" stroke="url(#paint3_radial_4177_9476)" stroke-opacity="0.2"/>
<path d="M1310 335H1353V379H1310V335Z" fill="white" fill-opacity="0.01" stroke="url(#paint4_radial_4177_9476)" stroke-opacity="0.2"/>
<path d="M758 127H800V171H758V127Z" fill="white" fill-opacity="0.02" stroke="url(#paint5_radial_4177_9476)" stroke-opacity="0.2"/>
<path d="M595 85H631V121H595V85Z" fill="white" fill-opacity="0.01" stroke="url(#paint6_radial_4177_9476)" stroke-opacity="0.2"/>
<path d="M631 44H672V85H631V44Z" fill="white" fill-opacity="0.01" stroke="url(#paint7_radial_4177_9476)" stroke-opacity="0.2"/>
<path d="M1396.68 0H1439V42.4167M1396.68 0V42.4167M1396.68 0H1354.35M1396.68 42.4167H1439M1396.68 42.4167H1354.35M1396.68 42.4167V84.8333M1439 42.4167V84.8333M1354.35 0V42.4167M1354.35 0H1312.03M1354.35 42.4167H1312.03M1354.35 42.4167V84.8333M1312.03 0V42.4167M1312.03 0H1269.71M1312.03 42.4167H1269.71M1312.03 42.4167V84.8333M1269.71 0V42.4167M1269.71 0H1227.38M1269.71 42.4167H1227.38M1269.71 42.4167V84.8333M1227.38 0V42.4167M1227.38 0H1185.06M1227.38 42.4167H1185.06M1227.38 42.4167V84.8333M1185.06 0V42.4167M1185.06 0H1142.74M1185.06 42.4167H1142.74M1185.06 42.4167V84.8333M1142.74 0V42.4167M1142.74 0H1100.41M1142.74 42.4167H1100.41M1142.74 42.4167V84.8333M1100.41 0V42.4167M1100.41 0H1058.09M1100.41 42.4167H1058.09M1100.41 42.4167V84.8333M1058.09 0V42.4167M1058.09 0H1015.76M1058.09 42.4167H1015.76M1058.09 42.4167V84.8333M1015.76 0V42.4167M1015.76 0H973.441M1015.76 42.4167H973.441M1015.76 42.4167V84.8333M973.441 0V42.4167M973.441 0H931.118M973.441 42.4167H931.118M973.441 42.4167V84.8333M931.118 0V42.4167M931.118 0H888.794M931.118 42.4167H888.794M931.118 42.4167V84.8333M888.794 0V42.4167M888.794 0H846.471M888.794 42.4167H846.471M888.794 42.4167V84.8333M846.471 0V42.4167M846.471 0H804.147M846.471 42.4167H804.147M846.471 42.4167V84.8333M804.147 0V42.4167M804.147 0H761.824M804.147 42.4167H761.824M804.147 42.4167V84.8333M761.824 0V42.4167M761.824 0H719.5M761.824 42.4167H719.5M761.824 42.4167V84.8333M719.5 0V42.4167M719.5 0H677.176M719.5 42.4167V84.8333M719.5 42.4167H677.176M1396.68 84.8333H1439M1396.68 84.8333H1354.35M1396.68 84.8333V127.25M1439 84.8333V127.25M1354.35 84.8333H1312.03M1354.35 84.8333V127.25M1312.03 84.8333H1269.71M1312.03 84.8333V127.25M1269.71 84.8333H1227.38M1269.71 84.8333V127.25M1227.38 84.8333H1185.06M1227.38 84.8333V127.25M1185.06 84.8333H1142.74M1185.06 84.8333V127.25M1142.74 84.8333H1100.41M1142.74 84.8333V127.25M1100.41 84.8333H1058.09M1100.41 84.8333V127.25M1058.09 84.8333H1015.76M1058.09 84.8333V127.25M1015.76 84.8333H973.441M1015.76 84.8333V127.25M973.441 84.8333H931.118M973.441 84.8333V127.25M931.118 84.8333H888.794M931.118 84.8333V127.25M888.794 84.8333H846.471M888.794 84.8333V127.25M846.471 84.8333H804.147M846.471 84.8333V127.25M804.147 84.8333H761.824M804.147 84.8333V127.25M761.824 84.8333H719.5M761.824 84.8333V127.25M719.5 84.8333V127.25M719.5 84.8333H677.176M1396.68 127.25H1439M1396.68 127.25H1354.35M1396.68 127.25V169.667M1439 127.25V169.667M1354.35 127.25H1312.03M1354.35 127.25V169.667M1312.03 127.25H1269.71M1312.03 127.25V169.667M1269.71 127.25H1227.38M1269.71 127.25V169.667M1227.38 127.25H1185.06M1227.38 127.25V169.667M1185.06 127.25H1142.74M1185.06 127.25V169.667M1142.74 127.25H1100.41M1142.74 127.25V169.667M1100.41 127.25H1058.09M1100.41 127.25V169.667M1058.09 127.25H1015.76M1058.09 127.25V169.667M1015.76 127.25H973.441M1015.76 127.25V169.667M973.441 127.25H931.118M973.441 127.25V169.667M931.118 127.25H888.794M931.118 127.25V169.667M888.794 127.25H846.471M888.794 127.25V169.667M846.471 127.25H804.147M846.471 127.25V169.667M804.147 127.25H761.824M804.147 127.25V169.667M761.824 127.25H719.5M761.824 127.25V169.667M719.5 127.25V169.667M719.5 127.25H677.176M1396.68 169.667H1439M1396.68 169.667H1354.35M1396.68 169.667V212.083M1439 169.667V212.083M1354.35 169.667H1312.03M1354.35 169.667V212.083M1312.03 169.667H1269.71M1312.03 169.667V212.083M1269.71 169.667H1227.38M1269.71 169.667V212.083M1227.38 169.667H1185.06M1227.38 169.667V212.083M1185.06 169.667H1142.74M1185.06 169.667V212.083M1142.74 169.667H1100.41M1142.74 169.667V212.083M1100.41 169.667H1058.09M1100.41 169.667V212.083M1058.09 169.667H1015.76M1058.09 169.667V212.083M1015.76 169.667H973.441M1015.76 169.667V212.083M973.441 169.667H931.118M973.441 169.667V212.083M931.118 169.667H888.794M931.118 169.667V212.083M888.794 169.667H846.471M888.794 169.667V212.083M846.471 169.667H804.147M846.471 169.667V212.083M804.147 169.667H761.824M804.147 169.667V212.083M761.824 169.667H719.5M761.824 169.667V212.083M719.5 169.667V212.083M719.5 169.667H677.176M1396.68 212.083H1439M1396.68 212.083H1354.35M1396.68 212.083V254.5M1439 212.083V254.5M1354.35 212.083H1312.03M1354.35 212.083V254.5M1312.03 212.083H1269.71M1312.03 212.083V254.5M1269.71 212.083H1227.38M1269.71 212.083V254.5M1227.38 212.083H1185.06M1227.38 212.083V254.5M1185.06 212.083H1142.74M1185.06 212.083V254.5M1142.74 212.083H1100.41M1142.74 212.083V254.5M1100.41 212.083H1058.09M1100.41 212.083V254.5M1058.09 212.083H1015.76M1058.09 212.083V254.5M1015.76 212.083H973.441M1015.76 212.083V254.5M973.441 212.083H931.118M973.441 212.083V254.5M931.118 212.083H888.794M931.118 212.083V254.5M888.794 212.083H846.471M888.794 212.083V254.5M846.471 212.083H804.147M846.471 212.083V254.5M804.147 212.083H761.824M804.147 212.083V254.5M761.824 212.083H719.5M761.824 212.083V254.5M719.5 212.083V254.5M719.5 212.083H677.176M1396.68 254.5H1439M1396.68 254.5H1354.35M1396.68 254.5V296.917M1439 254.5V296.917M1354.35 254.5H1312.03M1354.35 254.5V296.917M1312.03 254.5H1269.71M1312.03 254.5V296.917M1269.71 254.5H1227.38M1269.71 254.5V296.917M1227.38 254.5H1185.06M1227.38 254.5V296.917M1185.06 254.5H1142.74M1185.06 254.5V296.917M1142.74 254.5H1100.41M1142.74 254.5V296.917M1100.41 254.5H1058.09M1100.41 254.5V296.917M1058.09 254.5H1015.76M1058.09 254.5V296.917M1015.76 254.5H973.441M1015.76 254.5V296.917M973.441 254.5H931.118M973.441 254.5V296.917M931.118 254.5H888.794M931.118 254.5V296.917M888.794 254.5H846.471M888.794 254.5V296.917M846.471 254.5H804.147M846.471 254.5V296.917M804.147 254.5H761.824M804.147 254.5V296.917M761.824 254.5H719.5M761.824 254.5V296.917M719.5 254.5V296.917M719.5 254.5H677.176M1396.68 296.917H1439M1396.68 296.917H1354.35M1396.68 296.917V339.333M1439 296.917V339.333M1354.35 296.917H1312.03M1354.35 296.917V339.333M1312.03 296.917H1269.71M1312.03 296.917V339.333M1269.71 296.917H1227.38M1269.71 296.917V339.333M1227.38 296.917H1185.06M1227.38 296.917V339.333M1185.06 296.917H1142.74M1185.06 296.917V339.333M1142.74 296.917H1100.41M1142.74 296.917V339.333M1100.41 296.917H1058.09M1100.41 296.917V339.333M1058.09 296.917H1015.76M1058.09 296.917V339.333M1015.76 296.917H973.441M1015.76 296.917V339.333M973.441 296.917H931.118M973.441 296.917V339.333M931.118 296.917H888.794M931.118 296.917V339.333M888.794 296.917H846.471M888.794 296.917V339.333M846.471 296.917H804.147M846.471 296.917V339.333M804.147 296.917H761.824M804.147 296.917V339.333M761.824 296.917H719.5M761.824 296.917V339.333M719.5 296.917V339.333M719.5 296.917H677.176M1396.68 339.333H1439M1396.68 339.333H1354.35M1396.68 339.333V381.75M1439 339.333V381.75M1354.35 339.333H1312.03M1354.35 339.333V381.75M1312.03 339.333H1269.71M1312.03 339.333V381.75M1269.71 339.333H1227.38M1269.71 339.333V381.75M1227.38 339.333H1185.06M1227.38 339.333V381.75M1185.06 339.333H1142.74M1185.06 339.333V381.75M1142.74 339.333H1100.41M1142.74 339.333V381.75M1100.41 339.333H1058.09M1100.41 339.333V381.75M1058.09 339.333H1015.76M1058.09 339.333V381.75M1015.76 339.333H973.441M1015.76 339.333V381.75M973.441 339.333H931.118M973.441 339.333V381.75M931.118 339.333H888.794M931.118 339.333V381.75M888.794 339.333H846.471M888.794 339.333V381.75M846.471 339.333H804.147M846.471 339.333V381.75M804.147 339.333H761.824M804.147 339.333V381.75M761.824 339.333H719.5M761.824 339.333V381.75M719.5 339.333V381.75M719.5 339.333H677.176M1396.68 381.75H1439M1396.68 381.75H1354.35M1396.68 381.75V424.167M1439 381.75V424.167M1354.35 381.75H1312.03M1354.35 381.75V424.167M1312.03 381.75H1269.71M1312.03 381.75V424.167M1269.71 381.75H1227.38M1269.71 381.75V424.167M1227.38 381.75H1185.06M1227.38 381.75V424.167M1185.06 381.75H1142.74M1185.06 381.75V424.167M1142.74 381.75H1100.41M1142.74 381.75V424.167M1100.41 381.75H1058.09M1100.41 381.75V424.167M1058.09 381.75H1015.76M1058.09 381.75V424.167M1015.76 381.75H973.441M1015.76 381.75V424.167M973.441 381.75H931.118M973.441 381.75V424.167M931.118 381.75H888.794M931.118 381.75V424.167M888.794 381.75H846.471M888.794 381.75V424.167M846.471 381.75H804.147M846.471 381.75V424.167M804.147 381.75H761.824M804.147 381.75V424.167M761.824 381.75H719.5M761.824 381.75V424.167M719.5 381.75V424.167M719.5 381.75H677.176M1396.68 424.167H1439M1396.68 424.167H1354.35M1396.68 424.167V466.583M1439 424.167V466.583M1354.35 424.167H1312.03M1354.35 424.167V466.583M1312.03 424.167H1269.71M1312.03 424.167V466.583M1269.71 424.167H1227.38M1269.71 424.167V466.583M1227.38 424.167H1185.06M1227.38 424.167V466.583M1185.06 424.167H1142.74M1185.06 424.167V466.583M1142.74 424.167H1100.41M1142.74 424.167V466.583M1100.41 424.167H1058.09M1100.41 424.167V466.583M1058.09 424.167H1015.76M1058.09 424.167V466.583M1015.76 424.167H973.441M1015.76 424.167V466.583M973.441 424.167H931.118M973.441 424.167V466.583M931.118 424.167H888.794M931.118 424.167V466.583M888.794 424.167H846.471M888.794 424.167V466.583M846.471 424.167H804.147M846.471 424.167V466.583M804.147 424.167H761.824M804.147 424.167V466.583M761.824 424.167H719.5M761.824 424.167V466.583M719.5 424.167V466.583M719.5 424.167H677.176M1396.68 466.583H1439M1396.68 466.583H1354.35M1396.68 466.583V509M1439 466.583V509H1396.68M1354.35 466.583H1312.03M1354.35 466.583V509M1312.03 466.583H1269.71M1312.03 466.583V509M1269.71 466.583H1227.38M1269.71 466.583V509M1227.38 466.583H1185.06M1227.38 466.583V509M1185.06 466.583H1142.74M1185.06 466.583V509M1142.74 466.583H1100.41M1142.74 466.583V509M1100.41 466.583H1058.09M1100.41 466.583V509M1058.09 466.583H1015.76M1058.09 466.583V509M1015.76 466.583H973.441M1015.76 466.583V509M973.441 466.583H931.118M973.441 466.583V509M931.118 466.583H888.794M931.118 466.583V509M888.794 466.583H846.471M888.794 466.583V509M846.471 466.583H804.147M846.471 466.583V509M804.147 466.583H761.824M804.147 466.583V509M761.824 466.583H719.5M761.824 466.583V509M719.5 466.583V509M719.5 466.583H677.176M1396.68 509H1354.35M1354.35 509H1312.03M1312.03 509H1269.71M1269.71 509H1227.38M1227.38 509H1185.06M1185.06 509H1142.74M1142.74 509H1100.41M1100.41 509H1058.09M1058.09 509H1015.76M1015.76 509H973.441M973.441 509H931.118M931.118 509H888.794M888.794 509H846.471M846.471 509H804.147M804.147 509H761.824M761.824 509H719.5M719.5 509H677.176M677.176 0V42.4167M677.176 0H634.853M677.176 42.4167H634.853M677.176 42.4167V84.8333M634.853 0V42.4167M634.853 0H592.529M634.853 42.4167H592.529M634.853 42.4167V84.8333M592.529 0V42.4167M592.529 0H550.206M592.529 42.4167H550.206M592.529 42.4167V84.8333M550.206 0V42.4167M550.206 0H507.882M550.206 42.4167H507.882M550.206 42.4167V84.8333M507.882 0V42.4167M507.882 0H465.559M507.882 42.4167H465.559M507.882 42.4167V84.8333M465.559 0V42.4167M465.559 0H423.235M465.559 42.4167H423.235M465.559 42.4167V84.8333M423.235 0V42.4167M423.235 0H380.912M423.235 42.4167H380.912M423.235 42.4167V84.8333M380.912 0V42.4167M380.912 0H338.588M380.912 42.4167H338.588M380.912 42.4167V84.8333M338.588 0V42.4167M338.588 0H296.265M338.588 42.4167H296.265M338.588 42.4167V84.8333M296.265 0V42.4167M296.265 0H253.941M296.265 42.4167H253.941M296.265 42.4167V84.8333M253.941 0V42.4167M253.941 0H211.618M253.941 42.4167H211.618M253.941 42.4167V84.8333M211.618 0V42.4167M211.618 0H169.294M211.618 42.4167H169.294M211.618 42.4167V84.8333M169.294 0V42.4167M169.294 0H126.971M169.294 42.4167H126.971M169.294 42.4167V84.8333M126.971 0V42.4167M126.971 0H84.6471M126.971 42.4167H84.6471M126.971 42.4167V84.8333M84.6471 0V42.4167M84.6471 0H42.3236M84.6471 42.4167H42.3236M84.6471 42.4167V84.8333M42.3236 0V42.4167M42.3236 0H0V42.4167M42.3236 42.4167H0M42.3236 42.4167V84.8333M0 42.4167V84.8333M677.176 84.8333H634.853M677.176 84.8333V127.25M634.853 84.8333H592.529M634.853 84.8333V127.25M592.529 84.8333H550.206M592.529 84.8333V127.25M550.206 84.8333H507.882M550.206 84.8333V127.25M507.882 84.8333H465.559M507.882 84.8333V127.25M465.559 84.8333H423.235M465.559 84.8333V127.25M423.235 84.8333H380.912M423.235 84.8333V127.25M380.912 84.8333H338.588M380.912 84.8333V127.25M338.588 84.8333H296.265M338.588 84.8333V127.25M296.265 84.8333H253.941M296.265 84.8333V127.25M253.941 84.8333H211.618M253.941 84.8333V127.25M211.618 84.8333H169.294M211.618 84.8333V127.25M169.294 84.8333H126.971M169.294 84.8333V127.25M126.971 84.8333H84.6471M126.971 84.8333V127.25M84.6471 84.8333H42.3236M84.6471 84.8333V127.25M42.3236 84.8333H0M42.3236 84.8333V127.25M0 84.8333V127.25M677.176 127.25H634.853M677.176 127.25V169.667M634.853 127.25H592.529M634.853 127.25V169.667M592.529 127.25H550.206M592.529 127.25V169.667M550.206 127.25H507.882M550.206 127.25V169.667M507.882 127.25H465.559M507.882 127.25V169.667M465.559 127.25H423.235M465.559 127.25V169.667M423.235 127.25H380.912M423.235 127.25V169.667M380.912 127.25H338.588M380.912 127.25V169.667M338.588 127.25H296.265M338.588 127.25V169.667M296.265 127.25H253.941M296.265 127.25V169.667M253.941 127.25H211.618M253.941 127.25V169.667M211.618 127.25H169.294M211.618 127.25V169.667M169.294 127.25H126.971M169.294 127.25V169.667M126.971 127.25H84.6471M126.971 127.25V169.667M84.6471 127.25H42.3236M84.6471 127.25V169.667M42.3236 127.25H0M42.3236 127.25V169.667M0 127.25V169.667M677.176 169.667H634.853M677.176 169.667V212.083M634.853 169.667H592.529M634.853 169.667V212.083M592.529 169.667H550.206M592.529 169.667V212.083M550.206 169.667H507.882M550.206 169.667V212.083M507.882 169.667H465.559M507.882 169.667V212.083M465.559 169.667H423.235M465.559 169.667V212.083M423.235 169.667H380.912M423.235 169.667V212.083M380.912 169.667H338.588M380.912 169.667V212.083M338.588 169.667H296.265M338.588 169.667V212.083M296.265 169.667H253.941M296.265 169.667V212.083M253.941 169.667H211.618M253.941 169.667V212.083M211.618 169.667H169.294M211.618 169.667V212.083M169.294 169.667H126.971M169.294 169.667V212.083M126.971 169.667H84.6471M126.971 169.667V212.083M84.6471 169.667H42.3236M84.6471 169.667V212.083M42.3236 169.667H0M42.3236 169.667V212.083M0 169.667V212.083M677.176 212.083H634.853M677.176 212.083V254.5M634.853 212.083H592.529M634.853 212.083V254.5M592.529 212.083H550.206M592.529 212.083V254.5M550.206 212.083H507.882M550.206 212.083V254.5M507.882 212.083H465.559M507.882 212.083V254.5M465.559 212.083H423.235M465.559 212.083V254.5M423.235 212.083H380.912M423.235 212.083V254.5M380.912 212.083H338.588M380.912 212.083V254.5M338.588 212.083H296.265M338.588 212.083V254.5M296.265 212.083H253.941M296.265 212.083V254.5M253.941 212.083H211.618M253.941 212.083V254.5M211.618 212.083H169.294M211.618 212.083V254.5M169.294 212.083H126.971M169.294 212.083V254.5M126.971 212.083H84.6471M126.971 212.083V254.5M84.6471 212.083H42.3236M84.6471 212.083V254.5M42.3236 212.083H0M42.3236 212.083V254.5M0 212.083V254.5M677.176 254.5H634.853M677.176 254.5V296.917M634.853 254.5H592.529M634.853 254.5V296.917M592.529 254.5H550.206M592.529 254.5V296.917M550.206 254.5H507.882M550.206 254.5V296.917M507.882 254.5H465.559M507.882 254.5V296.917M465.559 254.5H423.235M465.559 254.5V296.917M423.235 254.5H380.912M423.235 254.5V296.917M380.912 254.5H338.588M380.912 254.5V296.917M338.588 254.5H296.265M338.588 254.5V296.917M296.265 254.5H253.941M296.265 254.5V296.917M253.941 254.5H211.618M253.941 254.5V296.917M211.618 254.5H169.294M211.618 254.5V296.917M169.294 254.5H126.971M169.294 254.5V296.917M126.971 254.5H84.6471M126.971 254.5V296.917M84.6471 254.5H42.3236M84.6471 254.5V296.917M42.3236 254.5H0M42.3236 254.5V296.917M0 254.5V296.917M677.176 296.917H634.853M677.176 296.917V339.333M634.853 296.917H592.529M634.853 296.917V339.333M592.529 296.917H550.206M592.529 296.917V339.333M550.206 296.917H507.882M550.206 296.917V339.333M507.882 296.917H465.559M507.882 296.917V339.333M465.559 296.917H423.235M465.559 296.917V339.333M423.235 296.917H380.912M423.235 296.917V339.333M380.912 296.917H338.588M380.912 296.917V339.333M338.588 296.917H296.265M338.588 296.917V339.333M296.265 296.917H253.941M296.265 296.917V339.333M253.941 296.917H211.618M253.941 296.917V339.333M211.618 296.917H169.294M211.618 296.917V339.333M169.294 296.917H126.971M169.294 296.917V339.333M126.971 296.917H84.6471M126.971 296.917V339.333M84.6471 296.917H42.3236M84.6471 296.917V339.333M42.3236 296.917H0M42.3236 296.917V339.333M0 296.917V339.333M677.176 339.333H634.853M677.176 339.333V381.75M634.853 339.333H592.529M634.853 339.333V381.75M592.529 339.333H550.206M592.529 339.333V381.75M550.206 339.333H507.882M550.206 339.333V381.75M507.882 339.333H465.559M507.882 339.333V381.75M465.559 339.333H423.235M465.559 339.333V381.75M423.235 339.333H380.912M423.235 339.333V381.75M380.912 339.333H338.588M380.912 339.333V381.75M338.588 339.333H296.265M338.588 339.333V381.75M296.265 339.333H253.941M296.265 339.333V381.75M253.941 339.333H211.618M253.941 339.333V381.75M211.618 339.333H169.294M211.618 339.333V381.75M169.294 339.333H126.971M169.294 339.333V381.75M126.971 339.333H84.6471M126.971 339.333V381.75M84.6471 339.333H42.3236M84.6471 339.333V381.75M42.3236 339.333H0M42.3236 339.333V381.75M0 339.333V381.75M677.176 381.75H634.853M677.176 381.75V424.167M634.853 381.75H592.529M634.853 381.75V424.167M592.529 381.75H550.206M592.529 381.75V424.167M550.206 381.75H507.882M550.206 381.75V424.167M507.882 381.75H465.559M507.882 381.75V424.167M465.559 381.75H423.235M465.559 381.75V424.167M423.235 381.75H380.912M423.235 381.75V424.167M380.912 381.75H338.588M380.912 381.75V424.167M338.588 381.75H296.265M338.588 381.75V424.167M296.265 381.75H253.941M296.265 381.75V424.167M253.941 381.75H211.618M253.941 381.75V424.167M211.618 381.75H169.294M211.618 381.75V424.167M169.294 381.75H126.971M169.294 381.75V424.167M126.971 381.75H84.6471M126.971 381.75V424.167M84.6471 381.75H42.3236M84.6471 381.75V424.167M42.3236 381.75H0M42.3236 381.75V424.167M0 381.75V424.167M677.176 424.167H634.853M677.176 424.167V466.583M634.853 424.167H592.529M634.853 424.167V466.583M592.529 424.167H550.206M592.529 424.167V466.583M550.206 424.167H507.882M550.206 424.167V466.583M507.882 424.167H465.559M507.882 424.167V466.583M465.559 424.167H423.235M465.559 424.167V466.583M423.235 424.167H380.912M423.235 424.167V466.583M380.912 424.167H338.588M380.912 424.167V466.583M338.588 424.167H296.265M338.588 424.167V466.583M296.265 424.167H253.941M296.265 424.167V466.583M253.941 424.167H211.618M253.941 424.167V466.583M211.618 424.167H169.294M211.618 424.167V466.583M169.294 424.167H126.971M169.294 424.167V466.583M126.971 424.167H84.6471M126.971 424.167V466.583M84.6471 424.167H42.3236M84.6471 424.167V466.583M42.3236 424.167H0M42.3236 424.167V466.583M0 424.167V466.583M677.176 466.583H634.853M677.176 466.583V509M634.853 466.583H592.529M634.853 466.583V509M592.529 466.583H550.206M592.529 466.583V509M550.206 466.583H507.882M550.206 466.583V509M507.882 466.583H465.559M507.882 466.583V509M465.559 466.583H423.235M465.559 466.583V509M423.235 466.583H380.912M423.235 466.583V509M380.912 466.583H338.588M380.912 466.583V509M338.588 466.583H296.265M338.588 466.583V509M296.265 466.583H253.941M296.265 466.583V509M253.941 466.583H211.618M253.941 466.583V509M211.618 466.583H169.294M211.618 466.583V509M169.294 466.583H126.971M169.294 466.583V509M126.971 466.583H84.6471M126.971 466.583V509M84.6471 466.583H42.3236M84.6471 466.583V509M42.3236 466.583H0M42.3236 466.583V509M0 466.583V509H42.3236M677.176 509H634.853M634.853 509H592.529M592.529 509H550.206M550.206 509H507.882M507.882 509H465.559M465.559 509H423.235M423.235 509H380.912M380.912 509H338.588M338.588 509H296.265M296.265 509H253.941M253.941 509H211.618M211.618 509H169.294M169.294 509H126.971M126.971 509H84.6471M84.6471 509H42.3236" stroke="url(#paint8_radial_4177_9476)" stroke-opacity="0.2"/>
<defs>
<filter id="filter0_f_4177_9476" x="716.611" y="-60.9736" width="580.618" height="544.011" filterUnits="userSpaceOnUse" color-interpolation-filters="sRGB">
<feFlood flood-opacity="0" result="BackgroundImageFix"/>
<feBlend mode="normal" in="SourceGraphic" in2="BackgroundImageFix" result="shape"/>
<feGaussianBlur stdDeviation="110" result="effect1_foregroundBlur_4177_9476"/>
</filter>
<radialGradient id="paint0_radial_4177_9476" cx="0" cy="0" r="1" gradientUnits="userSpaceOnUse" gradientTransform="translate(1006.92 198.88) scale(66.7262 36.4093)">
<stop stop-color="white" stop-opacity="0.5"/>
<stop offset="1" stop-color="white" stop-opacity="0"/>
</radialGradient>
<radialGradient id="paint1_radial_4177_9476" cx="0" cy="0" r="1" gradientUnits="userSpaceOnUse" gradientTransform="translate(1290.5 143.476) rotate(-180) scale(20.4043 15.0522)">
<stop stop-color="white" stop-opacity="0.5"/>
<stop offset="1" stop-color="white" stop-opacity="0"/>
</radialGradient>
<radialGradient id="paint2_radial_4177_9476" cx="0" cy="0" r="1" gradientUnits="userSpaceOnUse" gradientTransform="translate(1247.5 16.0929) rotate(-180) scale(20.4043 14.7022)">
<stop stop-color="white" stop-opacity="0.5"/>
<stop offset="1" stop-color="white" stop-opacity="0"/>
</radialGradient>
<radialGradient id="paint3_radial_4177_9476" cx="0" cy="0" r="1" gradientUnits="userSpaceOnUse" gradientTransform="translate(1375.5 186.859) rotate(-180) scale(20.4043 15.4023)">
<stop stop-color="white" stop-opacity="0.5"/>
<stop offset="1" stop-color="white" stop-opacity="0"/>
</radialGradient>
<radialGradient id="paint4_radial_4177_9476" cx="0" cy="0" r="1" gradientUnits="userSpaceOnUse" gradientTransform="translate(1331.5 351.859) rotate(-180) scale(20.4043 15.4023)">
<stop stop-color="white" stop-opacity="0.5"/>
<stop offset="1" stop-color="white" stop-opacity="0"/>
</radialGradient>
<radialGradient id="paint5_radial_4177_9476" cx="0" cy="0" r="1" gradientUnits="userSpaceOnUse" gradientTransform="translate(779 143.859) rotate(-180) scale(19.9298 15.4023)">
<stop stop-color="white" stop-opacity="0.5"/>
<stop offset="1" stop-color="white" stop-opacity="0"/>
</radialGradient>
<radialGradient id="paint6_radial_4177_9476" cx="0" cy="0" r="1" gradientUnits="userSpaceOnUse" gradientTransform="translate(613 98.7939) rotate(-180) scale(17.0827 12.6019)">
<stop stop-color="white" stop-opacity="0.5"/>
<stop offset="1" stop-color="white" stop-opacity="0"/>
</radialGradient>
<radialGradient id="paint7_radial_4177_9476" cx="0" cy="0" r="1" gradientUnits="userSpaceOnUse" gradientTransform="translate(651.5 59.7097) rotate(-180) scale(19.4553 14.3521)">
<stop stop-color="white" stop-opacity="0.5"/>
<stop offset="1" stop-color="white" stop-opacity="0"/>
</radialGradient>
<radialGradient id="paint8_radial_4177_9476" cx="0" cy="0" r="1" gradientTransform="matrix(-490.433 84.502 39.3248 228.397 1013.16 169.998)" gradientUnits="userSpaceOnUse">
<stop stop-color="white" stop-opacity="0.2"/>
<stop offset="1" stop-color="white" stop-opacity="0"/>
</radialGradient>
</defs>
</svg>
