<svg width="68" height="68" viewBox="0 0 68 68" fill="none" xmlns="http://www.w3.org/2000/svg">
<rect width="68" height="68" rx="34" fill="url(#paint0_linear_3559_4343)" fill-opacity="0.1"/>
<rect x="12" y="12" width="44" height="44" rx="22" fill="url(#paint1_linear_3559_4343)" fill-opacity="0.2"/>
<rect x="12.5" y="12.5" width="43" height="43" rx="21.5" stroke="url(#paint2_linear_3559_4343)" stroke-opacity="0.3"/>
<path d="M33.9999 35.4314C35.723 35.4314 37.1199 34.0345 37.1199 32.3114C37.1199 30.5883 35.723 29.1914 33.9999 29.1914C32.2768 29.1914 30.8799 30.5883 30.8799 32.3114C30.8799 34.0345 32.2768 35.4314 33.9999 35.4314Z" stroke="#0096FF" stroke-width="1.5"/>
<path d="M25.62 30.49C27.59 21.83 40.42 21.84 42.38 30.5C43.53 35.58 40.37 39.88 37.6 42.54C35.59 44.48 32.41 44.48 30.39 42.54C27.63 39.88 24.47 35.57 25.62 30.49Z" stroke="#0096FF" stroke-width="1.5"/>
<defs>
<linearGradient id="paint0_linear_3559_4343" x1="34" y1="0" x2="34" y2="68" gradientUnits="userSpaceOnUse">
<stop stop-color="#0096FF"/>
<stop offset="1" stop-color="#0096FF" stop-opacity="0"/>
</linearGradient>
<linearGradient id="paint1_linear_3559_4343" x1="34" y1="-17.1351" x2="34" y2="125.568" gradientUnits="userSpaceOnUse">
<stop stop-color="#0096FF"/>
<stop offset="0.467671" stop-color="#0096FF" stop-opacity="0"/>
</linearGradient>
<linearGradient id="paint2_linear_3559_4343" x1="34" y1="-64.4054" x2="34" y2="95.8378" gradientUnits="userSpaceOnUse">
<stop stop-color="#0096FF"/>
<stop offset="0.716291" stop-color="#0096FF" stop-opacity="0"/>
</linearGradient>
</defs>
</svg>
