<svg width="28" height="28" viewBox="0 0 28 28" fill="none" xmlns="http://www.w3.org/2000/svg">
<path d="M12.2385 2.60035L6.41684 4.78201C5.07518 5.28368 3.97852 6.87033 3.97852 8.30533V16.9737C3.97852 18.3503 4.88853 20.1587 5.99686 20.987L11.0135 24.732C12.6585 25.9687 15.3652 25.9687 17.0102 24.732L22.0269 20.987C23.1352 20.1587 24.0452 18.3503 24.0452 16.9737V8.30533C24.0452 6.87033 22.9485 5.28368 21.6068 4.78201L15.7852 2.60035C14.7935 2.23868 13.2068 2.23868 12.2385 2.60035Z" stroke="#0096FF" stroke-width="1.75" stroke-linecap="round" stroke-linejoin="round"/>
<path d="M13.9998 12.7405C13.9531 12.7405 13.8948 12.7405 13.8481 12.7405C12.7515 12.7055 11.8765 11.7955 11.8765 10.6871C11.8765 9.55547 12.7981 8.63379 13.9298 8.63379C15.0615 8.63379 15.9832 9.55547 15.9832 10.6871C15.9715 11.8071 15.0965 12.7055 13.9998 12.7405Z" stroke="#0096FF" stroke-width="1.75" stroke-linecap="round" stroke-linejoin="round"/>
<path d="M11.6784 16.0079C10.5584 16.7546 10.5584 17.9795 11.6784 18.7262C12.95 19.5779 15.0384 19.5779 16.31 18.7262C17.43 17.9795 17.43 16.7546 16.31 16.0079C15.05 15.1562 12.9617 15.1562 11.6784 16.0079Z" stroke="#0096FF" stroke-width="1.75" stroke-linecap="round" stroke-linejoin="round"/>
</svg>
