<svg width="1440" height="513" viewBox="0 0 1440 513" fill="none" xmlns="http://www.w3.org/2000/svg">
<g filter="url(#filter0_f_3298_3944)">
<ellipse cx="1006.92" cy="88.032" rx="70.3092" ry="52.0056" fill="white" fill-opacity="0.3"/>
<path d="M1006.92 36.5264C1026.24 36.5264 1043.71 42.3191 1056.34 51.6602C1068.97 61.0015 1076.73 73.867 1076.73 88.0322C1076.73 102.197 1068.97 115.062 1056.34 124.403C1043.71 133.744 1026.24 139.537 1006.92 139.537C987.601 139.537 970.13 133.745 957.501 124.403C944.872 115.062 937.111 102.197 937.111 88.0322C937.111 73.867 944.872 61.0015 957.501 51.6602C970.13 42.319 987.601 36.5264 1006.92 36.5264Z" stroke="url(#paint0_radial_3298_3944)" stroke-opacity="0.2"/>
</g>
<path d="M1268 128H1311V171H1268V128Z" fill="white" fill-opacity="0.04" stroke="url(#paint1_radial_3298_3944)" stroke-opacity="0.2"/>
<path d="M1226 0H1269V42H1226V0Z" fill="white" fill-opacity="0.01" stroke="url(#paint2_radial_3298_3944)" stroke-opacity="0.2"/>
<path d="M1353 170H1396V214H1353V170Z" fill="white" fill-opacity="0.01" stroke="url(#paint3_radial_3298_3944)" stroke-opacity="0.2"/>
<path d="M1310 335H1353V379H1310V335Z" fill="white" fill-opacity="0.01" stroke="url(#paint4_radial_3298_3944)" stroke-opacity="0.2"/>
<path d="M758 127H800V171H758V127Z" fill="white" fill-opacity="0.02" stroke="url(#paint5_radial_3298_3944)" stroke-opacity="0.2"/>
<path d="M595 85H631V121H595V85Z" fill="white" fill-opacity="0.01" stroke="url(#paint6_radial_3298_3944)" stroke-opacity="0.2"/>
<path d="M631 44H672V85H631V44Z" fill="white" fill-opacity="0.01" stroke="url(#paint7_radial_3298_3944)" stroke-opacity="0.2"/>
<path d="M1396.41 0H1439V42.6667M1396.41 0V42.6667M1396.41 0H1353.82M1396.41 42.6667H1439M1396.41 42.6667H1353.82M1396.41 42.6667V85.3333M1439 42.6667V85.3333M1353.82 0V42.6667M1353.82 0H1311.24M1353.82 42.6667H1311.24M1353.82 42.6667V85.3333M1311.24 0V42.6667M1311.24 0H1268.65M1311.24 42.6667H1268.65M1311.24 42.6667V85.3333M1268.65 0V42.6667M1268.65 0H1226.06M1268.65 42.6667H1226.06M1268.65 42.6667V85.3333M1226.06 0V42.6667M1226.06 0H1183.47M1226.06 42.6667H1183.47M1226.06 42.6667V85.3333M1183.47 0V42.6667M1183.47 0H1140.88M1183.47 42.6667H1140.88M1183.47 42.6667V85.3333M1140.88 0V42.6667M1140.88 0H1098.29M1140.88 42.6667H1098.29M1140.88 42.6667V85.3333M1098.29 0V42.6667M1098.29 0H1055.71M1098.29 42.6667H1055.71M1098.29 42.6667V85.3333M1055.71 0V42.6667M1055.71 0H1013.12M1055.71 42.6667H1013.12M1055.71 42.6667V85.3333M1013.12 0V42.6667M1013.12 0H970.529M1013.12 42.6667H970.529M1013.12 42.6667V85.3333M970.529 0V42.6667M970.529 0H927.941M970.529 42.6667H927.941M970.529 42.6667V85.3333M927.941 0V42.6667M927.941 0H885.353M927.941 42.6667H885.353M927.941 42.6667V85.3333M885.353 0V42.6667M885.353 0H842.765M885.353 42.6667H842.765M885.353 42.6667V85.3333M842.765 0V42.6667M842.765 0H800.176M842.765 42.6667H800.176M842.765 42.6667V85.3333M800.176 0V42.6667M800.176 0H757.588M800.176 42.6667H757.588M800.176 42.6667V85.3333M757.588 0V42.6667M757.588 0H715M757.588 42.6667H715M757.588 42.6667V85.3333M715 0V42.6667M715 0H672.412M715 42.6667V85.3333M715 42.6667H672.412M1396.41 85.3333H1439M1396.41 85.3333H1353.82M1396.41 85.3333V128M1439 85.3333V128M1353.82 85.3333H1311.24M1353.82 85.3333V128M1311.24 85.3333H1268.65M1311.24 85.3333V128M1268.65 85.3333H1226.06M1268.65 85.3333V128M1226.06 85.3333H1183.47M1226.06 85.3333V128M1183.47 85.3333H1140.88M1183.47 85.3333V128M1140.88 85.3333H1098.29M1140.88 85.3333V128M1098.29 85.3333H1055.71M1098.29 85.3333V128M1055.71 85.3333H1013.12M1055.71 85.3333V128M1013.12 85.3333H970.529M1013.12 85.3333V128M970.529 85.3333H927.941M970.529 85.3333V128M927.941 85.3333H885.353M927.941 85.3333V128M885.353 85.3333H842.765M885.353 85.3333V128M842.765 85.3333H800.176M842.765 85.3333V128M800.176 85.3333H757.588M800.176 85.3333V128M757.588 85.3333H715M757.588 85.3333V128M715 85.3333V128M715 85.3333H672.412M1396.41 128H1439M1396.41 128H1353.82M1396.41 128V170.667M1439 128V170.667M1353.82 128H1311.24M1353.82 128V170.667M1311.24 128H1268.65M1311.24 128V170.667M1268.65 128H1226.06M1268.65 128V170.667M1226.06 128H1183.47M1226.06 128V170.667M1183.47 128H1140.88M1183.47 128V170.667M1140.88 128H1098.29M1140.88 128V170.667M1098.29 128H1055.71M1098.29 128V170.667M1055.71 128H1013.12M1055.71 128V170.667M1013.12 128H970.529M1013.12 128V170.667M970.529 128H927.941M970.529 128V170.667M927.941 128H885.353M927.941 128V170.667M885.353 128H842.765M885.353 128V170.667M842.765 128H800.176M842.765 128V170.667M800.176 128H757.588M800.176 128V170.667M757.588 128H715M757.588 128V170.667M715 128V170.667M715 128H672.412M1396.41 170.667H1439M1396.41 170.667H1353.82M1396.41 170.667V213.333M1439 170.667V213.333M1353.82 170.667H1311.24M1353.82 170.667V213.333M1311.24 170.667H1268.65M1311.24 170.667V213.333M1268.65 170.667H1226.06M1268.65 170.667V213.333M1226.06 170.667H1183.47M1226.06 170.667V213.333M1183.47 170.667H1140.88M1183.47 170.667V213.333M1140.88 170.667H1098.29M1140.88 170.667V213.333M1098.29 170.667H1055.71M1098.29 170.667V213.333M1055.71 170.667H1013.12M1055.71 170.667V213.333M1013.12 170.667H970.529M1013.12 170.667V213.333M970.529 170.667H927.941M970.529 170.667V213.333M927.941 170.667H885.353M927.941 170.667V213.333M885.353 170.667H842.765M885.353 170.667V213.333M842.765 170.667H800.176M842.765 170.667V213.333M800.176 170.667H757.588M800.176 170.667V213.333M757.588 170.667H715M757.588 170.667V213.333M715 170.667V213.333M715 170.667H672.412M1396.41 213.333H1439M1396.41 213.333H1353.82M1396.41 213.333V256M1439 213.333V256M1353.82 213.333H1311.24M1353.82 213.333V256M1311.24 213.333H1268.65M1311.24 213.333V256M1268.65 213.333H1226.06M1268.65 213.333V256M1226.06 213.333H1183.47M1226.06 213.333V256M1183.47 213.333H1140.88M1183.47 213.333V256M1140.88 213.333H1098.29M1140.88 213.333V256M1098.29 213.333H1055.71M1098.29 213.333V256M1055.71 213.333H1013.12M1055.71 213.333V256M1013.12 213.333H970.529M1013.12 213.333V256M970.529 213.333H927.941M970.529 213.333V256M927.941 213.333H885.353M927.941 213.333V256M885.353 213.333H842.765M885.353 213.333V256M842.765 213.333H800.176M842.765 213.333V256M800.176 213.333H757.588M800.176 213.333V256M757.588 213.333H715M757.588 213.333V256M715 213.333V256M715 213.333H672.412M1396.41 256H1439M1396.41 256H1353.82M1396.41 256V298.667M1439 256V298.667M1353.82 256H1311.24M1353.82 256V298.667M1311.24 256H1268.65M1311.24 256V298.667M1268.65 256H1226.06M1268.65 256V298.667M1226.06 256H1183.47M1226.06 256V298.667M1183.47 256H1140.88M1183.47 256V298.667M1140.88 256H1098.29M1140.88 256V298.667M1098.29 256H1055.71M1098.29 256V298.667M1055.71 256H1013.12M1055.71 256V298.667M1013.12 256H970.529M1013.12 256V298.667M970.529 256H927.941M970.529 256V298.667M927.941 256H885.353M927.941 256V298.667M885.353 256H842.765M885.353 256V298.667M842.765 256H800.176M842.765 256V298.667M800.176 256H757.588M800.176 256V298.667M757.588 256H715M757.588 256V298.667M715 256V298.667M715 256H672.412M1396.41 298.667H1439M1396.41 298.667H1353.82M1396.41 298.667V341.333M1439 298.667V341.333M1353.82 298.667H1311.24M1353.82 298.667V341.333M1311.24 298.667H1268.65M1311.24 298.667V341.333M1268.65 298.667H1226.06M1268.65 298.667V341.333M1226.06 298.667H1183.47M1226.06 298.667V341.333M1183.47 298.667H1140.88M1183.47 298.667V341.333M1140.88 298.667H1098.29M1140.88 298.667V341.333M1098.29 298.667H1055.71M1098.29 298.667V341.333M1055.71 298.667H1013.12M1055.71 298.667V341.333M1013.12 298.667H970.529M1013.12 298.667V341.333M970.529 298.667H927.941M970.529 298.667V341.333M927.941 298.667H885.353M927.941 298.667V341.333M885.353 298.667H842.765M885.353 298.667V341.333M842.765 298.667H800.176M842.765 298.667V341.333M800.176 298.667H757.588M800.176 298.667V341.333M757.588 298.667H715M757.588 298.667V341.333M715 298.667V341.333M715 298.667H672.412M1396.41 341.333H1439M1396.41 341.333H1353.82M1396.41 341.333V384M1439 341.333V384M1353.82 341.333H1311.24M1353.82 341.333V384M1311.24 341.333H1268.65M1311.24 341.333V384M1268.65 341.333H1226.06M1268.65 341.333V384M1226.06 341.333H1183.47M1226.06 341.333V384M1183.47 341.333H1140.88M1183.47 341.333V384M1140.88 341.333H1098.29M1140.88 341.333V384M1098.29 341.333H1055.71M1098.29 341.333V384M1055.71 341.333H1013.12M1055.71 341.333V384M1013.12 341.333H970.529M1013.12 341.333V384M970.529 341.333H927.941M970.529 341.333V384M927.941 341.333H885.353M927.941 341.333V384M885.353 341.333H842.765M885.353 341.333V384M842.765 341.333H800.176M842.765 341.333V384M800.176 341.333H757.588M800.176 341.333V384M757.588 341.333H715M757.588 341.333V384M715 341.333V384M715 341.333H672.412M1396.41 384H1439M1396.41 384H1353.82M1396.41 384V426.667M1439 384V426.667M1353.82 384H1311.24M1353.82 384V426.667M1311.24 384H1268.65M1311.24 384V426.667M1268.65 384H1226.06M1268.65 384V426.667M1226.06 384H1183.47M1226.06 384V426.667M1183.47 384H1140.88M1183.47 384V426.667M1140.88 384H1098.29M1140.88 384V426.667M1098.29 384H1055.71M1098.29 384V426.667M1055.71 384H1013.12M1055.71 384V426.667M1013.12 384H970.529M1013.12 384V426.667M970.529 384H927.941M970.529 384V426.667M927.941 384H885.353M927.941 384V426.667M885.353 384H842.765M885.353 384V426.667M842.765 384H800.176M842.765 384V426.667M800.176 384H757.588M800.176 384V426.667M757.588 384H715M757.588 384V426.667M715 384V426.667M715 384H672.412M1396.41 426.667H1439M1396.41 426.667H1353.82M1396.41 426.667V469.333M1439 426.667V469.333M1353.82 426.667H1311.24M1353.82 426.667V469.333M1311.24 426.667H1268.65M1311.24 426.667V469.333M1268.65 426.667H1226.06M1268.65 426.667V469.333M1226.06 426.667H1183.47M1226.06 426.667V469.333M1183.47 426.667H1140.88M1183.47 426.667V469.333M1140.88 426.667H1098.29M1140.88 426.667V469.333M1098.29 426.667H1055.71M1098.29 426.667V469.333M1055.71 426.667H1013.12M1055.71 426.667V469.333M1013.12 426.667H970.529M1013.12 426.667V469.333M970.529 426.667H927.941M970.529 426.667V469.333M927.941 426.667H885.353M927.941 426.667V469.333M885.353 426.667H842.765M885.353 426.667V469.333M842.765 426.667H800.176M842.765 426.667V469.333M800.176 426.667H757.588M800.176 426.667V469.333M757.588 426.667H715M757.588 426.667V469.333M715 426.667V469.333M715 426.667H672.412M1396.41 469.333H1439M1396.41 469.333H1353.82M1396.41 469.333V512M1439 469.333V512H1396.41M1353.82 469.333H1311.24M1353.82 469.333V512M1311.24 469.333H1268.65M1311.24 469.333V512M1268.65 469.333H1226.06M1268.65 469.333V512M1226.06 469.333H1183.47M1226.06 469.333V512M1183.47 469.333H1140.88M1183.47 469.333V512M1140.88 469.333H1098.29M1140.88 469.333V512M1098.29 469.333H1055.71M1098.29 469.333V512M1055.71 469.333H1013.12M1055.71 469.333V512M1013.12 469.333H970.529M1013.12 469.333V512M970.529 469.333H927.941M970.529 469.333V512M927.941 469.333H885.353M927.941 469.333V512M885.353 469.333H842.765M885.353 469.333V512M842.765 469.333H800.176M842.765 469.333V512M800.176 469.333H757.588M800.176 469.333V512M757.588 469.333H715M757.588 469.333V512M715 469.333V512M715 469.333H672.412M1396.41 512H1353.82M1353.82 512H1311.24M1311.24 512H1268.65M1268.65 512H1226.06M1226.06 512H1183.47M1183.47 512H1140.88M1140.88 512H1098.29M1098.29 512H1055.71M1055.71 512H1013.12M1013.12 512H970.529M970.529 512H927.941M927.941 512H885.353M885.353 512H842.765M842.765 512H800.176M800.176 512H757.588M757.588 512H715M715 512H672.412M672.412 0V42.6667M672.412 0H629.824M672.412 42.6667H629.824M672.412 42.6667V85.3333M629.824 0V42.6667M629.824 0H587.235M629.824 42.6667H587.235M629.824 42.6667V85.3333M587.235 0V42.6667M587.235 0H544.647M587.235 42.6667H544.647M587.235 42.6667V85.3333M544.647 0V42.6667M544.647 0H502.059M544.647 42.6667H502.059M544.647 42.6667V85.3333M502.059 0V42.6667M502.059 0H459.471M502.059 42.6667H459.471M502.059 42.6667V85.3333M459.471 0V42.6667M459.471 0H416.882M459.471 42.6667H416.882M459.471 42.6667V85.3333M416.882 0V42.6667M416.882 0H374.294M416.882 42.6667H374.294M416.882 42.6667V85.3333M374.294 0V42.6667M374.294 0H331.706M374.294 42.6667H331.706M374.294 42.6667V85.3333M331.706 0V42.6667M331.706 0H289.118M331.706 42.6667H289.118M331.706 42.6667V85.3333M289.118 0V42.6667M289.118 0H246.529M289.118 42.6667H246.529M289.118 42.6667V85.3333M246.529 0V42.6667M246.529 0H203.941M246.529 42.6667H203.941M246.529 42.6667V85.3333M203.941 0V42.6667M203.941 0H161.353M203.941 42.6667H161.353M203.941 42.6667V85.3333M161.353 0V42.6667M161.353 0H118.765M161.353 42.6667H118.765M161.353 42.6667V85.3333M118.765 0V42.6667M118.765 0H76.1765M118.765 42.6667H76.1765M118.765 42.6667V85.3333M76.1765 0V42.6667M76.1765 0H33.5883M76.1765 42.6667H33.5883M76.1765 42.6667V85.3333M33.5883 0V42.6667M33.5883 0H-9V42.6667M33.5883 42.6667H-9M33.5883 42.6667V85.3333M-9 42.6667V85.3333M672.412 85.3333H629.824M672.412 85.3333V128M629.824 85.3333H587.235M629.824 85.3333V128M587.235 85.3333H544.647M587.235 85.3333V128M544.647 85.3333H502.059M544.647 85.3333V128M502.059 85.3333H459.471M502.059 85.3333V128M459.471 85.3333H416.882M459.471 85.3333V128M416.882 85.3333H374.294M416.882 85.3333V128M374.294 85.3333H331.706M374.294 85.3333V128M331.706 85.3333H289.118M331.706 85.3333V128M289.118 85.3333H246.529M289.118 85.3333V128M246.529 85.3333H203.941M246.529 85.3333V128M203.941 85.3333H161.353M203.941 85.3333V128M161.353 85.3333H118.765M161.353 85.3333V128M118.765 85.3333H76.1765M118.765 85.3333V128M76.1765 85.3333H33.5883M76.1765 85.3333V128M33.5883 85.3333H-9M33.5883 85.3333V128M-9 85.3333V128M672.412 128H629.824M672.412 128V170.667M629.824 128H587.235M629.824 128V170.667M587.235 128H544.647M587.235 128V170.667M544.647 128H502.059M544.647 128V170.667M502.059 128H459.471M502.059 128V170.667M459.471 128H416.882M459.471 128V170.667M416.882 128H374.294M416.882 128V170.667M374.294 128H331.706M374.294 128V170.667M331.706 128H289.118M331.706 128V170.667M289.118 128H246.529M289.118 128V170.667M246.529 128H203.941M246.529 128V170.667M203.941 128H161.353M203.941 128V170.667M161.353 128H118.765M161.353 128V170.667M118.765 128H76.1765M118.765 128V170.667M76.1765 128H33.5883M76.1765 128V170.667M33.5883 128H-9M33.5883 128V170.667M-9 128V170.667M672.412 170.667H629.824M672.412 170.667V213.333M629.824 170.667H587.235M629.824 170.667V213.333M587.235 170.667H544.647M587.235 170.667V213.333M544.647 170.667H502.059M544.647 170.667V213.333M502.059 170.667H459.471M502.059 170.667V213.333M459.471 170.667H416.882M459.471 170.667V213.333M416.882 170.667H374.294M416.882 170.667V213.333M374.294 170.667H331.706M374.294 170.667V213.333M331.706 170.667H289.118M331.706 170.667V213.333M289.118 170.667H246.529M289.118 170.667V213.333M246.529 170.667H203.941M246.529 170.667V213.333M203.941 170.667H161.353M203.941 170.667V213.333M161.353 170.667H118.765M161.353 170.667V213.333M118.765 170.667H76.1765M118.765 170.667V213.333M76.1765 170.667H33.5883M76.1765 170.667V213.333M33.5883 170.667H-9M33.5883 170.667V213.333M-9 170.667V213.333M672.412 213.333H629.824M672.412 213.333V256M629.824 213.333H587.235M629.824 213.333V256M587.235 213.333H544.647M587.235 213.333V256M544.647 213.333H502.059M544.647 213.333V256M502.059 213.333H459.471M502.059 213.333V256M459.471 213.333H416.882M459.471 213.333V256M416.882 213.333H374.294M416.882 213.333V256M374.294 213.333H331.706M374.294 213.333V256M331.706 213.333H289.118M331.706 213.333V256M289.118 213.333H246.529M289.118 213.333V256M246.529 213.333H203.941M246.529 213.333V256M203.941 213.333H161.353M203.941 213.333V256M161.353 213.333H118.765M161.353 213.333V256M118.765 213.333H76.1765M118.765 213.333V256M76.1765 213.333H33.5883M76.1765 213.333V256M33.5883 213.333H-9M33.5883 213.333V256M-9 213.333V256M672.412 256H629.824M672.412 256V298.667M629.824 256H587.235M629.824 256V298.667M587.235 256H544.647M587.235 256V298.667M544.647 256H502.059M544.647 256V298.667M502.059 256H459.471M502.059 256V298.667M459.471 256H416.882M459.471 256V298.667M416.882 256H374.294M416.882 256V298.667M374.294 256H331.706M374.294 256V298.667M331.706 256H289.118M331.706 256V298.667M289.118 256H246.529M289.118 256V298.667M246.529 256H203.941M246.529 256V298.667M203.941 256H161.353M203.941 256V298.667M161.353 256H118.765M161.353 256V298.667M118.765 256H76.1765M118.765 256V298.667M76.1765 256H33.5883M76.1765 256V298.667M33.5883 256H-9M33.5883 256V298.667M-9 256V298.667M672.412 298.667H629.824M672.412 298.667V341.333M629.824 298.667H587.235M629.824 298.667V341.333M587.235 298.667H544.647M587.235 298.667V341.333M544.647 298.667H502.059M544.647 298.667V341.333M502.059 298.667H459.471M502.059 298.667V341.333M459.471 298.667H416.882M459.471 298.667V341.333M416.882 298.667H374.294M416.882 298.667V341.333M374.294 298.667H331.706M374.294 298.667V341.333M331.706 298.667H289.118M331.706 298.667V341.333M289.118 298.667H246.529M289.118 298.667V341.333M246.529 298.667H203.941M246.529 298.667V341.333M203.941 298.667H161.353M203.941 298.667V341.333M161.353 298.667H118.765M161.353 298.667V341.333M118.765 298.667H76.1765M118.765 298.667V341.333M76.1765 298.667H33.5883M76.1765 298.667V341.333M33.5883 298.667H-9M33.5883 298.667V341.333M-9 298.667V341.333M672.412 341.333H629.824M672.412 341.333V384M629.824 341.333H587.235M629.824 341.333V384M587.235 341.333H544.647M587.235 341.333V384M544.647 341.333H502.059M544.647 341.333V384M502.059 341.333H459.471M502.059 341.333V384M459.471 341.333H416.882M459.471 341.333V384M416.882 341.333H374.294M416.882 341.333V384M374.294 341.333H331.706M374.294 341.333V384M331.706 341.333H289.118M331.706 341.333V384M289.118 341.333H246.529M289.118 341.333V384M246.529 341.333H203.941M246.529 341.333V384M203.941 341.333H161.353M203.941 341.333V384M161.353 341.333H118.765M161.353 341.333V384M118.765 341.333H76.1765M118.765 341.333V384M76.1765 341.333H33.5883M76.1765 341.333V384M33.5883 341.333H-9M33.5883 341.333V384M-9 341.333V384M672.412 384H629.824M672.412 384V426.667M629.824 384H587.235M629.824 384V426.667M587.235 384H544.647M587.235 384V426.667M544.647 384H502.059M544.647 384V426.667M502.059 384H459.471M502.059 384V426.667M459.471 384H416.882M459.471 384V426.667M416.882 384H374.294M416.882 384V426.667M374.294 384H331.706M374.294 384V426.667M331.706 384H289.118M331.706 384V426.667M289.118 384H246.529M289.118 384V426.667M246.529 384H203.941M246.529 384V426.667M203.941 384H161.353M203.941 384V426.667M161.353 384H118.765M161.353 384V426.667M118.765 384H76.1765M118.765 384V426.667M76.1765 384H33.5883M76.1765 384V426.667M33.5883 384H-9M33.5883 384V426.667M-9 384V426.667M672.412 426.667H629.824M672.412 426.667V469.333M629.824 426.667H587.235M629.824 426.667V469.333M587.235 426.667H544.647M587.235 426.667V469.333M544.647 426.667H502.059M544.647 426.667V469.333M502.059 426.667H459.471M502.059 426.667V469.333M459.471 426.667H416.882M459.471 426.667V469.333M416.882 426.667H374.294M416.882 426.667V469.333M374.294 426.667H331.706M374.294 426.667V469.333M331.706 426.667H289.118M331.706 426.667V469.333M289.118 426.667H246.529M289.118 426.667V469.333M246.529 426.667H203.941M246.529 426.667V469.333M203.941 426.667H161.353M203.941 426.667V469.333M161.353 426.667H118.765M161.353 426.667V469.333M118.765 426.667H76.1765M118.765 426.667V469.333M76.1765 426.667H33.5883M76.1765 426.667V469.333M33.5883 426.667H-9M33.5883 426.667V469.333M-9 426.667V469.333M672.412 469.333H629.824M672.412 469.333V512M629.824 469.333H587.235M629.824 469.333V512M587.235 469.333H544.647M587.235 469.333V512M544.647 469.333H502.059M544.647 469.333V512M502.059 469.333H459.471M502.059 469.333V512M459.471 469.333H416.882M459.471 469.333V512M416.882 469.333H374.294M416.882 469.333V512M374.294 469.333H331.706M374.294 469.333V512M331.706 469.333H289.118M331.706 469.333V512M289.118 469.333H246.529M289.118 469.333V512M246.529 469.333H203.941M246.529 469.333V512M203.941 469.333H161.353M203.941 469.333V512M161.353 469.333H118.765M161.353 469.333V512M118.765 469.333H76.1765M118.765 469.333V512M76.1765 469.333H33.5883M76.1765 469.333V512M33.5883 469.333H-9M33.5883 469.333V512M-9 469.333V512H33.5883M672.412 512H629.824M629.824 512H587.235M587.235 512H544.647M544.647 512H502.059M502.059 512H459.471M459.471 512H416.882M416.882 512H374.294M374.294 512H331.706M331.706 512H289.118M289.118 512H246.529M246.529 512H203.941M203.941 512H161.353M161.353 512H118.765M118.765 512H76.1765M76.1765 512H33.5883" stroke="url(#paint8_radial_3298_3944)" stroke-opacity="0.2"/>
<defs>
<filter id="filter0_f_3298_3944" x="716.611" y="-183.974" width="580.618" height="544.011" filterUnits="userSpaceOnUse" color-interpolation-filters="sRGB">
<feFlood flood-opacity="0" result="BackgroundImageFix"/>
<feBlend mode="normal" in="SourceGraphic" in2="BackgroundImageFix" result="shape"/>
<feGaussianBlur stdDeviation="110" result="effect1_foregroundBlur_3298_3944"/>
</filter>
<radialGradient id="paint0_radial_3298_3944" cx="0" cy="0" r="1" gradientUnits="userSpaceOnUse" gradientTransform="translate(1006.92 75.8796) scale(66.7262 36.4093)">
<stop stop-color="white" stop-opacity="0.5"/>
<stop offset="1" stop-color="white" stop-opacity="0"/>
</radialGradient>
<radialGradient id="paint1_radial_3298_3944" cx="0" cy="0" r="1" gradientUnits="userSpaceOnUse" gradientTransform="translate(1289.5 144.476) rotate(-180) scale(20.4043 15.0522)">
<stop stop-color="white" stop-opacity="0.5"/>
<stop offset="1" stop-color="white" stop-opacity="0"/>
</radialGradient>
<radialGradient id="paint2_radial_3298_3944" cx="0" cy="0" r="1" gradientUnits="userSpaceOnUse" gradientTransform="translate(1247.5 16.0929) rotate(-180) scale(20.4043 14.7022)">
<stop stop-color="white" stop-opacity="0.5"/>
<stop offset="1" stop-color="white" stop-opacity="0"/>
</radialGradient>
<radialGradient id="paint3_radial_3298_3944" cx="0" cy="0" r="1" gradientUnits="userSpaceOnUse" gradientTransform="translate(1374.5 186.859) rotate(-180) scale(20.4043 15.4023)">
<stop stop-color="white" stop-opacity="0.5"/>
<stop offset="1" stop-color="white" stop-opacity="0"/>
</radialGradient>
<radialGradient id="paint4_radial_3298_3944" cx="0" cy="0" r="1" gradientUnits="userSpaceOnUse" gradientTransform="translate(1331.5 351.859) rotate(-180) scale(20.4043 15.4023)">
<stop stop-color="white" stop-opacity="0.5"/>
<stop offset="1" stop-color="white" stop-opacity="0"/>
</radialGradient>
<radialGradient id="paint5_radial_3298_3944" cx="0" cy="0" r="1" gradientUnits="userSpaceOnUse" gradientTransform="translate(779 143.859) rotate(-180) scale(19.9298 15.4023)">
<stop stop-color="white" stop-opacity="0.5"/>
<stop offset="1" stop-color="white" stop-opacity="0"/>
</radialGradient>
<radialGradient id="paint6_radial_3298_3944" cx="0" cy="0" r="1" gradientUnits="userSpaceOnUse" gradientTransform="translate(613 98.7939) rotate(-180) scale(17.0827 12.6019)">
<stop stop-color="white" stop-opacity="0.5"/>
<stop offset="1" stop-color="white" stop-opacity="0"/>
</radialGradient>
<radialGradient id="paint7_radial_3298_3944" cx="0" cy="0" r="1" gradientUnits="userSpaceOnUse" gradientTransform="translate(651.5 59.7097) rotate(-180) scale(19.4553 14.3521)">
<stop stop-color="white" stop-opacity="0.5"/>
<stop offset="1" stop-color="white" stop-opacity="0"/>
</radialGradient>
<radialGradient id="paint8_radial_3298_3944" cx="0" cy="0" r="1" gradientUnits="userSpaceOnUse" gradientTransform="translate(1010.5 171) rotate(170.227) scale(500.767 233.126)">
<stop stop-color="white" stop-opacity="0.2"/>
<stop offset="1" stop-color="white" stop-opacity="0"/>
</radialGradient>
</defs>
</svg>
