<svg width="836" height="235" viewBox="0 0 836 235" fill="none" xmlns="http://www.w3.org/2000/svg">
<path d="M275.667 132.834C277.14 132.834 278.334 131.64 278.334 130.167C278.334 128.694 277.14 127.5 275.667 127.5C274.365 127.5 273.283 128.433 273.049 129.667H245.624C241.501 129.667 237.693 127.459 235.645 123.881L169.558 8.45605C167.331 4.56658 163.192 2.16702 158.71 2.16699H127.667V3.16699H158.71C162.833 3.16702 166.641 5.37481 168.689 8.95312L234.776 124.378C237.003 128.267 241.142 130.667 245.624 130.667H273.049C273.283 131.901 274.365 132.834 275.667 132.834Z" fill="url(#paint0_linear_159122_17519)"/>
<path d="M559.667 130.667V129.667H589.71C593.833 129.667 597.641 127.459 599.689 123.881L665.776 8.45605C668.003 4.56658 672.142 2.16702 676.624 2.16699H705.049C705.283 0.93338 706.365 0 707.667 0C709.14 0 710.334 1.19423 710.334 2.66699C710.334 4.13976 709.14 5.33398 707.667 5.33398C706.365 5.33398 705.283 4.4006 705.049 3.16699H676.624C672.501 3.16702 668.693 5.37481 666.645 8.95312L600.558 124.378C598.331 128.267 594.192 130.667 589.71 130.667H559.667Z" fill="url(#paint1_linear_159122_17519)"/>
<path d="M415 58.667C415 57.1942 416.194 56 417.667 56C419.14 56 420.334 57.1942 420.334 58.667C420.334 59.9687 419.401 61.051 418.167 61.2852V98.667H417.167V61.2852C415.933 61.051 415 59.9687 415 58.667Z" fill="url(#paint2_linear_159122_17519)"/>
<path d="M0 188.667C6.43764e-08 187.194 1.19423 186 2.66699 186C4.13975 186 5.33398 187.194 5.33398 188.667C5.33398 189.969 4.4006 191.051 3.16699 191.285L3.16699 234.667H2.16699L2.16699 191.285C0.933384 191.051 1.76511e-06 189.969 0 188.667Z" fill="url(#paint3_linear_159122_17519)"/>
<path d="M275.667 146C277.14 146 278.334 147.194 278.334 148.667C278.334 150.14 277.14 151.334 275.667 151.334C274.365 151.334 273.283 150.401 273.049 149.167L127.667 149.167V148.167L273.049 148.167C273.283 146.933 274.365 146 275.667 146Z" fill="url(#paint4_linear_159122_17519)"/>
<path d="M835.334 81.667C835.334 83.1398 834.14 84.334 832.667 84.334C831.194 84.334 830 83.1398 830 81.667C830 80.3652 830.933 79.283 832.167 79.0488V42.667H833.167V79.0488C834.401 79.283 835.334 80.3652 835.334 81.667Z" fill="url(#paint5_linear_159122_17519)"/>
<path d="M420.334 218.667C420.334 220.14 419.14 221.334 417.667 221.334C416.194 221.334 415 220.14 415 218.667C415 217.365 415.933 216.283 417.167 216.049V178.667H418.167V216.049C419.401 216.283 420.334 217.365 420.334 218.667Z" fill="url(#paint6_linear_159122_17519)"/>
<defs>
<linearGradient id="paint0_linear_159122_17519" x1="111.529" y1="72.1666" x2="288.167" y2="72.1667" gradientUnits="userSpaceOnUse">
<stop stop-color="white" stop-opacity="0"/>
<stop offset="1" stop-color="white"/>
</linearGradient>
<linearGradient id="paint1_linear_159122_17519" x1="723.805" y1="72.1666" x2="547.167" y2="72.1667" gradientUnits="userSpaceOnUse">
<stop stop-color="white"/>
<stop offset="1" stop-color="white" stop-opacity="0"/>
</linearGradient>
<linearGradient id="paint2_linear_159122_17519" x1="420.689" y1="97.4905" x2="420.689" y2="55.1376" gradientUnits="userSpaceOnUse">
<stop stop-color="white" stop-opacity="0"/>
<stop offset="1" stop-color="white"/>
</linearGradient>
<linearGradient id="paint3_linear_159122_17519" x1="5.68921" y1="233.314" x2="5.68898" y2="184.608" gradientUnits="userSpaceOnUse">
<stop stop-color="white" stop-opacity="0"/>
<stop offset="1" stop-color="white"/>
</linearGradient>
<linearGradient id="paint4_linear_159122_17519" x1="132.02" y1="151.689" x2="288.726" y2="151.687" gradientUnits="userSpaceOnUse">
<stop stop-color="white" stop-opacity="0"/>
<stop offset="1" stop-color="white"/>
</linearGradient>
<linearGradient id="paint5_linear_159122_17519" x1="829.645" y1="43.8141" x2="829.645" y2="85.1082" gradientUnits="userSpaceOnUse">
<stop stop-color="white" stop-opacity="0"/>
<stop offset="1" stop-color="white"/>
</linearGradient>
<linearGradient id="paint6_linear_159122_17519" x1="414.645" y1="179.843" x2="414.645" y2="222.196" gradientUnits="userSpaceOnUse">
<stop stop-color="white" stop-opacity="0"/>
<stop offset="1" stop-color="white"/>
</linearGradient>
</defs>
</svg>
