<svg width="40" height="40" viewBox="0 0 40 40" fill="none" xmlns="http://www.w3.org/2000/svg">
<path d="M14.9999 36.6663H24.9999C33.3333 36.6663 36.6666 33.333 36.6666 24.9997V14.9997C36.6666 6.66634 33.3333 3.33301 24.9999 3.33301H14.9999C6.66659 3.33301 3.33325 6.66634 3.33325 14.9997V24.9997C3.33325 33.333 6.66659 36.6663 14.9999 36.6663Z" stroke="white" stroke-width="2.5" stroke-linecap="round" stroke-linejoin="round"/>
<path d="M30 12.9163V24.1663C30 22.333 28.5 20.833 26.6667 20.833H13.3333C11.5 20.833 10 22.333 10 24.1663V12.9163C10 11.083 11.5 9.58301 13.3333 9.58301H26.6667C28.5 9.58301 30 11.083 30 12.9163Z" stroke="white" stroke-width="2.5" stroke-linecap="round" stroke-linejoin="round"/>
<path d="M31.6667 26.25H30" stroke="white" stroke-width="2.5" stroke-linecap="round" stroke-linejoin="round"/>
<path d="M9.99992 26.25H8.33325" stroke="white" stroke-width="2.5" stroke-linecap="round" stroke-linejoin="round"/>
<path d="M30 23.3333V18.3333C30 16.5 28.5 15 26.6667 15H13.3333C11.5 15 10 16.5 10 18.3333V23.3333" stroke="white" stroke-width="2.5" stroke-linecap="round" stroke-linejoin="round"/>
<path d="M30 24.1663V26.2497H24.1667C24.1667 28.5497 22.3 30.4163 20 30.4163C17.7 30.4163 15.8333 28.5497 15.8333 26.2497H10V24.1663C10 22.333 11.5 20.833 13.3333 20.833H26.6667C28.5 20.833 30 22.333 30 24.1663Z" stroke="white" stroke-width="2.5" stroke-linecap="round" stroke-linejoin="round"/>
</svg>
