<svg width="40" height="40" viewBox="0 0 40 40" fill="none" xmlns="http://www.w3.org/2000/svg">
<path d="M30 31.4329H28.7333C27.4 31.4329 26.1333 31.9496 25.2 32.8829L22.35 35.6996C21.05 36.9829 18.9334 36.9829 17.6334 35.6996L14.7833 32.8829C13.85 31.9496 12.5667 31.4329 11.25 31.4329H10C7.23333 31.4329 5 29.2163 5 26.483V8.29956C5 5.56623 7.23333 3.34961 10 3.34961H30C32.7667 3.34961 35 5.56623 35 8.29956V26.483C35 29.1996 32.7667 31.4329 30 31.4329Z" stroke="white" stroke-width="2.5" stroke-miterlimit="10" stroke-linecap="round" stroke-linejoin="round"/>
<path d="M20.0001 16.667C22.1448 16.667 23.8834 14.9284 23.8834 12.7837C23.8834 10.6389 22.1448 8.90039 20.0001 8.90039C17.8554 8.90039 16.1167 10.6389 16.1167 12.7837C16.1167 14.9284 17.8554 16.667 20.0001 16.667Z" stroke="white" stroke-width="2.5" stroke-linecap="round" stroke-linejoin="round"/>
<path d="M26.6667 26.0993C26.6667 23.0993 23.6834 20.666 20 20.666C16.3167 20.666 13.3334 23.0993 13.3334 26.0993" stroke="white" stroke-width="2.5" stroke-linecap="round" stroke-linejoin="round"/>
</svg>
