<svg width="28" height="28" viewBox="0 0 28 28" fill="none" xmlns="http://www.w3.org/2000/svg">
<path d="M9.1001 11.9004V16.8004" stroke="#0096FF" stroke-width="1.75" stroke-linecap="round" stroke-linejoin="round"/>
<path d="M9.27501 11.55C10.5315 11.55 11.55 10.5315 11.55 9.27501C11.55 8.01857 10.5315 7 9.27501 7C8.01857 7 7 8.01857 7 9.27501C7 10.5315 8.01857 11.55 9.27501 11.55Z" stroke="#0096FF" stroke-width="1.75" stroke-linecap="round" stroke-linejoin="round"/>
<path d="M9.09999 21.0008C10.2598 21.0008 11.2 20.0606 11.2 18.9008C11.2 17.741 10.2598 16.8008 9.09999 16.8008C7.94019 16.8008 7 17.741 7 18.9008C7 20.0606 7.94019 21.0008 9.09999 21.0008Z" stroke="#0096FF" stroke-width="1.75" stroke-linecap="round" stroke-linejoin="round"/>
<path d="M18.9005 21.0008C20.0603 21.0008 21.0005 20.0606 21.0005 18.9008C21.0005 17.741 20.0603 16.8008 18.9005 16.8008C17.7407 16.8008 16.8005 17.741 16.8005 18.9008C16.8005 20.0606 17.7407 21.0008 18.9005 21.0008Z" stroke="#0096FF" stroke-width="1.75" stroke-linecap="round" stroke-linejoin="round"/>
<path d="M9.19336 11.9004C9.50836 13.1254 10.6283 14.0354 11.9467 14.0237L14.35 14.0121C16.1817 14.0004 17.745 15.1787 18.3167 16.8237" stroke="#0096FF" stroke-width="1.75" stroke-linecap="round" stroke-linejoin="round"/>
<path d="M10.4999 25.6663H17.4999C23.3333 25.6663 25.6666 23.333 25.6666 17.4997V10.4997C25.6666 4.66634 23.3333 2.33301 17.4999 2.33301H10.4999C4.66659 2.33301 2.33325 4.66634 2.33325 10.4997V17.4997C2.33325 23.333 4.66659 25.6663 10.4999 25.6663Z" stroke="#0096FF" stroke-width="1.75" stroke-linecap="round" stroke-linejoin="round"/>
</svg>
