<svg width="28" height="28" viewBox="0 0 28 28" fill="none" xmlns="http://www.w3.org/2000/svg">
<path d="M5.21456 14.1989C4.99289 14.1989 4.77122 14.1173 4.59622 13.9423L3.18456 12.5306L1.77288 13.9423C1.43455 14.2806 0.874554 14.2806 0.536221 13.9423C0.197887 13.6039 0.197887 13.0439 0.536221 12.7056L2.56622 10.6756C2.90455 10.3373 3.46456 10.3373 3.80289 10.6756L5.83289 12.7056C6.17122 13.0439 6.17122 13.6039 5.83289 13.9423C5.66956 14.1173 5.43622 14.1989 5.21456 14.1989Z" fill="white"/>
<path d="M24.8032 17.5808C24.5815 17.5808 24.3599 17.4991 24.1849 17.3241L22.1549 15.2941C21.8165 14.9558 21.8165 14.3958 22.1549 14.0575C22.4932 13.7191 23.0532 13.7191 23.3915 14.0575L24.8032 15.4692L26.2149 14.0575C26.5532 13.7191 27.1132 13.7191 27.4515 14.0575C27.7899 14.3958 27.7899 14.9558 27.4515 15.2941L25.4215 17.3241C25.2582 17.4874 25.0249 17.5808 24.8032 17.5808Z" fill="white"/>
<path d="M24.8033 17.5814C24.325 17.5814 23.9283 17.1847 23.9283 16.7064V13.9997C23.9283 8.52801 19.4716 4.07133 14 4.07133C10.9783 4.07133 8.15498 5.42467 6.25331 7.793C5.94998 8.16633 5.40164 8.22466 5.02831 7.93299C4.65498 7.62966 4.58498 7.08134 4.88832 6.70801C7.11665 3.91967 10.4416 2.33301 14 2.33301C20.44 2.33301 25.6783 7.57135 25.6783 14.0114V16.718C25.6783 17.1847 25.2933 17.5814 24.8033 17.5814Z" fill="white"/>
<path d="M14.0004 25.678C7.56036 25.678 2.32202 20.4396 2.32202 13.9996V11.293C2.32202 10.8146 2.71869 10.418 3.19702 10.418C3.67535 10.418 4.07202 10.8146 4.07202 11.293V13.9996C4.07202 19.4713 8.52869 23.928 14.0004 23.928C17.022 23.928 19.8454 22.5747 21.747 20.2063C22.0504 19.833 22.5987 19.763 22.972 20.0663C23.3454 20.3697 23.4154 20.918 23.112 21.2913C20.8837 24.0796 17.5587 25.678 14.0004 25.678Z" fill="white"/>
<path d="M15.61 14.8753H10.5C10.0217 14.8753 9.625 14.4787 9.625 14.0003V9.91699C9.625 9.43866 10.0217 9.04199 10.5 9.04199H15.61C17.1617 9.04199 18.5267 10.407 18.5267 11.9587C18.5267 13.5687 17.2083 14.8753 15.61 14.8753ZM11.375 13.1253H15.5983C16.24 13.1253 16.765 12.6003 16.765 11.9587C16.765 11.4337 16.24 10.792 15.5983 10.792H11.375V13.1253Z" fill="white"/>
<path d="M16.3333 18.9583H10.5C10.0217 18.9583 9.625 18.5617 9.625 18.0833V14C9.625 13.5217 10.0217 13.125 10.5 13.125H16.3333C18.1067 13.125 19.5417 14.4317 19.5417 16.0417C19.5417 17.6517 18.1067 18.9583 16.3333 18.9583ZM11.375 17.2083H16.3333C17.1383 17.2083 17.7917 16.6833 17.7917 16.0417C17.7917 15.4 17.1383 14.875 16.3333 14.875H11.375V17.2083Z" fill="white"/>
<path d="M13.7664 20.9997C13.288 20.9997 12.8914 20.603 12.8914 20.1247V18.083C12.8914 17.6047 13.288 17.208 13.7664 17.208C14.2447 17.208 14.6414 17.6047 14.6414 18.083V20.1247C14.6414 20.603 14.2447 20.9997 13.7664 20.9997Z" fill="white"/>
<path d="M13.7664 10.7917C13.288 10.7917 12.8914 10.395 12.8914 9.91667V7.875C12.8914 7.39667 13.288 7 13.7664 7C14.2447 7 14.6414 7.39667 14.6414 7.875V9.91667C14.6414 10.395 14.2447 10.7917 13.7664 10.7917Z" fill="white"/>
</svg>
