<svg width="480" height="202" viewBox="0 0 480 202" fill="none" xmlns="http://www.w3.org/2000/svg">
<path d="M28.2353 0H0V28.7143M28.2353 0V28.7143M28.2353 0H56.4706M28.2353 28.7143H0M28.2353 28.7143H56.4706M28.2353 28.7143V57.4286M0 28.7143V57.4286M56.4706 0V28.7143M56.4706 0H84.7059M56.4706 28.7143H84.7059M56.4706 28.7143V57.4286M84.7059 0V28.7143M84.7059 0H112.941M84.7059 28.7143H112.941M84.7059 28.7143V57.4286M112.941 0V28.7143M112.941 0H141.176M112.941 28.7143H141.176M112.941 28.7143V57.4286M141.176 0V28.7143M141.176 0H169.412M141.176 28.7143H169.412M141.176 28.7143V57.4286M169.412 0V28.7143M169.412 0H197.647M169.412 28.7143H197.647M169.412 28.7143V57.4286M197.647 0V28.7143M197.647 0H225.882M197.647 28.7143H225.882M197.647 28.7143V57.4286M225.882 0V28.7143M225.882 0H254.118M225.882 28.7143H254.118M225.882 28.7143V57.4286M254.118 0V28.7143M254.118 0H282.353M254.118 28.7143H282.353M254.118 28.7143V57.4286M282.353 0V28.7143M282.353 0H310.588M282.353 28.7143H310.588M282.353 28.7143V57.4286M310.588 0V28.7143M310.588 0H338.824M310.588 28.7143H338.824M310.588 28.7143V57.4286M338.824 0V28.7143M338.824 0H367.059M338.824 28.7143H367.059M338.824 28.7143V57.4286M367.059 0V28.7143M367.059 0H395.294M367.059 28.7143H395.294M367.059 28.7143V57.4286M395.294 0V28.7143M395.294 0H423.529M395.294 28.7143H423.529M395.294 28.7143V57.4286M423.529 0V28.7143M423.529 0H451.765M423.529 28.7143H451.765M423.529 28.7143V57.4286M451.765 0V28.7143M451.765 0H480V28.7143M451.765 28.7143H480M451.765 28.7143V57.4286M480 28.7143V57.4286M28.2353 57.4286H0M28.2353 57.4286H56.4706M28.2353 57.4286V86.1429M0 57.4286V86.1429M56.4706 57.4286H84.7059M56.4706 57.4286V86.1429M84.7059 57.4286H112.941M84.7059 57.4286V86.1429M112.941 57.4286H141.176M112.941 57.4286V86.1429M141.176 57.4286H169.412M141.176 57.4286V86.1429M169.412 57.4286H197.647M169.412 57.4286V86.1429M197.647 57.4286H225.882M197.647 57.4286V86.1429M225.882 57.4286H254.118M225.882 57.4286V86.1429M254.118 57.4286H282.353M254.118 57.4286V86.1429M282.353 57.4286H310.588M282.353 57.4286V86.1429M310.588 57.4286H338.824M310.588 57.4286V86.1429M338.824 57.4286H367.059M338.824 57.4286V86.1429M367.059 57.4286H395.294M367.059 57.4286V86.1429M395.294 57.4286H423.529M395.294 57.4286V86.1429M423.529 57.4286H451.765M423.529 57.4286V86.1429M451.765 57.4286H480M451.765 57.4286V86.1429M480 57.4286V86.1429M28.2353 86.1429H0M28.2353 86.1429H56.4706M28.2353 86.1429V114.857M0 86.1429V114.857M56.4706 86.1429H84.7059M56.4706 86.1429V114.857M84.7059 86.1429H112.941M84.7059 86.1429V114.857M112.941 86.1429H141.176M112.941 86.1429V114.857M141.176 86.1429H169.412M141.176 86.1429V114.857M169.412 86.1429H197.647M169.412 86.1429V114.857M197.647 86.1429H225.882M197.647 86.1429V114.857M225.882 86.1429H254.118M225.882 86.1429V114.857M254.118 86.1429H282.353M254.118 86.1429V114.857M282.353 86.1429H310.588M282.353 86.1429V114.857M310.588 86.1429H338.824M310.588 86.1429V114.857M338.824 86.1429H367.059M338.824 86.1429V114.857M367.059 86.1429H395.294M367.059 86.1429V114.857M395.294 86.1429H423.529M395.294 86.1429V114.857M423.529 86.1429H451.765M423.529 86.1429V114.857M451.765 86.1429H480M451.765 86.1429V114.857M480 86.1429V114.857M28.2353 114.857H0M28.2353 114.857H56.4706M28.2353 114.857V143.571M0 114.857V143.571M56.4706 114.857H84.7059M56.4706 114.857V143.571M84.7059 114.857H112.941M84.7059 114.857V143.571M112.941 114.857H141.176M112.941 114.857V143.571M141.176 114.857H169.412M141.176 114.857V143.571M169.412 114.857H197.647M169.412 114.857V143.571M197.647 114.857H225.882M197.647 114.857V143.571M225.882 114.857H254.118M225.882 114.857V143.571M254.118 114.857H282.353M254.118 114.857V143.571M282.353 114.857H310.588M282.353 114.857V143.571M310.588 114.857H338.824M310.588 114.857V143.571M338.824 114.857H367.059M338.824 114.857V143.571M367.059 114.857H395.294M367.059 114.857V143.571M395.294 114.857H423.529M395.294 114.857V143.571M423.529 114.857H451.765M423.529 114.857V143.571M451.765 114.857H480M451.765 114.857V143.571M480 114.857V143.571M28.2353 143.571H0M28.2353 143.571H56.4706M28.2353 143.571V172.286M0 143.571V172.286M56.4706 143.571H84.7059M56.4706 143.571V172.286M84.7059 143.571H112.941M84.7059 143.571V172.286M112.941 143.571H141.176M112.941 143.571V172.286M141.176 143.571H169.412M141.176 143.571V172.286M169.412 143.571H197.647M169.412 143.571V172.286M197.647 143.571H225.882M197.647 143.571V172.286M225.882 143.571H254.118M225.882 143.571V172.286M254.118 143.571H282.353M254.118 143.571V172.286M282.353 143.571H310.588M282.353 143.571V172.286M310.588 143.571H338.824M310.588 143.571V172.286M338.824 143.571H367.059M338.824 143.571V172.286M367.059 143.571H395.294M367.059 143.571V172.286M395.294 143.571H423.529M395.294 143.571V172.286M423.529 143.571H451.765M423.529 143.571V172.286M451.765 143.571H480M451.765 143.571V172.286M480 143.571V172.286M28.2353 172.286H0M28.2353 172.286H56.4706M28.2353 172.286V201M0 172.286V201H28.2353M56.4706 172.286H84.7059M56.4706 172.286V201M84.7059 172.286H112.941M84.7059 172.286V201M112.941 172.286H141.176M112.941 172.286V201M141.176 172.286H169.412M141.176 172.286V201M169.412 172.286H197.647M169.412 172.286V201M197.647 172.286H225.882M197.647 172.286V201M225.882 172.286H254.118M225.882 172.286V201M254.118 172.286H282.353M254.118 172.286V201M282.353 172.286H310.588M282.353 172.286V201M310.588 172.286H338.824M310.588 172.286V201M338.824 172.286H367.059M338.824 172.286V201M367.059 172.286H395.294M367.059 172.286V201M395.294 172.286H423.529M395.294 172.286V201M423.529 172.286H451.765M423.529 172.286V201M451.765 172.286H480M451.765 172.286V201M480 172.286V201H451.765M28.2353 201H56.4706M56.4706 201H84.7059M84.7059 201H112.941M112.941 201H141.176M141.176 201H169.412M169.412 201H197.647M197.647 201H225.882M225.882 201H254.118M254.118 201H282.353M282.353 201H310.588M310.588 201H338.824M338.824 201H367.059M367.059 201H395.294M395.294 201H423.529M423.529 201H451.765" stroke="url(#paint0_radial_3431_4206)"/>
<defs>
<radialGradient id="paint0_radial_3431_4206" cx="0" cy="0" r="1" gradientUnits="userSpaceOnUse" gradientTransform="translate(367 60.5) rotate(90) scale(103 174.421)">
<stop stop-color="white" stop-opacity="0.02"/>
<stop offset="1" stop-color="white" stop-opacity="0"/>
</radialGradient>
</defs>
</svg>
