<svg width="28" height="28" viewBox="0 0 28 28" fill="none" xmlns="http://www.w3.org/2000/svg">
<path d="M2.3335 9.91699H15.1668" stroke="#0096FF" stroke-width="1.75" stroke-miterlimit="10" stroke-linecap="round" stroke-linejoin="round"/>
<path d="M7 19.25H9.33333" stroke="#0096FF" stroke-width="1.75" stroke-miterlimit="10" stroke-linecap="round" stroke-linejoin="round"/>
<path d="M12.25 19.25H16.9167" stroke="#0096FF" stroke-width="1.75" stroke-miterlimit="10" stroke-linecap="round" stroke-linejoin="round"/>
<path d="M25.6668 13.218V18.7947C25.6668 22.8897 24.6285 23.9163 20.4868 23.9163H7.5135C3.37183 23.9163 2.3335 22.8897 2.3335 18.7947V9.20469C2.3335 5.10969 3.37183 4.08301 7.5135 4.08301H15.4935" stroke="#0096FF" stroke-width="1.75" stroke-linecap="round" stroke-linejoin="round"/>
<path d="M19.833 3.79102H23.4847C24.2897 3.79102 24.943 4.52602 24.943 5.24935C24.943 6.05435 24.2897 6.70768 23.4847 6.70768H19.833V3.79102Z" stroke="#0096FF" stroke-width="1.75" stroke-miterlimit="10" stroke-linecap="round" stroke-linejoin="round"/>
<path d="M19.833 6.70801H23.998C24.9197 6.70801 25.6663 7.36134 25.6663 8.16634C25.6663 8.97134 24.9197 9.62467 23.998 9.62467H19.833V6.70801Z" stroke="#0096FF" stroke-width="1.75" stroke-miterlimit="10" stroke-linecap="round" stroke-linejoin="round"/>
<path d="M21.8867 9.625V11.0833" stroke="#0096FF" stroke-width="1.75" stroke-miterlimit="10" stroke-linecap="round" stroke-linejoin="round"/>
<path d="M21.8867 2.33301V3.79134" stroke="#0096FF" stroke-width="1.75" stroke-miterlimit="10" stroke-linecap="round" stroke-linejoin="round"/>
<path d="M21.2215 3.79102H18.6665" stroke="#0096FF" stroke-width="1.75" stroke-miterlimit="10" stroke-linecap="round" stroke-linejoin="round"/>
<path d="M21.2215 9.625H18.6665" stroke="#0096FF" stroke-width="1.75" stroke-miterlimit="10" stroke-linecap="round" stroke-linejoin="round"/>
</svg>
