<svg width="28" height="28" viewBox="0 0 28 28" fill="none" xmlns="http://www.w3.org/2000/svg">
<path d="M16.6385 18.0117H10.8052" stroke="white" stroke-width="1.75" stroke-miterlimit="10" stroke-linecap="round" stroke-linejoin="round"/>
<path d="M13.7222 15.1641V20.9974" stroke="white" stroke-width="1.75" stroke-miterlimit="10" stroke-linecap="round" stroke-linejoin="round"/>
<path d="M14.77 2.9375L14.735 3.01917L11.3516 10.8708H8.02662C7.23329 10.8708 6.47495 11.0342 5.78662 11.3258L7.82829 6.44917L7.87495 6.3325L7.95662 6.14583C7.97995 6.07583 8.00329 6.00583 8.03829 5.9475C9.56662 2.4125 11.2933 1.6075 14.77 2.9375Z" stroke="white" stroke-width="1.75" stroke-linecap="round" stroke-linejoin="round"/>
<path d="M21.0582 11.1051C20.5332 10.9418 19.9732 10.8718 19.4132 10.8718H11.3516L14.7349 3.02014L14.7699 2.93848C14.9449 2.99681 15.1082 3.07848 15.2832 3.14848L17.8616 4.23348C19.2966 4.82848 20.2999 5.44681 20.9066 6.19348C21.0232 6.33348 21.1166 6.46181 21.1982 6.61348C21.3032 6.77681 21.3849 6.94014 21.4316 7.11514C21.4782 7.22014 21.5132 7.32514 21.5366 7.41848C21.8516 8.39848 21.6649 9.60014 21.0582 11.1051Z" stroke="white" stroke-width="1.75" stroke-linecap="round" stroke-linejoin="round"/>
<path d="M25.1088 16.5644V18.8394C25.1088 19.0728 25.0972 19.3061 25.0855 19.5394C24.8638 23.6111 22.5888 25.6644 18.2722 25.6644H9.17217C8.89217 25.6644 8.61217 25.6411 8.34383 25.6061C4.63383 25.3611 2.6505 23.3778 2.4055 19.6678C2.3705 19.3994 2.34717 19.1194 2.34717 18.8394V16.5644C2.34717 14.2194 3.7705 12.2011 5.8005 11.3261C6.5005 11.0344 7.24717 10.8711 8.0405 10.8711H19.4272C19.9988 10.8711 20.5588 10.9528 21.0722 11.1044C23.3938 11.8161 25.1088 13.9861 25.1088 16.5644Z" stroke="white" stroke-width="1.75" stroke-linecap="round" stroke-linejoin="round"/>
<path d="M7.8285 6.44922L5.78683 11.3259C3.75683 12.2009 2.3335 14.2192 2.3335 16.5642V13.1459C2.3335 9.83255 4.69016 7.06755 7.8285 6.44922Z" stroke="white" stroke-width="1.75" stroke-linecap="round" stroke-linejoin="round"/>
<path d="M25.105 13.1459V16.5643C25.105 13.9976 23.4017 11.8159 21.0684 11.1159C21.675 9.59926 21.85 8.40926 21.5584 7.41759C21.535 7.31259 21.5 7.20759 21.4534 7.11426C23.6234 8.23426 25.105 10.5326 25.105 13.1459Z" stroke="white" stroke-width="1.75" stroke-linecap="round" stroke-linejoin="round"/>
</svg>
