<svg width="492" height="168" viewBox="0 0 492 168" fill="none" xmlns="http://www.w3.org/2000/svg">
<path d="M486.333 0C489.279 0 491.666 2.38749 491.666 5.33301C491.666 8.27853 489.279 10.666 486.333 10.666C483.73 10.666 481.563 8.8004 481.095 6.33301H436.747L401.04 42.04C400.65 42.4306 400.017 42.4306 399.626 42.04C399.236 41.6495 399.236 41.0165 399.626 40.626L435.919 4.33301H481.095C481.563 1.86561 483.73 0 486.333 0Z" fill="url(#paint0_linear_3515_4205)"/>
<path d="M5.33308 0C2.38757 0 7.62939e-05 2.38749 7.62939e-05 5.33301C7.62939e-05 8.27853 2.38757 10.666 5.33308 10.666C7.93671 10.666 10.1032 8.8004 10.5714 6.33301H54.919L90.6261 42.04C91.0166 42.4306 91.6496 42.4306 92.0401 42.04C92.4306 41.6495 92.4306 41.0165 92.0401 40.626L55.7471 4.33301H10.5714C10.1032 1.86561 7.93671 0 5.33308 0Z" fill="url(#paint1_linear_3515_4205)"/>
<path d="M486.333 167.666C489.279 167.666 491.666 165.279 491.666 162.333C491.666 159.387 489.279 157 486.333 157C483.73 157 481.563 158.866 481.095 161.333H436.747L401.04 125.626C400.65 125.235 400.017 125.235 399.626 125.626C399.236 126.017 399.236 126.65 399.626 127.04L435.919 163.333H481.095C481.563 165.8 483.73 167.666 486.333 167.666Z" fill="url(#paint2_linear_3515_4205)"/>
<path d="M5.33308 167.666C2.38757 167.666 7.62939e-05 165.279 7.62939e-05 162.333C7.62939e-05 159.387 2.38757 157 5.33308 157C7.93671 157 10.1032 158.866 10.5714 161.333H54.919L90.6261 125.626C91.0166 125.235 91.6496 125.235 92.0401 125.626C92.4306 126.017 92.4306 126.65 92.0401 127.04L55.7471 163.333H10.5714C10.1032 165.8 7.93671 167.666 5.33308 167.666Z" fill="url(#paint3_linear_3515_4205)"/>
<defs>
<linearGradient id="paint0_linear_3515_4205" x1="486.333" y1="31.833" x2="393.333" y2="31.833" gradientUnits="userSpaceOnUse">
<stop stop-color="#0096FF"/>
<stop offset="1" stop-color="white" stop-opacity="0"/>
</linearGradient>
<linearGradient id="paint1_linear_3515_4205" x1="5.33309" y1="31.833" x2="98.3331" y2="31.833" gradientUnits="userSpaceOnUse">
<stop stop-color="#0096FF"/>
<stop offset="1" stop-color="white" stop-opacity="0"/>
</linearGradient>
<linearGradient id="paint2_linear_3515_4205" x1="486.333" y1="135.833" x2="393.333" y2="135.833" gradientUnits="userSpaceOnUse">
<stop stop-color="#0096FF"/>
<stop offset="1" stop-color="white" stop-opacity="0"/>
</linearGradient>
<linearGradient id="paint3_linear_3515_4205" x1="5.33309" y1="135.833" x2="98.3331" y2="135.833" gradientUnits="userSpaceOnUse">
<stop stop-color="#0096FF"/>
<stop offset="1" stop-color="white" stop-opacity="0"/>
</linearGradient>
</defs>
</svg>
