<svg width="24" height="24" viewBox="0 0 24 24" fill="none" xmlns="http://www.w3.org/2000/svg">
<g clip-path="url(#clip0_1075_43426)">
<path d="M14.1535 5.50149C14.1799 5.53229 14.1843 5.54109 14.1887 5.54109C14.6242 5.60267 14.8265 5.9282 15.0597 6.25373C15.328 6.62325 15.6492 6.96198 15.9923 7.26992C16.8941 8.08374 17.4484 9.06913 17.6331 10.2701C17.9543 12.3728 16.7489 14.5328 14.7693 15.373C11.7648 16.6487 8.40831 14.7087 8.06078 11.4622C7.87602 9.73339 8.50948 8.30369 9.8292 7.17754C10.2559 6.81241 10.6122 6.3901 10.907 5.91061C10.9598 5.82263 11.0565 5.75224 11.1489 5.70825C11.2985 5.63787 11.4656 5.59827 11.6548 5.53229C11.5932 5.4575 11.5492 5.40472 11.5008 5.35193C11.2061 5.04839 10.9114 4.73606 10.6122 4.44132C10.5067 4.33574 10.4583 4.22577 10.4627 4.0762C10.4715 3.45153 10.4671 2.83127 10.4671 2.2066C10.4671 1.95585 10.775 1.55554 11.0257 1.50715C11.3117 1.44996 11.6064 1.41917 11.8924 1.36198C11.9759 1.34439 12.0683 1.2916 12.1167 1.22561C12.5346 0.662531 13.2693 0.658132 13.6828 1.21681C13.74 1.2916 13.8499 1.34878 13.9423 1.37078C14.2063 1.42797 14.4746 1.45876 14.7429 1.50715C15.0113 1.55994 15.2972 1.90746 15.2972 2.18021C15.2972 2.80927 15.2928 3.44274 15.3016 4.0718C15.306 4.23457 15.2532 4.34454 15.1433 4.45892C14.8089 4.79765 14.4878 5.14517 14.1535 5.50149ZM12.3059 7.95177C12.2927 8.00456 12.2795 8.03535 12.2839 8.06175C12.3411 8.35648 12.2047 8.48406 11.9319 8.59403C11.4129 8.80959 11.1797 9.24509 11.1929 9.80377C11.2061 10.3581 11.5052 10.7012 12.0067 10.8815C12.2267 10.9607 12.4554 11.0179 12.6754 11.0927C12.8777 11.1587 13.0801 11.2247 13.2737 11.3039C13.4364 11.3698 13.5288 11.4974 13.5112 11.6822C13.4936 11.8713 13.3748 11.9813 13.2077 12.0121C13.0361 12.0473 12.8514 12.0781 12.6886 12.0385C12.3719 11.9637 12.0683 11.8361 11.734 11.7218C11.5844 11.9197 11.4129 12.1441 11.2061 12.4212C11.5184 12.5576 11.7868 12.6984 12.0727 12.7951C12.2355 12.8479 12.3015 12.9183 12.2795 13.0855C12.2663 13.2042 12.2751 13.3274 12.2751 13.4638C12.5258 13.4638 12.737 13.4638 12.9481 13.4638C13.2517 13.4638 13.2649 13.4638 13.2473 13.1515C13.2385 12.9579 13.2825 12.8523 13.4936 12.8259C13.6036 12.8127 13.7136 12.7511 13.8147 12.694C14.281 12.4388 14.4746 12.0297 14.4658 11.5106C14.457 11.0179 14.2107 10.6792 13.7708 10.4812C13.5728 10.3932 13.3616 10.3273 13.1505 10.2569C12.8865 10.1689 12.6226 10.0897 12.3587 9.99293C12.1959 9.93135 12.1299 9.79937 12.1431 9.62341C12.1563 9.45625 12.2575 9.34187 12.4114 9.31548C12.5962 9.28469 12.7942 9.26709 12.9745 9.29788C13.1945 9.33747 13.4012 9.43865 13.6344 9.51783C13.7796 9.29348 13.9291 9.05593 14.1051 8.77879C13.9027 8.68641 13.7312 8.57204 13.5464 8.54124C13.2869 8.49725 13.2077 8.37848 13.2385 8.13213C13.2473 8.07494 13.1681 7.96057 13.1197 7.95617C12.8558 7.94297 12.5786 7.95177 12.3059 7.95177Z" fill="white"/>
<path d="M12.5438 23.19C11.6068 23.19 10.6654 23.1636 9.72837 23.1988C9.0993 23.2208 8.56262 23.0316 8.05672 22.6973C7.33968 22.2178 6.68422 21.6723 6.11234 21.0213C5.26772 20.0579 4.41431 19.0945 3.56969 18.1311C2.87903 17.3392 3.19137 16.1691 4.17676 15.848C4.29113 15.8084 4.4231 15.7952 4.54188 15.7952C5.32491 15.7908 6.11234 15.7864 6.89537 15.7996C7.00535 15.7996 7.13732 15.8568 7.2165 15.9315C7.75319 16.4506 8.28108 16.9829 8.80456 17.5152C8.91014 17.6208 9.00692 17.6428 9.15649 17.6208C9.47322 17.5724 9.79875 17.5284 10.1199 17.5284C11.6024 17.5196 13.0804 17.524 14.5629 17.524C15.0688 17.524 15.4427 17.7835 15.5747 18.2147C15.7771 18.8657 15.302 19.4772 14.5761 19.4816C13.5951 19.486 12.6097 19.4816 11.6288 19.4816C11.4528 19.4816 11.2768 19.4772 11.1009 19.4816C10.7841 19.4904 10.5774 19.6927 10.573 19.9787C10.573 20.269 10.7797 20.489 11.0921 20.489C12.6537 20.4934 14.2154 20.4934 15.7771 20.489C16.0938 20.489 16.3226 20.313 16.5425 20.1018C17.5631 19.1209 18.5837 18.1399 19.6086 17.1633C20.0266 16.763 20.5808 16.7454 20.9768 17.1017C21.4035 17.4888 21.4123 18.1135 20.9812 18.549C20.5281 19.0109 20.0661 19.4464 19.6086 19.8907C18.5969 20.8717 17.5851 21.8483 16.5777 22.8293C16.3314 23.0668 16.0586 23.19 15.7111 23.19C14.6553 23.1856 13.5995 23.19 12.5438 23.19Z" fill="white"/>
<path d="M7.30939 4.59937C7.7361 5.02607 8.16281 5.45278 8.58072 5.87069C8.32117 6.13024 8.04843 6.40298 7.77569 6.67132C7.37098 6.25341 6.94427 5.81351 6.53516 5.3912C6.7771 5.14485 7.04985 4.86331 7.30939 4.59937Z" fill="white"/>
<path d="M18.4169 4.59937C18.6764 4.85891 18.9447 5.13605 19.1955 5.3868C18.7776 5.80471 18.3421 6.24021 17.9198 6.65812C17.6646 6.40298 17.3963 6.12584 17.1279 5.8575C17.5458 5.44838 17.9769 5.02607 18.4169 4.59937Z" fill="white"/>
<path d="M19.4279 11.5335C19.4279 11.1595 19.4235 10.8164 19.4323 10.4733C19.4323 10.4293 19.5158 10.3501 19.5598 10.3501C20.0965 10.3413 20.6288 10.3413 21.1655 10.3501C21.2095 10.3501 21.2931 10.4161 21.2931 10.4513C21.3019 10.8076 21.2975 11.1639 21.2975 11.5335C20.6684 11.5335 20.0613 11.5335 19.4279 11.5335Z" fill="white"/>
<path d="M6.28369 11.5466C5.67662 11.5466 5.10914 11.551 4.53726 11.5422C4.49327 11.5422 4.42288 11.4587 4.41849 11.4103C4.40969 11.1023 4.40529 10.7944 4.41849 10.4865C4.41849 10.4381 4.50647 10.3501 4.55486 10.3501C5.08274 10.3413 5.61063 10.3413 6.13852 10.3501C6.18691 10.3501 6.27489 10.4205 6.27489 10.4645C6.28808 10.8076 6.28369 11.1595 6.28369 11.5466Z" fill="white"/>
</g>
<defs>
<clipPath id="clip0_1075_43426">
<rect width="18.1021" height="22.4" fill="white" transform="translate(3.2002 0.798828)"/>
</clipPath>
</defs>
</svg>
