<svg width="384" height="316" viewBox="0 0 384 316" fill="none" xmlns="http://www.w3.org/2000/svg">
<path d="M44.4706 0H0V45.1429M44.4706 0V45.1429M44.4706 0H88.9412M44.4706 45.1429H0M44.4706 45.1429H88.9412M44.4706 45.1429V90.2857M0 45.1429V90.2857M88.9412 0V45.1429M88.9412 0H133.412M88.9412 45.1429H133.412M88.9412 45.1429V90.2857M133.412 0V45.1429M133.412 0H177.882M133.412 45.1429H177.882M133.412 45.1429V90.2857M177.882 0V45.1429M177.882 0H222.353M177.882 45.1429H222.353M177.882 45.1429V90.2857M222.353 0V45.1429M222.353 0H266.824M222.353 45.1429H266.824M222.353 45.1429V90.2857M266.824 0V45.1429M266.824 0H311.294M266.824 45.1429H311.294M266.824 45.1429V90.2857M311.294 0V45.1429M311.294 0H355.765M311.294 45.1429H355.765M311.294 45.1429V90.2857M355.765 0V45.1429M355.765 0H400.235M355.765 45.1429H400.235M355.765 45.1429V90.2857M400.235 0V45.1429M400.235 0H444.706M400.235 45.1429H444.706M400.235 45.1429V90.2857M444.706 0V45.1429M444.706 0H489.176M444.706 45.1429H489.176M444.706 45.1429V90.2857M489.176 0V45.1429M489.176 0H533.647M489.176 45.1429H533.647M489.176 45.1429V90.2857M533.647 0V45.1429M533.647 0H578.118M533.647 45.1429H578.118M533.647 45.1429V90.2857M578.118 0V45.1429M578.118 0H622.588M578.118 45.1429H622.588M578.118 45.1429V90.2857M622.588 0V45.1429M622.588 0H667.059M622.588 45.1429H667.059M622.588 45.1429V90.2857M667.059 0V45.1429M667.059 0H711.529M667.059 45.1429H711.529M667.059 45.1429V90.2857M711.529 0V45.1429M711.529 0H756V45.1429M711.529 45.1429H756M711.529 45.1429V90.2857M756 45.1429V90.2857M44.4706 90.2857H0M44.4706 90.2857H88.9412M44.4706 90.2857V135.429M0 90.2857V135.429M88.9412 90.2857H133.412M88.9412 90.2857V135.429M133.412 90.2857H177.882M133.412 90.2857V135.429M177.882 90.2857H222.353M177.882 90.2857V135.429M222.353 90.2857H266.824M222.353 90.2857V135.429M266.824 90.2857H311.294M266.824 90.2857V135.429M311.294 90.2857H355.765M311.294 90.2857V135.429M355.765 90.2857H400.235M355.765 90.2857V135.429M400.235 90.2857H444.706M400.235 90.2857V135.429M444.706 90.2857H489.176M444.706 90.2857V135.429M489.176 90.2857H533.647M489.176 90.2857V135.429M533.647 90.2857H578.118M533.647 90.2857V135.429M578.118 90.2857H622.588M578.118 90.2857V135.429M622.588 90.2857H667.059M622.588 90.2857V135.429M667.059 90.2857H711.529M667.059 90.2857V135.429M711.529 90.2857H756M711.529 90.2857V135.429M756 90.2857V135.429M44.4706 135.429H0M44.4706 135.429H88.9412M44.4706 135.429V180.571M0 135.429V180.571M88.9412 135.429H133.412M88.9412 135.429V180.571M133.412 135.429H177.882M133.412 135.429V180.571M177.882 135.429H222.353M177.882 135.429V180.571M222.353 135.429H266.824M222.353 135.429V180.571M266.824 135.429H311.294M266.824 135.429V180.571M311.294 135.429H355.765M311.294 135.429V180.571M355.765 135.429H400.235M355.765 135.429V180.571M400.235 135.429H444.706M400.235 135.429V180.571M444.706 135.429H489.176M444.706 135.429V180.571M489.176 135.429H533.647M489.176 135.429V180.571M533.647 135.429H578.118M533.647 135.429V180.571M578.118 135.429H622.588M578.118 135.429V180.571M622.588 135.429H667.059M622.588 135.429V180.571M667.059 135.429H711.529M667.059 135.429V180.571M711.529 135.429H756M711.529 135.429V180.571M756 135.429V180.571M44.4706 180.571H0M44.4706 180.571H88.9412M44.4706 180.571V225.714M0 180.571V225.714M88.9412 180.571H133.412M88.9412 180.571V225.714M133.412 180.571H177.882M133.412 180.571V225.714M177.882 180.571H222.353M177.882 180.571V225.714M222.353 180.571H266.824M222.353 180.571V225.714M266.824 180.571H311.294M266.824 180.571V225.714M311.294 180.571H355.765M311.294 180.571V225.714M355.765 180.571H400.235M355.765 180.571V225.714M400.235 180.571H444.706M400.235 180.571V225.714M444.706 180.571H489.176M444.706 180.571V225.714M489.176 180.571H533.647M489.176 180.571V225.714M533.647 180.571H578.118M533.647 180.571V225.714M578.118 180.571H622.588M578.118 180.571V225.714M622.588 180.571H667.059M622.588 180.571V225.714M667.059 180.571H711.529M667.059 180.571V225.714M711.529 180.571H756M711.529 180.571V225.714M756 180.571V225.714M44.4706 225.714H0M44.4706 225.714H88.9412M44.4706 225.714V270.857M0 225.714V270.857M88.9412 225.714H133.412M88.9412 225.714V270.857M133.412 225.714H177.882M133.412 225.714V270.857M177.882 225.714H222.353M177.882 225.714V270.857M222.353 225.714H266.824M222.353 225.714V270.857M266.824 225.714H311.294M266.824 225.714V270.857M311.294 225.714H355.765M311.294 225.714V270.857M355.765 225.714H400.235M355.765 225.714V270.857M400.235 225.714H444.706M400.235 225.714V270.857M444.706 225.714H489.176M444.706 225.714V270.857M489.176 225.714H533.647M489.176 225.714V270.857M533.647 225.714H578.118M533.647 225.714V270.857M578.118 225.714H622.588M578.118 225.714V270.857M622.588 225.714H667.059M622.588 225.714V270.857M667.059 225.714H711.529M667.059 225.714V270.857M711.529 225.714H756M711.529 225.714V270.857M756 225.714V270.857M44.4706 270.857H0M44.4706 270.857H88.9412M44.4706 270.857V316M0 270.857V316H44.4706M88.9412 270.857H133.412M88.9412 270.857V316M133.412 270.857H177.882M133.412 270.857V316M177.882 270.857H222.353M177.882 270.857V316M222.353 270.857H266.824M222.353 270.857V316M266.824 270.857H311.294M266.824 270.857V316M311.294 270.857H355.765M311.294 270.857V316M355.765 270.857H400.235M355.765 270.857V316M400.235 270.857H444.706M400.235 270.857V316M444.706 270.857H489.176M444.706 270.857V316M489.176 270.857H533.647M489.176 270.857V316M533.647 270.857H578.118M533.647 270.857V316M578.118 270.857H622.588M578.118 270.857V316M622.588 270.857H667.059M622.588 270.857V316M667.059 270.857H711.529M667.059 270.857V316M711.529 270.857H756M711.529 270.857V316M756 270.857V316H711.529M44.4706 316H88.9412M88.9412 316H133.412M133.412 316H177.882M177.882 316H222.353M222.353 316H266.824M266.824 316H311.294M311.294 316H355.765M355.765 316H400.235M400.235 316H444.706M444.706 316H489.176M489.176 316H533.647M533.647 316H578.118M578.118 316H622.588M622.588 316H667.059M667.059 316H711.529" stroke="url(#paint0_radial_1075_43421)" stroke-opacity="0.08"/>
<defs>
<radialGradient id="paint0_radial_1075_43421" cx="0" cy="0" r="1" gradientUnits="userSpaceOnUse" gradientTransform="translate(145 126) rotate(30.7299) scale(357.149 118.559)">
<stop stop-color="white" stop-opacity="0.5"/>
<stop offset="1" stop-color="white" stop-opacity="0"/>
</radialGradient>
</defs>
</svg>
