<svg width="28" height="28" viewBox="0 0 28 28" fill="none" xmlns="http://www.w3.org/2000/svg">
<path d="M25.6667 5.4479V19.5296C25.6667 20.6496 24.7567 21.6996 23.6367 21.8396L23.2517 21.8863C20.7083 22.2246 16.7883 23.5196 14.5483 24.7562C14.245 24.9312 13.7433 24.9312 13.4283 24.7562L13.3816 24.7329C11.1416 23.5079 7.23337 22.2246 4.7017 21.8863L4.36332 21.8396C3.24332 21.6996 2.33334 20.6496 2.33334 19.5296V5.43622C2.33334 4.04789 3.46497 2.9979 4.8533 3.11457C7.3033 3.3129 11.0133 4.5496 13.09 5.8446L13.3816 6.01956C13.72 6.22956 14.28 6.22956 14.6184 6.01956L14.8167 5.89124C15.5517 5.43624 16.485 4.98124 17.5 4.5729V9.33292L19.8333 7.78124L22.1667 9.33292V3.24296C22.4817 3.18462 22.785 3.14958 23.065 3.12625H23.135C24.5234 3.00958 25.6667 4.0479 25.6667 5.4479Z" stroke="#0096FF" stroke-width="1.75" stroke-linecap="round" stroke-linejoin="round"/>
<path d="M14 6.40527V23.9053" stroke="#0096FF" stroke-width="1.75" stroke-linecap="round" stroke-linejoin="round"/>
<path d="M22.1667 3.24487V9.33484L19.8333 7.78315L17.5 9.33484V4.57482C19.0283 3.96815 20.7317 3.47821 22.1667 3.24487Z" stroke="#0096FF" stroke-width="1.75" stroke-linecap="round" stroke-linejoin="round"/>
</svg>
