<svg width="40" height="40" viewBox="0 0 40 40" fill="none" xmlns="http://www.w3.org/2000/svg">
<path d="M36.1003 17.3989L34.467 24.3655C33.067 30.3822 30.3003 32.8155 25.1003 32.3155C24.267 32.2489 23.367 32.0989 22.4003 31.8655L19.6003 31.1989C12.6503 29.5489 10.5003 26.1155 12.1336 19.1489L13.767 12.1655C14.1003 10.7489 14.5003 9.51554 15.0003 8.49887C16.9503 4.46554 20.267 3.38221 25.8336 4.69887L28.617 5.34887C35.6003 6.98221 37.7336 10.4322 36.1003 17.3989Z" stroke="white" stroke-width="2" stroke-linecap="round" stroke-linejoin="round"/>
<path d="M25.1006 32.3157C24.0672 33.0157 22.7672 33.599 21.1839 34.1157L18.5506 34.9824C11.9339 37.1157 8.45057 35.3324 6.30057 28.7157L4.16724 22.1324C2.0339 15.5157 3.80057 12.0157 10.4172 9.88236L13.0506 9.01569C13.7339 8.79902 14.3839 8.61569 15.0006 8.49902C14.5006 9.51569 14.1006 10.749 13.7672 12.1657L12.1339 19.149C10.5006 26.1157 12.6506 29.549 19.6006 31.199L22.4006 31.8657C23.3672 32.099 24.2672 32.249 25.1006 32.3157Z" stroke="white" stroke-width="2" stroke-linecap="round" stroke-linejoin="round"/>
<path d="M21.0661 14.2168L29.1494 16.2668" stroke="white" stroke-width="2" stroke-linecap="round" stroke-linejoin="round"/>
<path d="M19.4336 20.667L24.2669 21.9003" stroke="white" stroke-width="2" stroke-linecap="round" stroke-linejoin="round"/>
</svg>
