<svg width="40" height="40" viewBox="0 0 40 40" fill="none" xmlns="http://www.w3.org/2000/svg">
<path d="M28.3333 35H11.6667C4.99999 35 3.33333 33.3333 3.33333 26.6667V13.3333C3.33333 6.66667 4.99999 5 11.6667 5H28.3333C35 5 36.6667 6.66667 36.6667 13.3333V26.6667C36.6667 33.3333 35 35 28.3333 35Z" stroke="white" stroke-width="2" stroke-linecap="round" stroke-linejoin="round"/>
<path d="M23.3333 13.333H31.6667" stroke="white" stroke-width="2" stroke-linecap="round" stroke-linejoin="round"/>
<path d="M25 20H31.6667" stroke="white" stroke-width="2" stroke-linecap="round" stroke-linejoin="round"/>
<path d="M28.3333 26.667H31.6667" stroke="white" stroke-width="2" stroke-linecap="round" stroke-linejoin="round"/>
<path d="M14.1667 18.8165C15.8327 18.8165 17.1833 17.4659 17.1833 15.7999C17.1833 14.1338 15.8327 12.7832 14.1667 12.7832C12.5006 12.7832 11.15 14.1338 11.15 15.7999C11.15 17.4659 12.5006 18.8165 14.1667 18.8165Z" stroke="white" stroke-width="2" stroke-linecap="round" stroke-linejoin="round"/>
<path d="M20 27.2169C19.7667 24.8003 17.85 22.9003 15.4333 22.6836C14.6 22.6003 13.75 22.6003 12.9 22.6836C10.4833 22.9169 8.56666 24.8003 8.33333 27.2169" stroke="white" stroke-width="2" stroke-linecap="round" stroke-linejoin="round"/>
</svg>
