<svg width="40" height="40" viewBox="0 0 40 40" fill="none" xmlns="http://www.w3.org/2000/svg">
<path d="M28.3333 16.6663H31.6666C34.9999 16.6663 36.6666 14.9997 36.6666 11.6663V8.33301C36.6666 4.99967 34.9999 3.33301 31.6666 3.33301H28.3333C24.9999 3.33301 23.3333 4.99967 23.3333 8.33301V11.6663C23.3333 14.9997 24.9999 16.6663 28.3333 16.6663Z" stroke="white" stroke-width="2.5" stroke-miterlimit="10" stroke-linecap="round" stroke-linejoin="round"/>
<path d="M8.33325 36.6663H11.6666C14.9999 36.6663 16.6666 34.9997 16.6666 31.6663V28.333C16.6666 24.9997 14.9999 23.333 11.6666 23.333H8.33325C4.99992 23.333 3.33325 24.9997 3.33325 28.333V31.6663C3.33325 34.9997 4.99992 36.6663 8.33325 36.6663Z" stroke="white" stroke-width="2.5" stroke-miterlimit="10" stroke-linecap="round" stroke-linejoin="round"/>
<path d="M9.99992 16.6663C13.6818 16.6663 16.6666 13.6816 16.6666 9.99967C16.6666 6.31778 13.6818 3.33301 9.99992 3.33301C6.31802 3.33301 3.33325 6.31778 3.33325 9.99967C3.33325 13.6816 6.31802 16.6663 9.99992 16.6663Z" stroke="white" stroke-width="2.5" stroke-miterlimit="10" stroke-linecap="round" stroke-linejoin="round"/>
<path d="M29.9999 36.6663C33.6818 36.6663 36.6666 33.6816 36.6666 29.9997C36.6666 26.3178 33.6818 23.333 29.9999 23.333C26.318 23.333 23.3333 26.3178 23.3333 29.9997C23.3333 33.6816 26.318 36.6663 29.9999 36.6663Z" stroke="white" stroke-width="2.5" stroke-miterlimit="10" stroke-linecap="round" stroke-linejoin="round"/>
</svg>
