<svg width="40" height="40" viewBox="0 0 40 40" fill="none" xmlns="http://www.w3.org/2000/svg">
<path d="M15.0333 4.73328L6.04992 11.7333C4.54992 12.8999 3.33325 15.3833 3.33325 17.2666V29.6166C3.33325 33.4833 6.48325 36.6499 10.3499 36.6499H29.6499C33.5166 36.6499 36.6666 33.4833 36.6666 29.6333V17.4999C36.6666 15.4833 35.3166 12.8999 33.6666 11.7499L23.3666 4.53328C21.0333 2.89995 17.2833 2.98328 15.0333 4.73328Z" stroke="white" stroke-width="2.5" stroke-linecap="round" stroke-linejoin="round"/>
<path d="M17.5 30H22.5C25.25 30 27.5 27.75 27.5 25V20C27.5 17.25 25.25 15 22.5 15H17.5C14.75 15 12.5 17.25 12.5 20V25C12.5 27.75 14.75 30 17.5 30Z" stroke="white" stroke-width="2.5" stroke-linecap="round" stroke-linejoin="round"/>
<path d="M20 15V30" stroke="white" stroke-width="2.5" stroke-linecap="round" stroke-linejoin="round"/>
<path d="M12.5 22.5H27.5" stroke="white" stroke-width="2.5" stroke-linecap="round" stroke-linejoin="round"/>
</svg>
