<svg width="23" height="29" viewBox="0 0 23 29" fill="none" xmlns="http://www.w3.org/2000/svg">
<foreignObject x="-6" y="-6" width="35" height="40.6094"><div xmlns="http://www.w3.org/1999/xhtml" style="backdrop-filter:blur(3px);clip-path:url(#bgblur_0_3519_4366_clip_path);height:100%;width:100%"></div></foreignObject><g data-figma-bg-blur-radius="6">
<mask id="path-1-inside-1_3519_4366" fill="white">
<path fill-rule="evenodd" clip-rule="evenodd" d="M11.5 0C2.17428 0 -3.25991 10.4692 2.14369 18.0253L8.67743 27.1618C10.0581 29.0924 12.9419 29.0924 14.3226 27.1618L20.8563 18.0253C26.2599 10.4692 20.8257 0 11.5 0ZM11.5 17.3902C14.7531 17.3902 17.3902 14.7531 17.3902 11.5C17.3902 8.24691 14.7531 5.60976 11.5 5.60976C8.24691 5.60976 5.60976 8.24691 5.60976 11.5C5.60976 14.7531 8.24691 17.3902 11.5 17.3902Z"/>
</mask>
<path fill-rule="evenodd" clip-rule="evenodd" d="M11.5 0C2.17428 0 -3.25991 10.4692 2.14369 18.0253L8.67743 27.1618C10.0581 29.0924 12.9419 29.0924 14.3226 27.1618L20.8563 18.0253C26.2599 10.4692 20.8257 0 11.5 0ZM11.5 17.3902C14.7531 17.3902 17.3902 14.7531 17.3902 11.5C17.3902 8.24691 14.7531 5.60976 11.5 5.60976C8.24691 5.60976 5.60976 8.24691 5.60976 11.5C5.60976 14.7531 8.24691 17.3902 11.5 17.3902Z" fill="url(#paint0_linear_3519_4366)"/>
<path d="M2.14369 18.0253L1.98101 18.1417L2.14369 18.0253ZM8.67743 27.1618L8.84011 27.0454V27.0454L8.67743 27.1618ZM14.3226 27.1618L14.4852 27.2781V27.2781L14.3226 27.1618ZM20.8563 18.0253L20.6936 17.909V17.909L20.8563 18.0253ZM2.30637 17.909C-3.00129 10.487 2.3348 0.2 11.5 0.2V-0.2C2.01377 -0.2 -3.51853 10.4514 1.98101 18.1417L2.30637 17.909ZM8.84011 27.0454L2.30637 17.909L1.98101 18.1417L8.51475 27.2781L8.84011 27.0454ZM14.1599 27.0454C12.859 28.8645 10.141 28.8645 8.84011 27.0454L8.51475 27.2781C9.97517 29.3203 13.0248 29.3203 14.4852 27.2781L14.1599 27.0454ZM20.6936 17.909L14.1599 27.0454L14.4852 27.2781L21.019 18.1417L20.6936 17.909ZM11.5 0.2C20.6652 0.2 26.0013 10.487 20.6936 17.909L21.019 18.1417C26.5185 10.4514 20.9862 -0.2 11.5 -0.2V0.2ZM17.1902 11.5C17.1902 14.6426 14.6426 17.1902 11.5 17.1902V17.5902C14.8635 17.5902 17.5902 14.8635 17.5902 11.5H17.1902ZM11.5 5.80976C14.6426 5.80976 17.1902 8.35736 17.1902 11.5H17.5902C17.5902 8.13645 14.8635 5.40976 11.5 5.40976V5.80976ZM5.80976 11.5C5.80976 8.35736 8.35736 5.80976 11.5 5.80976V5.40976C8.13645 5.40976 5.40976 8.13645 5.40976 11.5H5.80976ZM11.5 17.1902C8.35736 17.1902 5.80976 14.6426 5.80976 11.5H5.40976C5.40976 14.8635 8.13645 17.5902 11.5 17.5902V17.1902Z" fill="url(#paint1_linear_3519_4366)" mask="url(#path-1-inside-1_3519_4366)"/>
</g>
<defs>
<clipPath id="bgblur_0_3519_4366_clip_path" transform="translate(6 6)"><path fill-rule="evenodd" clip-rule="evenodd" d="M11.5 0C2.17428 0 -3.25991 10.4692 2.14369 18.0253L8.67743 27.1618C10.0581 29.0924 12.9419 29.0924 14.3226 27.1618L20.8563 18.0253C26.2599 10.4692 20.8257 0 11.5 0ZM11.5 17.3902C14.7531 17.3902 17.3902 14.7531 17.3902 11.5C17.3902 8.24691 14.7531 5.60976 11.5 5.60976C8.24691 5.60976 5.60976 8.24691 5.60976 11.5C5.60976 14.7531 8.24691 17.3902 11.5 17.3902Z"/>
</clipPath><linearGradient id="paint0_linear_3519_4366" x1="11.5" y1="0" x2="11.5" y2="28.6098" gradientUnits="userSpaceOnUse">
<stop stop-color="white" stop-opacity="0.8"/>
<stop offset="1" stop-color="white" stop-opacity="0.01"/>
</linearGradient>
<linearGradient id="paint1_linear_3519_4366" x1="11.5" y1="0" x2="11.5" y2="28.6098" gradientUnits="userSpaceOnUse">
<stop stop-color="white"/>
<stop offset="1" stop-color="white" stop-opacity="0.01"/>
</linearGradient>
</defs>
</svg>
