<svg width="28" height="28" viewBox="0 0 28 28" fill="none" xmlns="http://www.w3.org/2000/svg">
<path d="M25.6668 15.1663V10.4997C25.6668 4.66634 23.3335 2.33301 17.5002 2.33301H10.5002C4.66683 2.33301 2.3335 4.66634 2.3335 10.4997V17.4997C2.3335 23.333 4.66683 25.6663 10.5002 25.6663H15.1668" stroke="white" stroke-width="1.75" stroke-linecap="round" stroke-linejoin="round"/>
<path d="M8.55176 16.9047L11.3284 13.2997C11.7251 12.7864 12.4601 12.6931 12.9734 13.0897L15.1085 14.7697C15.6218 15.1664 16.3568 15.0731 16.7534 14.5714L19.4485 11.0947" stroke="white" stroke-width="1.75" stroke-linecap="round" stroke-linejoin="round"/>
<path d="M22.7268 18.4586L23.0534 19.1236C23.2168 19.4503 23.6251 19.7536 23.9867 19.8236L24.4301 19.8936C25.7601 20.1153 26.0751 21.0953 25.1184 22.0636L24.7101 22.472C24.4417 22.752 24.2901 23.2886 24.3718 23.662L24.4301 23.907C24.7918 25.517 23.9401 26.1353 22.5401 25.2953L22.2367 25.1203C21.8751 24.9103 21.2918 24.9103 20.9301 25.1203L20.6267 25.2953C19.2151 26.1469 18.3634 25.517 18.7367 23.907L18.7951 23.662C18.8767 23.2886 18.7251 22.752 18.4568 22.472L18.0484 22.0636C17.0917 21.0953 17.4067 20.1153 18.7367 19.8936L19.1801 19.8236C19.5301 19.7653 19.9501 19.4503 20.1134 19.1236L20.4401 18.4586C21.0701 17.187 22.0968 17.187 22.7268 18.4586Z" stroke="white" stroke-width="1.75" stroke-linecap="round" stroke-linejoin="round"/>
</svg>
