<svg width="28" height="28" viewBox="0 0 28 28" fill="none" xmlns="http://www.w3.org/2000/svg">
<path d="M12.5434 19.6709V22.0393C12.5434 24.0459 10.6767 25.6676 8.37835 25.6676C6.08001 25.6676 4.20166 24.0459 4.20166 22.0393V19.6709C4.20166 21.6776 6.06835 23.1009 8.37835 23.1009C10.6767 23.1009 12.5434 21.6659 12.5434 19.6709Z" stroke="white" stroke-width="1.75" stroke-linecap="round" stroke-linejoin="round"/>
<path d="M12.5418 16.4614C12.5418 17.0447 12.3784 17.5813 12.0984 18.048C11.4101 19.1797 9.99843 19.8914 8.36509 19.8914C6.73176 19.8914 5.32008 19.168 4.63174 18.048C4.35174 17.5813 4.18848 17.0447 4.18848 16.4614C4.18848 15.458 4.65512 14.5597 5.40178 13.9064C6.16012 13.2414 7.19841 12.8447 8.35341 12.8447C9.50841 12.8447 10.5468 13.253 11.3051 13.9064C12.0751 14.548 12.5418 15.458 12.5418 16.4614Z" stroke="white" stroke-width="1.75" stroke-linecap="round" stroke-linejoin="round"/>
<path d="M12.5434 16.4613V19.6697C12.5434 21.6763 10.6767 23.0997 8.37835 23.0997C6.08001 23.0997 4.20166 21.6647 4.20166 19.6697V16.4613C4.20166 14.4547 6.06835 12.833 8.37835 12.833C9.53335 12.833 10.5717 13.2413 11.33 13.8946C12.0767 14.548 12.5434 15.458 12.5434 16.4613Z" stroke="white" stroke-width="1.75" stroke-linecap="round" stroke-linejoin="round"/>
<path d="M25.6666 12.7984V15.2018C25.6666 15.8434 25.1533 16.3684 24.4999 16.3917H22.2132C20.9532 16.3917 19.7983 15.47 19.6933 14.21C19.6233 13.475 19.9032 12.7867 20.3932 12.3084C20.8249 11.865 21.4199 11.6084 22.0732 11.6084H24.4999C25.1533 11.6317 25.6666 12.1567 25.6666 12.7984Z" stroke="white" stroke-width="1.75" stroke-linecap="round" stroke-linejoin="round"/>
<path d="M2.3335 12.2497V9.91634C2.3335 6.74301 4.24683 4.52634 7.22183 4.153C7.52517 4.10634 7.84016 4.08301 8.16683 4.08301H18.6668C18.9702 4.08301 19.2618 4.09466 19.5418 4.14133C22.5518 4.49133 24.5002 6.71967 24.5002 9.91634V11.608H22.0735C21.4201 11.608 20.8251 11.8647 20.3935 12.308C19.9035 12.7863 19.6235 13.4747 19.6935 14.2097C19.7985 15.4697 20.9535 16.3913 22.2135 16.3913H24.5002V18.083C24.5002 21.583 22.1668 23.9163 18.6668 23.9163H15.7502" stroke="white" stroke-width="1.75" stroke-linecap="round" stroke-linejoin="round"/>
</svg>
