<svg width="40" height="40" viewBox="0 0 40 40" fill="none" xmlns="http://www.w3.org/2000/svg">
<path d="M3.3335 14.167H21.6668" stroke="white" stroke-width="2.5" stroke-miterlimit="10" stroke-linecap="round" stroke-linejoin="round"/>
<path d="M10 27.5H13.3333" stroke="white" stroke-width="2.5" stroke-miterlimit="10" stroke-linecap="round" stroke-linejoin="round"/>
<path d="M17.5 27.5H24.1667" stroke="white" stroke-width="2.5" stroke-miterlimit="10" stroke-linecap="round" stroke-linejoin="round"/>
<path d="M36.6668 18.883V26.8496C36.6668 32.6996 35.1835 34.1663 29.2668 34.1663H10.7335C4.81683 34.1663 3.3335 32.6996 3.3335 26.8496V13.1497C3.3335 7.2997 4.81683 5.83301 10.7335 5.83301H22.1335" stroke="white" stroke-width="2.5" stroke-linecap="round" stroke-linejoin="round"/>
<path d="M28.333 5.41602H33.5497C34.6997 5.41602 35.633 6.46602 35.633 7.49935C35.633 8.64935 34.6997 9.58268 33.5497 9.58268H28.333V5.41602Z" stroke="white" stroke-width="2.5" stroke-miterlimit="10" stroke-linecap="round" stroke-linejoin="round"/>
<path d="M28.333 9.58301H34.283C35.5997 9.58301 36.6663 10.5163 36.6663 11.6663C36.6663 12.8163 35.5997 13.7497 34.283 13.7497H28.333V9.58301Z" stroke="white" stroke-width="2.5" stroke-miterlimit="10" stroke-linecap="round" stroke-linejoin="round"/>
<path d="M31.2666 13.75V15.8333" stroke="white" stroke-width="2.5" stroke-miterlimit="10" stroke-linecap="round" stroke-linejoin="round"/>
<path d="M31.2666 3.33301V5.41634" stroke="white" stroke-width="2.5" stroke-miterlimit="10" stroke-linecap="round" stroke-linejoin="round"/>
<path d="M30.3165 5.41602H26.6665" stroke="white" stroke-width="2.5" stroke-miterlimit="10" stroke-linecap="round" stroke-linejoin="round"/>
<path d="M30.3165 13.75H26.6665" stroke="white" stroke-width="2.5" stroke-miterlimit="10" stroke-linecap="round" stroke-linejoin="round"/>
</svg>
