<svg width="28" height="28" viewBox="0 0 28 28" fill="none" xmlns="http://www.w3.org/2000/svg">
<path d="M18.6668 27.6735C18.3518 27.6735 18.0601 27.4986 17.9085 27.2302C17.7568 26.9619 17.7568 26.6236 17.9201 26.3552L19.1451 24.3136C19.3901 23.8936 19.9268 23.7652 20.3468 24.0102C20.7668 24.2552 20.8951 24.7919 20.6501 25.2119L20.3351 25.7369C23.5551 24.9785 25.9701 22.0852 25.9701 18.6318C25.9701 18.1535 26.3668 17.7568 26.8451 17.7568C27.3235 17.7568 27.7201 18.1535 27.7201 18.6318C27.7085 23.6135 23.6485 27.6735 18.6668 27.6735Z" fill="white"/>
<path d="M1.16675 10.1735C0.688415 10.1735 0.291748 9.77684 0.291748 9.2985C0.291748 4.31684 4.35175 0.256836 9.33342 0.256836C9.64842 0.256836 9.94008 0.431842 10.0918 0.700175C10.2434 0.968508 10.2434 1.30684 10.0801 1.57518L8.85508 3.61684C8.61008 4.03684 8.07342 4.16519 7.65342 3.92019C7.23342 3.67519 7.10508 3.13856 7.35008 2.71856L7.66508 2.19354C4.44508 2.95188 2.03008 5.84517 2.03008 9.2985C2.04175 9.77684 1.64508 10.1735 1.16675 10.1735Z" fill="white"/>
<path d="M11.0017 18.7598H7.72339C7.24506 18.7598 6.84839 18.3631 6.84839 17.8848V15.2598C6.84839 14.7814 7.24506 14.3848 7.72339 14.3848H11.0017C12.1684 14.3848 13.1951 15.4114 13.1951 16.5781C13.1951 17.7681 12.2034 18.7598 11.0017 18.7598ZM8.59839 17.0098H11.0017C11.2467 17.0098 11.4451 16.8114 11.4451 16.5664C11.4451 16.3914 11.2467 16.1231 11.0017 16.1231H8.59839V17.0098Z" fill="white"/>
<path d="M11.4676 21.3848H7.71094C7.2326 21.3848 6.83594 20.9881 6.83594 20.5098V17.8848C6.83594 17.4064 7.2326 17.0098 7.71094 17.0098H11.4676C12.7743 17.0098 13.8476 17.9898 13.8476 19.2031C13.8476 20.4164 12.7859 21.3848 11.4676 21.3848ZM8.5976 19.6348H11.4793C11.8526 19.6348 12.1093 19.4014 12.1093 19.1914C12.1093 18.9814 11.8526 18.7481 11.4793 18.7481H8.5976V19.6348Z" fill="white"/>
<path d="M9.82324 22.6924C9.34491 22.6924 8.94824 22.2957 8.94824 21.8174V20.499C8.94824 20.0207 9.34491 19.624 9.82324 19.624C10.3016 19.624 10.6982 20.0207 10.6982 20.499V21.8174C10.6982 22.3074 10.3016 22.6924 9.82324 22.6924Z" fill="white"/>
<path d="M9.82324 16.123C9.34491 16.123 8.94824 15.7264 8.94824 15.248V13.9297C8.94824 13.4514 9.34491 13.0547 9.82324 13.0547C10.3016 13.0547 10.6982 13.4514 10.6982 13.9297V15.248C10.6982 15.738 10.3016 16.123 9.82324 16.123Z" fill="white"/>
<path d="M10.1151 25.9582C5.65841 25.9582 2.04175 22.3299 2.04175 17.8849C2.04175 13.4399 5.67008 9.81152 10.1151 9.81152C10.3251 9.81152 10.5117 9.82321 10.7217 9.83488C14.6767 10.1382 17.8734 13.3349 18.1651 17.2665C18.1767 17.5232 18.1884 17.6982 18.1884 17.8849C18.2001 22.3299 14.5717 25.9582 10.1151 25.9582ZM10.1151 11.5499C6.62675 11.5499 3.79175 14.3849 3.79175 17.8732C3.79175 21.3616 6.62675 24.1965 10.1151 24.1965C13.6034 24.1965 16.4501 21.3616 16.4501 17.8732C16.4501 17.7216 16.4384 17.5699 16.4268 17.4182C16.1934 14.2915 13.6851 11.7949 10.6051 11.5615C10.4534 11.5615 10.2901 11.5499 10.1151 11.5499Z" fill="white"/>
<path d="M17.8851 18.1994H17.3134C16.8584 18.1994 16.4734 17.8494 16.4384 17.3944C16.2051 14.3027 13.7084 11.806 10.6168 11.5727C10.1618 11.5377 9.81177 11.1527 9.81177 10.6977V10.126C9.81177 5.66938 13.4401 2.05273 17.8968 2.05273C22.3534 2.05273 25.9701 5.68105 25.9701 10.126C25.9701 14.571 22.3301 18.1994 17.8851 18.1994ZM11.5501 9.92773C14.8401 10.5227 17.4768 13.1477 18.0718 16.4494C21.4784 16.3444 24.2084 13.5444 24.2084 10.126C24.2084 6.63771 21.3734 3.80273 17.8851 3.80273C14.4551 3.79107 11.6551 6.52107 11.5501 9.92773Z" fill="white"/>
</svg>
