<svg width="28" height="28" viewBox="0 0 28 28" fill="none" xmlns="http://www.w3.org/2000/svg">
<path d="M12.2385 2.60035L6.41685 4.79369C5.07518 5.29535 3.97852 6.88202 3.97852 8.30535V16.9737C3.97852 18.3504 4.88852 20.1587 5.99685 20.987L11.0135 24.732C12.6585 25.9687 15.3652 25.9687 17.0102 24.732L22.0268 20.987C23.1352 20.1587 24.0452 18.3504 24.0452 16.9737V8.30535C24.0452 6.87035 22.9485 5.28368 21.6068 4.78202L15.7852 2.60035C14.7935 2.23868 13.2068 2.23868 12.2385 2.60035Z" stroke="white" stroke-width="1.5" stroke-linecap="round" stroke-linejoin="round"/>
<path d="M14.0001 14.5837C15.2887 14.5837 16.3334 13.539 16.3334 12.2503C16.3334 10.9617 15.2887 9.91699 14.0001 9.91699C12.7114 9.91699 11.6667 10.9617 11.6667 12.2503C11.6667 13.539 12.7114 14.5837 14.0001 14.5837Z" stroke="white" stroke-width="1.5" stroke-miterlimit="10" stroke-linecap="round" stroke-linejoin="round"/>
<path d="M14 14.583V18.083" stroke="white" stroke-width="1.5" stroke-miterlimit="10" stroke-linecap="round" stroke-linejoin="round"/>
</svg>
