<svg width="28" height="28" viewBox="0 0 28 28" fill="none" xmlns="http://www.w3.org/2000/svg">
<path d="M12.8333 18.842V21.992C12.8333 24.617 11.7833 25.667 9.15825 25.667H6.00825C3.38325 25.667 2.33325 24.617 2.33325 21.992V18.842C2.33325 16.217 3.38325 15.167 6.00825 15.167H9.15825C11.7833 15.167 12.8333 16.217 12.8333 18.842Z" stroke="white" stroke-width="1.75" stroke-linecap="round" stroke-linejoin="round"/>
<path d="M25.6667 17.5C25.6667 22.015 22.015 25.6667 17.5 25.6667L18.725 23.625" stroke="white" stroke-width="1.75" stroke-linecap="round" stroke-linejoin="round"/>
<path d="M2.33325 10.4997C2.33325 5.98467 5.98492 2.33301 10.4999 2.33301L9.27492 4.37467" stroke="white" stroke-width="1.75" stroke-linecap="round" stroke-linejoin="round"/>
<path d="M20.4167 12.833C23.3162 12.833 25.6667 10.4825 25.6667 7.58301C25.6667 4.68351 23.3162 2.33301 20.4167 2.33301C17.5173 2.33301 15.1667 4.68351 15.1667 7.58301C15.1667 10.4825 17.5173 12.833 20.4167 12.833Z" stroke="white" stroke-width="1.75" stroke-linecap="round" stroke-linejoin="round"/>
</svg>
