<svg width="708" height="300" viewBox="0 0 708 300" fill="none" xmlns="http://www.w3.org/2000/svg">
<path d="M275.667 143.334C277.14 143.334 278.334 142.14 278.334 140.667C278.334 139.194 277.14 138 275.667 138C274.365 138 273.283 138.933 273.049 140.167H236.583C232.227 140.167 228.246 137.706 226.298 133.81L169.931 21.0773C167.813 16.8426 163.485 14.1672 158.751 14.1671H127.667V15.1671H158.751C163.107 15.1672 167.088 17.628 169.036 21.5235L225.403 134.257C227.521 138.492 231.849 141.167 236.583 141.167H273.049C273.283 142.401 274.365 143.334 275.667 143.334Z" fill="url(#paint0_linear_159122_17511)"/>
<path d="M550.667 160.167V161.167H581.04C584.992 161.167 588.668 163.197 590.773 166.542L656.714 271.325C659.002 274.961 662.998 277.167 667.294 277.167H696.049C696.283 278.401 697.365 279.334 698.667 279.334C700.14 279.334 701.334 278.14 701.334 276.667C701.334 275.194 700.14 274 698.667 274C697.365 274 696.283 274.933 696.049 276.167H667.294C663.342 276.167 659.666 274.137 657.561 270.792L591.62 166.009C589.332 162.373 585.336 160.167 581.04 160.167H550.667Z" fill="url(#paint1_linear_159122_17511)"/>
<path d="M550.667 141.167V140.167H581.04C584.992 140.167 588.668 138.137 590.773 134.792L656.714 30.0088C659.002 26.3728 662.998 24.167 667.294 24.167H696.049C696.283 22.9334 697.365 22 698.667 22C700.14 22 701.334 23.1942 701.334 24.667C701.334 26.1397 700.14 27.334 698.667 27.334C697.365 27.334 696.283 26.4006 696.049 25.167H667.294C663.342 25.167 659.666 27.1968 657.561 30.542L591.62 135.325C589.332 138.961 585.336 141.167 581.04 141.167H550.667Z" fill="url(#paint2_linear_159122_17511)"/>
<path d="M419 100.667C419 102.14 420.194 103.334 421.667 103.334C423.14 103.334 424.334 102.14 424.334 100.667C424.334 99.3652 423.401 98.283 422.167 98.0488V54.667H421.167V98.0488C419.933 98.283 419 99.3652 419 100.667Z" fill="url(#paint3_linear_159122_17511)"/>
<path d="M0 200.667C6.43764e-08 199.194 1.19423 198 2.66699 198C4.13975 198 5.33398 199.194 5.33398 200.667C5.33398 201.969 4.4006 203.051 3.16699 203.285L3.16699 246.667H2.16699L2.16699 203.285C0.933384 203.051 1.76511e-06 201.969 0 200.667Z" fill="url(#paint4_linear_159122_17511)"/>
<path d="M275.667 155C277.14 155 278.334 156.194 278.334 157.667C278.334 159.14 277.14 160.334 275.667 160.334C274.365 160.334 273.283 159.401 273.049 158.167L127.667 158.167V157.167L273.049 157.167C273.283 155.933 274.365 155 275.667 155Z" fill="url(#paint5_linear_159122_17511)"/>
<path d="M698.667 148C700.14 148 701.334 149.194 701.334 150.667C701.334 152.14 700.14 153.334 698.667 153.334C697.365 153.334 696.283 152.401 696.049 151.167L550.667 151.167V150.167L696.049 150.167C696.283 148.933 697.365 148 698.667 148Z" fill="url(#paint6_linear_159122_17511)"/>
<path d="M698.667 0C700.14 1.28753e-07 701.334 1.19423 701.334 2.66699C701.334 4.13975 700.14 5.33398 698.667 5.33398C697.365 5.33398 696.283 4.4006 696.049 3.16699L542.667 3.16698V2.16698L696.049 2.16699C696.283 0.933384 697.365 -1.13803e-07 698.667 0Z" fill="url(#paint7_linear_159122_17511)"/>
<path d="M559.667 294C558.194 294 557 295.194 557 296.667C557 298.14 558.194 299.334 559.667 299.334C560.969 299.334 562.051 298.401 562.285 297.167H707.667V296.167H562.285C562.051 294.933 560.969 294 559.667 294Z" fill="url(#paint8_linear_159122_17511)"/>
<defs>
<linearGradient id="paint0_linear_159122_17511" x1="111.529" y1="68.5905" x2="275.667" y2="68.5906" gradientUnits="userSpaceOnUse">
<stop stop-color="white" stop-opacity="0"/>
<stop offset="1" stop-color="white"/>
</linearGradient>
<linearGradient id="paint1_linear_159122_17511" x1="714.805" y1="82.6666" x2="550.667" y2="82.6667" gradientUnits="userSpaceOnUse">
<stop stop-color="white"/>
<stop offset="1" stop-color="white" stop-opacity="0"/>
</linearGradient>
<linearGradient id="paint2_linear_159122_17511" x1="714.805" y1="82.6666" x2="550.667" y2="82.6667" gradientUnits="userSpaceOnUse">
<stop stop-color="white"/>
<stop offset="1" stop-color="white" stop-opacity="0"/>
</linearGradient>
<linearGradient id="paint3_linear_159122_17511" x1="5.68921" y1="245.314" x2="5.68898" y2="196.608" gradientUnits="userSpaceOnUse">
<stop stop-color="white" stop-opacity="0"/>
<stop offset="1" stop-color="white"/>
</linearGradient>
<linearGradient id="paint4_linear_159122_17511" x1="5.68921" y1="245.314" x2="5.68898" y2="196.608" gradientUnits="userSpaceOnUse">
<stop stop-color="white" stop-opacity="0"/>
<stop offset="1" stop-color="white"/>
</linearGradient>
<linearGradient id="paint5_linear_159122_17511" x1="703.314" y1="299.689" x2="546.608" y2="299.687" gradientUnits="userSpaceOnUse">
<stop stop-color="white" stop-opacity="0"/>
<stop offset="1" stop-color="white"/>
</linearGradient>
<linearGradient id="paint6_linear_159122_17511" x1="703.314" y1="299.689" x2="546.608" y2="299.687" gradientUnits="userSpaceOnUse">
<stop stop-color="white" stop-opacity="0"/>
<stop offset="1" stop-color="white"/>
</linearGradient>
<linearGradient id="paint7_linear_159122_17511" x1="547.255" y1="5.68922" x2="712.432" y2="5.68646" gradientUnits="userSpaceOnUse">
<stop stop-color="white" stop-opacity="0"/>
<stop offset="1" stop-color="white"/>
</linearGradient>
<linearGradient id="paint8_linear_159122_17511" x1="703.314" y1="299.689" x2="546.608" y2="299.687" gradientUnits="userSpaceOnUse">
<stop stop-color="white" stop-opacity="0"/>
<stop offset="1" stop-color="white"/>
</linearGradient>
</defs>
</svg>
