<svg width="28" height="28" viewBox="0 0 28 28" fill="none" xmlns="http://www.w3.org/2000/svg">
<path d="M26.8333 20.9997C26.8333 21.8747 26.5883 22.703 26.1567 23.403C25.9117 23.823 25.5967 24.1963 25.235 24.4997C24.4183 25.2347 23.345 25.6663 22.1667 25.6663C20.7433 25.6663 19.4717 25.0247 18.6317 24.0214C18.6083 23.9864 18.5733 23.963 18.55 23.928C18.41 23.7647 18.2817 23.5897 18.1767 23.403C17.745 22.703 17.5 21.8747 17.5 20.9997C17.5 19.5297 18.1767 18.2113 19.25 17.3597C20.055 16.718 21.07 16.333 22.1667 16.333C23.3333 16.333 24.3833 16.753 25.2 17.4646C25.34 17.5696 25.4683 17.698 25.585 17.8264C26.355 18.6664 26.8333 19.7747 26.8333 20.9997Z" stroke="white" stroke-width="1.75" stroke-miterlimit="10" stroke-linecap="round" stroke-linejoin="round"/>
<path d="M23.9049 20.9766H20.4282" stroke="white" stroke-width="1.75" stroke-miterlimit="10" stroke-linecap="round" stroke-linejoin="round"/>
<path d="M22.1665 19.2725V22.7608" stroke="white" stroke-width="1.75" stroke-miterlimit="10" stroke-linecap="round" stroke-linejoin="round"/>
<path d="M3.69824 8.68164L13.9999 14.6433L24.2316 8.7166" stroke="white" stroke-width="1.75" stroke-linecap="round" stroke-linejoin="round"/>
<path d="M14 25.2125V14.6309" stroke="white" stroke-width="1.75" stroke-linecap="round" stroke-linejoin="round"/>
<path d="M25.2119 10.698V17.3014C25.2119 17.3597 25.2119 17.4063 25.2003 17.4647C24.3836 16.753 23.3336 16.333 22.1669 16.333C21.0702 16.333 20.0552 16.718 19.2502 17.3597C18.1769 18.2114 17.5002 19.5297 17.5002 20.9997C17.5002 21.8747 17.7452 22.703 18.1769 23.403C18.2819 23.5897 18.4102 23.7647 18.5502 23.928L16.4153 25.1064C15.0853 25.8531 12.9152 25.8531 11.5852 25.1064L5.35524 21.653C3.94357 20.8714 2.78857 18.9114 2.78857 17.3014V10.698C2.78857 9.08801 3.94357 7.12803 5.35524 6.34637L11.5852 2.89301C12.9152 2.14634 15.0853 2.14634 16.4153 2.89301L22.6452 6.34637C24.0569 7.12803 25.2119 9.08801 25.2119 10.698Z" stroke="white" stroke-width="1.75" stroke-linecap="round" stroke-linejoin="round"/>
</svg>
