<svg width="28" height="28" viewBox="0 0 28 28" fill="none" xmlns="http://www.w3.org/2000/svg">
<path d="M18.6668 9.33301H9.3335V18.6663H18.6668V9.33301Z" stroke="#0096FF" stroke-width="1.75" stroke-linecap="round" stroke-linejoin="round"/>
<path d="M5.8335 25.667C7.7585 25.667 9.3335 24.092 9.3335 22.167V18.667H5.8335C3.9085 18.667 2.3335 20.242 2.3335 22.167C2.3335 24.092 3.9085 25.667 5.8335 25.667Z" stroke="#0096FF" stroke-width="1.75" stroke-linecap="round" stroke-linejoin="round"/>
<path d="M5.8335 9.33301H9.3335V5.83301C9.3335 3.90801 7.7585 2.33301 5.8335 2.33301C3.9085 2.33301 2.3335 3.90801 2.3335 5.83301C2.3335 7.75801 3.9085 9.33301 5.8335 9.33301Z" stroke="#0096FF" stroke-width="1.75" stroke-linecap="round" stroke-linejoin="round"/>
<path d="M18.6665 9.33301H22.1665C24.0915 9.33301 25.6665 7.75801 25.6665 5.83301C25.6665 3.90801 24.0915 2.33301 22.1665 2.33301C20.2415 2.33301 18.6665 3.90801 18.6665 5.83301V9.33301Z" stroke="#0096FF" stroke-width="1.75" stroke-linecap="round" stroke-linejoin="round"/>
<path d="M22.1665 25.667C24.0915 25.667 25.6665 24.092 25.6665 22.167C25.6665 20.242 24.0915 18.667 22.1665 18.667H18.6665V22.167C18.6665 24.092 20.2415 25.667 22.1665 25.667Z" stroke="#0096FF" stroke-width="1.75" stroke-linecap="round" stroke-linejoin="round"/>
</svg>
