<svg width="28" height="28" viewBox="0 0 28 28" fill="none" xmlns="http://www.w3.org/2000/svg">
<path d="M22.1666 18.6667V7.58333C22.1666 6.3 21.1166 5.25 19.8333 5.25H14.5833" stroke="#0096FF" stroke-width="1.75" stroke-linecap="round" stroke-linejoin="round"/>
<path d="M17.5 2.33301L14 5.24967L17.5 8.16634" stroke="#0096FF" stroke-width="1.75" stroke-linecap="round" stroke-linejoin="round"/>
<path d="M5.83325 10.5V18.6667" stroke="#0096FF" stroke-width="1.75" stroke-linecap="round" stroke-linejoin="round"/>
<path d="M6.12492 9.91634C8.219 9.91634 9.91659 8.21875 9.91659 6.12467C9.91659 4.03059 8.219 2.33301 6.12492 2.33301C4.03084 2.33301 2.33325 4.03059 2.33325 6.12467C2.33325 8.21875 4.03084 9.91634 6.12492 9.91634Z" stroke="#0096FF" stroke-width="1.75" stroke-linecap="round" stroke-linejoin="round"/>
<path d="M5.83325 25.667C7.76625 25.667 9.33325 24.1 9.33325 22.167C9.33325 20.234 7.76625 18.667 5.83325 18.667C3.90026 18.667 2.33325 20.234 2.33325 22.167C2.33325 24.1 3.90026 25.667 5.83325 25.667Z" stroke="#0096FF" stroke-width="1.75" stroke-linecap="round" stroke-linejoin="round"/>
<path d="M22.1667 25.667C24.0997 25.667 25.6667 24.1 25.6667 22.167C25.6667 20.234 24.0997 18.667 22.1667 18.667C20.2338 18.667 18.6667 20.234 18.6667 22.167C18.6667 24.1 20.2338 25.667 22.1667 25.667Z" stroke="#0096FF" stroke-width="1.75" stroke-linecap="round" stroke-linejoin="round"/>
</svg>
